M48
INCH,TZ
T1C0.0150
T2C0.0330
T3C0.0400
T4C0.1200
%
G90
G05
T1
X10118Y-44606
X10157Y-9803
X10827Y-17087
X10827Y-22677
X10827Y-28346
X10827Y-33937
X11142Y-17520
X11142Y-22953
X11142Y-28701
X11142Y-34331
X11299Y-37244
X12244Y-38189
X12323Y-27362
X12323Y-37244
X12362Y-28346
X12402Y-15157
X12402Y-20827
X12644Y-26489
X12644Y-32189
X12874Y-22008
X12894Y-17087
X12894Y-22638
X12894Y-33937
X13346Y-43307
X13583Y-13976
X13583Y-20406
X13622Y-26118
X13661Y-31818
X13744Y-38464
X14134Y-39213
X14144Y-40256
X14252Y-43868
X14291Y-44675
X14364Y-23794
X14370Y-15118
X14370Y-16260
X14370Y-17795
X14370Y-18189
X14370Y-19252
X14370Y-20866
X14370Y-23346
X14370Y-25000
X14370Y-34724
X14384Y-21874
X14384Y-33314
X14390Y-27618
X14390Y-29094
X14394Y-26494
X14394Y-32194
X14394Y-36614
X14404Y-35294
X14409Y-29567
X14409Y-30709
X14508Y-37807
X14636Y-39724
X15148Y-39469
X15226Y-43868
X15236Y-44675
X15630Y-38937
X15640Y-39980
X15894Y-34331
X15906Y-16339
X15906Y-17402
X15906Y-22008
X15906Y-22953
X15906Y-27756
X15906Y-28701
X15906Y-33425
X15915Y-43573
X16181Y-23307
X16181Y-34724
X16204Y-23714
X16204Y-35114
X16516Y-29035
X16519Y-37214
X16654Y-17835
X16713Y-40246
X16713Y-43691
X16732Y-29409
X16772Y-18150
X17018Y-41870
X17028Y-40020
X17126Y-43386
X17126Y-44055
X17862Y-37654
X17874Y-44075
X17994Y-38214
X18041Y-40010
X18248Y-43386
X18269Y-37214
X18346Y-27205
X18346Y-28346
X18386Y-32874
X18386Y-33937
X18465Y-15118
X18465Y-20787
X18622Y-22008
X18622Y-22638
X18644Y-26464
X18644Y-32189
X18780Y-42992
X18819Y-40197
X18894Y-17087
X19134Y-43543
X19644Y-38464
X19646Y-13976
X19646Y-26122
X19646Y-31818
X19685Y-20417
X19764Y-40197
X19764Y-41614
X19764Y-42402
X19890Y-37594
X19921Y-43543
X20144Y-39214
X20305Y-39980
X20384Y-32174
X20384Y-33354
X20394Y-16260
X20394Y-17717
X20394Y-18110
X20394Y-19291
X20394Y-21890
X20394Y-23386
X20394Y-23819
X20394Y-25000
X20394Y-27638
X20394Y-29134
X20394Y-29567
X20394Y-30709
X20394Y-34921
X20394Y-36811
X20394Y-15118
X20394Y-20774
X20404Y-26474
X20404Y-35254
X20541Y-42844
X20650Y-39715
X20890Y-37591
X21024Y-12933
X21024Y-40925
X21024Y-42411
X21043Y-42756
X21049Y-43681
X21142Y-12205
X21142Y-39469
X21535Y-13248
X21644Y-38937
X21890Y-16339
X21890Y-22008
X21890Y-27756
X21890Y-33465
X21890Y-34331
X21894Y-17402
X21894Y-22953
X21894Y-28701
X22008Y-13563
X22205Y-17717
X22205Y-43740
X22244Y-23425
X22244Y-34961
X22283Y-18071
X22283Y-23780
X22402Y-29173
X22480Y-29567
X22594Y-37214
X22598Y-13366
X22638Y-35079
X22835Y-44055
X22874Y-42441
X23110Y-13602
X23386Y-14094
X23461Y-42490
X23583Y-9370
X23780Y-41004
X23780Y-43642
X23858Y-11969
X23965Y-37854
X23984Y-37488
X24016Y-13445
X24213Y-32953
X24213Y-33937
X24244Y-37214
X24252Y-27126
X24252Y-28346
X24311Y-12972
X24331Y-14075
X24370Y-20827
X24370Y-26575
X24488Y-15118
X24644Y-32174
X24646Y-22008
X24646Y-22638
X24665Y-12953
X24894Y-17087
X24986Y-43632
X25000Y-41713
X25000Y-43012
X25236Y-12815
X25295Y-12480
X25364Y-39970
X25630Y-20417
X25630Y-31818
X25669Y-26118
X25709Y-9409
X25719Y-38464
X25744Y-14740
X25890Y-11695
X25890Y-12295
X25913Y-37630
X25961Y-42736
X25980Y-41152
X25986Y-43632
X26144Y-39214
X26364Y-33374
X26378Y-16220
X26378Y-17756
X26378Y-18150
X26378Y-19291
X26378Y-20866
X26378Y-21890
X26378Y-23346
X26378Y-23858
X26378Y-25000
X26378Y-30709
X26378Y-34843
X26384Y-29574
X26390Y-11695
X26390Y-12295
X26394Y-15118
X26394Y-26575
X26394Y-32234
X26394Y-36639
X26404Y-35274
X26407Y-44055
X26417Y-10748
X26417Y-27677
X26417Y-29134
X26496Y-41969
X26644Y-39724
X26799Y-37764
X26831Y-43622
X26890Y-10906
X26890Y-11695
X26890Y-12295
X27142Y-40640
X27146Y-39469
X27390Y-11695
X27390Y-12295
X27402Y-11063
X27638Y-38937
X27657Y-41142
X27874Y-33465
X27894Y-34331
X27913Y-16339
X27913Y-17402
X27913Y-22047
X27913Y-22953
X27913Y-27756
X27913Y-28701
X28189Y-17756
X28189Y-34803
X28204Y-29474
X28204Y-35174
X28228Y-23346
X28228Y-23740
X28346Y-18071
X28346Y-29134
X28390Y-12295
X28524Y-11476
X28544Y-37214
X28602Y-12736
X28661Y-14075
X28701Y-42795
X28890Y-11736
X29154Y-12777
X29213Y-14075
X29390Y-11736
X29390Y-12344
X29665Y-12797
X29764Y-14075
X29890Y-11736
X29921Y-12580
X29945Y-37909
X30154Y-41339
X30177Y-12817
X30197Y-37634
X30236Y-32953
X30236Y-33937
X30269Y-37214
X30315Y-14075
X30354Y-20827
X30390Y-11736
X30433Y-12580
X30433Y-15157
X30472Y-26536
X30630Y-22008
X30630Y-22638
X30644Y-32189
X30689Y-12797
X30709Y-27756
X30709Y-28346
X30734Y-42451
X30890Y-11736
X30906Y-17087
X30965Y-12580
X31201Y-12817
X31266Y-41319
X31390Y-11695
X31496Y-12559
X31614Y-26118
X31614Y-31811
X31654Y-20417
X31669Y-38464
X31677Y-14744
X31772Y-12835
X31890Y-11695
X31898Y-37606
X32008Y-12539
X32122Y-41319
X32144Y-39214
X32283Y-12835
X32362Y-19291
X32362Y-20827
X32362Y-34803
X32384Y-29554
X32384Y-33334
X32384Y-35274
X32390Y-11695
X32394Y-15118
X32394Y-26539
X32394Y-32239
X32394Y-36639
X32402Y-16220
X32402Y-17756
X32402Y-18110
X32402Y-21929
X32402Y-23386
X32402Y-25000
X32402Y-27638
X32402Y-29134
X32402Y-30709
X32404Y-23814
X32539Y-10157
X32539Y-12559
X32648Y-39724
X32795Y-12815
X32846Y-37665
X32890Y-11695
X32894Y-10157
X33051Y-12598
X33150Y-39469
X33346Y-12953
X33390Y-11695
X33563Y-12697
X33642Y-38937
X33858Y-12874
X33894Y-17402
X33894Y-22953
X33894Y-28701
X33898Y-16339
X33898Y-22008
X33898Y-27756
X33898Y-33465
X33898Y-34331
X34182Y-36602
X34184Y-23754
X34184Y-35194
X34204Y-29474
X34213Y-23386
X34213Y-34803
X34252Y-10945
X34252Y-11457
X34252Y-17795
X34370Y-29134
X34449Y-18110
X34519Y-37214
X34705Y-13720
X34764Y-10787
X34764Y-11457
X34843Y-43760
X34890Y-12295
X35236Y-14075
X35256Y-10610
X35256Y-11457
X35390Y-12295
X35394Y-43031
X35669Y-13780
X35890Y-11695
X35890Y-12295
X35929Y-37906
X36161Y-10472
X36177Y-37657
X36181Y-13917
X36220Y-32835
X36220Y-33937
X36269Y-37214
X36299Y-32323
X36378Y-15157
X36378Y-20827
X36644Y-26489
X36654Y-22008
X36654Y-22638
X36693Y-27756
X36693Y-28346
X36850Y-41496
X36890Y-11695
X36890Y-12295
X36890Y-17087
X37390Y-12295
X37638Y-20417
X37638Y-31818
X37677Y-13976
X37677Y-26118
X37694Y-38464
X37890Y-11695
X37890Y-12295
X37906Y-37602
X38150Y-39193
X38268Y-9646
X38384Y-33334
X38386Y-15157
X38386Y-16220
X38386Y-17795
X38386Y-18150
X38386Y-19291
X38386Y-21929
X38386Y-23386
X38386Y-23780
X38386Y-25000
X38386Y-27638
X38386Y-29094
X38386Y-29567
X38386Y-30709
X38386Y-34843
X38394Y-20799
X38394Y-26494
X38394Y-32189
X38394Y-36639
X38404Y-35274
X38642Y-39724
X38858Y-37626
X39144Y-39469
X39232Y-13917
X39252Y-12854
X39252Y-14350
X39636Y-38937
X39685Y-9646
X39882Y-17402
X39882Y-22008
X39882Y-22953
X39882Y-27756
X39882Y-28701
X39882Y-33465
X39882Y-34331
X39894Y-13968
X39921Y-16378
X40144Y-39214
X40184Y-35194
X40197Y-23425
X40197Y-34803
X40236Y-29094
X40276Y-17795
X40315Y-29488
X40394Y-23740
X40512Y-18150
X40581Y-15413
X40935Y-15039
X40945Y-12441
X40945Y-12795
X40961Y-14539
X41122Y-13996
X41969Y-44724
X42008Y-9567
T2
X24870Y-9635
X24870Y-10525
X38910Y-9635
X38910Y-10525
T3
X14213Y-41520
X14213Y-42520
X15213Y-41520
X15213Y-42520
X16213Y-41520
X16213Y-42520
X28740Y-40551
X29740Y-40551
X30740Y-40551
X31740Y-40551
X32740Y-40551
X33740Y-40551
T4
X11024Y-10630
X11024Y-43701
X40945Y-10630
X40945Y-43701
T0
M30
