%TF.GenerationSoftware,KiCad,Pcbnew,(5.1.9)-1*%
%TF.CreationDate,2021-10-28T09:05:10-04:00*%
%TF.ProjectId,40-channel-hv-switching-board,34302d63-6861-46e6-9e65-6c2d68762d73,3.1.1*%
%TF.SameCoordinates,Original*%
%TF.FileFunction,Paste,Bot*%
%TF.FilePolarity,Positive*%
%FSLAX46Y46*%
G04 Gerber Fmt 4.6, Leading zero omitted, Abs format (unit mm)*
G04 Created by KiCad (PCBNEW (5.1.9)-1) date 2021-10-28 09:05:10*
%MOMM*%
%LPD*%
G01*
G04 APERTURE LIST*
%ADD10R,1.524000X2.032000*%
%ADD11R,1.300000X0.700000*%
%ADD12R,3.749040X2.550160*%
%ADD13R,0.508000X1.143000*%
%ADD14R,1.000000X1.250000*%
%ADD15R,1.250000X1.000000*%
%ADD16R,0.700000X1.300000*%
%ADD17C,1.270000*%
G04 APERTURE END LIST*
D10*
%TO.C,CH27*%
X78471250Y-54288750D03*
X81011250Y-54288750D03*
X83551250Y-54288750D03*
X86091250Y-54288750D03*
X86091250Y-61908750D03*
X83551250Y-61908750D03*
X81011250Y-61908750D03*
X78471250Y-61908750D03*
%TD*%
D11*
%TO.C,R25*%
X67041250Y-49958750D03*
X67041250Y-51858750D03*
%TD*%
D12*
%TO.C,C2*%
X93600000Y-105399980D03*
X93600000Y-110800020D03*
%TD*%
D10*
%TO.C,CH1*%
X32751250Y-39908750D03*
X35291250Y-39908750D03*
X37831250Y-39908750D03*
X40371250Y-39908750D03*
X40371250Y-47528750D03*
X37831250Y-47528750D03*
X35291250Y-47528750D03*
X32751250Y-47528750D03*
%TD*%
%TO.C,CH3*%
X32751250Y-54288750D03*
X35291250Y-54288750D03*
X37831250Y-54288750D03*
X40371250Y-54288750D03*
X40371250Y-61908750D03*
X37831250Y-61908750D03*
X35291250Y-61908750D03*
X32751250Y-61908750D03*
%TD*%
%TO.C,CH5*%
X32751250Y-68868750D03*
X35291250Y-68868750D03*
X37831250Y-68868750D03*
X40371250Y-68868750D03*
X40371250Y-76488750D03*
X37831250Y-76488750D03*
X35291250Y-76488750D03*
X32751250Y-76488750D03*
%TD*%
%TO.C,CH7*%
X32751250Y-83348750D03*
X35291250Y-83348750D03*
X37831250Y-83348750D03*
X40371250Y-83348750D03*
X40371250Y-90968750D03*
X37831250Y-90968750D03*
X35291250Y-90968750D03*
X32751250Y-90968750D03*
%TD*%
%TO.C,CH9*%
X47991250Y-39908750D03*
X50531250Y-39908750D03*
X53071250Y-39908750D03*
X55611250Y-39908750D03*
X55611250Y-47528750D03*
X53071250Y-47528750D03*
X50531250Y-47528750D03*
X47991250Y-47528750D03*
%TD*%
%TO.C,CH11*%
X47991250Y-54288750D03*
X50531250Y-54288750D03*
X53071250Y-54288750D03*
X55611250Y-54288750D03*
X55611250Y-61908750D03*
X53071250Y-61908750D03*
X50531250Y-61908750D03*
X47991250Y-61908750D03*
%TD*%
%TO.C,CH13*%
X47991250Y-68868750D03*
X50531250Y-68868750D03*
X53071250Y-68868750D03*
X55611250Y-68868750D03*
X55611250Y-76488750D03*
X53071250Y-76488750D03*
X50531250Y-76488750D03*
X47991250Y-76488750D03*
%TD*%
%TO.C,CH15*%
X47991250Y-83348750D03*
X50531250Y-83348750D03*
X53071250Y-83348750D03*
X55611250Y-83348750D03*
X55611250Y-90968750D03*
X53071250Y-90968750D03*
X50531250Y-90968750D03*
X47991250Y-90968750D03*
%TD*%
%TO.C,CH17*%
X63231250Y-39908750D03*
X65771250Y-39908750D03*
X68311250Y-39908750D03*
X70851250Y-39908750D03*
X70851250Y-47528750D03*
X68311250Y-47528750D03*
X65771250Y-47528750D03*
X63231250Y-47528750D03*
%TD*%
%TO.C,CH19*%
X63231250Y-54288750D03*
X65771250Y-54288750D03*
X68311250Y-54288750D03*
X70851250Y-54288750D03*
X70851250Y-61908750D03*
X68311250Y-61908750D03*
X65771250Y-61908750D03*
X63231250Y-61908750D03*
%TD*%
%TO.C,CH21*%
X63231250Y-68868750D03*
X65771250Y-68868750D03*
X68311250Y-68868750D03*
X70851250Y-68868750D03*
X70851250Y-76488750D03*
X68311250Y-76488750D03*
X65771250Y-76488750D03*
X63231250Y-76488750D03*
%TD*%
%TO.C,CH23*%
X63231250Y-83348750D03*
X65771250Y-83348750D03*
X68311250Y-83348750D03*
X70851250Y-83348750D03*
X70851250Y-90968750D03*
X68311250Y-90968750D03*
X65771250Y-90968750D03*
X63231250Y-90968750D03*
%TD*%
%TO.C,CH25*%
X78471250Y-39908750D03*
X81011250Y-39908750D03*
X83551250Y-39908750D03*
X86091250Y-39908750D03*
X86091250Y-47528750D03*
X83551250Y-47528750D03*
X81011250Y-47528750D03*
X78471250Y-47528750D03*
%TD*%
%TO.C,CH29*%
X78471250Y-68868750D03*
X81011250Y-68868750D03*
X83551250Y-68868750D03*
X86091250Y-68868750D03*
X86091250Y-76488750D03*
X83551250Y-76488750D03*
X81011250Y-76488750D03*
X78471250Y-76488750D03*
%TD*%
%TO.C,CH31*%
X78471250Y-83348750D03*
X81011250Y-83348750D03*
X83551250Y-83348750D03*
X86091250Y-83348750D03*
X86091250Y-90968750D03*
X83551250Y-90968750D03*
X81011250Y-90968750D03*
X78471250Y-90968750D03*
%TD*%
%TO.C,CH33*%
X93711250Y-39908750D03*
X96251250Y-39908750D03*
X98791250Y-39908750D03*
X101331250Y-39908750D03*
X101331250Y-47528750D03*
X98791250Y-47528750D03*
X96251250Y-47528750D03*
X93711250Y-47528750D03*
%TD*%
%TO.C,CH35*%
X93711250Y-54288750D03*
X96251250Y-54288750D03*
X98791250Y-54288750D03*
X101331250Y-54288750D03*
X101331250Y-61908750D03*
X98791250Y-61908750D03*
X96251250Y-61908750D03*
X93711250Y-61908750D03*
%TD*%
%TO.C,CH37*%
X93711250Y-68868750D03*
X96251250Y-68868750D03*
X98791250Y-68868750D03*
X101331250Y-68868750D03*
X101331250Y-76488750D03*
X98791250Y-76488750D03*
X96251250Y-76488750D03*
X93711250Y-76488750D03*
%TD*%
%TO.C,CH39*%
X93711250Y-83348750D03*
X96251250Y-83348750D03*
X98791250Y-83348750D03*
X101331250Y-83348750D03*
X101331250Y-90968750D03*
X98791250Y-90968750D03*
X96251250Y-90968750D03*
X93711250Y-90968750D03*
%TD*%
D13*
%TO.C,U1*%
X32116250Y-94651750D03*
X33386250Y-94651750D03*
X34656250Y-94651750D03*
X35926250Y-94651750D03*
X37196250Y-94651750D03*
X38466250Y-94651750D03*
X39736250Y-94651750D03*
X41006250Y-94651750D03*
X41006250Y-99731750D03*
X39736250Y-99731750D03*
X38466250Y-99731750D03*
X37196250Y-99731750D03*
X35926250Y-99731750D03*
X34656250Y-99731750D03*
X33386250Y-99731750D03*
X32116250Y-99731750D03*
%TD*%
%TO.C,U2*%
X47356250Y-94524750D03*
X48626250Y-94524750D03*
X49896250Y-94524750D03*
X51166250Y-94524750D03*
X52436250Y-94524750D03*
X53706250Y-94524750D03*
X54976250Y-94524750D03*
X56246250Y-94524750D03*
X56246250Y-99604750D03*
X54976250Y-99604750D03*
X53706250Y-99604750D03*
X52436250Y-99604750D03*
X51166250Y-99604750D03*
X49896250Y-99604750D03*
X48626250Y-99604750D03*
X47356250Y-99604750D03*
%TD*%
%TO.C,U3*%
X62596250Y-94524750D03*
X63866250Y-94524750D03*
X65136250Y-94524750D03*
X66406250Y-94524750D03*
X67676250Y-94524750D03*
X68946250Y-94524750D03*
X70216250Y-94524750D03*
X71486250Y-94524750D03*
X71486250Y-99604750D03*
X70216250Y-99604750D03*
X68946250Y-99604750D03*
X67676250Y-99604750D03*
X66406250Y-99604750D03*
X65136250Y-99604750D03*
X63866250Y-99604750D03*
X62596250Y-99604750D03*
%TD*%
%TO.C,U4*%
X77836250Y-94524750D03*
X79106250Y-94524750D03*
X80376250Y-94524750D03*
X81646250Y-94524750D03*
X82916250Y-94524750D03*
X84186250Y-94524750D03*
X85456250Y-94524750D03*
X86726250Y-94524750D03*
X86726250Y-99604750D03*
X85456250Y-99604750D03*
X84186250Y-99604750D03*
X82916250Y-99604750D03*
X81646250Y-99604750D03*
X80376250Y-99604750D03*
X79106250Y-99604750D03*
X77836250Y-99604750D03*
%TD*%
%TO.C,U5*%
X93076250Y-94524750D03*
X94346250Y-94524750D03*
X95616250Y-94524750D03*
X96886250Y-94524750D03*
X98156250Y-94524750D03*
X99426250Y-94524750D03*
X100696250Y-94524750D03*
X101966250Y-94524750D03*
X101966250Y-99604750D03*
X100696250Y-99604750D03*
X99426250Y-99604750D03*
X98156250Y-99604750D03*
X96886250Y-99604750D03*
X95616250Y-99604750D03*
X94346250Y-99604750D03*
X93076250Y-99604750D03*
%TD*%
D14*
%TO.C,C1*%
X30300000Y-99800000D03*
X28300000Y-99800000D03*
%TD*%
%TO.C,C5*%
X75900000Y-99600000D03*
X73900000Y-99600000D03*
%TD*%
%TO.C,C8*%
X45600000Y-99500000D03*
X43600000Y-99500000D03*
%TD*%
%TO.C,C9*%
X91200000Y-99700000D03*
X89200000Y-99700000D03*
%TD*%
%TO.C,C12*%
X60700000Y-99600000D03*
X58700000Y-99600000D03*
%TD*%
D15*
%TO.C,C13*%
X50200000Y-107700000D03*
X50200000Y-105700000D03*
%TD*%
D11*
%TO.C,R1*%
X36461250Y-49931750D03*
X36461250Y-51831750D03*
%TD*%
%TO.C,R6*%
X36561250Y-64438750D03*
X36561250Y-66338750D03*
%TD*%
%TO.C,R13*%
X51801250Y-49958750D03*
X51801250Y-51858750D03*
%TD*%
%TO.C,R18*%
X51801250Y-64438750D03*
X51801250Y-66338750D03*
%TD*%
%TO.C,R30*%
X67041250Y-64438750D03*
X67041250Y-66338750D03*
%TD*%
%TO.C,R37*%
X82281250Y-49958750D03*
X82281250Y-51858750D03*
%TD*%
%TO.C,R42*%
X82281250Y-64438750D03*
X82281250Y-66338750D03*
%TD*%
%TO.C,R45*%
X88500000Y-109250000D03*
X88500000Y-111150000D03*
%TD*%
%TO.C,R51*%
X97521250Y-49958750D03*
X97521250Y-51858750D03*
%TD*%
%TO.C,R56*%
X97521250Y-64438750D03*
X97521250Y-66338750D03*
%TD*%
%TO.C,R63*%
X32751250Y-37378750D03*
X32751250Y-35478750D03*
%TD*%
%TO.C,R64*%
X36561250Y-35478750D03*
X36561250Y-37378750D03*
%TD*%
%TO.C,R65*%
X32651250Y-51831750D03*
X32651250Y-49931750D03*
%TD*%
%TO.C,R66*%
X32751250Y-66338750D03*
X32751250Y-64438750D03*
%TD*%
%TO.C,R67*%
X32751250Y-80818750D03*
X32751250Y-78918750D03*
%TD*%
%TO.C,R68*%
X36561250Y-78918750D03*
X36561250Y-80818750D03*
%TD*%
%TO.C,R69*%
X40371250Y-35478750D03*
X40371250Y-37378750D03*
%TD*%
%TO.C,R71*%
X40371250Y-49931750D03*
X40371250Y-51831750D03*
%TD*%
%TO.C,R72*%
X40371250Y-64438750D03*
X40371250Y-66338750D03*
%TD*%
%TO.C,R73*%
X40371250Y-78918750D03*
X40371250Y-80818750D03*
%TD*%
%TO.C,R75*%
X51801250Y-35478750D03*
X51801250Y-37378750D03*
%TD*%
%TO.C,R76*%
X47991250Y-37378750D03*
X47991250Y-35478750D03*
%TD*%
%TO.C,R77*%
X47991250Y-51858750D03*
X47991250Y-49958750D03*
%TD*%
%TO.C,R78*%
X47991250Y-66338750D03*
X47991250Y-64438750D03*
%TD*%
%TO.C,R79*%
X47991250Y-80818750D03*
X47991250Y-78918750D03*
%TD*%
%TO.C,R80*%
X51801250Y-78918750D03*
X51801250Y-80818750D03*
%TD*%
%TO.C,R82*%
X55611250Y-35478750D03*
X55611250Y-37378750D03*
%TD*%
%TO.C,R83*%
X55611250Y-49958750D03*
X55611250Y-51858750D03*
%TD*%
%TO.C,R84*%
X55611250Y-64438750D03*
X55611250Y-66338750D03*
%TD*%
%TO.C,R85*%
X55611250Y-78918750D03*
X55611250Y-80818750D03*
%TD*%
%TO.C,R87*%
X67041250Y-35478750D03*
X67041250Y-37378750D03*
%TD*%
%TO.C,R88*%
X63231250Y-37378750D03*
X63231250Y-35478750D03*
%TD*%
%TO.C,R89*%
X63231250Y-51858750D03*
X63231250Y-49958750D03*
%TD*%
%TO.C,R90*%
X63231250Y-66338750D03*
X63231250Y-64438750D03*
%TD*%
%TO.C,R91*%
X63231250Y-80818750D03*
X63231250Y-78918750D03*
%TD*%
%TO.C,R92*%
X67041250Y-78918750D03*
X67041250Y-80818750D03*
%TD*%
%TO.C,R94*%
X70851250Y-35478750D03*
X70851250Y-37378750D03*
%TD*%
%TO.C,R95*%
X70851250Y-49958750D03*
X70851250Y-51858750D03*
%TD*%
%TO.C,R96*%
X70851250Y-64438750D03*
X70851250Y-66338750D03*
%TD*%
%TO.C,R97*%
X70851250Y-78918750D03*
X70851250Y-80818750D03*
%TD*%
%TO.C,R101*%
X82281250Y-35478750D03*
X82281250Y-37378750D03*
%TD*%
%TO.C,R102*%
X78471250Y-37378750D03*
X78471250Y-35478750D03*
%TD*%
%TO.C,R103*%
X78471250Y-51858750D03*
X78471250Y-49958750D03*
%TD*%
%TO.C,R104*%
X78471250Y-66338750D03*
X78471250Y-64438750D03*
%TD*%
%TO.C,R105*%
X78471250Y-80818750D03*
X78471250Y-78918750D03*
%TD*%
%TO.C,R106*%
X82281250Y-78918750D03*
X82281250Y-80818750D03*
%TD*%
%TO.C,R108*%
X86091250Y-35478750D03*
X86091250Y-37378750D03*
%TD*%
%TO.C,R109*%
X86091250Y-49958750D03*
X86091250Y-51858750D03*
%TD*%
%TO.C,R110*%
X86091250Y-64438750D03*
X86091250Y-66338750D03*
%TD*%
%TO.C,R111*%
X86091250Y-78918750D03*
X86091250Y-80818750D03*
%TD*%
%TO.C,R113*%
X93711250Y-37378750D03*
X93711250Y-35478750D03*
%TD*%
%TO.C,R114*%
X97521250Y-35478750D03*
X97521250Y-37378750D03*
%TD*%
%TO.C,R115*%
X93711250Y-51858750D03*
X93711250Y-49958750D03*
%TD*%
%TO.C,R116*%
X93711250Y-66338750D03*
X93711250Y-64438750D03*
%TD*%
%TO.C,R117*%
X93711250Y-80818750D03*
X93711250Y-78918750D03*
%TD*%
%TO.C,R118*%
X97521250Y-78918750D03*
X97521250Y-80818750D03*
%TD*%
%TO.C,R119*%
X101331250Y-35478750D03*
X101331250Y-37378750D03*
%TD*%
%TO.C,R121*%
X101331250Y-49958750D03*
X101331250Y-51858750D03*
%TD*%
%TO.C,R122*%
X101331250Y-64438750D03*
X101331250Y-66338750D03*
%TD*%
%TO.C,R123*%
X101331250Y-78918750D03*
X101331250Y-80818750D03*
%TD*%
D14*
%TO.C,C11*%
X50600000Y-110600000D03*
X48600000Y-110600000D03*
%TD*%
%TO.C,C14*%
X33725000Y-111400000D03*
X35725000Y-111400000D03*
%TD*%
%TO.C,C15*%
X33725000Y-113475000D03*
X35725000Y-113475000D03*
%TD*%
D16*
%TO.C,FB1*%
X45400000Y-110200000D03*
X43500000Y-110200000D03*
%TD*%
%TO.C,FB3*%
X45400000Y-111900000D03*
X43500000Y-111900000D03*
%TD*%
D17*
%TO.C,P7*%
X98830800Y-24473200D03*
X63169200Y-24473200D03*
X98830800Y-26733800D03*
X63169200Y-26733800D03*
%TD*%
D16*
%TO.C,FB4*%
X63475000Y-110950000D03*
X61575000Y-110950000D03*
%TD*%
D11*
%TO.C,FB5*%
X59500000Y-24950000D03*
X59500000Y-26850000D03*
%TD*%
D15*
%TO.C,C16*%
X57400000Y-27000000D03*
X57400000Y-25000000D03*
%TD*%
M02*
