%TF.GenerationSoftware,KiCad,Pcbnew,(5.1.9)-1*%
%TF.CreationDate,2021-10-26T13:24:10-04:00*%
%TF.ProjectId,40-channel HV switching board,34302d63-6861-46e6-9e65-6c2048562073,3.1.1*%
%TF.SameCoordinates,Original*%
%TF.FileFunction,Paste,Top*%
%TF.FilePolarity,Positive*%
%FSLAX46Y46*%
G04 Gerber Fmt 4.6, Leading zero omitted, Abs format (unit mm)*
G04 Created by KiCad (PCBNEW (5.1.9)-1) date 2021-10-26 13:24:10*
%MOMM*%
%LPD*%
G01*
G04 APERTURE LIST*
%ADD10R,3.749040X2.550160*%
%ADD11R,1.524000X2.032000*%
%ADD12R,1.250000X1.000000*%
%ADD13R,1.198880X1.198880*%
%ADD14R,0.550000X1.600000*%
%ADD15R,1.600000X0.550000*%
%ADD16R,1.300000X0.700000*%
%ADD17R,0.700000X1.300000*%
%ADD18R,0.400000X1.300000*%
%ADD19R,0.508000X1.143000*%
%ADD20R,0.736600X1.143000*%
%ADD21C,1.270000*%
G04 APERTURE END LIST*
D10*
%TO.C,C4*%
X93600000Y-105399980D03*
X93600000Y-110800020D03*
%TD*%
D11*
%TO.C,CH0*%
X32751250Y-47528750D03*
X35291250Y-47528750D03*
X37831250Y-47528750D03*
X40371250Y-47528750D03*
X40371250Y-39908750D03*
X37831250Y-39908750D03*
X35291250Y-39908750D03*
X32751250Y-39908750D03*
%TD*%
%TO.C,CH2*%
X32751250Y-61908750D03*
X35291250Y-61908750D03*
X37831250Y-61908750D03*
X40371250Y-61908750D03*
X40371250Y-54288750D03*
X37831250Y-54288750D03*
X35291250Y-54288750D03*
X32751250Y-54288750D03*
%TD*%
%TO.C,CH4*%
X32751250Y-76488750D03*
X35291250Y-76488750D03*
X37831250Y-76488750D03*
X40371250Y-76488750D03*
X40371250Y-68868750D03*
X37831250Y-68868750D03*
X35291250Y-68868750D03*
X32751250Y-68868750D03*
%TD*%
%TO.C,CH6*%
X32751250Y-90968750D03*
X35291250Y-90968750D03*
X37831250Y-90968750D03*
X40371250Y-90968750D03*
X40371250Y-83348750D03*
X37831250Y-83348750D03*
X35291250Y-83348750D03*
X32751250Y-83348750D03*
%TD*%
%TO.C,CH8*%
X47991250Y-47528750D03*
X50531250Y-47528750D03*
X53071250Y-47528750D03*
X55611250Y-47528750D03*
X55611250Y-39908750D03*
X53071250Y-39908750D03*
X50531250Y-39908750D03*
X47991250Y-39908750D03*
%TD*%
%TO.C,CH10*%
X47991250Y-61908750D03*
X50531250Y-61908750D03*
X53071250Y-61908750D03*
X55611250Y-61908750D03*
X55611250Y-54288750D03*
X53071250Y-54288750D03*
X50531250Y-54288750D03*
X47991250Y-54288750D03*
%TD*%
%TO.C,CH12*%
X47991250Y-76488750D03*
X50531250Y-76488750D03*
X53071250Y-76488750D03*
X55611250Y-76488750D03*
X55611250Y-68868750D03*
X53071250Y-68868750D03*
X50531250Y-68868750D03*
X47991250Y-68868750D03*
%TD*%
%TO.C,CH14*%
X47991250Y-90968750D03*
X50531250Y-90968750D03*
X53071250Y-90968750D03*
X55611250Y-90968750D03*
X55611250Y-83348750D03*
X53071250Y-83348750D03*
X50531250Y-83348750D03*
X47991250Y-83348750D03*
%TD*%
%TO.C,CH16*%
X63231250Y-47528750D03*
X65771250Y-47528750D03*
X68311250Y-47528750D03*
X70851250Y-47528750D03*
X70851250Y-39908750D03*
X68311250Y-39908750D03*
X65771250Y-39908750D03*
X63231250Y-39908750D03*
%TD*%
%TO.C,CH18*%
X63231250Y-61908750D03*
X65771250Y-61908750D03*
X68311250Y-61908750D03*
X70851250Y-61908750D03*
X70851250Y-54288750D03*
X68311250Y-54288750D03*
X65771250Y-54288750D03*
X63231250Y-54288750D03*
%TD*%
%TO.C,CH20*%
X63231250Y-76488750D03*
X65771250Y-76488750D03*
X68311250Y-76488750D03*
X70851250Y-76488750D03*
X70851250Y-68868750D03*
X68311250Y-68868750D03*
X65771250Y-68868750D03*
X63231250Y-68868750D03*
%TD*%
%TO.C,CH22*%
X63231250Y-90968750D03*
X65771250Y-90968750D03*
X68311250Y-90968750D03*
X70851250Y-90968750D03*
X70851250Y-83348750D03*
X68311250Y-83348750D03*
X65771250Y-83348750D03*
X63231250Y-83348750D03*
%TD*%
%TO.C,CH24*%
X78471250Y-47528750D03*
X81011250Y-47528750D03*
X83551250Y-47528750D03*
X86091250Y-47528750D03*
X86091250Y-39908750D03*
X83551250Y-39908750D03*
X81011250Y-39908750D03*
X78471250Y-39908750D03*
%TD*%
%TO.C,CH26*%
X78471250Y-61908750D03*
X81011250Y-61908750D03*
X83551250Y-61908750D03*
X86091250Y-61908750D03*
X86091250Y-54288750D03*
X83551250Y-54288750D03*
X81011250Y-54288750D03*
X78471250Y-54288750D03*
%TD*%
%TO.C,CH28*%
X78471250Y-76488750D03*
X81011250Y-76488750D03*
X83551250Y-76488750D03*
X86091250Y-76488750D03*
X86091250Y-68868750D03*
X83551250Y-68868750D03*
X81011250Y-68868750D03*
X78471250Y-68868750D03*
%TD*%
%TO.C,CH30*%
X78471250Y-90968750D03*
X81011250Y-90968750D03*
X83551250Y-90968750D03*
X86091250Y-90968750D03*
X86091250Y-83348750D03*
X83551250Y-83348750D03*
X81011250Y-83348750D03*
X78471250Y-83348750D03*
%TD*%
%TO.C,CH32*%
X93711250Y-47528750D03*
X96251250Y-47528750D03*
X98791250Y-47528750D03*
X101331250Y-47528750D03*
X101331250Y-39908750D03*
X98791250Y-39908750D03*
X96251250Y-39908750D03*
X93711250Y-39908750D03*
%TD*%
%TO.C,CH34*%
X93711250Y-61908750D03*
X96251250Y-61908750D03*
X98791250Y-61908750D03*
X101331250Y-61908750D03*
X101331250Y-54288750D03*
X98791250Y-54288750D03*
X96251250Y-54288750D03*
X93711250Y-54288750D03*
%TD*%
%TO.C,CH36*%
X93711250Y-76488750D03*
X96251250Y-76488750D03*
X98791250Y-76488750D03*
X101331250Y-76488750D03*
X101331250Y-68868750D03*
X98791250Y-68868750D03*
X96251250Y-68868750D03*
X93711250Y-68868750D03*
%TD*%
%TO.C,CH38*%
X93711250Y-90968750D03*
X96251250Y-90968750D03*
X98791250Y-90968750D03*
X101331250Y-90968750D03*
X101331250Y-83348750D03*
X98791250Y-83348750D03*
X96251250Y-83348750D03*
X93711250Y-83348750D03*
%TD*%
D12*
%TO.C,C3*%
X68400000Y-108600000D03*
X68400000Y-106600000D03*
%TD*%
%TO.C,C6*%
X90400000Y-104600000D03*
X90400000Y-106600000D03*
%TD*%
%TO.C,C7*%
X88500000Y-104600000D03*
X88500000Y-106600000D03*
%TD*%
D13*
%TO.C,DS1*%
X88500000Y-111249020D03*
X88500000Y-109150980D03*
%TD*%
D14*
%TO.C,U7*%
X53400000Y-103950000D03*
X52600000Y-103950000D03*
X51800000Y-103950000D03*
X51000000Y-103950000D03*
X50200000Y-103950000D03*
X49400000Y-103950000D03*
X48600000Y-103950000D03*
X47800000Y-103950000D03*
D15*
X46350000Y-105400000D03*
X46350000Y-106200000D03*
X46350000Y-107000000D03*
X46350000Y-107800000D03*
X46350000Y-108600000D03*
X46350000Y-109400000D03*
X46350000Y-110200000D03*
X46350000Y-111000000D03*
D14*
X47800000Y-112450000D03*
X48600000Y-112450000D03*
X49400000Y-112450000D03*
X50200000Y-112450000D03*
X51000000Y-112450000D03*
X51800000Y-112450000D03*
X52600000Y-112450000D03*
X53400000Y-112450000D03*
D15*
X54850000Y-111000000D03*
X54850000Y-110200000D03*
X54850000Y-109400000D03*
X54850000Y-108600000D03*
X54850000Y-107800000D03*
X54850000Y-107000000D03*
X54850000Y-106200000D03*
X54850000Y-105400000D03*
%TD*%
D16*
%TO.C,R2*%
X32751250Y-95098750D03*
X32751250Y-96998750D03*
%TD*%
%TO.C,R3*%
X32751250Y-78918750D03*
X32751250Y-80818750D03*
%TD*%
%TO.C,R4*%
X32751250Y-64438750D03*
X32751250Y-66338750D03*
%TD*%
%TO.C,R5*%
X32651250Y-49931750D03*
X32651250Y-51831750D03*
%TD*%
%TO.C,R7*%
X36561250Y-96998750D03*
X36561250Y-95098750D03*
%TD*%
%TO.C,R8*%
X40371250Y-96998750D03*
X40371250Y-95098750D03*
%TD*%
%TO.C,R9*%
X40371250Y-80818750D03*
X40371250Y-78918750D03*
%TD*%
%TO.C,R10*%
X40371250Y-66338750D03*
X40371250Y-64438750D03*
%TD*%
%TO.C,R11*%
X40371250Y-51831750D03*
X40371250Y-49931750D03*
%TD*%
%TO.C,R12*%
X36461250Y-51831750D03*
X36461250Y-49931750D03*
%TD*%
%TO.C,R14*%
X47991250Y-95098750D03*
X47991250Y-96998750D03*
%TD*%
%TO.C,R15*%
X47991250Y-78918750D03*
X47991250Y-80818750D03*
%TD*%
%TO.C,R16*%
X47991250Y-64438750D03*
X47991250Y-66338750D03*
%TD*%
%TO.C,R17*%
X47991250Y-49958750D03*
X47991250Y-51858750D03*
%TD*%
%TO.C,R19*%
X51801250Y-96998750D03*
X51801250Y-95098750D03*
%TD*%
%TO.C,R20*%
X55611250Y-96998750D03*
X55611250Y-95098750D03*
%TD*%
%TO.C,R21*%
X55611250Y-80818750D03*
X55611250Y-78918750D03*
%TD*%
%TO.C,R22*%
X55611250Y-66338750D03*
X55611250Y-64438750D03*
%TD*%
%TO.C,R23*%
X55611250Y-51858750D03*
X55611250Y-49958750D03*
%TD*%
%TO.C,R24*%
X51801250Y-51858750D03*
X51801250Y-49958750D03*
%TD*%
%TO.C,R26*%
X63231250Y-95098750D03*
X63231250Y-96998750D03*
%TD*%
%TO.C,R27*%
X63231250Y-78918750D03*
X63231250Y-80818750D03*
%TD*%
%TO.C,R28*%
X63231250Y-64438750D03*
X63231250Y-66338750D03*
%TD*%
%TO.C,R29*%
X63231250Y-49958750D03*
X63231250Y-51858750D03*
%TD*%
%TO.C,R31*%
X67041250Y-96998750D03*
X67041250Y-95098750D03*
%TD*%
%TO.C,R32*%
X70851250Y-96998750D03*
X70851250Y-95098750D03*
%TD*%
%TO.C,R33*%
X70851250Y-80818750D03*
X70851250Y-78918750D03*
%TD*%
%TO.C,R34*%
X70851250Y-66338750D03*
X70851250Y-64438750D03*
%TD*%
%TO.C,R35*%
X70851250Y-51858750D03*
X70851250Y-49958750D03*
%TD*%
%TO.C,R36*%
X67041250Y-51858750D03*
X67041250Y-49958750D03*
%TD*%
%TO.C,R38*%
X78471250Y-95098750D03*
X78471250Y-96998750D03*
%TD*%
%TO.C,R39*%
X78471250Y-78918750D03*
X78471250Y-80818750D03*
%TD*%
%TO.C,R40*%
X78471250Y-64438750D03*
X78471250Y-66338750D03*
%TD*%
%TO.C,R41*%
X78471250Y-49958750D03*
X78471250Y-51858750D03*
%TD*%
D17*
%TO.C,R43*%
X68350000Y-104500000D03*
X70250000Y-104500000D03*
%TD*%
D16*
%TO.C,R44*%
X82281250Y-96998750D03*
X82281250Y-95098750D03*
%TD*%
%TO.C,R46*%
X86091250Y-96998750D03*
X86091250Y-95098750D03*
%TD*%
%TO.C,R47*%
X86091250Y-80818750D03*
X86091250Y-78918750D03*
%TD*%
%TO.C,R48*%
X86091250Y-66338750D03*
X86091250Y-64438750D03*
%TD*%
%TO.C,R49*%
X86091250Y-51858750D03*
X86091250Y-49958750D03*
%TD*%
%TO.C,R50*%
X82281250Y-51858750D03*
X82281250Y-49958750D03*
%TD*%
%TO.C,R52*%
X93711250Y-95098750D03*
X93711250Y-96998750D03*
%TD*%
%TO.C,R53*%
X93711250Y-78918750D03*
X93711250Y-80818750D03*
%TD*%
%TO.C,R54*%
X93711250Y-64438750D03*
X93711250Y-66338750D03*
%TD*%
%TO.C,R55*%
X93711250Y-49958750D03*
X93711250Y-51858750D03*
%TD*%
%TO.C,R57*%
X97521250Y-96998750D03*
X97521250Y-95098750D03*
%TD*%
%TO.C,R58*%
X101331250Y-96998750D03*
X101331250Y-95098750D03*
%TD*%
%TO.C,R59*%
X101331250Y-80818750D03*
X101331250Y-78918750D03*
%TD*%
%TO.C,R60*%
X101331250Y-66338750D03*
X101331250Y-64438750D03*
%TD*%
%TO.C,R61*%
X101331250Y-51858750D03*
X101331250Y-49958750D03*
%TD*%
%TO.C,R62*%
X97521250Y-51858750D03*
X97521250Y-49958750D03*
%TD*%
%TO.C,R70*%
X36561250Y-80818750D03*
X36561250Y-78918750D03*
%TD*%
%TO.C,R74*%
X36561250Y-66338750D03*
X36561250Y-64438750D03*
%TD*%
%TO.C,R81*%
X51801250Y-80818750D03*
X51801250Y-78918750D03*
%TD*%
%TO.C,R86*%
X51800000Y-66350000D03*
X51800000Y-64450000D03*
%TD*%
%TO.C,R93*%
X67041250Y-80818750D03*
X67041250Y-78918750D03*
%TD*%
%TO.C,R98*%
X67041250Y-66338750D03*
X67041250Y-64438750D03*
%TD*%
%TO.C,R107*%
X82281250Y-80818750D03*
X82281250Y-78918750D03*
%TD*%
%TO.C,R112*%
X82281250Y-66338750D03*
X82281250Y-64438750D03*
%TD*%
%TO.C,R120*%
X97521250Y-80818750D03*
X97521250Y-78918750D03*
%TD*%
%TO.C,R124*%
X97521250Y-66338750D03*
X97521250Y-64438750D03*
%TD*%
D18*
%TO.C,Y1*%
X49000000Y-102200000D03*
X46600000Y-102200000D03*
X47800000Y-102200000D03*
%TD*%
D12*
%TO.C,C10*%
X60300000Y-105950000D03*
X60300000Y-107950000D03*
%TD*%
D19*
%TO.C,U6*%
X62195000Y-104475000D03*
X63465000Y-104475000D03*
X64735000Y-104475000D03*
X66005000Y-104475000D03*
X66005000Y-110825000D03*
X64735000Y-110825000D03*
X63465000Y-110825000D03*
X62195000Y-110825000D03*
%TD*%
D17*
%TO.C,JP1*%
X70050000Y-110800000D03*
X68150000Y-110800000D03*
%TD*%
%TO.C,R99*%
X36775000Y-111425000D03*
X38675000Y-111425000D03*
%TD*%
%TO.C,R100*%
X36800000Y-113475000D03*
X38700000Y-113475000D03*
%TD*%
%TO.C,R125*%
X33775000Y-111425000D03*
X35675000Y-111425000D03*
%TD*%
%TO.C,R126*%
X33775000Y-113475000D03*
X35675000Y-113475000D03*
%TD*%
D20*
%TO.C,P7*%
X96240000Y-29705600D03*
X96240000Y-31229600D03*
X94970000Y-29705600D03*
X94970000Y-31229600D03*
X93700000Y-29705600D03*
X93700000Y-31229600D03*
X92430000Y-29705600D03*
X92430000Y-31229600D03*
X91160000Y-29705600D03*
X91160000Y-31229600D03*
X89890000Y-29705600D03*
X89890000Y-31229600D03*
X88620000Y-29705600D03*
X88620000Y-31229600D03*
X87350000Y-29705600D03*
X87350000Y-31229600D03*
X86080000Y-29705600D03*
X86080000Y-31229600D03*
X84810000Y-29705600D03*
X84810000Y-31229600D03*
X83540000Y-29705600D03*
X83540000Y-31229600D03*
X82270000Y-29705600D03*
X82270000Y-31229600D03*
X81000000Y-29705600D03*
X81000000Y-31229600D03*
X79730000Y-29705600D03*
X79730000Y-31229600D03*
X78460000Y-29705600D03*
X78460000Y-31229600D03*
X77190000Y-29705600D03*
X77190000Y-31229600D03*
X75920000Y-29705600D03*
X75920000Y-31229600D03*
X74650000Y-29705600D03*
X74650000Y-31229600D03*
X73380000Y-29705600D03*
X73380000Y-31229600D03*
X72110000Y-29705600D03*
X72110000Y-31229600D03*
X70840000Y-29705600D03*
X70840000Y-31229600D03*
X69570000Y-29705600D03*
X69570000Y-31229600D03*
X68300000Y-29705600D03*
X68300000Y-31229600D03*
X67030000Y-29705600D03*
X67030000Y-31229600D03*
X65760000Y-29705600D03*
X65760000Y-31229600D03*
D21*
X98830800Y-24473200D03*
X63169200Y-24473200D03*
X98830800Y-26733800D03*
X63169200Y-26733800D03*
%TD*%
D16*
%TO.C,FB2*%
X103250000Y-99625000D03*
X103250000Y-101525000D03*
%TD*%
M02*
