%TF.GenerationSoftware,KiCad,Pcbnew,(5.1.9)-1*%
%TF.CreationDate,2021-10-26T13:24:10-04:00*%
%TF.ProjectId,40-channel HV switching board,34302d63-6861-46e6-9e65-6c2048562073,3.1.1*%
%TF.SameCoordinates,Original*%
%TF.FileFunction,Soldermask,Bot*%
%TF.FilePolarity,Negative*%
%FSLAX46Y46*%
G04 Gerber Fmt 4.6, Leading zero omitted, Abs format (unit mm)*
G04 Created by KiCad (PCBNEW (5.1.9)-1) date 2021-10-26 13:24:10*
%MOMM*%
%LPD*%
G01*
G04 APERTURE LIST*
%ADD10O,2.235200X2.540000*%
%ADD11O,2.235200X2.235200*%
%ADD12C,4.572000*%
%ADD13C,1.778000*%
G04 APERTURE END LIST*
%TO.C,CH27*%
G36*
G01*
X77455250Y-55304750D02*
X77455250Y-53272750D01*
G75*
G02*
X77709250Y-53018750I254000J0D01*
G01*
X79233250Y-53018750D01*
G75*
G02*
X79487250Y-53272750I0J-254000D01*
G01*
X79487250Y-55304750D01*
G75*
G02*
X79233250Y-55558750I-254000J0D01*
G01*
X77709250Y-55558750D01*
G75*
G02*
X77455250Y-55304750I0J254000D01*
G01*
G37*
G36*
G01*
X79995250Y-55304750D02*
X79995250Y-53272750D01*
G75*
G02*
X80249250Y-53018750I254000J0D01*
G01*
X81773250Y-53018750D01*
G75*
G02*
X82027250Y-53272750I0J-254000D01*
G01*
X82027250Y-55304750D01*
G75*
G02*
X81773250Y-55558750I-254000J0D01*
G01*
X80249250Y-55558750D01*
G75*
G02*
X79995250Y-55304750I0J254000D01*
G01*
G37*
G36*
G01*
X82535250Y-55304750D02*
X82535250Y-53272750D01*
G75*
G02*
X82789250Y-53018750I254000J0D01*
G01*
X84313250Y-53018750D01*
G75*
G02*
X84567250Y-53272750I0J-254000D01*
G01*
X84567250Y-55304750D01*
G75*
G02*
X84313250Y-55558750I-254000J0D01*
G01*
X82789250Y-55558750D01*
G75*
G02*
X82535250Y-55304750I0J254000D01*
G01*
G37*
G36*
G01*
X85075250Y-55304750D02*
X85075250Y-53272750D01*
G75*
G02*
X85329250Y-53018750I254000J0D01*
G01*
X86853250Y-53018750D01*
G75*
G02*
X87107250Y-53272750I0J-254000D01*
G01*
X87107250Y-55304750D01*
G75*
G02*
X86853250Y-55558750I-254000J0D01*
G01*
X85329250Y-55558750D01*
G75*
G02*
X85075250Y-55304750I0J254000D01*
G01*
G37*
G36*
G01*
X85075250Y-62924750D02*
X85075250Y-60892750D01*
G75*
G02*
X85329250Y-60638750I254000J0D01*
G01*
X86853250Y-60638750D01*
G75*
G02*
X87107250Y-60892750I0J-254000D01*
G01*
X87107250Y-62924750D01*
G75*
G02*
X86853250Y-63178750I-254000J0D01*
G01*
X85329250Y-63178750D01*
G75*
G02*
X85075250Y-62924750I0J254000D01*
G01*
G37*
G36*
G01*
X82535250Y-62924750D02*
X82535250Y-60892750D01*
G75*
G02*
X82789250Y-60638750I254000J0D01*
G01*
X84313250Y-60638750D01*
G75*
G02*
X84567250Y-60892750I0J-254000D01*
G01*
X84567250Y-62924750D01*
G75*
G02*
X84313250Y-63178750I-254000J0D01*
G01*
X82789250Y-63178750D01*
G75*
G02*
X82535250Y-62924750I0J254000D01*
G01*
G37*
G36*
G01*
X79995250Y-62924750D02*
X79995250Y-60892750D01*
G75*
G02*
X80249250Y-60638750I254000J0D01*
G01*
X81773250Y-60638750D01*
G75*
G02*
X82027250Y-60892750I0J-254000D01*
G01*
X82027250Y-62924750D01*
G75*
G02*
X81773250Y-63178750I-254000J0D01*
G01*
X80249250Y-63178750D01*
G75*
G02*
X79995250Y-62924750I0J254000D01*
G01*
G37*
G36*
G01*
X77455250Y-62924750D02*
X77455250Y-60892750D01*
G75*
G02*
X77709250Y-60638750I254000J0D01*
G01*
X79233250Y-60638750D01*
G75*
G02*
X79487250Y-60892750I0J-254000D01*
G01*
X79487250Y-62924750D01*
G75*
G02*
X79233250Y-63178750I-254000J0D01*
G01*
X77709250Y-63178750D01*
G75*
G02*
X77455250Y-62924750I0J254000D01*
G01*
G37*
%TD*%
%TO.C,R25*%
G36*
G01*
X66391250Y-49354750D02*
X67691250Y-49354750D01*
G75*
G02*
X67945250Y-49608750I0J-254000D01*
G01*
X67945250Y-50308750D01*
G75*
G02*
X67691250Y-50562750I-254000J0D01*
G01*
X66391250Y-50562750D01*
G75*
G02*
X66137250Y-50308750I0J254000D01*
G01*
X66137250Y-49608750D01*
G75*
G02*
X66391250Y-49354750I254000J0D01*
G01*
G37*
G36*
G01*
X66391250Y-51254750D02*
X67691250Y-51254750D01*
G75*
G02*
X67945250Y-51508750I0J-254000D01*
G01*
X67945250Y-52208750D01*
G75*
G02*
X67691250Y-52462750I-254000J0D01*
G01*
X66391250Y-52462750D01*
G75*
G02*
X66137250Y-52208750I0J254000D01*
G01*
X66137250Y-51508750D01*
G75*
G02*
X66391250Y-51254750I254000J0D01*
G01*
G37*
%TD*%
%TO.C,C2*%
G36*
G01*
X91725480Y-103870900D02*
X95474520Y-103870900D01*
G75*
G02*
X95728520Y-104124900I0J-254000D01*
G01*
X95728520Y-106675060D01*
G75*
G02*
X95474520Y-106929060I-254000J0D01*
G01*
X91725480Y-106929060D01*
G75*
G02*
X91471480Y-106675060I0J254000D01*
G01*
X91471480Y-104124900D01*
G75*
G02*
X91725480Y-103870900I254000J0D01*
G01*
G37*
G36*
G01*
X91725480Y-109270940D02*
X95474520Y-109270940D01*
G75*
G02*
X95728520Y-109524940I0J-254000D01*
G01*
X95728520Y-112075100D01*
G75*
G02*
X95474520Y-112329100I-254000J0D01*
G01*
X91725480Y-112329100D01*
G75*
G02*
X91471480Y-112075100I0J254000D01*
G01*
X91471480Y-109524940D01*
G75*
G02*
X91725480Y-109270940I254000J0D01*
G01*
G37*
%TD*%
%TO.C,CH1*%
G36*
G01*
X31735250Y-40924750D02*
X31735250Y-38892750D01*
G75*
G02*
X31989250Y-38638750I254000J0D01*
G01*
X33513250Y-38638750D01*
G75*
G02*
X33767250Y-38892750I0J-254000D01*
G01*
X33767250Y-40924750D01*
G75*
G02*
X33513250Y-41178750I-254000J0D01*
G01*
X31989250Y-41178750D01*
G75*
G02*
X31735250Y-40924750I0J254000D01*
G01*
G37*
G36*
G01*
X34275250Y-40924750D02*
X34275250Y-38892750D01*
G75*
G02*
X34529250Y-38638750I254000J0D01*
G01*
X36053250Y-38638750D01*
G75*
G02*
X36307250Y-38892750I0J-254000D01*
G01*
X36307250Y-40924750D01*
G75*
G02*
X36053250Y-41178750I-254000J0D01*
G01*
X34529250Y-41178750D01*
G75*
G02*
X34275250Y-40924750I0J254000D01*
G01*
G37*
G36*
G01*
X36815250Y-40924750D02*
X36815250Y-38892750D01*
G75*
G02*
X37069250Y-38638750I254000J0D01*
G01*
X38593250Y-38638750D01*
G75*
G02*
X38847250Y-38892750I0J-254000D01*
G01*
X38847250Y-40924750D01*
G75*
G02*
X38593250Y-41178750I-254000J0D01*
G01*
X37069250Y-41178750D01*
G75*
G02*
X36815250Y-40924750I0J254000D01*
G01*
G37*
G36*
G01*
X39355250Y-40924750D02*
X39355250Y-38892750D01*
G75*
G02*
X39609250Y-38638750I254000J0D01*
G01*
X41133250Y-38638750D01*
G75*
G02*
X41387250Y-38892750I0J-254000D01*
G01*
X41387250Y-40924750D01*
G75*
G02*
X41133250Y-41178750I-254000J0D01*
G01*
X39609250Y-41178750D01*
G75*
G02*
X39355250Y-40924750I0J254000D01*
G01*
G37*
G36*
G01*
X39355250Y-48544750D02*
X39355250Y-46512750D01*
G75*
G02*
X39609250Y-46258750I254000J0D01*
G01*
X41133250Y-46258750D01*
G75*
G02*
X41387250Y-46512750I0J-254000D01*
G01*
X41387250Y-48544750D01*
G75*
G02*
X41133250Y-48798750I-254000J0D01*
G01*
X39609250Y-48798750D01*
G75*
G02*
X39355250Y-48544750I0J254000D01*
G01*
G37*
G36*
G01*
X36815250Y-48544750D02*
X36815250Y-46512750D01*
G75*
G02*
X37069250Y-46258750I254000J0D01*
G01*
X38593250Y-46258750D01*
G75*
G02*
X38847250Y-46512750I0J-254000D01*
G01*
X38847250Y-48544750D01*
G75*
G02*
X38593250Y-48798750I-254000J0D01*
G01*
X37069250Y-48798750D01*
G75*
G02*
X36815250Y-48544750I0J254000D01*
G01*
G37*
G36*
G01*
X34275250Y-48544750D02*
X34275250Y-46512750D01*
G75*
G02*
X34529250Y-46258750I254000J0D01*
G01*
X36053250Y-46258750D01*
G75*
G02*
X36307250Y-46512750I0J-254000D01*
G01*
X36307250Y-48544750D01*
G75*
G02*
X36053250Y-48798750I-254000J0D01*
G01*
X34529250Y-48798750D01*
G75*
G02*
X34275250Y-48544750I0J254000D01*
G01*
G37*
G36*
G01*
X31735250Y-48544750D02*
X31735250Y-46512750D01*
G75*
G02*
X31989250Y-46258750I254000J0D01*
G01*
X33513250Y-46258750D01*
G75*
G02*
X33767250Y-46512750I0J-254000D01*
G01*
X33767250Y-48544750D01*
G75*
G02*
X33513250Y-48798750I-254000J0D01*
G01*
X31989250Y-48798750D01*
G75*
G02*
X31735250Y-48544750I0J254000D01*
G01*
G37*
%TD*%
%TO.C,CH3*%
G36*
G01*
X31735250Y-55304750D02*
X31735250Y-53272750D01*
G75*
G02*
X31989250Y-53018750I254000J0D01*
G01*
X33513250Y-53018750D01*
G75*
G02*
X33767250Y-53272750I0J-254000D01*
G01*
X33767250Y-55304750D01*
G75*
G02*
X33513250Y-55558750I-254000J0D01*
G01*
X31989250Y-55558750D01*
G75*
G02*
X31735250Y-55304750I0J254000D01*
G01*
G37*
G36*
G01*
X34275250Y-55304750D02*
X34275250Y-53272750D01*
G75*
G02*
X34529250Y-53018750I254000J0D01*
G01*
X36053250Y-53018750D01*
G75*
G02*
X36307250Y-53272750I0J-254000D01*
G01*
X36307250Y-55304750D01*
G75*
G02*
X36053250Y-55558750I-254000J0D01*
G01*
X34529250Y-55558750D01*
G75*
G02*
X34275250Y-55304750I0J254000D01*
G01*
G37*
G36*
G01*
X36815250Y-55304750D02*
X36815250Y-53272750D01*
G75*
G02*
X37069250Y-53018750I254000J0D01*
G01*
X38593250Y-53018750D01*
G75*
G02*
X38847250Y-53272750I0J-254000D01*
G01*
X38847250Y-55304750D01*
G75*
G02*
X38593250Y-55558750I-254000J0D01*
G01*
X37069250Y-55558750D01*
G75*
G02*
X36815250Y-55304750I0J254000D01*
G01*
G37*
G36*
G01*
X39355250Y-55304750D02*
X39355250Y-53272750D01*
G75*
G02*
X39609250Y-53018750I254000J0D01*
G01*
X41133250Y-53018750D01*
G75*
G02*
X41387250Y-53272750I0J-254000D01*
G01*
X41387250Y-55304750D01*
G75*
G02*
X41133250Y-55558750I-254000J0D01*
G01*
X39609250Y-55558750D01*
G75*
G02*
X39355250Y-55304750I0J254000D01*
G01*
G37*
G36*
G01*
X39355250Y-62924750D02*
X39355250Y-60892750D01*
G75*
G02*
X39609250Y-60638750I254000J0D01*
G01*
X41133250Y-60638750D01*
G75*
G02*
X41387250Y-60892750I0J-254000D01*
G01*
X41387250Y-62924750D01*
G75*
G02*
X41133250Y-63178750I-254000J0D01*
G01*
X39609250Y-63178750D01*
G75*
G02*
X39355250Y-62924750I0J254000D01*
G01*
G37*
G36*
G01*
X36815250Y-62924750D02*
X36815250Y-60892750D01*
G75*
G02*
X37069250Y-60638750I254000J0D01*
G01*
X38593250Y-60638750D01*
G75*
G02*
X38847250Y-60892750I0J-254000D01*
G01*
X38847250Y-62924750D01*
G75*
G02*
X38593250Y-63178750I-254000J0D01*
G01*
X37069250Y-63178750D01*
G75*
G02*
X36815250Y-62924750I0J254000D01*
G01*
G37*
G36*
G01*
X34275250Y-62924750D02*
X34275250Y-60892750D01*
G75*
G02*
X34529250Y-60638750I254000J0D01*
G01*
X36053250Y-60638750D01*
G75*
G02*
X36307250Y-60892750I0J-254000D01*
G01*
X36307250Y-62924750D01*
G75*
G02*
X36053250Y-63178750I-254000J0D01*
G01*
X34529250Y-63178750D01*
G75*
G02*
X34275250Y-62924750I0J254000D01*
G01*
G37*
G36*
G01*
X31735250Y-62924750D02*
X31735250Y-60892750D01*
G75*
G02*
X31989250Y-60638750I254000J0D01*
G01*
X33513250Y-60638750D01*
G75*
G02*
X33767250Y-60892750I0J-254000D01*
G01*
X33767250Y-62924750D01*
G75*
G02*
X33513250Y-63178750I-254000J0D01*
G01*
X31989250Y-63178750D01*
G75*
G02*
X31735250Y-62924750I0J254000D01*
G01*
G37*
%TD*%
%TO.C,CH5*%
G36*
G01*
X31735250Y-69884750D02*
X31735250Y-67852750D01*
G75*
G02*
X31989250Y-67598750I254000J0D01*
G01*
X33513250Y-67598750D01*
G75*
G02*
X33767250Y-67852750I0J-254000D01*
G01*
X33767250Y-69884750D01*
G75*
G02*
X33513250Y-70138750I-254000J0D01*
G01*
X31989250Y-70138750D01*
G75*
G02*
X31735250Y-69884750I0J254000D01*
G01*
G37*
G36*
G01*
X34275250Y-69884750D02*
X34275250Y-67852750D01*
G75*
G02*
X34529250Y-67598750I254000J0D01*
G01*
X36053250Y-67598750D01*
G75*
G02*
X36307250Y-67852750I0J-254000D01*
G01*
X36307250Y-69884750D01*
G75*
G02*
X36053250Y-70138750I-254000J0D01*
G01*
X34529250Y-70138750D01*
G75*
G02*
X34275250Y-69884750I0J254000D01*
G01*
G37*
G36*
G01*
X36815250Y-69884750D02*
X36815250Y-67852750D01*
G75*
G02*
X37069250Y-67598750I254000J0D01*
G01*
X38593250Y-67598750D01*
G75*
G02*
X38847250Y-67852750I0J-254000D01*
G01*
X38847250Y-69884750D01*
G75*
G02*
X38593250Y-70138750I-254000J0D01*
G01*
X37069250Y-70138750D01*
G75*
G02*
X36815250Y-69884750I0J254000D01*
G01*
G37*
G36*
G01*
X39355250Y-69884750D02*
X39355250Y-67852750D01*
G75*
G02*
X39609250Y-67598750I254000J0D01*
G01*
X41133250Y-67598750D01*
G75*
G02*
X41387250Y-67852750I0J-254000D01*
G01*
X41387250Y-69884750D01*
G75*
G02*
X41133250Y-70138750I-254000J0D01*
G01*
X39609250Y-70138750D01*
G75*
G02*
X39355250Y-69884750I0J254000D01*
G01*
G37*
G36*
G01*
X39355250Y-77504750D02*
X39355250Y-75472750D01*
G75*
G02*
X39609250Y-75218750I254000J0D01*
G01*
X41133250Y-75218750D01*
G75*
G02*
X41387250Y-75472750I0J-254000D01*
G01*
X41387250Y-77504750D01*
G75*
G02*
X41133250Y-77758750I-254000J0D01*
G01*
X39609250Y-77758750D01*
G75*
G02*
X39355250Y-77504750I0J254000D01*
G01*
G37*
G36*
G01*
X36815250Y-77504750D02*
X36815250Y-75472750D01*
G75*
G02*
X37069250Y-75218750I254000J0D01*
G01*
X38593250Y-75218750D01*
G75*
G02*
X38847250Y-75472750I0J-254000D01*
G01*
X38847250Y-77504750D01*
G75*
G02*
X38593250Y-77758750I-254000J0D01*
G01*
X37069250Y-77758750D01*
G75*
G02*
X36815250Y-77504750I0J254000D01*
G01*
G37*
G36*
G01*
X34275250Y-77504750D02*
X34275250Y-75472750D01*
G75*
G02*
X34529250Y-75218750I254000J0D01*
G01*
X36053250Y-75218750D01*
G75*
G02*
X36307250Y-75472750I0J-254000D01*
G01*
X36307250Y-77504750D01*
G75*
G02*
X36053250Y-77758750I-254000J0D01*
G01*
X34529250Y-77758750D01*
G75*
G02*
X34275250Y-77504750I0J254000D01*
G01*
G37*
G36*
G01*
X31735250Y-77504750D02*
X31735250Y-75472750D01*
G75*
G02*
X31989250Y-75218750I254000J0D01*
G01*
X33513250Y-75218750D01*
G75*
G02*
X33767250Y-75472750I0J-254000D01*
G01*
X33767250Y-77504750D01*
G75*
G02*
X33513250Y-77758750I-254000J0D01*
G01*
X31989250Y-77758750D01*
G75*
G02*
X31735250Y-77504750I0J254000D01*
G01*
G37*
%TD*%
%TO.C,CH7*%
G36*
G01*
X31735250Y-84364750D02*
X31735250Y-82332750D01*
G75*
G02*
X31989250Y-82078750I254000J0D01*
G01*
X33513250Y-82078750D01*
G75*
G02*
X33767250Y-82332750I0J-254000D01*
G01*
X33767250Y-84364750D01*
G75*
G02*
X33513250Y-84618750I-254000J0D01*
G01*
X31989250Y-84618750D01*
G75*
G02*
X31735250Y-84364750I0J254000D01*
G01*
G37*
G36*
G01*
X34275250Y-84364750D02*
X34275250Y-82332750D01*
G75*
G02*
X34529250Y-82078750I254000J0D01*
G01*
X36053250Y-82078750D01*
G75*
G02*
X36307250Y-82332750I0J-254000D01*
G01*
X36307250Y-84364750D01*
G75*
G02*
X36053250Y-84618750I-254000J0D01*
G01*
X34529250Y-84618750D01*
G75*
G02*
X34275250Y-84364750I0J254000D01*
G01*
G37*
G36*
G01*
X36815250Y-84364750D02*
X36815250Y-82332750D01*
G75*
G02*
X37069250Y-82078750I254000J0D01*
G01*
X38593250Y-82078750D01*
G75*
G02*
X38847250Y-82332750I0J-254000D01*
G01*
X38847250Y-84364750D01*
G75*
G02*
X38593250Y-84618750I-254000J0D01*
G01*
X37069250Y-84618750D01*
G75*
G02*
X36815250Y-84364750I0J254000D01*
G01*
G37*
G36*
G01*
X39355250Y-84364750D02*
X39355250Y-82332750D01*
G75*
G02*
X39609250Y-82078750I254000J0D01*
G01*
X41133250Y-82078750D01*
G75*
G02*
X41387250Y-82332750I0J-254000D01*
G01*
X41387250Y-84364750D01*
G75*
G02*
X41133250Y-84618750I-254000J0D01*
G01*
X39609250Y-84618750D01*
G75*
G02*
X39355250Y-84364750I0J254000D01*
G01*
G37*
G36*
G01*
X39355250Y-91984750D02*
X39355250Y-89952750D01*
G75*
G02*
X39609250Y-89698750I254000J0D01*
G01*
X41133250Y-89698750D01*
G75*
G02*
X41387250Y-89952750I0J-254000D01*
G01*
X41387250Y-91984750D01*
G75*
G02*
X41133250Y-92238750I-254000J0D01*
G01*
X39609250Y-92238750D01*
G75*
G02*
X39355250Y-91984750I0J254000D01*
G01*
G37*
G36*
G01*
X36815250Y-91984750D02*
X36815250Y-89952750D01*
G75*
G02*
X37069250Y-89698750I254000J0D01*
G01*
X38593250Y-89698750D01*
G75*
G02*
X38847250Y-89952750I0J-254000D01*
G01*
X38847250Y-91984750D01*
G75*
G02*
X38593250Y-92238750I-254000J0D01*
G01*
X37069250Y-92238750D01*
G75*
G02*
X36815250Y-91984750I0J254000D01*
G01*
G37*
G36*
G01*
X34275250Y-91984750D02*
X34275250Y-89952750D01*
G75*
G02*
X34529250Y-89698750I254000J0D01*
G01*
X36053250Y-89698750D01*
G75*
G02*
X36307250Y-89952750I0J-254000D01*
G01*
X36307250Y-91984750D01*
G75*
G02*
X36053250Y-92238750I-254000J0D01*
G01*
X34529250Y-92238750D01*
G75*
G02*
X34275250Y-91984750I0J254000D01*
G01*
G37*
G36*
G01*
X31735250Y-91984750D02*
X31735250Y-89952750D01*
G75*
G02*
X31989250Y-89698750I254000J0D01*
G01*
X33513250Y-89698750D01*
G75*
G02*
X33767250Y-89952750I0J-254000D01*
G01*
X33767250Y-91984750D01*
G75*
G02*
X33513250Y-92238750I-254000J0D01*
G01*
X31989250Y-92238750D01*
G75*
G02*
X31735250Y-91984750I0J254000D01*
G01*
G37*
%TD*%
%TO.C,CH9*%
G36*
G01*
X46975250Y-40924750D02*
X46975250Y-38892750D01*
G75*
G02*
X47229250Y-38638750I254000J0D01*
G01*
X48753250Y-38638750D01*
G75*
G02*
X49007250Y-38892750I0J-254000D01*
G01*
X49007250Y-40924750D01*
G75*
G02*
X48753250Y-41178750I-254000J0D01*
G01*
X47229250Y-41178750D01*
G75*
G02*
X46975250Y-40924750I0J254000D01*
G01*
G37*
G36*
G01*
X49515250Y-40924750D02*
X49515250Y-38892750D01*
G75*
G02*
X49769250Y-38638750I254000J0D01*
G01*
X51293250Y-38638750D01*
G75*
G02*
X51547250Y-38892750I0J-254000D01*
G01*
X51547250Y-40924750D01*
G75*
G02*
X51293250Y-41178750I-254000J0D01*
G01*
X49769250Y-41178750D01*
G75*
G02*
X49515250Y-40924750I0J254000D01*
G01*
G37*
G36*
G01*
X52055250Y-40924750D02*
X52055250Y-38892750D01*
G75*
G02*
X52309250Y-38638750I254000J0D01*
G01*
X53833250Y-38638750D01*
G75*
G02*
X54087250Y-38892750I0J-254000D01*
G01*
X54087250Y-40924750D01*
G75*
G02*
X53833250Y-41178750I-254000J0D01*
G01*
X52309250Y-41178750D01*
G75*
G02*
X52055250Y-40924750I0J254000D01*
G01*
G37*
G36*
G01*
X54595250Y-40924750D02*
X54595250Y-38892750D01*
G75*
G02*
X54849250Y-38638750I254000J0D01*
G01*
X56373250Y-38638750D01*
G75*
G02*
X56627250Y-38892750I0J-254000D01*
G01*
X56627250Y-40924750D01*
G75*
G02*
X56373250Y-41178750I-254000J0D01*
G01*
X54849250Y-41178750D01*
G75*
G02*
X54595250Y-40924750I0J254000D01*
G01*
G37*
G36*
G01*
X54595250Y-48544750D02*
X54595250Y-46512750D01*
G75*
G02*
X54849250Y-46258750I254000J0D01*
G01*
X56373250Y-46258750D01*
G75*
G02*
X56627250Y-46512750I0J-254000D01*
G01*
X56627250Y-48544750D01*
G75*
G02*
X56373250Y-48798750I-254000J0D01*
G01*
X54849250Y-48798750D01*
G75*
G02*
X54595250Y-48544750I0J254000D01*
G01*
G37*
G36*
G01*
X52055250Y-48544750D02*
X52055250Y-46512750D01*
G75*
G02*
X52309250Y-46258750I254000J0D01*
G01*
X53833250Y-46258750D01*
G75*
G02*
X54087250Y-46512750I0J-254000D01*
G01*
X54087250Y-48544750D01*
G75*
G02*
X53833250Y-48798750I-254000J0D01*
G01*
X52309250Y-48798750D01*
G75*
G02*
X52055250Y-48544750I0J254000D01*
G01*
G37*
G36*
G01*
X49515250Y-48544750D02*
X49515250Y-46512750D01*
G75*
G02*
X49769250Y-46258750I254000J0D01*
G01*
X51293250Y-46258750D01*
G75*
G02*
X51547250Y-46512750I0J-254000D01*
G01*
X51547250Y-48544750D01*
G75*
G02*
X51293250Y-48798750I-254000J0D01*
G01*
X49769250Y-48798750D01*
G75*
G02*
X49515250Y-48544750I0J254000D01*
G01*
G37*
G36*
G01*
X46975250Y-48544750D02*
X46975250Y-46512750D01*
G75*
G02*
X47229250Y-46258750I254000J0D01*
G01*
X48753250Y-46258750D01*
G75*
G02*
X49007250Y-46512750I0J-254000D01*
G01*
X49007250Y-48544750D01*
G75*
G02*
X48753250Y-48798750I-254000J0D01*
G01*
X47229250Y-48798750D01*
G75*
G02*
X46975250Y-48544750I0J254000D01*
G01*
G37*
%TD*%
%TO.C,CH11*%
G36*
G01*
X46975250Y-55304750D02*
X46975250Y-53272750D01*
G75*
G02*
X47229250Y-53018750I254000J0D01*
G01*
X48753250Y-53018750D01*
G75*
G02*
X49007250Y-53272750I0J-254000D01*
G01*
X49007250Y-55304750D01*
G75*
G02*
X48753250Y-55558750I-254000J0D01*
G01*
X47229250Y-55558750D01*
G75*
G02*
X46975250Y-55304750I0J254000D01*
G01*
G37*
G36*
G01*
X49515250Y-55304750D02*
X49515250Y-53272750D01*
G75*
G02*
X49769250Y-53018750I254000J0D01*
G01*
X51293250Y-53018750D01*
G75*
G02*
X51547250Y-53272750I0J-254000D01*
G01*
X51547250Y-55304750D01*
G75*
G02*
X51293250Y-55558750I-254000J0D01*
G01*
X49769250Y-55558750D01*
G75*
G02*
X49515250Y-55304750I0J254000D01*
G01*
G37*
G36*
G01*
X52055250Y-55304750D02*
X52055250Y-53272750D01*
G75*
G02*
X52309250Y-53018750I254000J0D01*
G01*
X53833250Y-53018750D01*
G75*
G02*
X54087250Y-53272750I0J-254000D01*
G01*
X54087250Y-55304750D01*
G75*
G02*
X53833250Y-55558750I-254000J0D01*
G01*
X52309250Y-55558750D01*
G75*
G02*
X52055250Y-55304750I0J254000D01*
G01*
G37*
G36*
G01*
X54595250Y-55304750D02*
X54595250Y-53272750D01*
G75*
G02*
X54849250Y-53018750I254000J0D01*
G01*
X56373250Y-53018750D01*
G75*
G02*
X56627250Y-53272750I0J-254000D01*
G01*
X56627250Y-55304750D01*
G75*
G02*
X56373250Y-55558750I-254000J0D01*
G01*
X54849250Y-55558750D01*
G75*
G02*
X54595250Y-55304750I0J254000D01*
G01*
G37*
G36*
G01*
X54595250Y-62924750D02*
X54595250Y-60892750D01*
G75*
G02*
X54849250Y-60638750I254000J0D01*
G01*
X56373250Y-60638750D01*
G75*
G02*
X56627250Y-60892750I0J-254000D01*
G01*
X56627250Y-62924750D01*
G75*
G02*
X56373250Y-63178750I-254000J0D01*
G01*
X54849250Y-63178750D01*
G75*
G02*
X54595250Y-62924750I0J254000D01*
G01*
G37*
G36*
G01*
X52055250Y-62924750D02*
X52055250Y-60892750D01*
G75*
G02*
X52309250Y-60638750I254000J0D01*
G01*
X53833250Y-60638750D01*
G75*
G02*
X54087250Y-60892750I0J-254000D01*
G01*
X54087250Y-62924750D01*
G75*
G02*
X53833250Y-63178750I-254000J0D01*
G01*
X52309250Y-63178750D01*
G75*
G02*
X52055250Y-62924750I0J254000D01*
G01*
G37*
G36*
G01*
X49515250Y-62924750D02*
X49515250Y-60892750D01*
G75*
G02*
X49769250Y-60638750I254000J0D01*
G01*
X51293250Y-60638750D01*
G75*
G02*
X51547250Y-60892750I0J-254000D01*
G01*
X51547250Y-62924750D01*
G75*
G02*
X51293250Y-63178750I-254000J0D01*
G01*
X49769250Y-63178750D01*
G75*
G02*
X49515250Y-62924750I0J254000D01*
G01*
G37*
G36*
G01*
X46975250Y-62924750D02*
X46975250Y-60892750D01*
G75*
G02*
X47229250Y-60638750I254000J0D01*
G01*
X48753250Y-60638750D01*
G75*
G02*
X49007250Y-60892750I0J-254000D01*
G01*
X49007250Y-62924750D01*
G75*
G02*
X48753250Y-63178750I-254000J0D01*
G01*
X47229250Y-63178750D01*
G75*
G02*
X46975250Y-62924750I0J254000D01*
G01*
G37*
%TD*%
%TO.C,CH13*%
G36*
G01*
X46975250Y-69884750D02*
X46975250Y-67852750D01*
G75*
G02*
X47229250Y-67598750I254000J0D01*
G01*
X48753250Y-67598750D01*
G75*
G02*
X49007250Y-67852750I0J-254000D01*
G01*
X49007250Y-69884750D01*
G75*
G02*
X48753250Y-70138750I-254000J0D01*
G01*
X47229250Y-70138750D01*
G75*
G02*
X46975250Y-69884750I0J254000D01*
G01*
G37*
G36*
G01*
X49515250Y-69884750D02*
X49515250Y-67852750D01*
G75*
G02*
X49769250Y-67598750I254000J0D01*
G01*
X51293250Y-67598750D01*
G75*
G02*
X51547250Y-67852750I0J-254000D01*
G01*
X51547250Y-69884750D01*
G75*
G02*
X51293250Y-70138750I-254000J0D01*
G01*
X49769250Y-70138750D01*
G75*
G02*
X49515250Y-69884750I0J254000D01*
G01*
G37*
G36*
G01*
X52055250Y-69884750D02*
X52055250Y-67852750D01*
G75*
G02*
X52309250Y-67598750I254000J0D01*
G01*
X53833250Y-67598750D01*
G75*
G02*
X54087250Y-67852750I0J-254000D01*
G01*
X54087250Y-69884750D01*
G75*
G02*
X53833250Y-70138750I-254000J0D01*
G01*
X52309250Y-70138750D01*
G75*
G02*
X52055250Y-69884750I0J254000D01*
G01*
G37*
G36*
G01*
X54595250Y-69884750D02*
X54595250Y-67852750D01*
G75*
G02*
X54849250Y-67598750I254000J0D01*
G01*
X56373250Y-67598750D01*
G75*
G02*
X56627250Y-67852750I0J-254000D01*
G01*
X56627250Y-69884750D01*
G75*
G02*
X56373250Y-70138750I-254000J0D01*
G01*
X54849250Y-70138750D01*
G75*
G02*
X54595250Y-69884750I0J254000D01*
G01*
G37*
G36*
G01*
X54595250Y-77504750D02*
X54595250Y-75472750D01*
G75*
G02*
X54849250Y-75218750I254000J0D01*
G01*
X56373250Y-75218750D01*
G75*
G02*
X56627250Y-75472750I0J-254000D01*
G01*
X56627250Y-77504750D01*
G75*
G02*
X56373250Y-77758750I-254000J0D01*
G01*
X54849250Y-77758750D01*
G75*
G02*
X54595250Y-77504750I0J254000D01*
G01*
G37*
G36*
G01*
X52055250Y-77504750D02*
X52055250Y-75472750D01*
G75*
G02*
X52309250Y-75218750I254000J0D01*
G01*
X53833250Y-75218750D01*
G75*
G02*
X54087250Y-75472750I0J-254000D01*
G01*
X54087250Y-77504750D01*
G75*
G02*
X53833250Y-77758750I-254000J0D01*
G01*
X52309250Y-77758750D01*
G75*
G02*
X52055250Y-77504750I0J254000D01*
G01*
G37*
G36*
G01*
X49515250Y-77504750D02*
X49515250Y-75472750D01*
G75*
G02*
X49769250Y-75218750I254000J0D01*
G01*
X51293250Y-75218750D01*
G75*
G02*
X51547250Y-75472750I0J-254000D01*
G01*
X51547250Y-77504750D01*
G75*
G02*
X51293250Y-77758750I-254000J0D01*
G01*
X49769250Y-77758750D01*
G75*
G02*
X49515250Y-77504750I0J254000D01*
G01*
G37*
G36*
G01*
X46975250Y-77504750D02*
X46975250Y-75472750D01*
G75*
G02*
X47229250Y-75218750I254000J0D01*
G01*
X48753250Y-75218750D01*
G75*
G02*
X49007250Y-75472750I0J-254000D01*
G01*
X49007250Y-77504750D01*
G75*
G02*
X48753250Y-77758750I-254000J0D01*
G01*
X47229250Y-77758750D01*
G75*
G02*
X46975250Y-77504750I0J254000D01*
G01*
G37*
%TD*%
%TO.C,CH15*%
G36*
G01*
X46975250Y-84364750D02*
X46975250Y-82332750D01*
G75*
G02*
X47229250Y-82078750I254000J0D01*
G01*
X48753250Y-82078750D01*
G75*
G02*
X49007250Y-82332750I0J-254000D01*
G01*
X49007250Y-84364750D01*
G75*
G02*
X48753250Y-84618750I-254000J0D01*
G01*
X47229250Y-84618750D01*
G75*
G02*
X46975250Y-84364750I0J254000D01*
G01*
G37*
G36*
G01*
X49515250Y-84364750D02*
X49515250Y-82332750D01*
G75*
G02*
X49769250Y-82078750I254000J0D01*
G01*
X51293250Y-82078750D01*
G75*
G02*
X51547250Y-82332750I0J-254000D01*
G01*
X51547250Y-84364750D01*
G75*
G02*
X51293250Y-84618750I-254000J0D01*
G01*
X49769250Y-84618750D01*
G75*
G02*
X49515250Y-84364750I0J254000D01*
G01*
G37*
G36*
G01*
X52055250Y-84364750D02*
X52055250Y-82332750D01*
G75*
G02*
X52309250Y-82078750I254000J0D01*
G01*
X53833250Y-82078750D01*
G75*
G02*
X54087250Y-82332750I0J-254000D01*
G01*
X54087250Y-84364750D01*
G75*
G02*
X53833250Y-84618750I-254000J0D01*
G01*
X52309250Y-84618750D01*
G75*
G02*
X52055250Y-84364750I0J254000D01*
G01*
G37*
G36*
G01*
X54595250Y-84364750D02*
X54595250Y-82332750D01*
G75*
G02*
X54849250Y-82078750I254000J0D01*
G01*
X56373250Y-82078750D01*
G75*
G02*
X56627250Y-82332750I0J-254000D01*
G01*
X56627250Y-84364750D01*
G75*
G02*
X56373250Y-84618750I-254000J0D01*
G01*
X54849250Y-84618750D01*
G75*
G02*
X54595250Y-84364750I0J254000D01*
G01*
G37*
G36*
G01*
X54595250Y-91984750D02*
X54595250Y-89952750D01*
G75*
G02*
X54849250Y-89698750I254000J0D01*
G01*
X56373250Y-89698750D01*
G75*
G02*
X56627250Y-89952750I0J-254000D01*
G01*
X56627250Y-91984750D01*
G75*
G02*
X56373250Y-92238750I-254000J0D01*
G01*
X54849250Y-92238750D01*
G75*
G02*
X54595250Y-91984750I0J254000D01*
G01*
G37*
G36*
G01*
X52055250Y-91984750D02*
X52055250Y-89952750D01*
G75*
G02*
X52309250Y-89698750I254000J0D01*
G01*
X53833250Y-89698750D01*
G75*
G02*
X54087250Y-89952750I0J-254000D01*
G01*
X54087250Y-91984750D01*
G75*
G02*
X53833250Y-92238750I-254000J0D01*
G01*
X52309250Y-92238750D01*
G75*
G02*
X52055250Y-91984750I0J254000D01*
G01*
G37*
G36*
G01*
X49515250Y-91984750D02*
X49515250Y-89952750D01*
G75*
G02*
X49769250Y-89698750I254000J0D01*
G01*
X51293250Y-89698750D01*
G75*
G02*
X51547250Y-89952750I0J-254000D01*
G01*
X51547250Y-91984750D01*
G75*
G02*
X51293250Y-92238750I-254000J0D01*
G01*
X49769250Y-92238750D01*
G75*
G02*
X49515250Y-91984750I0J254000D01*
G01*
G37*
G36*
G01*
X46975250Y-91984750D02*
X46975250Y-89952750D01*
G75*
G02*
X47229250Y-89698750I254000J0D01*
G01*
X48753250Y-89698750D01*
G75*
G02*
X49007250Y-89952750I0J-254000D01*
G01*
X49007250Y-91984750D01*
G75*
G02*
X48753250Y-92238750I-254000J0D01*
G01*
X47229250Y-92238750D01*
G75*
G02*
X46975250Y-91984750I0J254000D01*
G01*
G37*
%TD*%
%TO.C,CH17*%
G36*
G01*
X62215250Y-40924750D02*
X62215250Y-38892750D01*
G75*
G02*
X62469250Y-38638750I254000J0D01*
G01*
X63993250Y-38638750D01*
G75*
G02*
X64247250Y-38892750I0J-254000D01*
G01*
X64247250Y-40924750D01*
G75*
G02*
X63993250Y-41178750I-254000J0D01*
G01*
X62469250Y-41178750D01*
G75*
G02*
X62215250Y-40924750I0J254000D01*
G01*
G37*
G36*
G01*
X64755250Y-40924750D02*
X64755250Y-38892750D01*
G75*
G02*
X65009250Y-38638750I254000J0D01*
G01*
X66533250Y-38638750D01*
G75*
G02*
X66787250Y-38892750I0J-254000D01*
G01*
X66787250Y-40924750D01*
G75*
G02*
X66533250Y-41178750I-254000J0D01*
G01*
X65009250Y-41178750D01*
G75*
G02*
X64755250Y-40924750I0J254000D01*
G01*
G37*
G36*
G01*
X67295250Y-40924750D02*
X67295250Y-38892750D01*
G75*
G02*
X67549250Y-38638750I254000J0D01*
G01*
X69073250Y-38638750D01*
G75*
G02*
X69327250Y-38892750I0J-254000D01*
G01*
X69327250Y-40924750D01*
G75*
G02*
X69073250Y-41178750I-254000J0D01*
G01*
X67549250Y-41178750D01*
G75*
G02*
X67295250Y-40924750I0J254000D01*
G01*
G37*
G36*
G01*
X69835250Y-40924750D02*
X69835250Y-38892750D01*
G75*
G02*
X70089250Y-38638750I254000J0D01*
G01*
X71613250Y-38638750D01*
G75*
G02*
X71867250Y-38892750I0J-254000D01*
G01*
X71867250Y-40924750D01*
G75*
G02*
X71613250Y-41178750I-254000J0D01*
G01*
X70089250Y-41178750D01*
G75*
G02*
X69835250Y-40924750I0J254000D01*
G01*
G37*
G36*
G01*
X69835250Y-48544750D02*
X69835250Y-46512750D01*
G75*
G02*
X70089250Y-46258750I254000J0D01*
G01*
X71613250Y-46258750D01*
G75*
G02*
X71867250Y-46512750I0J-254000D01*
G01*
X71867250Y-48544750D01*
G75*
G02*
X71613250Y-48798750I-254000J0D01*
G01*
X70089250Y-48798750D01*
G75*
G02*
X69835250Y-48544750I0J254000D01*
G01*
G37*
G36*
G01*
X67295250Y-48544750D02*
X67295250Y-46512750D01*
G75*
G02*
X67549250Y-46258750I254000J0D01*
G01*
X69073250Y-46258750D01*
G75*
G02*
X69327250Y-46512750I0J-254000D01*
G01*
X69327250Y-48544750D01*
G75*
G02*
X69073250Y-48798750I-254000J0D01*
G01*
X67549250Y-48798750D01*
G75*
G02*
X67295250Y-48544750I0J254000D01*
G01*
G37*
G36*
G01*
X64755250Y-48544750D02*
X64755250Y-46512750D01*
G75*
G02*
X65009250Y-46258750I254000J0D01*
G01*
X66533250Y-46258750D01*
G75*
G02*
X66787250Y-46512750I0J-254000D01*
G01*
X66787250Y-48544750D01*
G75*
G02*
X66533250Y-48798750I-254000J0D01*
G01*
X65009250Y-48798750D01*
G75*
G02*
X64755250Y-48544750I0J254000D01*
G01*
G37*
G36*
G01*
X62215250Y-48544750D02*
X62215250Y-46512750D01*
G75*
G02*
X62469250Y-46258750I254000J0D01*
G01*
X63993250Y-46258750D01*
G75*
G02*
X64247250Y-46512750I0J-254000D01*
G01*
X64247250Y-48544750D01*
G75*
G02*
X63993250Y-48798750I-254000J0D01*
G01*
X62469250Y-48798750D01*
G75*
G02*
X62215250Y-48544750I0J254000D01*
G01*
G37*
%TD*%
%TO.C,CH19*%
G36*
G01*
X62215250Y-55304750D02*
X62215250Y-53272750D01*
G75*
G02*
X62469250Y-53018750I254000J0D01*
G01*
X63993250Y-53018750D01*
G75*
G02*
X64247250Y-53272750I0J-254000D01*
G01*
X64247250Y-55304750D01*
G75*
G02*
X63993250Y-55558750I-254000J0D01*
G01*
X62469250Y-55558750D01*
G75*
G02*
X62215250Y-55304750I0J254000D01*
G01*
G37*
G36*
G01*
X64755250Y-55304750D02*
X64755250Y-53272750D01*
G75*
G02*
X65009250Y-53018750I254000J0D01*
G01*
X66533250Y-53018750D01*
G75*
G02*
X66787250Y-53272750I0J-254000D01*
G01*
X66787250Y-55304750D01*
G75*
G02*
X66533250Y-55558750I-254000J0D01*
G01*
X65009250Y-55558750D01*
G75*
G02*
X64755250Y-55304750I0J254000D01*
G01*
G37*
G36*
G01*
X67295250Y-55304750D02*
X67295250Y-53272750D01*
G75*
G02*
X67549250Y-53018750I254000J0D01*
G01*
X69073250Y-53018750D01*
G75*
G02*
X69327250Y-53272750I0J-254000D01*
G01*
X69327250Y-55304750D01*
G75*
G02*
X69073250Y-55558750I-254000J0D01*
G01*
X67549250Y-55558750D01*
G75*
G02*
X67295250Y-55304750I0J254000D01*
G01*
G37*
G36*
G01*
X69835250Y-55304750D02*
X69835250Y-53272750D01*
G75*
G02*
X70089250Y-53018750I254000J0D01*
G01*
X71613250Y-53018750D01*
G75*
G02*
X71867250Y-53272750I0J-254000D01*
G01*
X71867250Y-55304750D01*
G75*
G02*
X71613250Y-55558750I-254000J0D01*
G01*
X70089250Y-55558750D01*
G75*
G02*
X69835250Y-55304750I0J254000D01*
G01*
G37*
G36*
G01*
X69835250Y-62924750D02*
X69835250Y-60892750D01*
G75*
G02*
X70089250Y-60638750I254000J0D01*
G01*
X71613250Y-60638750D01*
G75*
G02*
X71867250Y-60892750I0J-254000D01*
G01*
X71867250Y-62924750D01*
G75*
G02*
X71613250Y-63178750I-254000J0D01*
G01*
X70089250Y-63178750D01*
G75*
G02*
X69835250Y-62924750I0J254000D01*
G01*
G37*
G36*
G01*
X67295250Y-62924750D02*
X67295250Y-60892750D01*
G75*
G02*
X67549250Y-60638750I254000J0D01*
G01*
X69073250Y-60638750D01*
G75*
G02*
X69327250Y-60892750I0J-254000D01*
G01*
X69327250Y-62924750D01*
G75*
G02*
X69073250Y-63178750I-254000J0D01*
G01*
X67549250Y-63178750D01*
G75*
G02*
X67295250Y-62924750I0J254000D01*
G01*
G37*
G36*
G01*
X64755250Y-62924750D02*
X64755250Y-60892750D01*
G75*
G02*
X65009250Y-60638750I254000J0D01*
G01*
X66533250Y-60638750D01*
G75*
G02*
X66787250Y-60892750I0J-254000D01*
G01*
X66787250Y-62924750D01*
G75*
G02*
X66533250Y-63178750I-254000J0D01*
G01*
X65009250Y-63178750D01*
G75*
G02*
X64755250Y-62924750I0J254000D01*
G01*
G37*
G36*
G01*
X62215250Y-62924750D02*
X62215250Y-60892750D01*
G75*
G02*
X62469250Y-60638750I254000J0D01*
G01*
X63993250Y-60638750D01*
G75*
G02*
X64247250Y-60892750I0J-254000D01*
G01*
X64247250Y-62924750D01*
G75*
G02*
X63993250Y-63178750I-254000J0D01*
G01*
X62469250Y-63178750D01*
G75*
G02*
X62215250Y-62924750I0J254000D01*
G01*
G37*
%TD*%
%TO.C,CH21*%
G36*
G01*
X62215250Y-69884750D02*
X62215250Y-67852750D01*
G75*
G02*
X62469250Y-67598750I254000J0D01*
G01*
X63993250Y-67598750D01*
G75*
G02*
X64247250Y-67852750I0J-254000D01*
G01*
X64247250Y-69884750D01*
G75*
G02*
X63993250Y-70138750I-254000J0D01*
G01*
X62469250Y-70138750D01*
G75*
G02*
X62215250Y-69884750I0J254000D01*
G01*
G37*
G36*
G01*
X64755250Y-69884750D02*
X64755250Y-67852750D01*
G75*
G02*
X65009250Y-67598750I254000J0D01*
G01*
X66533250Y-67598750D01*
G75*
G02*
X66787250Y-67852750I0J-254000D01*
G01*
X66787250Y-69884750D01*
G75*
G02*
X66533250Y-70138750I-254000J0D01*
G01*
X65009250Y-70138750D01*
G75*
G02*
X64755250Y-69884750I0J254000D01*
G01*
G37*
G36*
G01*
X67295250Y-69884750D02*
X67295250Y-67852750D01*
G75*
G02*
X67549250Y-67598750I254000J0D01*
G01*
X69073250Y-67598750D01*
G75*
G02*
X69327250Y-67852750I0J-254000D01*
G01*
X69327250Y-69884750D01*
G75*
G02*
X69073250Y-70138750I-254000J0D01*
G01*
X67549250Y-70138750D01*
G75*
G02*
X67295250Y-69884750I0J254000D01*
G01*
G37*
G36*
G01*
X69835250Y-69884750D02*
X69835250Y-67852750D01*
G75*
G02*
X70089250Y-67598750I254000J0D01*
G01*
X71613250Y-67598750D01*
G75*
G02*
X71867250Y-67852750I0J-254000D01*
G01*
X71867250Y-69884750D01*
G75*
G02*
X71613250Y-70138750I-254000J0D01*
G01*
X70089250Y-70138750D01*
G75*
G02*
X69835250Y-69884750I0J254000D01*
G01*
G37*
G36*
G01*
X69835250Y-77504750D02*
X69835250Y-75472750D01*
G75*
G02*
X70089250Y-75218750I254000J0D01*
G01*
X71613250Y-75218750D01*
G75*
G02*
X71867250Y-75472750I0J-254000D01*
G01*
X71867250Y-77504750D01*
G75*
G02*
X71613250Y-77758750I-254000J0D01*
G01*
X70089250Y-77758750D01*
G75*
G02*
X69835250Y-77504750I0J254000D01*
G01*
G37*
G36*
G01*
X67295250Y-77504750D02*
X67295250Y-75472750D01*
G75*
G02*
X67549250Y-75218750I254000J0D01*
G01*
X69073250Y-75218750D01*
G75*
G02*
X69327250Y-75472750I0J-254000D01*
G01*
X69327250Y-77504750D01*
G75*
G02*
X69073250Y-77758750I-254000J0D01*
G01*
X67549250Y-77758750D01*
G75*
G02*
X67295250Y-77504750I0J254000D01*
G01*
G37*
G36*
G01*
X64755250Y-77504750D02*
X64755250Y-75472750D01*
G75*
G02*
X65009250Y-75218750I254000J0D01*
G01*
X66533250Y-75218750D01*
G75*
G02*
X66787250Y-75472750I0J-254000D01*
G01*
X66787250Y-77504750D01*
G75*
G02*
X66533250Y-77758750I-254000J0D01*
G01*
X65009250Y-77758750D01*
G75*
G02*
X64755250Y-77504750I0J254000D01*
G01*
G37*
G36*
G01*
X62215250Y-77504750D02*
X62215250Y-75472750D01*
G75*
G02*
X62469250Y-75218750I254000J0D01*
G01*
X63993250Y-75218750D01*
G75*
G02*
X64247250Y-75472750I0J-254000D01*
G01*
X64247250Y-77504750D01*
G75*
G02*
X63993250Y-77758750I-254000J0D01*
G01*
X62469250Y-77758750D01*
G75*
G02*
X62215250Y-77504750I0J254000D01*
G01*
G37*
%TD*%
%TO.C,CH23*%
G36*
G01*
X62215250Y-84364750D02*
X62215250Y-82332750D01*
G75*
G02*
X62469250Y-82078750I254000J0D01*
G01*
X63993250Y-82078750D01*
G75*
G02*
X64247250Y-82332750I0J-254000D01*
G01*
X64247250Y-84364750D01*
G75*
G02*
X63993250Y-84618750I-254000J0D01*
G01*
X62469250Y-84618750D01*
G75*
G02*
X62215250Y-84364750I0J254000D01*
G01*
G37*
G36*
G01*
X64755250Y-84364750D02*
X64755250Y-82332750D01*
G75*
G02*
X65009250Y-82078750I254000J0D01*
G01*
X66533250Y-82078750D01*
G75*
G02*
X66787250Y-82332750I0J-254000D01*
G01*
X66787250Y-84364750D01*
G75*
G02*
X66533250Y-84618750I-254000J0D01*
G01*
X65009250Y-84618750D01*
G75*
G02*
X64755250Y-84364750I0J254000D01*
G01*
G37*
G36*
G01*
X67295250Y-84364750D02*
X67295250Y-82332750D01*
G75*
G02*
X67549250Y-82078750I254000J0D01*
G01*
X69073250Y-82078750D01*
G75*
G02*
X69327250Y-82332750I0J-254000D01*
G01*
X69327250Y-84364750D01*
G75*
G02*
X69073250Y-84618750I-254000J0D01*
G01*
X67549250Y-84618750D01*
G75*
G02*
X67295250Y-84364750I0J254000D01*
G01*
G37*
G36*
G01*
X69835250Y-84364750D02*
X69835250Y-82332750D01*
G75*
G02*
X70089250Y-82078750I254000J0D01*
G01*
X71613250Y-82078750D01*
G75*
G02*
X71867250Y-82332750I0J-254000D01*
G01*
X71867250Y-84364750D01*
G75*
G02*
X71613250Y-84618750I-254000J0D01*
G01*
X70089250Y-84618750D01*
G75*
G02*
X69835250Y-84364750I0J254000D01*
G01*
G37*
G36*
G01*
X69835250Y-91984750D02*
X69835250Y-89952750D01*
G75*
G02*
X70089250Y-89698750I254000J0D01*
G01*
X71613250Y-89698750D01*
G75*
G02*
X71867250Y-89952750I0J-254000D01*
G01*
X71867250Y-91984750D01*
G75*
G02*
X71613250Y-92238750I-254000J0D01*
G01*
X70089250Y-92238750D01*
G75*
G02*
X69835250Y-91984750I0J254000D01*
G01*
G37*
G36*
G01*
X67295250Y-91984750D02*
X67295250Y-89952750D01*
G75*
G02*
X67549250Y-89698750I254000J0D01*
G01*
X69073250Y-89698750D01*
G75*
G02*
X69327250Y-89952750I0J-254000D01*
G01*
X69327250Y-91984750D01*
G75*
G02*
X69073250Y-92238750I-254000J0D01*
G01*
X67549250Y-92238750D01*
G75*
G02*
X67295250Y-91984750I0J254000D01*
G01*
G37*
G36*
G01*
X64755250Y-91984750D02*
X64755250Y-89952750D01*
G75*
G02*
X65009250Y-89698750I254000J0D01*
G01*
X66533250Y-89698750D01*
G75*
G02*
X66787250Y-89952750I0J-254000D01*
G01*
X66787250Y-91984750D01*
G75*
G02*
X66533250Y-92238750I-254000J0D01*
G01*
X65009250Y-92238750D01*
G75*
G02*
X64755250Y-91984750I0J254000D01*
G01*
G37*
G36*
G01*
X62215250Y-91984750D02*
X62215250Y-89952750D01*
G75*
G02*
X62469250Y-89698750I254000J0D01*
G01*
X63993250Y-89698750D01*
G75*
G02*
X64247250Y-89952750I0J-254000D01*
G01*
X64247250Y-91984750D01*
G75*
G02*
X63993250Y-92238750I-254000J0D01*
G01*
X62469250Y-92238750D01*
G75*
G02*
X62215250Y-91984750I0J254000D01*
G01*
G37*
%TD*%
%TO.C,CH25*%
G36*
G01*
X77455250Y-40924750D02*
X77455250Y-38892750D01*
G75*
G02*
X77709250Y-38638750I254000J0D01*
G01*
X79233250Y-38638750D01*
G75*
G02*
X79487250Y-38892750I0J-254000D01*
G01*
X79487250Y-40924750D01*
G75*
G02*
X79233250Y-41178750I-254000J0D01*
G01*
X77709250Y-41178750D01*
G75*
G02*
X77455250Y-40924750I0J254000D01*
G01*
G37*
G36*
G01*
X79995250Y-40924750D02*
X79995250Y-38892750D01*
G75*
G02*
X80249250Y-38638750I254000J0D01*
G01*
X81773250Y-38638750D01*
G75*
G02*
X82027250Y-38892750I0J-254000D01*
G01*
X82027250Y-40924750D01*
G75*
G02*
X81773250Y-41178750I-254000J0D01*
G01*
X80249250Y-41178750D01*
G75*
G02*
X79995250Y-40924750I0J254000D01*
G01*
G37*
G36*
G01*
X82535250Y-40924750D02*
X82535250Y-38892750D01*
G75*
G02*
X82789250Y-38638750I254000J0D01*
G01*
X84313250Y-38638750D01*
G75*
G02*
X84567250Y-38892750I0J-254000D01*
G01*
X84567250Y-40924750D01*
G75*
G02*
X84313250Y-41178750I-254000J0D01*
G01*
X82789250Y-41178750D01*
G75*
G02*
X82535250Y-40924750I0J254000D01*
G01*
G37*
G36*
G01*
X85075250Y-40924750D02*
X85075250Y-38892750D01*
G75*
G02*
X85329250Y-38638750I254000J0D01*
G01*
X86853250Y-38638750D01*
G75*
G02*
X87107250Y-38892750I0J-254000D01*
G01*
X87107250Y-40924750D01*
G75*
G02*
X86853250Y-41178750I-254000J0D01*
G01*
X85329250Y-41178750D01*
G75*
G02*
X85075250Y-40924750I0J254000D01*
G01*
G37*
G36*
G01*
X85075250Y-48544750D02*
X85075250Y-46512750D01*
G75*
G02*
X85329250Y-46258750I254000J0D01*
G01*
X86853250Y-46258750D01*
G75*
G02*
X87107250Y-46512750I0J-254000D01*
G01*
X87107250Y-48544750D01*
G75*
G02*
X86853250Y-48798750I-254000J0D01*
G01*
X85329250Y-48798750D01*
G75*
G02*
X85075250Y-48544750I0J254000D01*
G01*
G37*
G36*
G01*
X82535250Y-48544750D02*
X82535250Y-46512750D01*
G75*
G02*
X82789250Y-46258750I254000J0D01*
G01*
X84313250Y-46258750D01*
G75*
G02*
X84567250Y-46512750I0J-254000D01*
G01*
X84567250Y-48544750D01*
G75*
G02*
X84313250Y-48798750I-254000J0D01*
G01*
X82789250Y-48798750D01*
G75*
G02*
X82535250Y-48544750I0J254000D01*
G01*
G37*
G36*
G01*
X79995250Y-48544750D02*
X79995250Y-46512750D01*
G75*
G02*
X80249250Y-46258750I254000J0D01*
G01*
X81773250Y-46258750D01*
G75*
G02*
X82027250Y-46512750I0J-254000D01*
G01*
X82027250Y-48544750D01*
G75*
G02*
X81773250Y-48798750I-254000J0D01*
G01*
X80249250Y-48798750D01*
G75*
G02*
X79995250Y-48544750I0J254000D01*
G01*
G37*
G36*
G01*
X77455250Y-48544750D02*
X77455250Y-46512750D01*
G75*
G02*
X77709250Y-46258750I254000J0D01*
G01*
X79233250Y-46258750D01*
G75*
G02*
X79487250Y-46512750I0J-254000D01*
G01*
X79487250Y-48544750D01*
G75*
G02*
X79233250Y-48798750I-254000J0D01*
G01*
X77709250Y-48798750D01*
G75*
G02*
X77455250Y-48544750I0J254000D01*
G01*
G37*
%TD*%
%TO.C,CH29*%
G36*
G01*
X77455250Y-69884750D02*
X77455250Y-67852750D01*
G75*
G02*
X77709250Y-67598750I254000J0D01*
G01*
X79233250Y-67598750D01*
G75*
G02*
X79487250Y-67852750I0J-254000D01*
G01*
X79487250Y-69884750D01*
G75*
G02*
X79233250Y-70138750I-254000J0D01*
G01*
X77709250Y-70138750D01*
G75*
G02*
X77455250Y-69884750I0J254000D01*
G01*
G37*
G36*
G01*
X79995250Y-69884750D02*
X79995250Y-67852750D01*
G75*
G02*
X80249250Y-67598750I254000J0D01*
G01*
X81773250Y-67598750D01*
G75*
G02*
X82027250Y-67852750I0J-254000D01*
G01*
X82027250Y-69884750D01*
G75*
G02*
X81773250Y-70138750I-254000J0D01*
G01*
X80249250Y-70138750D01*
G75*
G02*
X79995250Y-69884750I0J254000D01*
G01*
G37*
G36*
G01*
X82535250Y-69884750D02*
X82535250Y-67852750D01*
G75*
G02*
X82789250Y-67598750I254000J0D01*
G01*
X84313250Y-67598750D01*
G75*
G02*
X84567250Y-67852750I0J-254000D01*
G01*
X84567250Y-69884750D01*
G75*
G02*
X84313250Y-70138750I-254000J0D01*
G01*
X82789250Y-70138750D01*
G75*
G02*
X82535250Y-69884750I0J254000D01*
G01*
G37*
G36*
G01*
X85075250Y-69884750D02*
X85075250Y-67852750D01*
G75*
G02*
X85329250Y-67598750I254000J0D01*
G01*
X86853250Y-67598750D01*
G75*
G02*
X87107250Y-67852750I0J-254000D01*
G01*
X87107250Y-69884750D01*
G75*
G02*
X86853250Y-70138750I-254000J0D01*
G01*
X85329250Y-70138750D01*
G75*
G02*
X85075250Y-69884750I0J254000D01*
G01*
G37*
G36*
G01*
X85075250Y-77504750D02*
X85075250Y-75472750D01*
G75*
G02*
X85329250Y-75218750I254000J0D01*
G01*
X86853250Y-75218750D01*
G75*
G02*
X87107250Y-75472750I0J-254000D01*
G01*
X87107250Y-77504750D01*
G75*
G02*
X86853250Y-77758750I-254000J0D01*
G01*
X85329250Y-77758750D01*
G75*
G02*
X85075250Y-77504750I0J254000D01*
G01*
G37*
G36*
G01*
X82535250Y-77504750D02*
X82535250Y-75472750D01*
G75*
G02*
X82789250Y-75218750I254000J0D01*
G01*
X84313250Y-75218750D01*
G75*
G02*
X84567250Y-75472750I0J-254000D01*
G01*
X84567250Y-77504750D01*
G75*
G02*
X84313250Y-77758750I-254000J0D01*
G01*
X82789250Y-77758750D01*
G75*
G02*
X82535250Y-77504750I0J254000D01*
G01*
G37*
G36*
G01*
X79995250Y-77504750D02*
X79995250Y-75472750D01*
G75*
G02*
X80249250Y-75218750I254000J0D01*
G01*
X81773250Y-75218750D01*
G75*
G02*
X82027250Y-75472750I0J-254000D01*
G01*
X82027250Y-77504750D01*
G75*
G02*
X81773250Y-77758750I-254000J0D01*
G01*
X80249250Y-77758750D01*
G75*
G02*
X79995250Y-77504750I0J254000D01*
G01*
G37*
G36*
G01*
X77455250Y-77504750D02*
X77455250Y-75472750D01*
G75*
G02*
X77709250Y-75218750I254000J0D01*
G01*
X79233250Y-75218750D01*
G75*
G02*
X79487250Y-75472750I0J-254000D01*
G01*
X79487250Y-77504750D01*
G75*
G02*
X79233250Y-77758750I-254000J0D01*
G01*
X77709250Y-77758750D01*
G75*
G02*
X77455250Y-77504750I0J254000D01*
G01*
G37*
%TD*%
%TO.C,CH31*%
G36*
G01*
X77455250Y-84364750D02*
X77455250Y-82332750D01*
G75*
G02*
X77709250Y-82078750I254000J0D01*
G01*
X79233250Y-82078750D01*
G75*
G02*
X79487250Y-82332750I0J-254000D01*
G01*
X79487250Y-84364750D01*
G75*
G02*
X79233250Y-84618750I-254000J0D01*
G01*
X77709250Y-84618750D01*
G75*
G02*
X77455250Y-84364750I0J254000D01*
G01*
G37*
G36*
G01*
X79995250Y-84364750D02*
X79995250Y-82332750D01*
G75*
G02*
X80249250Y-82078750I254000J0D01*
G01*
X81773250Y-82078750D01*
G75*
G02*
X82027250Y-82332750I0J-254000D01*
G01*
X82027250Y-84364750D01*
G75*
G02*
X81773250Y-84618750I-254000J0D01*
G01*
X80249250Y-84618750D01*
G75*
G02*
X79995250Y-84364750I0J254000D01*
G01*
G37*
G36*
G01*
X82535250Y-84364750D02*
X82535250Y-82332750D01*
G75*
G02*
X82789250Y-82078750I254000J0D01*
G01*
X84313250Y-82078750D01*
G75*
G02*
X84567250Y-82332750I0J-254000D01*
G01*
X84567250Y-84364750D01*
G75*
G02*
X84313250Y-84618750I-254000J0D01*
G01*
X82789250Y-84618750D01*
G75*
G02*
X82535250Y-84364750I0J254000D01*
G01*
G37*
G36*
G01*
X85075250Y-84364750D02*
X85075250Y-82332750D01*
G75*
G02*
X85329250Y-82078750I254000J0D01*
G01*
X86853250Y-82078750D01*
G75*
G02*
X87107250Y-82332750I0J-254000D01*
G01*
X87107250Y-84364750D01*
G75*
G02*
X86853250Y-84618750I-254000J0D01*
G01*
X85329250Y-84618750D01*
G75*
G02*
X85075250Y-84364750I0J254000D01*
G01*
G37*
G36*
G01*
X85075250Y-91984750D02*
X85075250Y-89952750D01*
G75*
G02*
X85329250Y-89698750I254000J0D01*
G01*
X86853250Y-89698750D01*
G75*
G02*
X87107250Y-89952750I0J-254000D01*
G01*
X87107250Y-91984750D01*
G75*
G02*
X86853250Y-92238750I-254000J0D01*
G01*
X85329250Y-92238750D01*
G75*
G02*
X85075250Y-91984750I0J254000D01*
G01*
G37*
G36*
G01*
X82535250Y-91984750D02*
X82535250Y-89952750D01*
G75*
G02*
X82789250Y-89698750I254000J0D01*
G01*
X84313250Y-89698750D01*
G75*
G02*
X84567250Y-89952750I0J-254000D01*
G01*
X84567250Y-91984750D01*
G75*
G02*
X84313250Y-92238750I-254000J0D01*
G01*
X82789250Y-92238750D01*
G75*
G02*
X82535250Y-91984750I0J254000D01*
G01*
G37*
G36*
G01*
X79995250Y-91984750D02*
X79995250Y-89952750D01*
G75*
G02*
X80249250Y-89698750I254000J0D01*
G01*
X81773250Y-89698750D01*
G75*
G02*
X82027250Y-89952750I0J-254000D01*
G01*
X82027250Y-91984750D01*
G75*
G02*
X81773250Y-92238750I-254000J0D01*
G01*
X80249250Y-92238750D01*
G75*
G02*
X79995250Y-91984750I0J254000D01*
G01*
G37*
G36*
G01*
X77455250Y-91984750D02*
X77455250Y-89952750D01*
G75*
G02*
X77709250Y-89698750I254000J0D01*
G01*
X79233250Y-89698750D01*
G75*
G02*
X79487250Y-89952750I0J-254000D01*
G01*
X79487250Y-91984750D01*
G75*
G02*
X79233250Y-92238750I-254000J0D01*
G01*
X77709250Y-92238750D01*
G75*
G02*
X77455250Y-91984750I0J254000D01*
G01*
G37*
%TD*%
%TO.C,CH33*%
G36*
G01*
X92695250Y-40924750D02*
X92695250Y-38892750D01*
G75*
G02*
X92949250Y-38638750I254000J0D01*
G01*
X94473250Y-38638750D01*
G75*
G02*
X94727250Y-38892750I0J-254000D01*
G01*
X94727250Y-40924750D01*
G75*
G02*
X94473250Y-41178750I-254000J0D01*
G01*
X92949250Y-41178750D01*
G75*
G02*
X92695250Y-40924750I0J254000D01*
G01*
G37*
G36*
G01*
X95235250Y-40924750D02*
X95235250Y-38892750D01*
G75*
G02*
X95489250Y-38638750I254000J0D01*
G01*
X97013250Y-38638750D01*
G75*
G02*
X97267250Y-38892750I0J-254000D01*
G01*
X97267250Y-40924750D01*
G75*
G02*
X97013250Y-41178750I-254000J0D01*
G01*
X95489250Y-41178750D01*
G75*
G02*
X95235250Y-40924750I0J254000D01*
G01*
G37*
G36*
G01*
X97775250Y-40924750D02*
X97775250Y-38892750D01*
G75*
G02*
X98029250Y-38638750I254000J0D01*
G01*
X99553250Y-38638750D01*
G75*
G02*
X99807250Y-38892750I0J-254000D01*
G01*
X99807250Y-40924750D01*
G75*
G02*
X99553250Y-41178750I-254000J0D01*
G01*
X98029250Y-41178750D01*
G75*
G02*
X97775250Y-40924750I0J254000D01*
G01*
G37*
G36*
G01*
X100315250Y-40924750D02*
X100315250Y-38892750D01*
G75*
G02*
X100569250Y-38638750I254000J0D01*
G01*
X102093250Y-38638750D01*
G75*
G02*
X102347250Y-38892750I0J-254000D01*
G01*
X102347250Y-40924750D01*
G75*
G02*
X102093250Y-41178750I-254000J0D01*
G01*
X100569250Y-41178750D01*
G75*
G02*
X100315250Y-40924750I0J254000D01*
G01*
G37*
G36*
G01*
X100315250Y-48544750D02*
X100315250Y-46512750D01*
G75*
G02*
X100569250Y-46258750I254000J0D01*
G01*
X102093250Y-46258750D01*
G75*
G02*
X102347250Y-46512750I0J-254000D01*
G01*
X102347250Y-48544750D01*
G75*
G02*
X102093250Y-48798750I-254000J0D01*
G01*
X100569250Y-48798750D01*
G75*
G02*
X100315250Y-48544750I0J254000D01*
G01*
G37*
G36*
G01*
X97775250Y-48544750D02*
X97775250Y-46512750D01*
G75*
G02*
X98029250Y-46258750I254000J0D01*
G01*
X99553250Y-46258750D01*
G75*
G02*
X99807250Y-46512750I0J-254000D01*
G01*
X99807250Y-48544750D01*
G75*
G02*
X99553250Y-48798750I-254000J0D01*
G01*
X98029250Y-48798750D01*
G75*
G02*
X97775250Y-48544750I0J254000D01*
G01*
G37*
G36*
G01*
X95235250Y-48544750D02*
X95235250Y-46512750D01*
G75*
G02*
X95489250Y-46258750I254000J0D01*
G01*
X97013250Y-46258750D01*
G75*
G02*
X97267250Y-46512750I0J-254000D01*
G01*
X97267250Y-48544750D01*
G75*
G02*
X97013250Y-48798750I-254000J0D01*
G01*
X95489250Y-48798750D01*
G75*
G02*
X95235250Y-48544750I0J254000D01*
G01*
G37*
G36*
G01*
X92695250Y-48544750D02*
X92695250Y-46512750D01*
G75*
G02*
X92949250Y-46258750I254000J0D01*
G01*
X94473250Y-46258750D01*
G75*
G02*
X94727250Y-46512750I0J-254000D01*
G01*
X94727250Y-48544750D01*
G75*
G02*
X94473250Y-48798750I-254000J0D01*
G01*
X92949250Y-48798750D01*
G75*
G02*
X92695250Y-48544750I0J254000D01*
G01*
G37*
%TD*%
%TO.C,CH35*%
G36*
G01*
X92695250Y-55304750D02*
X92695250Y-53272750D01*
G75*
G02*
X92949250Y-53018750I254000J0D01*
G01*
X94473250Y-53018750D01*
G75*
G02*
X94727250Y-53272750I0J-254000D01*
G01*
X94727250Y-55304750D01*
G75*
G02*
X94473250Y-55558750I-254000J0D01*
G01*
X92949250Y-55558750D01*
G75*
G02*
X92695250Y-55304750I0J254000D01*
G01*
G37*
G36*
G01*
X95235250Y-55304750D02*
X95235250Y-53272750D01*
G75*
G02*
X95489250Y-53018750I254000J0D01*
G01*
X97013250Y-53018750D01*
G75*
G02*
X97267250Y-53272750I0J-254000D01*
G01*
X97267250Y-55304750D01*
G75*
G02*
X97013250Y-55558750I-254000J0D01*
G01*
X95489250Y-55558750D01*
G75*
G02*
X95235250Y-55304750I0J254000D01*
G01*
G37*
G36*
G01*
X97775250Y-55304750D02*
X97775250Y-53272750D01*
G75*
G02*
X98029250Y-53018750I254000J0D01*
G01*
X99553250Y-53018750D01*
G75*
G02*
X99807250Y-53272750I0J-254000D01*
G01*
X99807250Y-55304750D01*
G75*
G02*
X99553250Y-55558750I-254000J0D01*
G01*
X98029250Y-55558750D01*
G75*
G02*
X97775250Y-55304750I0J254000D01*
G01*
G37*
G36*
G01*
X100315250Y-55304750D02*
X100315250Y-53272750D01*
G75*
G02*
X100569250Y-53018750I254000J0D01*
G01*
X102093250Y-53018750D01*
G75*
G02*
X102347250Y-53272750I0J-254000D01*
G01*
X102347250Y-55304750D01*
G75*
G02*
X102093250Y-55558750I-254000J0D01*
G01*
X100569250Y-55558750D01*
G75*
G02*
X100315250Y-55304750I0J254000D01*
G01*
G37*
G36*
G01*
X100315250Y-62924750D02*
X100315250Y-60892750D01*
G75*
G02*
X100569250Y-60638750I254000J0D01*
G01*
X102093250Y-60638750D01*
G75*
G02*
X102347250Y-60892750I0J-254000D01*
G01*
X102347250Y-62924750D01*
G75*
G02*
X102093250Y-63178750I-254000J0D01*
G01*
X100569250Y-63178750D01*
G75*
G02*
X100315250Y-62924750I0J254000D01*
G01*
G37*
G36*
G01*
X97775250Y-62924750D02*
X97775250Y-60892750D01*
G75*
G02*
X98029250Y-60638750I254000J0D01*
G01*
X99553250Y-60638750D01*
G75*
G02*
X99807250Y-60892750I0J-254000D01*
G01*
X99807250Y-62924750D01*
G75*
G02*
X99553250Y-63178750I-254000J0D01*
G01*
X98029250Y-63178750D01*
G75*
G02*
X97775250Y-62924750I0J254000D01*
G01*
G37*
G36*
G01*
X95235250Y-62924750D02*
X95235250Y-60892750D01*
G75*
G02*
X95489250Y-60638750I254000J0D01*
G01*
X97013250Y-60638750D01*
G75*
G02*
X97267250Y-60892750I0J-254000D01*
G01*
X97267250Y-62924750D01*
G75*
G02*
X97013250Y-63178750I-254000J0D01*
G01*
X95489250Y-63178750D01*
G75*
G02*
X95235250Y-62924750I0J254000D01*
G01*
G37*
G36*
G01*
X92695250Y-62924750D02*
X92695250Y-60892750D01*
G75*
G02*
X92949250Y-60638750I254000J0D01*
G01*
X94473250Y-60638750D01*
G75*
G02*
X94727250Y-60892750I0J-254000D01*
G01*
X94727250Y-62924750D01*
G75*
G02*
X94473250Y-63178750I-254000J0D01*
G01*
X92949250Y-63178750D01*
G75*
G02*
X92695250Y-62924750I0J254000D01*
G01*
G37*
%TD*%
%TO.C,CH37*%
G36*
G01*
X92695250Y-69884750D02*
X92695250Y-67852750D01*
G75*
G02*
X92949250Y-67598750I254000J0D01*
G01*
X94473250Y-67598750D01*
G75*
G02*
X94727250Y-67852750I0J-254000D01*
G01*
X94727250Y-69884750D01*
G75*
G02*
X94473250Y-70138750I-254000J0D01*
G01*
X92949250Y-70138750D01*
G75*
G02*
X92695250Y-69884750I0J254000D01*
G01*
G37*
G36*
G01*
X95235250Y-69884750D02*
X95235250Y-67852750D01*
G75*
G02*
X95489250Y-67598750I254000J0D01*
G01*
X97013250Y-67598750D01*
G75*
G02*
X97267250Y-67852750I0J-254000D01*
G01*
X97267250Y-69884750D01*
G75*
G02*
X97013250Y-70138750I-254000J0D01*
G01*
X95489250Y-70138750D01*
G75*
G02*
X95235250Y-69884750I0J254000D01*
G01*
G37*
G36*
G01*
X97775250Y-69884750D02*
X97775250Y-67852750D01*
G75*
G02*
X98029250Y-67598750I254000J0D01*
G01*
X99553250Y-67598750D01*
G75*
G02*
X99807250Y-67852750I0J-254000D01*
G01*
X99807250Y-69884750D01*
G75*
G02*
X99553250Y-70138750I-254000J0D01*
G01*
X98029250Y-70138750D01*
G75*
G02*
X97775250Y-69884750I0J254000D01*
G01*
G37*
G36*
G01*
X100315250Y-69884750D02*
X100315250Y-67852750D01*
G75*
G02*
X100569250Y-67598750I254000J0D01*
G01*
X102093250Y-67598750D01*
G75*
G02*
X102347250Y-67852750I0J-254000D01*
G01*
X102347250Y-69884750D01*
G75*
G02*
X102093250Y-70138750I-254000J0D01*
G01*
X100569250Y-70138750D01*
G75*
G02*
X100315250Y-69884750I0J254000D01*
G01*
G37*
G36*
G01*
X100315250Y-77504750D02*
X100315250Y-75472750D01*
G75*
G02*
X100569250Y-75218750I254000J0D01*
G01*
X102093250Y-75218750D01*
G75*
G02*
X102347250Y-75472750I0J-254000D01*
G01*
X102347250Y-77504750D01*
G75*
G02*
X102093250Y-77758750I-254000J0D01*
G01*
X100569250Y-77758750D01*
G75*
G02*
X100315250Y-77504750I0J254000D01*
G01*
G37*
G36*
G01*
X97775250Y-77504750D02*
X97775250Y-75472750D01*
G75*
G02*
X98029250Y-75218750I254000J0D01*
G01*
X99553250Y-75218750D01*
G75*
G02*
X99807250Y-75472750I0J-254000D01*
G01*
X99807250Y-77504750D01*
G75*
G02*
X99553250Y-77758750I-254000J0D01*
G01*
X98029250Y-77758750D01*
G75*
G02*
X97775250Y-77504750I0J254000D01*
G01*
G37*
G36*
G01*
X95235250Y-77504750D02*
X95235250Y-75472750D01*
G75*
G02*
X95489250Y-75218750I254000J0D01*
G01*
X97013250Y-75218750D01*
G75*
G02*
X97267250Y-75472750I0J-254000D01*
G01*
X97267250Y-77504750D01*
G75*
G02*
X97013250Y-77758750I-254000J0D01*
G01*
X95489250Y-77758750D01*
G75*
G02*
X95235250Y-77504750I0J254000D01*
G01*
G37*
G36*
G01*
X92695250Y-77504750D02*
X92695250Y-75472750D01*
G75*
G02*
X92949250Y-75218750I254000J0D01*
G01*
X94473250Y-75218750D01*
G75*
G02*
X94727250Y-75472750I0J-254000D01*
G01*
X94727250Y-77504750D01*
G75*
G02*
X94473250Y-77758750I-254000J0D01*
G01*
X92949250Y-77758750D01*
G75*
G02*
X92695250Y-77504750I0J254000D01*
G01*
G37*
%TD*%
%TO.C,CH39*%
G36*
G01*
X92695250Y-84364750D02*
X92695250Y-82332750D01*
G75*
G02*
X92949250Y-82078750I254000J0D01*
G01*
X94473250Y-82078750D01*
G75*
G02*
X94727250Y-82332750I0J-254000D01*
G01*
X94727250Y-84364750D01*
G75*
G02*
X94473250Y-84618750I-254000J0D01*
G01*
X92949250Y-84618750D01*
G75*
G02*
X92695250Y-84364750I0J254000D01*
G01*
G37*
G36*
G01*
X95235250Y-84364750D02*
X95235250Y-82332750D01*
G75*
G02*
X95489250Y-82078750I254000J0D01*
G01*
X97013250Y-82078750D01*
G75*
G02*
X97267250Y-82332750I0J-254000D01*
G01*
X97267250Y-84364750D01*
G75*
G02*
X97013250Y-84618750I-254000J0D01*
G01*
X95489250Y-84618750D01*
G75*
G02*
X95235250Y-84364750I0J254000D01*
G01*
G37*
G36*
G01*
X97775250Y-84364750D02*
X97775250Y-82332750D01*
G75*
G02*
X98029250Y-82078750I254000J0D01*
G01*
X99553250Y-82078750D01*
G75*
G02*
X99807250Y-82332750I0J-254000D01*
G01*
X99807250Y-84364750D01*
G75*
G02*
X99553250Y-84618750I-254000J0D01*
G01*
X98029250Y-84618750D01*
G75*
G02*
X97775250Y-84364750I0J254000D01*
G01*
G37*
G36*
G01*
X100315250Y-84364750D02*
X100315250Y-82332750D01*
G75*
G02*
X100569250Y-82078750I254000J0D01*
G01*
X102093250Y-82078750D01*
G75*
G02*
X102347250Y-82332750I0J-254000D01*
G01*
X102347250Y-84364750D01*
G75*
G02*
X102093250Y-84618750I-254000J0D01*
G01*
X100569250Y-84618750D01*
G75*
G02*
X100315250Y-84364750I0J254000D01*
G01*
G37*
G36*
G01*
X100315250Y-91984750D02*
X100315250Y-89952750D01*
G75*
G02*
X100569250Y-89698750I254000J0D01*
G01*
X102093250Y-89698750D01*
G75*
G02*
X102347250Y-89952750I0J-254000D01*
G01*
X102347250Y-91984750D01*
G75*
G02*
X102093250Y-92238750I-254000J0D01*
G01*
X100569250Y-92238750D01*
G75*
G02*
X100315250Y-91984750I0J254000D01*
G01*
G37*
G36*
G01*
X97775250Y-91984750D02*
X97775250Y-89952750D01*
G75*
G02*
X98029250Y-89698750I254000J0D01*
G01*
X99553250Y-89698750D01*
G75*
G02*
X99807250Y-89952750I0J-254000D01*
G01*
X99807250Y-91984750D01*
G75*
G02*
X99553250Y-92238750I-254000J0D01*
G01*
X98029250Y-92238750D01*
G75*
G02*
X97775250Y-91984750I0J254000D01*
G01*
G37*
G36*
G01*
X95235250Y-91984750D02*
X95235250Y-89952750D01*
G75*
G02*
X95489250Y-89698750I254000J0D01*
G01*
X97013250Y-89698750D01*
G75*
G02*
X97267250Y-89952750I0J-254000D01*
G01*
X97267250Y-91984750D01*
G75*
G02*
X97013250Y-92238750I-254000J0D01*
G01*
X95489250Y-92238750D01*
G75*
G02*
X95235250Y-91984750I0J254000D01*
G01*
G37*
G36*
G01*
X92695250Y-91984750D02*
X92695250Y-89952750D01*
G75*
G02*
X92949250Y-89698750I254000J0D01*
G01*
X94473250Y-89698750D01*
G75*
G02*
X94727250Y-89952750I0J-254000D01*
G01*
X94727250Y-91984750D01*
G75*
G02*
X94473250Y-92238750I-254000J0D01*
G01*
X92949250Y-92238750D01*
G75*
G02*
X92695250Y-91984750I0J254000D01*
G01*
G37*
%TD*%
%TO.C,P1*%
G36*
G01*
X84836400Y-101730000D02*
X86563600Y-101730000D01*
G75*
G02*
X86817600Y-101984000I0J-254000D01*
G01*
X86817600Y-104016000D01*
G75*
G02*
X86563600Y-104270000I-254000J0D01*
G01*
X84836400Y-104270000D01*
G75*
G02*
X84582400Y-104016000I0J254000D01*
G01*
X84582400Y-101984000D01*
G75*
G02*
X84836400Y-101730000I254000J0D01*
G01*
G37*
D10*
X83160000Y-103000000D03*
X80620000Y-103000000D03*
X78080000Y-103000000D03*
X75540000Y-103000000D03*
X73000000Y-103000000D03*
%TD*%
%TO.C,P2*%
G36*
G01*
X36963600Y-109117600D02*
X35236400Y-109117600D01*
G75*
G02*
X34982400Y-108863600I0J254000D01*
G01*
X34982400Y-107136400D01*
G75*
G02*
X35236400Y-106882400I254000J0D01*
G01*
X36963600Y-106882400D01*
G75*
G02*
X37217600Y-107136400I0J-254000D01*
G01*
X37217600Y-108863600D01*
G75*
G02*
X36963600Y-109117600I-254000J0D01*
G01*
G37*
D11*
X36100000Y-105460000D03*
X38640000Y-108000000D03*
X38640000Y-105460000D03*
X41180000Y-108000000D03*
X41180000Y-105460000D03*
%TD*%
%TO.C,U1*%
G36*
G01*
X31608250Y-95223250D02*
X31608250Y-94080250D01*
G75*
G02*
X31862250Y-93826250I254000J0D01*
G01*
X32370250Y-93826250D01*
G75*
G02*
X32624250Y-94080250I0J-254000D01*
G01*
X32624250Y-95223250D01*
G75*
G02*
X32370250Y-95477250I-254000J0D01*
G01*
X31862250Y-95477250D01*
G75*
G02*
X31608250Y-95223250I0J254000D01*
G01*
G37*
G36*
G01*
X32878250Y-95223250D02*
X32878250Y-94080250D01*
G75*
G02*
X33132250Y-93826250I254000J0D01*
G01*
X33640250Y-93826250D01*
G75*
G02*
X33894250Y-94080250I0J-254000D01*
G01*
X33894250Y-95223250D01*
G75*
G02*
X33640250Y-95477250I-254000J0D01*
G01*
X33132250Y-95477250D01*
G75*
G02*
X32878250Y-95223250I0J254000D01*
G01*
G37*
G36*
G01*
X34148250Y-95223250D02*
X34148250Y-94080250D01*
G75*
G02*
X34402250Y-93826250I254000J0D01*
G01*
X34910250Y-93826250D01*
G75*
G02*
X35164250Y-94080250I0J-254000D01*
G01*
X35164250Y-95223250D01*
G75*
G02*
X34910250Y-95477250I-254000J0D01*
G01*
X34402250Y-95477250D01*
G75*
G02*
X34148250Y-95223250I0J254000D01*
G01*
G37*
G36*
G01*
X35418250Y-95223250D02*
X35418250Y-94080250D01*
G75*
G02*
X35672250Y-93826250I254000J0D01*
G01*
X36180250Y-93826250D01*
G75*
G02*
X36434250Y-94080250I0J-254000D01*
G01*
X36434250Y-95223250D01*
G75*
G02*
X36180250Y-95477250I-254000J0D01*
G01*
X35672250Y-95477250D01*
G75*
G02*
X35418250Y-95223250I0J254000D01*
G01*
G37*
G36*
G01*
X36688250Y-95223250D02*
X36688250Y-94080250D01*
G75*
G02*
X36942250Y-93826250I254000J0D01*
G01*
X37450250Y-93826250D01*
G75*
G02*
X37704250Y-94080250I0J-254000D01*
G01*
X37704250Y-95223250D01*
G75*
G02*
X37450250Y-95477250I-254000J0D01*
G01*
X36942250Y-95477250D01*
G75*
G02*
X36688250Y-95223250I0J254000D01*
G01*
G37*
G36*
G01*
X37958250Y-95223250D02*
X37958250Y-94080250D01*
G75*
G02*
X38212250Y-93826250I254000J0D01*
G01*
X38720250Y-93826250D01*
G75*
G02*
X38974250Y-94080250I0J-254000D01*
G01*
X38974250Y-95223250D01*
G75*
G02*
X38720250Y-95477250I-254000J0D01*
G01*
X38212250Y-95477250D01*
G75*
G02*
X37958250Y-95223250I0J254000D01*
G01*
G37*
G36*
G01*
X39228250Y-95223250D02*
X39228250Y-94080250D01*
G75*
G02*
X39482250Y-93826250I254000J0D01*
G01*
X39990250Y-93826250D01*
G75*
G02*
X40244250Y-94080250I0J-254000D01*
G01*
X40244250Y-95223250D01*
G75*
G02*
X39990250Y-95477250I-254000J0D01*
G01*
X39482250Y-95477250D01*
G75*
G02*
X39228250Y-95223250I0J254000D01*
G01*
G37*
G36*
G01*
X40498250Y-95223250D02*
X40498250Y-94080250D01*
G75*
G02*
X40752250Y-93826250I254000J0D01*
G01*
X41260250Y-93826250D01*
G75*
G02*
X41514250Y-94080250I0J-254000D01*
G01*
X41514250Y-95223250D01*
G75*
G02*
X41260250Y-95477250I-254000J0D01*
G01*
X40752250Y-95477250D01*
G75*
G02*
X40498250Y-95223250I0J254000D01*
G01*
G37*
G36*
G01*
X40498250Y-100303250D02*
X40498250Y-99160250D01*
G75*
G02*
X40752250Y-98906250I254000J0D01*
G01*
X41260250Y-98906250D01*
G75*
G02*
X41514250Y-99160250I0J-254000D01*
G01*
X41514250Y-100303250D01*
G75*
G02*
X41260250Y-100557250I-254000J0D01*
G01*
X40752250Y-100557250D01*
G75*
G02*
X40498250Y-100303250I0J254000D01*
G01*
G37*
G36*
G01*
X39228250Y-100303250D02*
X39228250Y-99160250D01*
G75*
G02*
X39482250Y-98906250I254000J0D01*
G01*
X39990250Y-98906250D01*
G75*
G02*
X40244250Y-99160250I0J-254000D01*
G01*
X40244250Y-100303250D01*
G75*
G02*
X39990250Y-100557250I-254000J0D01*
G01*
X39482250Y-100557250D01*
G75*
G02*
X39228250Y-100303250I0J254000D01*
G01*
G37*
G36*
G01*
X37958250Y-100303250D02*
X37958250Y-99160250D01*
G75*
G02*
X38212250Y-98906250I254000J0D01*
G01*
X38720250Y-98906250D01*
G75*
G02*
X38974250Y-99160250I0J-254000D01*
G01*
X38974250Y-100303250D01*
G75*
G02*
X38720250Y-100557250I-254000J0D01*
G01*
X38212250Y-100557250D01*
G75*
G02*
X37958250Y-100303250I0J254000D01*
G01*
G37*
G36*
G01*
X36688250Y-100303250D02*
X36688250Y-99160250D01*
G75*
G02*
X36942250Y-98906250I254000J0D01*
G01*
X37450250Y-98906250D01*
G75*
G02*
X37704250Y-99160250I0J-254000D01*
G01*
X37704250Y-100303250D01*
G75*
G02*
X37450250Y-100557250I-254000J0D01*
G01*
X36942250Y-100557250D01*
G75*
G02*
X36688250Y-100303250I0J254000D01*
G01*
G37*
G36*
G01*
X35418250Y-100303250D02*
X35418250Y-99160250D01*
G75*
G02*
X35672250Y-98906250I254000J0D01*
G01*
X36180250Y-98906250D01*
G75*
G02*
X36434250Y-99160250I0J-254000D01*
G01*
X36434250Y-100303250D01*
G75*
G02*
X36180250Y-100557250I-254000J0D01*
G01*
X35672250Y-100557250D01*
G75*
G02*
X35418250Y-100303250I0J254000D01*
G01*
G37*
G36*
G01*
X34148250Y-100303250D02*
X34148250Y-99160250D01*
G75*
G02*
X34402250Y-98906250I254000J0D01*
G01*
X34910250Y-98906250D01*
G75*
G02*
X35164250Y-99160250I0J-254000D01*
G01*
X35164250Y-100303250D01*
G75*
G02*
X34910250Y-100557250I-254000J0D01*
G01*
X34402250Y-100557250D01*
G75*
G02*
X34148250Y-100303250I0J254000D01*
G01*
G37*
G36*
G01*
X32878250Y-100303250D02*
X32878250Y-99160250D01*
G75*
G02*
X33132250Y-98906250I254000J0D01*
G01*
X33640250Y-98906250D01*
G75*
G02*
X33894250Y-99160250I0J-254000D01*
G01*
X33894250Y-100303250D01*
G75*
G02*
X33640250Y-100557250I-254000J0D01*
G01*
X33132250Y-100557250D01*
G75*
G02*
X32878250Y-100303250I0J254000D01*
G01*
G37*
G36*
G01*
X31608250Y-100303250D02*
X31608250Y-99160250D01*
G75*
G02*
X31862250Y-98906250I254000J0D01*
G01*
X32370250Y-98906250D01*
G75*
G02*
X32624250Y-99160250I0J-254000D01*
G01*
X32624250Y-100303250D01*
G75*
G02*
X32370250Y-100557250I-254000J0D01*
G01*
X31862250Y-100557250D01*
G75*
G02*
X31608250Y-100303250I0J254000D01*
G01*
G37*
%TD*%
%TO.C,U2*%
G36*
G01*
X46848250Y-95096250D02*
X46848250Y-93953250D01*
G75*
G02*
X47102250Y-93699250I254000J0D01*
G01*
X47610250Y-93699250D01*
G75*
G02*
X47864250Y-93953250I0J-254000D01*
G01*
X47864250Y-95096250D01*
G75*
G02*
X47610250Y-95350250I-254000J0D01*
G01*
X47102250Y-95350250D01*
G75*
G02*
X46848250Y-95096250I0J254000D01*
G01*
G37*
G36*
G01*
X48118250Y-95096250D02*
X48118250Y-93953250D01*
G75*
G02*
X48372250Y-93699250I254000J0D01*
G01*
X48880250Y-93699250D01*
G75*
G02*
X49134250Y-93953250I0J-254000D01*
G01*
X49134250Y-95096250D01*
G75*
G02*
X48880250Y-95350250I-254000J0D01*
G01*
X48372250Y-95350250D01*
G75*
G02*
X48118250Y-95096250I0J254000D01*
G01*
G37*
G36*
G01*
X49388250Y-95096250D02*
X49388250Y-93953250D01*
G75*
G02*
X49642250Y-93699250I254000J0D01*
G01*
X50150250Y-93699250D01*
G75*
G02*
X50404250Y-93953250I0J-254000D01*
G01*
X50404250Y-95096250D01*
G75*
G02*
X50150250Y-95350250I-254000J0D01*
G01*
X49642250Y-95350250D01*
G75*
G02*
X49388250Y-95096250I0J254000D01*
G01*
G37*
G36*
G01*
X50658250Y-95096250D02*
X50658250Y-93953250D01*
G75*
G02*
X50912250Y-93699250I254000J0D01*
G01*
X51420250Y-93699250D01*
G75*
G02*
X51674250Y-93953250I0J-254000D01*
G01*
X51674250Y-95096250D01*
G75*
G02*
X51420250Y-95350250I-254000J0D01*
G01*
X50912250Y-95350250D01*
G75*
G02*
X50658250Y-95096250I0J254000D01*
G01*
G37*
G36*
G01*
X51928250Y-95096250D02*
X51928250Y-93953250D01*
G75*
G02*
X52182250Y-93699250I254000J0D01*
G01*
X52690250Y-93699250D01*
G75*
G02*
X52944250Y-93953250I0J-254000D01*
G01*
X52944250Y-95096250D01*
G75*
G02*
X52690250Y-95350250I-254000J0D01*
G01*
X52182250Y-95350250D01*
G75*
G02*
X51928250Y-95096250I0J254000D01*
G01*
G37*
G36*
G01*
X53198250Y-95096250D02*
X53198250Y-93953250D01*
G75*
G02*
X53452250Y-93699250I254000J0D01*
G01*
X53960250Y-93699250D01*
G75*
G02*
X54214250Y-93953250I0J-254000D01*
G01*
X54214250Y-95096250D01*
G75*
G02*
X53960250Y-95350250I-254000J0D01*
G01*
X53452250Y-95350250D01*
G75*
G02*
X53198250Y-95096250I0J254000D01*
G01*
G37*
G36*
G01*
X54468250Y-95096250D02*
X54468250Y-93953250D01*
G75*
G02*
X54722250Y-93699250I254000J0D01*
G01*
X55230250Y-93699250D01*
G75*
G02*
X55484250Y-93953250I0J-254000D01*
G01*
X55484250Y-95096250D01*
G75*
G02*
X55230250Y-95350250I-254000J0D01*
G01*
X54722250Y-95350250D01*
G75*
G02*
X54468250Y-95096250I0J254000D01*
G01*
G37*
G36*
G01*
X55738250Y-95096250D02*
X55738250Y-93953250D01*
G75*
G02*
X55992250Y-93699250I254000J0D01*
G01*
X56500250Y-93699250D01*
G75*
G02*
X56754250Y-93953250I0J-254000D01*
G01*
X56754250Y-95096250D01*
G75*
G02*
X56500250Y-95350250I-254000J0D01*
G01*
X55992250Y-95350250D01*
G75*
G02*
X55738250Y-95096250I0J254000D01*
G01*
G37*
G36*
G01*
X55738250Y-100176250D02*
X55738250Y-99033250D01*
G75*
G02*
X55992250Y-98779250I254000J0D01*
G01*
X56500250Y-98779250D01*
G75*
G02*
X56754250Y-99033250I0J-254000D01*
G01*
X56754250Y-100176250D01*
G75*
G02*
X56500250Y-100430250I-254000J0D01*
G01*
X55992250Y-100430250D01*
G75*
G02*
X55738250Y-100176250I0J254000D01*
G01*
G37*
G36*
G01*
X54468250Y-100176250D02*
X54468250Y-99033250D01*
G75*
G02*
X54722250Y-98779250I254000J0D01*
G01*
X55230250Y-98779250D01*
G75*
G02*
X55484250Y-99033250I0J-254000D01*
G01*
X55484250Y-100176250D01*
G75*
G02*
X55230250Y-100430250I-254000J0D01*
G01*
X54722250Y-100430250D01*
G75*
G02*
X54468250Y-100176250I0J254000D01*
G01*
G37*
G36*
G01*
X53198250Y-100176250D02*
X53198250Y-99033250D01*
G75*
G02*
X53452250Y-98779250I254000J0D01*
G01*
X53960250Y-98779250D01*
G75*
G02*
X54214250Y-99033250I0J-254000D01*
G01*
X54214250Y-100176250D01*
G75*
G02*
X53960250Y-100430250I-254000J0D01*
G01*
X53452250Y-100430250D01*
G75*
G02*
X53198250Y-100176250I0J254000D01*
G01*
G37*
G36*
G01*
X51928250Y-100176250D02*
X51928250Y-99033250D01*
G75*
G02*
X52182250Y-98779250I254000J0D01*
G01*
X52690250Y-98779250D01*
G75*
G02*
X52944250Y-99033250I0J-254000D01*
G01*
X52944250Y-100176250D01*
G75*
G02*
X52690250Y-100430250I-254000J0D01*
G01*
X52182250Y-100430250D01*
G75*
G02*
X51928250Y-100176250I0J254000D01*
G01*
G37*
G36*
G01*
X50658250Y-100176250D02*
X50658250Y-99033250D01*
G75*
G02*
X50912250Y-98779250I254000J0D01*
G01*
X51420250Y-98779250D01*
G75*
G02*
X51674250Y-99033250I0J-254000D01*
G01*
X51674250Y-100176250D01*
G75*
G02*
X51420250Y-100430250I-254000J0D01*
G01*
X50912250Y-100430250D01*
G75*
G02*
X50658250Y-100176250I0J254000D01*
G01*
G37*
G36*
G01*
X49388250Y-100176250D02*
X49388250Y-99033250D01*
G75*
G02*
X49642250Y-98779250I254000J0D01*
G01*
X50150250Y-98779250D01*
G75*
G02*
X50404250Y-99033250I0J-254000D01*
G01*
X50404250Y-100176250D01*
G75*
G02*
X50150250Y-100430250I-254000J0D01*
G01*
X49642250Y-100430250D01*
G75*
G02*
X49388250Y-100176250I0J254000D01*
G01*
G37*
G36*
G01*
X48118250Y-100176250D02*
X48118250Y-99033250D01*
G75*
G02*
X48372250Y-98779250I254000J0D01*
G01*
X48880250Y-98779250D01*
G75*
G02*
X49134250Y-99033250I0J-254000D01*
G01*
X49134250Y-100176250D01*
G75*
G02*
X48880250Y-100430250I-254000J0D01*
G01*
X48372250Y-100430250D01*
G75*
G02*
X48118250Y-100176250I0J254000D01*
G01*
G37*
G36*
G01*
X46848250Y-100176250D02*
X46848250Y-99033250D01*
G75*
G02*
X47102250Y-98779250I254000J0D01*
G01*
X47610250Y-98779250D01*
G75*
G02*
X47864250Y-99033250I0J-254000D01*
G01*
X47864250Y-100176250D01*
G75*
G02*
X47610250Y-100430250I-254000J0D01*
G01*
X47102250Y-100430250D01*
G75*
G02*
X46848250Y-100176250I0J254000D01*
G01*
G37*
%TD*%
%TO.C,U3*%
G36*
G01*
X62088250Y-95096250D02*
X62088250Y-93953250D01*
G75*
G02*
X62342250Y-93699250I254000J0D01*
G01*
X62850250Y-93699250D01*
G75*
G02*
X63104250Y-93953250I0J-254000D01*
G01*
X63104250Y-95096250D01*
G75*
G02*
X62850250Y-95350250I-254000J0D01*
G01*
X62342250Y-95350250D01*
G75*
G02*
X62088250Y-95096250I0J254000D01*
G01*
G37*
G36*
G01*
X63358250Y-95096250D02*
X63358250Y-93953250D01*
G75*
G02*
X63612250Y-93699250I254000J0D01*
G01*
X64120250Y-93699250D01*
G75*
G02*
X64374250Y-93953250I0J-254000D01*
G01*
X64374250Y-95096250D01*
G75*
G02*
X64120250Y-95350250I-254000J0D01*
G01*
X63612250Y-95350250D01*
G75*
G02*
X63358250Y-95096250I0J254000D01*
G01*
G37*
G36*
G01*
X64628250Y-95096250D02*
X64628250Y-93953250D01*
G75*
G02*
X64882250Y-93699250I254000J0D01*
G01*
X65390250Y-93699250D01*
G75*
G02*
X65644250Y-93953250I0J-254000D01*
G01*
X65644250Y-95096250D01*
G75*
G02*
X65390250Y-95350250I-254000J0D01*
G01*
X64882250Y-95350250D01*
G75*
G02*
X64628250Y-95096250I0J254000D01*
G01*
G37*
G36*
G01*
X65898250Y-95096250D02*
X65898250Y-93953250D01*
G75*
G02*
X66152250Y-93699250I254000J0D01*
G01*
X66660250Y-93699250D01*
G75*
G02*
X66914250Y-93953250I0J-254000D01*
G01*
X66914250Y-95096250D01*
G75*
G02*
X66660250Y-95350250I-254000J0D01*
G01*
X66152250Y-95350250D01*
G75*
G02*
X65898250Y-95096250I0J254000D01*
G01*
G37*
G36*
G01*
X67168250Y-95096250D02*
X67168250Y-93953250D01*
G75*
G02*
X67422250Y-93699250I254000J0D01*
G01*
X67930250Y-93699250D01*
G75*
G02*
X68184250Y-93953250I0J-254000D01*
G01*
X68184250Y-95096250D01*
G75*
G02*
X67930250Y-95350250I-254000J0D01*
G01*
X67422250Y-95350250D01*
G75*
G02*
X67168250Y-95096250I0J254000D01*
G01*
G37*
G36*
G01*
X68438250Y-95096250D02*
X68438250Y-93953250D01*
G75*
G02*
X68692250Y-93699250I254000J0D01*
G01*
X69200250Y-93699250D01*
G75*
G02*
X69454250Y-93953250I0J-254000D01*
G01*
X69454250Y-95096250D01*
G75*
G02*
X69200250Y-95350250I-254000J0D01*
G01*
X68692250Y-95350250D01*
G75*
G02*
X68438250Y-95096250I0J254000D01*
G01*
G37*
G36*
G01*
X69708250Y-95096250D02*
X69708250Y-93953250D01*
G75*
G02*
X69962250Y-93699250I254000J0D01*
G01*
X70470250Y-93699250D01*
G75*
G02*
X70724250Y-93953250I0J-254000D01*
G01*
X70724250Y-95096250D01*
G75*
G02*
X70470250Y-95350250I-254000J0D01*
G01*
X69962250Y-95350250D01*
G75*
G02*
X69708250Y-95096250I0J254000D01*
G01*
G37*
G36*
G01*
X70978250Y-95096250D02*
X70978250Y-93953250D01*
G75*
G02*
X71232250Y-93699250I254000J0D01*
G01*
X71740250Y-93699250D01*
G75*
G02*
X71994250Y-93953250I0J-254000D01*
G01*
X71994250Y-95096250D01*
G75*
G02*
X71740250Y-95350250I-254000J0D01*
G01*
X71232250Y-95350250D01*
G75*
G02*
X70978250Y-95096250I0J254000D01*
G01*
G37*
G36*
G01*
X70978250Y-100176250D02*
X70978250Y-99033250D01*
G75*
G02*
X71232250Y-98779250I254000J0D01*
G01*
X71740250Y-98779250D01*
G75*
G02*
X71994250Y-99033250I0J-254000D01*
G01*
X71994250Y-100176250D01*
G75*
G02*
X71740250Y-100430250I-254000J0D01*
G01*
X71232250Y-100430250D01*
G75*
G02*
X70978250Y-100176250I0J254000D01*
G01*
G37*
G36*
G01*
X69708250Y-100176250D02*
X69708250Y-99033250D01*
G75*
G02*
X69962250Y-98779250I254000J0D01*
G01*
X70470250Y-98779250D01*
G75*
G02*
X70724250Y-99033250I0J-254000D01*
G01*
X70724250Y-100176250D01*
G75*
G02*
X70470250Y-100430250I-254000J0D01*
G01*
X69962250Y-100430250D01*
G75*
G02*
X69708250Y-100176250I0J254000D01*
G01*
G37*
G36*
G01*
X68438250Y-100176250D02*
X68438250Y-99033250D01*
G75*
G02*
X68692250Y-98779250I254000J0D01*
G01*
X69200250Y-98779250D01*
G75*
G02*
X69454250Y-99033250I0J-254000D01*
G01*
X69454250Y-100176250D01*
G75*
G02*
X69200250Y-100430250I-254000J0D01*
G01*
X68692250Y-100430250D01*
G75*
G02*
X68438250Y-100176250I0J254000D01*
G01*
G37*
G36*
G01*
X67168250Y-100176250D02*
X67168250Y-99033250D01*
G75*
G02*
X67422250Y-98779250I254000J0D01*
G01*
X67930250Y-98779250D01*
G75*
G02*
X68184250Y-99033250I0J-254000D01*
G01*
X68184250Y-100176250D01*
G75*
G02*
X67930250Y-100430250I-254000J0D01*
G01*
X67422250Y-100430250D01*
G75*
G02*
X67168250Y-100176250I0J254000D01*
G01*
G37*
G36*
G01*
X65898250Y-100176250D02*
X65898250Y-99033250D01*
G75*
G02*
X66152250Y-98779250I254000J0D01*
G01*
X66660250Y-98779250D01*
G75*
G02*
X66914250Y-99033250I0J-254000D01*
G01*
X66914250Y-100176250D01*
G75*
G02*
X66660250Y-100430250I-254000J0D01*
G01*
X66152250Y-100430250D01*
G75*
G02*
X65898250Y-100176250I0J254000D01*
G01*
G37*
G36*
G01*
X64628250Y-100176250D02*
X64628250Y-99033250D01*
G75*
G02*
X64882250Y-98779250I254000J0D01*
G01*
X65390250Y-98779250D01*
G75*
G02*
X65644250Y-99033250I0J-254000D01*
G01*
X65644250Y-100176250D01*
G75*
G02*
X65390250Y-100430250I-254000J0D01*
G01*
X64882250Y-100430250D01*
G75*
G02*
X64628250Y-100176250I0J254000D01*
G01*
G37*
G36*
G01*
X63358250Y-100176250D02*
X63358250Y-99033250D01*
G75*
G02*
X63612250Y-98779250I254000J0D01*
G01*
X64120250Y-98779250D01*
G75*
G02*
X64374250Y-99033250I0J-254000D01*
G01*
X64374250Y-100176250D01*
G75*
G02*
X64120250Y-100430250I-254000J0D01*
G01*
X63612250Y-100430250D01*
G75*
G02*
X63358250Y-100176250I0J254000D01*
G01*
G37*
G36*
G01*
X62088250Y-100176250D02*
X62088250Y-99033250D01*
G75*
G02*
X62342250Y-98779250I254000J0D01*
G01*
X62850250Y-98779250D01*
G75*
G02*
X63104250Y-99033250I0J-254000D01*
G01*
X63104250Y-100176250D01*
G75*
G02*
X62850250Y-100430250I-254000J0D01*
G01*
X62342250Y-100430250D01*
G75*
G02*
X62088250Y-100176250I0J254000D01*
G01*
G37*
%TD*%
%TO.C,U4*%
G36*
G01*
X77328250Y-95096250D02*
X77328250Y-93953250D01*
G75*
G02*
X77582250Y-93699250I254000J0D01*
G01*
X78090250Y-93699250D01*
G75*
G02*
X78344250Y-93953250I0J-254000D01*
G01*
X78344250Y-95096250D01*
G75*
G02*
X78090250Y-95350250I-254000J0D01*
G01*
X77582250Y-95350250D01*
G75*
G02*
X77328250Y-95096250I0J254000D01*
G01*
G37*
G36*
G01*
X78598250Y-95096250D02*
X78598250Y-93953250D01*
G75*
G02*
X78852250Y-93699250I254000J0D01*
G01*
X79360250Y-93699250D01*
G75*
G02*
X79614250Y-93953250I0J-254000D01*
G01*
X79614250Y-95096250D01*
G75*
G02*
X79360250Y-95350250I-254000J0D01*
G01*
X78852250Y-95350250D01*
G75*
G02*
X78598250Y-95096250I0J254000D01*
G01*
G37*
G36*
G01*
X79868250Y-95096250D02*
X79868250Y-93953250D01*
G75*
G02*
X80122250Y-93699250I254000J0D01*
G01*
X80630250Y-93699250D01*
G75*
G02*
X80884250Y-93953250I0J-254000D01*
G01*
X80884250Y-95096250D01*
G75*
G02*
X80630250Y-95350250I-254000J0D01*
G01*
X80122250Y-95350250D01*
G75*
G02*
X79868250Y-95096250I0J254000D01*
G01*
G37*
G36*
G01*
X81138250Y-95096250D02*
X81138250Y-93953250D01*
G75*
G02*
X81392250Y-93699250I254000J0D01*
G01*
X81900250Y-93699250D01*
G75*
G02*
X82154250Y-93953250I0J-254000D01*
G01*
X82154250Y-95096250D01*
G75*
G02*
X81900250Y-95350250I-254000J0D01*
G01*
X81392250Y-95350250D01*
G75*
G02*
X81138250Y-95096250I0J254000D01*
G01*
G37*
G36*
G01*
X82408250Y-95096250D02*
X82408250Y-93953250D01*
G75*
G02*
X82662250Y-93699250I254000J0D01*
G01*
X83170250Y-93699250D01*
G75*
G02*
X83424250Y-93953250I0J-254000D01*
G01*
X83424250Y-95096250D01*
G75*
G02*
X83170250Y-95350250I-254000J0D01*
G01*
X82662250Y-95350250D01*
G75*
G02*
X82408250Y-95096250I0J254000D01*
G01*
G37*
G36*
G01*
X83678250Y-95096250D02*
X83678250Y-93953250D01*
G75*
G02*
X83932250Y-93699250I254000J0D01*
G01*
X84440250Y-93699250D01*
G75*
G02*
X84694250Y-93953250I0J-254000D01*
G01*
X84694250Y-95096250D01*
G75*
G02*
X84440250Y-95350250I-254000J0D01*
G01*
X83932250Y-95350250D01*
G75*
G02*
X83678250Y-95096250I0J254000D01*
G01*
G37*
G36*
G01*
X84948250Y-95096250D02*
X84948250Y-93953250D01*
G75*
G02*
X85202250Y-93699250I254000J0D01*
G01*
X85710250Y-93699250D01*
G75*
G02*
X85964250Y-93953250I0J-254000D01*
G01*
X85964250Y-95096250D01*
G75*
G02*
X85710250Y-95350250I-254000J0D01*
G01*
X85202250Y-95350250D01*
G75*
G02*
X84948250Y-95096250I0J254000D01*
G01*
G37*
G36*
G01*
X86218250Y-95096250D02*
X86218250Y-93953250D01*
G75*
G02*
X86472250Y-93699250I254000J0D01*
G01*
X86980250Y-93699250D01*
G75*
G02*
X87234250Y-93953250I0J-254000D01*
G01*
X87234250Y-95096250D01*
G75*
G02*
X86980250Y-95350250I-254000J0D01*
G01*
X86472250Y-95350250D01*
G75*
G02*
X86218250Y-95096250I0J254000D01*
G01*
G37*
G36*
G01*
X86218250Y-100176250D02*
X86218250Y-99033250D01*
G75*
G02*
X86472250Y-98779250I254000J0D01*
G01*
X86980250Y-98779250D01*
G75*
G02*
X87234250Y-99033250I0J-254000D01*
G01*
X87234250Y-100176250D01*
G75*
G02*
X86980250Y-100430250I-254000J0D01*
G01*
X86472250Y-100430250D01*
G75*
G02*
X86218250Y-100176250I0J254000D01*
G01*
G37*
G36*
G01*
X84948250Y-100176250D02*
X84948250Y-99033250D01*
G75*
G02*
X85202250Y-98779250I254000J0D01*
G01*
X85710250Y-98779250D01*
G75*
G02*
X85964250Y-99033250I0J-254000D01*
G01*
X85964250Y-100176250D01*
G75*
G02*
X85710250Y-100430250I-254000J0D01*
G01*
X85202250Y-100430250D01*
G75*
G02*
X84948250Y-100176250I0J254000D01*
G01*
G37*
G36*
G01*
X83678250Y-100176250D02*
X83678250Y-99033250D01*
G75*
G02*
X83932250Y-98779250I254000J0D01*
G01*
X84440250Y-98779250D01*
G75*
G02*
X84694250Y-99033250I0J-254000D01*
G01*
X84694250Y-100176250D01*
G75*
G02*
X84440250Y-100430250I-254000J0D01*
G01*
X83932250Y-100430250D01*
G75*
G02*
X83678250Y-100176250I0J254000D01*
G01*
G37*
G36*
G01*
X82408250Y-100176250D02*
X82408250Y-99033250D01*
G75*
G02*
X82662250Y-98779250I254000J0D01*
G01*
X83170250Y-98779250D01*
G75*
G02*
X83424250Y-99033250I0J-254000D01*
G01*
X83424250Y-100176250D01*
G75*
G02*
X83170250Y-100430250I-254000J0D01*
G01*
X82662250Y-100430250D01*
G75*
G02*
X82408250Y-100176250I0J254000D01*
G01*
G37*
G36*
G01*
X81138250Y-100176250D02*
X81138250Y-99033250D01*
G75*
G02*
X81392250Y-98779250I254000J0D01*
G01*
X81900250Y-98779250D01*
G75*
G02*
X82154250Y-99033250I0J-254000D01*
G01*
X82154250Y-100176250D01*
G75*
G02*
X81900250Y-100430250I-254000J0D01*
G01*
X81392250Y-100430250D01*
G75*
G02*
X81138250Y-100176250I0J254000D01*
G01*
G37*
G36*
G01*
X79868250Y-100176250D02*
X79868250Y-99033250D01*
G75*
G02*
X80122250Y-98779250I254000J0D01*
G01*
X80630250Y-98779250D01*
G75*
G02*
X80884250Y-99033250I0J-254000D01*
G01*
X80884250Y-100176250D01*
G75*
G02*
X80630250Y-100430250I-254000J0D01*
G01*
X80122250Y-100430250D01*
G75*
G02*
X79868250Y-100176250I0J254000D01*
G01*
G37*
G36*
G01*
X78598250Y-100176250D02*
X78598250Y-99033250D01*
G75*
G02*
X78852250Y-98779250I254000J0D01*
G01*
X79360250Y-98779250D01*
G75*
G02*
X79614250Y-99033250I0J-254000D01*
G01*
X79614250Y-100176250D01*
G75*
G02*
X79360250Y-100430250I-254000J0D01*
G01*
X78852250Y-100430250D01*
G75*
G02*
X78598250Y-100176250I0J254000D01*
G01*
G37*
G36*
G01*
X77328250Y-100176250D02*
X77328250Y-99033250D01*
G75*
G02*
X77582250Y-98779250I254000J0D01*
G01*
X78090250Y-98779250D01*
G75*
G02*
X78344250Y-99033250I0J-254000D01*
G01*
X78344250Y-100176250D01*
G75*
G02*
X78090250Y-100430250I-254000J0D01*
G01*
X77582250Y-100430250D01*
G75*
G02*
X77328250Y-100176250I0J254000D01*
G01*
G37*
%TD*%
%TO.C,U5*%
G36*
G01*
X92568250Y-95096250D02*
X92568250Y-93953250D01*
G75*
G02*
X92822250Y-93699250I254000J0D01*
G01*
X93330250Y-93699250D01*
G75*
G02*
X93584250Y-93953250I0J-254000D01*
G01*
X93584250Y-95096250D01*
G75*
G02*
X93330250Y-95350250I-254000J0D01*
G01*
X92822250Y-95350250D01*
G75*
G02*
X92568250Y-95096250I0J254000D01*
G01*
G37*
G36*
G01*
X93838250Y-95096250D02*
X93838250Y-93953250D01*
G75*
G02*
X94092250Y-93699250I254000J0D01*
G01*
X94600250Y-93699250D01*
G75*
G02*
X94854250Y-93953250I0J-254000D01*
G01*
X94854250Y-95096250D01*
G75*
G02*
X94600250Y-95350250I-254000J0D01*
G01*
X94092250Y-95350250D01*
G75*
G02*
X93838250Y-95096250I0J254000D01*
G01*
G37*
G36*
G01*
X95108250Y-95096250D02*
X95108250Y-93953250D01*
G75*
G02*
X95362250Y-93699250I254000J0D01*
G01*
X95870250Y-93699250D01*
G75*
G02*
X96124250Y-93953250I0J-254000D01*
G01*
X96124250Y-95096250D01*
G75*
G02*
X95870250Y-95350250I-254000J0D01*
G01*
X95362250Y-95350250D01*
G75*
G02*
X95108250Y-95096250I0J254000D01*
G01*
G37*
G36*
G01*
X96378250Y-95096250D02*
X96378250Y-93953250D01*
G75*
G02*
X96632250Y-93699250I254000J0D01*
G01*
X97140250Y-93699250D01*
G75*
G02*
X97394250Y-93953250I0J-254000D01*
G01*
X97394250Y-95096250D01*
G75*
G02*
X97140250Y-95350250I-254000J0D01*
G01*
X96632250Y-95350250D01*
G75*
G02*
X96378250Y-95096250I0J254000D01*
G01*
G37*
G36*
G01*
X97648250Y-95096250D02*
X97648250Y-93953250D01*
G75*
G02*
X97902250Y-93699250I254000J0D01*
G01*
X98410250Y-93699250D01*
G75*
G02*
X98664250Y-93953250I0J-254000D01*
G01*
X98664250Y-95096250D01*
G75*
G02*
X98410250Y-95350250I-254000J0D01*
G01*
X97902250Y-95350250D01*
G75*
G02*
X97648250Y-95096250I0J254000D01*
G01*
G37*
G36*
G01*
X98918250Y-95096250D02*
X98918250Y-93953250D01*
G75*
G02*
X99172250Y-93699250I254000J0D01*
G01*
X99680250Y-93699250D01*
G75*
G02*
X99934250Y-93953250I0J-254000D01*
G01*
X99934250Y-95096250D01*
G75*
G02*
X99680250Y-95350250I-254000J0D01*
G01*
X99172250Y-95350250D01*
G75*
G02*
X98918250Y-95096250I0J254000D01*
G01*
G37*
G36*
G01*
X100188250Y-95096250D02*
X100188250Y-93953250D01*
G75*
G02*
X100442250Y-93699250I254000J0D01*
G01*
X100950250Y-93699250D01*
G75*
G02*
X101204250Y-93953250I0J-254000D01*
G01*
X101204250Y-95096250D01*
G75*
G02*
X100950250Y-95350250I-254000J0D01*
G01*
X100442250Y-95350250D01*
G75*
G02*
X100188250Y-95096250I0J254000D01*
G01*
G37*
G36*
G01*
X101458250Y-95096250D02*
X101458250Y-93953250D01*
G75*
G02*
X101712250Y-93699250I254000J0D01*
G01*
X102220250Y-93699250D01*
G75*
G02*
X102474250Y-93953250I0J-254000D01*
G01*
X102474250Y-95096250D01*
G75*
G02*
X102220250Y-95350250I-254000J0D01*
G01*
X101712250Y-95350250D01*
G75*
G02*
X101458250Y-95096250I0J254000D01*
G01*
G37*
G36*
G01*
X101458250Y-100176250D02*
X101458250Y-99033250D01*
G75*
G02*
X101712250Y-98779250I254000J0D01*
G01*
X102220250Y-98779250D01*
G75*
G02*
X102474250Y-99033250I0J-254000D01*
G01*
X102474250Y-100176250D01*
G75*
G02*
X102220250Y-100430250I-254000J0D01*
G01*
X101712250Y-100430250D01*
G75*
G02*
X101458250Y-100176250I0J254000D01*
G01*
G37*
G36*
G01*
X100188250Y-100176250D02*
X100188250Y-99033250D01*
G75*
G02*
X100442250Y-98779250I254000J0D01*
G01*
X100950250Y-98779250D01*
G75*
G02*
X101204250Y-99033250I0J-254000D01*
G01*
X101204250Y-100176250D01*
G75*
G02*
X100950250Y-100430250I-254000J0D01*
G01*
X100442250Y-100430250D01*
G75*
G02*
X100188250Y-100176250I0J254000D01*
G01*
G37*
G36*
G01*
X98918250Y-100176250D02*
X98918250Y-99033250D01*
G75*
G02*
X99172250Y-98779250I254000J0D01*
G01*
X99680250Y-98779250D01*
G75*
G02*
X99934250Y-99033250I0J-254000D01*
G01*
X99934250Y-100176250D01*
G75*
G02*
X99680250Y-100430250I-254000J0D01*
G01*
X99172250Y-100430250D01*
G75*
G02*
X98918250Y-100176250I0J254000D01*
G01*
G37*
G36*
G01*
X97648250Y-100176250D02*
X97648250Y-99033250D01*
G75*
G02*
X97902250Y-98779250I254000J0D01*
G01*
X98410250Y-98779250D01*
G75*
G02*
X98664250Y-99033250I0J-254000D01*
G01*
X98664250Y-100176250D01*
G75*
G02*
X98410250Y-100430250I-254000J0D01*
G01*
X97902250Y-100430250D01*
G75*
G02*
X97648250Y-100176250I0J254000D01*
G01*
G37*
G36*
G01*
X96378250Y-100176250D02*
X96378250Y-99033250D01*
G75*
G02*
X96632250Y-98779250I254000J0D01*
G01*
X97140250Y-98779250D01*
G75*
G02*
X97394250Y-99033250I0J-254000D01*
G01*
X97394250Y-100176250D01*
G75*
G02*
X97140250Y-100430250I-254000J0D01*
G01*
X96632250Y-100430250D01*
G75*
G02*
X96378250Y-100176250I0J254000D01*
G01*
G37*
G36*
G01*
X95108250Y-100176250D02*
X95108250Y-99033250D01*
G75*
G02*
X95362250Y-98779250I254000J0D01*
G01*
X95870250Y-98779250D01*
G75*
G02*
X96124250Y-99033250I0J-254000D01*
G01*
X96124250Y-100176250D01*
G75*
G02*
X95870250Y-100430250I-254000J0D01*
G01*
X95362250Y-100430250D01*
G75*
G02*
X95108250Y-100176250I0J254000D01*
G01*
G37*
G36*
G01*
X93838250Y-100176250D02*
X93838250Y-99033250D01*
G75*
G02*
X94092250Y-98779250I254000J0D01*
G01*
X94600250Y-98779250D01*
G75*
G02*
X94854250Y-99033250I0J-254000D01*
G01*
X94854250Y-100176250D01*
G75*
G02*
X94600250Y-100430250I-254000J0D01*
G01*
X94092250Y-100430250D01*
G75*
G02*
X93838250Y-100176250I0J254000D01*
G01*
G37*
G36*
G01*
X92568250Y-100176250D02*
X92568250Y-99033250D01*
G75*
G02*
X92822250Y-98779250I254000J0D01*
G01*
X93330250Y-98779250D01*
G75*
G02*
X93584250Y-99033250I0J-254000D01*
G01*
X93584250Y-100176250D01*
G75*
G02*
X93330250Y-100430250I-254000J0D01*
G01*
X92822250Y-100430250D01*
G75*
G02*
X92568250Y-100176250I0J254000D01*
G01*
G37*
%TD*%
%TO.C,C1*%
G36*
G01*
X31054000Y-99175000D02*
X31054000Y-100425000D01*
G75*
G02*
X30800000Y-100679000I-254000J0D01*
G01*
X29800000Y-100679000D01*
G75*
G02*
X29546000Y-100425000I0J254000D01*
G01*
X29546000Y-99175000D01*
G75*
G02*
X29800000Y-98921000I254000J0D01*
G01*
X30800000Y-98921000D01*
G75*
G02*
X31054000Y-99175000I0J-254000D01*
G01*
G37*
G36*
G01*
X29054000Y-99175000D02*
X29054000Y-100425000D01*
G75*
G02*
X28800000Y-100679000I-254000J0D01*
G01*
X27800000Y-100679000D01*
G75*
G02*
X27546000Y-100425000I0J254000D01*
G01*
X27546000Y-99175000D01*
G75*
G02*
X27800000Y-98921000I254000J0D01*
G01*
X28800000Y-98921000D01*
G75*
G02*
X29054000Y-99175000I0J-254000D01*
G01*
G37*
%TD*%
%TO.C,C5*%
G36*
G01*
X76654000Y-98975000D02*
X76654000Y-100225000D01*
G75*
G02*
X76400000Y-100479000I-254000J0D01*
G01*
X75400000Y-100479000D01*
G75*
G02*
X75146000Y-100225000I0J254000D01*
G01*
X75146000Y-98975000D01*
G75*
G02*
X75400000Y-98721000I254000J0D01*
G01*
X76400000Y-98721000D01*
G75*
G02*
X76654000Y-98975000I0J-254000D01*
G01*
G37*
G36*
G01*
X74654000Y-98975000D02*
X74654000Y-100225000D01*
G75*
G02*
X74400000Y-100479000I-254000J0D01*
G01*
X73400000Y-100479000D01*
G75*
G02*
X73146000Y-100225000I0J254000D01*
G01*
X73146000Y-98975000D01*
G75*
G02*
X73400000Y-98721000I254000J0D01*
G01*
X74400000Y-98721000D01*
G75*
G02*
X74654000Y-98975000I0J-254000D01*
G01*
G37*
%TD*%
%TO.C,C8*%
G36*
G01*
X46354000Y-98875000D02*
X46354000Y-100125000D01*
G75*
G02*
X46100000Y-100379000I-254000J0D01*
G01*
X45100000Y-100379000D01*
G75*
G02*
X44846000Y-100125000I0J254000D01*
G01*
X44846000Y-98875000D01*
G75*
G02*
X45100000Y-98621000I254000J0D01*
G01*
X46100000Y-98621000D01*
G75*
G02*
X46354000Y-98875000I0J-254000D01*
G01*
G37*
G36*
G01*
X44354000Y-98875000D02*
X44354000Y-100125000D01*
G75*
G02*
X44100000Y-100379000I-254000J0D01*
G01*
X43100000Y-100379000D01*
G75*
G02*
X42846000Y-100125000I0J254000D01*
G01*
X42846000Y-98875000D01*
G75*
G02*
X43100000Y-98621000I254000J0D01*
G01*
X44100000Y-98621000D01*
G75*
G02*
X44354000Y-98875000I0J-254000D01*
G01*
G37*
%TD*%
%TO.C,C9*%
G36*
G01*
X91954000Y-99075000D02*
X91954000Y-100325000D01*
G75*
G02*
X91700000Y-100579000I-254000J0D01*
G01*
X90700000Y-100579000D01*
G75*
G02*
X90446000Y-100325000I0J254000D01*
G01*
X90446000Y-99075000D01*
G75*
G02*
X90700000Y-98821000I254000J0D01*
G01*
X91700000Y-98821000D01*
G75*
G02*
X91954000Y-99075000I0J-254000D01*
G01*
G37*
G36*
G01*
X89954000Y-99075000D02*
X89954000Y-100325000D01*
G75*
G02*
X89700000Y-100579000I-254000J0D01*
G01*
X88700000Y-100579000D01*
G75*
G02*
X88446000Y-100325000I0J254000D01*
G01*
X88446000Y-99075000D01*
G75*
G02*
X88700000Y-98821000I254000J0D01*
G01*
X89700000Y-98821000D01*
G75*
G02*
X89954000Y-99075000I0J-254000D01*
G01*
G37*
%TD*%
%TO.C,C12*%
G36*
G01*
X61454000Y-98975000D02*
X61454000Y-100225000D01*
G75*
G02*
X61200000Y-100479000I-254000J0D01*
G01*
X60200000Y-100479000D01*
G75*
G02*
X59946000Y-100225000I0J254000D01*
G01*
X59946000Y-98975000D01*
G75*
G02*
X60200000Y-98721000I254000J0D01*
G01*
X61200000Y-98721000D01*
G75*
G02*
X61454000Y-98975000I0J-254000D01*
G01*
G37*
G36*
G01*
X59454000Y-98975000D02*
X59454000Y-100225000D01*
G75*
G02*
X59200000Y-100479000I-254000J0D01*
G01*
X58200000Y-100479000D01*
G75*
G02*
X57946000Y-100225000I0J254000D01*
G01*
X57946000Y-98975000D01*
G75*
G02*
X58200000Y-98721000I254000J0D01*
G01*
X59200000Y-98721000D01*
G75*
G02*
X59454000Y-98975000I0J-254000D01*
G01*
G37*
%TD*%
%TO.C,C13*%
G36*
G01*
X50825000Y-108454000D02*
X49575000Y-108454000D01*
G75*
G02*
X49321000Y-108200000I0J254000D01*
G01*
X49321000Y-107200000D01*
G75*
G02*
X49575000Y-106946000I254000J0D01*
G01*
X50825000Y-106946000D01*
G75*
G02*
X51079000Y-107200000I0J-254000D01*
G01*
X51079000Y-108200000D01*
G75*
G02*
X50825000Y-108454000I-254000J0D01*
G01*
G37*
G36*
G01*
X50825000Y-106454000D02*
X49575000Y-106454000D01*
G75*
G02*
X49321000Y-106200000I0J254000D01*
G01*
X49321000Y-105200000D01*
G75*
G02*
X49575000Y-104946000I254000J0D01*
G01*
X50825000Y-104946000D01*
G75*
G02*
X51079000Y-105200000I0J-254000D01*
G01*
X51079000Y-106200000D01*
G75*
G02*
X50825000Y-106454000I-254000J0D01*
G01*
G37*
%TD*%
%TO.C,R1*%
G36*
G01*
X35811250Y-49327750D02*
X37111250Y-49327750D01*
G75*
G02*
X37365250Y-49581750I0J-254000D01*
G01*
X37365250Y-50281750D01*
G75*
G02*
X37111250Y-50535750I-254000J0D01*
G01*
X35811250Y-50535750D01*
G75*
G02*
X35557250Y-50281750I0J254000D01*
G01*
X35557250Y-49581750D01*
G75*
G02*
X35811250Y-49327750I254000J0D01*
G01*
G37*
G36*
G01*
X35811250Y-51227750D02*
X37111250Y-51227750D01*
G75*
G02*
X37365250Y-51481750I0J-254000D01*
G01*
X37365250Y-52181750D01*
G75*
G02*
X37111250Y-52435750I-254000J0D01*
G01*
X35811250Y-52435750D01*
G75*
G02*
X35557250Y-52181750I0J254000D01*
G01*
X35557250Y-51481750D01*
G75*
G02*
X35811250Y-51227750I254000J0D01*
G01*
G37*
%TD*%
%TO.C,R6*%
G36*
G01*
X35911250Y-63834750D02*
X37211250Y-63834750D01*
G75*
G02*
X37465250Y-64088750I0J-254000D01*
G01*
X37465250Y-64788750D01*
G75*
G02*
X37211250Y-65042750I-254000J0D01*
G01*
X35911250Y-65042750D01*
G75*
G02*
X35657250Y-64788750I0J254000D01*
G01*
X35657250Y-64088750D01*
G75*
G02*
X35911250Y-63834750I254000J0D01*
G01*
G37*
G36*
G01*
X35911250Y-65734750D02*
X37211250Y-65734750D01*
G75*
G02*
X37465250Y-65988750I0J-254000D01*
G01*
X37465250Y-66688750D01*
G75*
G02*
X37211250Y-66942750I-254000J0D01*
G01*
X35911250Y-66942750D01*
G75*
G02*
X35657250Y-66688750I0J254000D01*
G01*
X35657250Y-65988750D01*
G75*
G02*
X35911250Y-65734750I254000J0D01*
G01*
G37*
%TD*%
%TO.C,R13*%
G36*
G01*
X51151250Y-49354750D02*
X52451250Y-49354750D01*
G75*
G02*
X52705250Y-49608750I0J-254000D01*
G01*
X52705250Y-50308750D01*
G75*
G02*
X52451250Y-50562750I-254000J0D01*
G01*
X51151250Y-50562750D01*
G75*
G02*
X50897250Y-50308750I0J254000D01*
G01*
X50897250Y-49608750D01*
G75*
G02*
X51151250Y-49354750I254000J0D01*
G01*
G37*
G36*
G01*
X51151250Y-51254750D02*
X52451250Y-51254750D01*
G75*
G02*
X52705250Y-51508750I0J-254000D01*
G01*
X52705250Y-52208750D01*
G75*
G02*
X52451250Y-52462750I-254000J0D01*
G01*
X51151250Y-52462750D01*
G75*
G02*
X50897250Y-52208750I0J254000D01*
G01*
X50897250Y-51508750D01*
G75*
G02*
X51151250Y-51254750I254000J0D01*
G01*
G37*
%TD*%
%TO.C,R18*%
G36*
G01*
X51151250Y-63834750D02*
X52451250Y-63834750D01*
G75*
G02*
X52705250Y-64088750I0J-254000D01*
G01*
X52705250Y-64788750D01*
G75*
G02*
X52451250Y-65042750I-254000J0D01*
G01*
X51151250Y-65042750D01*
G75*
G02*
X50897250Y-64788750I0J254000D01*
G01*
X50897250Y-64088750D01*
G75*
G02*
X51151250Y-63834750I254000J0D01*
G01*
G37*
G36*
G01*
X51151250Y-65734750D02*
X52451250Y-65734750D01*
G75*
G02*
X52705250Y-65988750I0J-254000D01*
G01*
X52705250Y-66688750D01*
G75*
G02*
X52451250Y-66942750I-254000J0D01*
G01*
X51151250Y-66942750D01*
G75*
G02*
X50897250Y-66688750I0J254000D01*
G01*
X50897250Y-65988750D01*
G75*
G02*
X51151250Y-65734750I254000J0D01*
G01*
G37*
%TD*%
%TO.C,R30*%
G36*
G01*
X66391250Y-63834750D02*
X67691250Y-63834750D01*
G75*
G02*
X67945250Y-64088750I0J-254000D01*
G01*
X67945250Y-64788750D01*
G75*
G02*
X67691250Y-65042750I-254000J0D01*
G01*
X66391250Y-65042750D01*
G75*
G02*
X66137250Y-64788750I0J254000D01*
G01*
X66137250Y-64088750D01*
G75*
G02*
X66391250Y-63834750I254000J0D01*
G01*
G37*
G36*
G01*
X66391250Y-65734750D02*
X67691250Y-65734750D01*
G75*
G02*
X67945250Y-65988750I0J-254000D01*
G01*
X67945250Y-66688750D01*
G75*
G02*
X67691250Y-66942750I-254000J0D01*
G01*
X66391250Y-66942750D01*
G75*
G02*
X66137250Y-66688750I0J254000D01*
G01*
X66137250Y-65988750D01*
G75*
G02*
X66391250Y-65734750I254000J0D01*
G01*
G37*
%TD*%
%TO.C,R37*%
G36*
G01*
X81631250Y-49354750D02*
X82931250Y-49354750D01*
G75*
G02*
X83185250Y-49608750I0J-254000D01*
G01*
X83185250Y-50308750D01*
G75*
G02*
X82931250Y-50562750I-254000J0D01*
G01*
X81631250Y-50562750D01*
G75*
G02*
X81377250Y-50308750I0J254000D01*
G01*
X81377250Y-49608750D01*
G75*
G02*
X81631250Y-49354750I254000J0D01*
G01*
G37*
G36*
G01*
X81631250Y-51254750D02*
X82931250Y-51254750D01*
G75*
G02*
X83185250Y-51508750I0J-254000D01*
G01*
X83185250Y-52208750D01*
G75*
G02*
X82931250Y-52462750I-254000J0D01*
G01*
X81631250Y-52462750D01*
G75*
G02*
X81377250Y-52208750I0J254000D01*
G01*
X81377250Y-51508750D01*
G75*
G02*
X81631250Y-51254750I254000J0D01*
G01*
G37*
%TD*%
%TO.C,R42*%
G36*
G01*
X81631250Y-63834750D02*
X82931250Y-63834750D01*
G75*
G02*
X83185250Y-64088750I0J-254000D01*
G01*
X83185250Y-64788750D01*
G75*
G02*
X82931250Y-65042750I-254000J0D01*
G01*
X81631250Y-65042750D01*
G75*
G02*
X81377250Y-64788750I0J254000D01*
G01*
X81377250Y-64088750D01*
G75*
G02*
X81631250Y-63834750I254000J0D01*
G01*
G37*
G36*
G01*
X81631250Y-65734750D02*
X82931250Y-65734750D01*
G75*
G02*
X83185250Y-65988750I0J-254000D01*
G01*
X83185250Y-66688750D01*
G75*
G02*
X82931250Y-66942750I-254000J0D01*
G01*
X81631250Y-66942750D01*
G75*
G02*
X81377250Y-66688750I0J254000D01*
G01*
X81377250Y-65988750D01*
G75*
G02*
X81631250Y-65734750I254000J0D01*
G01*
G37*
%TD*%
%TO.C,R45*%
G36*
G01*
X87850000Y-108646000D02*
X89150000Y-108646000D01*
G75*
G02*
X89404000Y-108900000I0J-254000D01*
G01*
X89404000Y-109600000D01*
G75*
G02*
X89150000Y-109854000I-254000J0D01*
G01*
X87850000Y-109854000D01*
G75*
G02*
X87596000Y-109600000I0J254000D01*
G01*
X87596000Y-108900000D01*
G75*
G02*
X87850000Y-108646000I254000J0D01*
G01*
G37*
G36*
G01*
X87850000Y-110546000D02*
X89150000Y-110546000D01*
G75*
G02*
X89404000Y-110800000I0J-254000D01*
G01*
X89404000Y-111500000D01*
G75*
G02*
X89150000Y-111754000I-254000J0D01*
G01*
X87850000Y-111754000D01*
G75*
G02*
X87596000Y-111500000I0J254000D01*
G01*
X87596000Y-110800000D01*
G75*
G02*
X87850000Y-110546000I254000J0D01*
G01*
G37*
%TD*%
%TO.C,R51*%
G36*
G01*
X96871250Y-49354750D02*
X98171250Y-49354750D01*
G75*
G02*
X98425250Y-49608750I0J-254000D01*
G01*
X98425250Y-50308750D01*
G75*
G02*
X98171250Y-50562750I-254000J0D01*
G01*
X96871250Y-50562750D01*
G75*
G02*
X96617250Y-50308750I0J254000D01*
G01*
X96617250Y-49608750D01*
G75*
G02*
X96871250Y-49354750I254000J0D01*
G01*
G37*
G36*
G01*
X96871250Y-51254750D02*
X98171250Y-51254750D01*
G75*
G02*
X98425250Y-51508750I0J-254000D01*
G01*
X98425250Y-52208750D01*
G75*
G02*
X98171250Y-52462750I-254000J0D01*
G01*
X96871250Y-52462750D01*
G75*
G02*
X96617250Y-52208750I0J254000D01*
G01*
X96617250Y-51508750D01*
G75*
G02*
X96871250Y-51254750I254000J0D01*
G01*
G37*
%TD*%
%TO.C,R56*%
G36*
G01*
X96871250Y-63834750D02*
X98171250Y-63834750D01*
G75*
G02*
X98425250Y-64088750I0J-254000D01*
G01*
X98425250Y-64788750D01*
G75*
G02*
X98171250Y-65042750I-254000J0D01*
G01*
X96871250Y-65042750D01*
G75*
G02*
X96617250Y-64788750I0J254000D01*
G01*
X96617250Y-64088750D01*
G75*
G02*
X96871250Y-63834750I254000J0D01*
G01*
G37*
G36*
G01*
X96871250Y-65734750D02*
X98171250Y-65734750D01*
G75*
G02*
X98425250Y-65988750I0J-254000D01*
G01*
X98425250Y-66688750D01*
G75*
G02*
X98171250Y-66942750I-254000J0D01*
G01*
X96871250Y-66942750D01*
G75*
G02*
X96617250Y-66688750I0J254000D01*
G01*
X96617250Y-65988750D01*
G75*
G02*
X96871250Y-65734750I254000J0D01*
G01*
G37*
%TD*%
%TO.C,R63*%
G36*
G01*
X33401250Y-37982750D02*
X32101250Y-37982750D01*
G75*
G02*
X31847250Y-37728750I0J254000D01*
G01*
X31847250Y-37028750D01*
G75*
G02*
X32101250Y-36774750I254000J0D01*
G01*
X33401250Y-36774750D01*
G75*
G02*
X33655250Y-37028750I0J-254000D01*
G01*
X33655250Y-37728750D01*
G75*
G02*
X33401250Y-37982750I-254000J0D01*
G01*
G37*
G36*
G01*
X33401250Y-36082750D02*
X32101250Y-36082750D01*
G75*
G02*
X31847250Y-35828750I0J254000D01*
G01*
X31847250Y-35128750D01*
G75*
G02*
X32101250Y-34874750I254000J0D01*
G01*
X33401250Y-34874750D01*
G75*
G02*
X33655250Y-35128750I0J-254000D01*
G01*
X33655250Y-35828750D01*
G75*
G02*
X33401250Y-36082750I-254000J0D01*
G01*
G37*
%TD*%
%TO.C,R64*%
G36*
G01*
X35911250Y-34874750D02*
X37211250Y-34874750D01*
G75*
G02*
X37465250Y-35128750I0J-254000D01*
G01*
X37465250Y-35828750D01*
G75*
G02*
X37211250Y-36082750I-254000J0D01*
G01*
X35911250Y-36082750D01*
G75*
G02*
X35657250Y-35828750I0J254000D01*
G01*
X35657250Y-35128750D01*
G75*
G02*
X35911250Y-34874750I254000J0D01*
G01*
G37*
G36*
G01*
X35911250Y-36774750D02*
X37211250Y-36774750D01*
G75*
G02*
X37465250Y-37028750I0J-254000D01*
G01*
X37465250Y-37728750D01*
G75*
G02*
X37211250Y-37982750I-254000J0D01*
G01*
X35911250Y-37982750D01*
G75*
G02*
X35657250Y-37728750I0J254000D01*
G01*
X35657250Y-37028750D01*
G75*
G02*
X35911250Y-36774750I254000J0D01*
G01*
G37*
%TD*%
%TO.C,R65*%
G36*
G01*
X33301250Y-52435750D02*
X32001250Y-52435750D01*
G75*
G02*
X31747250Y-52181750I0J254000D01*
G01*
X31747250Y-51481750D01*
G75*
G02*
X32001250Y-51227750I254000J0D01*
G01*
X33301250Y-51227750D01*
G75*
G02*
X33555250Y-51481750I0J-254000D01*
G01*
X33555250Y-52181750D01*
G75*
G02*
X33301250Y-52435750I-254000J0D01*
G01*
G37*
G36*
G01*
X33301250Y-50535750D02*
X32001250Y-50535750D01*
G75*
G02*
X31747250Y-50281750I0J254000D01*
G01*
X31747250Y-49581750D01*
G75*
G02*
X32001250Y-49327750I254000J0D01*
G01*
X33301250Y-49327750D01*
G75*
G02*
X33555250Y-49581750I0J-254000D01*
G01*
X33555250Y-50281750D01*
G75*
G02*
X33301250Y-50535750I-254000J0D01*
G01*
G37*
%TD*%
%TO.C,R66*%
G36*
G01*
X33401250Y-66942750D02*
X32101250Y-66942750D01*
G75*
G02*
X31847250Y-66688750I0J254000D01*
G01*
X31847250Y-65988750D01*
G75*
G02*
X32101250Y-65734750I254000J0D01*
G01*
X33401250Y-65734750D01*
G75*
G02*
X33655250Y-65988750I0J-254000D01*
G01*
X33655250Y-66688750D01*
G75*
G02*
X33401250Y-66942750I-254000J0D01*
G01*
G37*
G36*
G01*
X33401250Y-65042750D02*
X32101250Y-65042750D01*
G75*
G02*
X31847250Y-64788750I0J254000D01*
G01*
X31847250Y-64088750D01*
G75*
G02*
X32101250Y-63834750I254000J0D01*
G01*
X33401250Y-63834750D01*
G75*
G02*
X33655250Y-64088750I0J-254000D01*
G01*
X33655250Y-64788750D01*
G75*
G02*
X33401250Y-65042750I-254000J0D01*
G01*
G37*
%TD*%
%TO.C,R67*%
G36*
G01*
X33401250Y-81422750D02*
X32101250Y-81422750D01*
G75*
G02*
X31847250Y-81168750I0J254000D01*
G01*
X31847250Y-80468750D01*
G75*
G02*
X32101250Y-80214750I254000J0D01*
G01*
X33401250Y-80214750D01*
G75*
G02*
X33655250Y-80468750I0J-254000D01*
G01*
X33655250Y-81168750D01*
G75*
G02*
X33401250Y-81422750I-254000J0D01*
G01*
G37*
G36*
G01*
X33401250Y-79522750D02*
X32101250Y-79522750D01*
G75*
G02*
X31847250Y-79268750I0J254000D01*
G01*
X31847250Y-78568750D01*
G75*
G02*
X32101250Y-78314750I254000J0D01*
G01*
X33401250Y-78314750D01*
G75*
G02*
X33655250Y-78568750I0J-254000D01*
G01*
X33655250Y-79268750D01*
G75*
G02*
X33401250Y-79522750I-254000J0D01*
G01*
G37*
%TD*%
%TO.C,R68*%
G36*
G01*
X35911250Y-78314750D02*
X37211250Y-78314750D01*
G75*
G02*
X37465250Y-78568750I0J-254000D01*
G01*
X37465250Y-79268750D01*
G75*
G02*
X37211250Y-79522750I-254000J0D01*
G01*
X35911250Y-79522750D01*
G75*
G02*
X35657250Y-79268750I0J254000D01*
G01*
X35657250Y-78568750D01*
G75*
G02*
X35911250Y-78314750I254000J0D01*
G01*
G37*
G36*
G01*
X35911250Y-80214750D02*
X37211250Y-80214750D01*
G75*
G02*
X37465250Y-80468750I0J-254000D01*
G01*
X37465250Y-81168750D01*
G75*
G02*
X37211250Y-81422750I-254000J0D01*
G01*
X35911250Y-81422750D01*
G75*
G02*
X35657250Y-81168750I0J254000D01*
G01*
X35657250Y-80468750D01*
G75*
G02*
X35911250Y-80214750I254000J0D01*
G01*
G37*
%TD*%
%TO.C,R69*%
G36*
G01*
X39721250Y-34874750D02*
X41021250Y-34874750D01*
G75*
G02*
X41275250Y-35128750I0J-254000D01*
G01*
X41275250Y-35828750D01*
G75*
G02*
X41021250Y-36082750I-254000J0D01*
G01*
X39721250Y-36082750D01*
G75*
G02*
X39467250Y-35828750I0J254000D01*
G01*
X39467250Y-35128750D01*
G75*
G02*
X39721250Y-34874750I254000J0D01*
G01*
G37*
G36*
G01*
X39721250Y-36774750D02*
X41021250Y-36774750D01*
G75*
G02*
X41275250Y-37028750I0J-254000D01*
G01*
X41275250Y-37728750D01*
G75*
G02*
X41021250Y-37982750I-254000J0D01*
G01*
X39721250Y-37982750D01*
G75*
G02*
X39467250Y-37728750I0J254000D01*
G01*
X39467250Y-37028750D01*
G75*
G02*
X39721250Y-36774750I254000J0D01*
G01*
G37*
%TD*%
%TO.C,R71*%
G36*
G01*
X39721250Y-49327750D02*
X41021250Y-49327750D01*
G75*
G02*
X41275250Y-49581750I0J-254000D01*
G01*
X41275250Y-50281750D01*
G75*
G02*
X41021250Y-50535750I-254000J0D01*
G01*
X39721250Y-50535750D01*
G75*
G02*
X39467250Y-50281750I0J254000D01*
G01*
X39467250Y-49581750D01*
G75*
G02*
X39721250Y-49327750I254000J0D01*
G01*
G37*
G36*
G01*
X39721250Y-51227750D02*
X41021250Y-51227750D01*
G75*
G02*
X41275250Y-51481750I0J-254000D01*
G01*
X41275250Y-52181750D01*
G75*
G02*
X41021250Y-52435750I-254000J0D01*
G01*
X39721250Y-52435750D01*
G75*
G02*
X39467250Y-52181750I0J254000D01*
G01*
X39467250Y-51481750D01*
G75*
G02*
X39721250Y-51227750I254000J0D01*
G01*
G37*
%TD*%
%TO.C,R72*%
G36*
G01*
X39721250Y-63834750D02*
X41021250Y-63834750D01*
G75*
G02*
X41275250Y-64088750I0J-254000D01*
G01*
X41275250Y-64788750D01*
G75*
G02*
X41021250Y-65042750I-254000J0D01*
G01*
X39721250Y-65042750D01*
G75*
G02*
X39467250Y-64788750I0J254000D01*
G01*
X39467250Y-64088750D01*
G75*
G02*
X39721250Y-63834750I254000J0D01*
G01*
G37*
G36*
G01*
X39721250Y-65734750D02*
X41021250Y-65734750D01*
G75*
G02*
X41275250Y-65988750I0J-254000D01*
G01*
X41275250Y-66688750D01*
G75*
G02*
X41021250Y-66942750I-254000J0D01*
G01*
X39721250Y-66942750D01*
G75*
G02*
X39467250Y-66688750I0J254000D01*
G01*
X39467250Y-65988750D01*
G75*
G02*
X39721250Y-65734750I254000J0D01*
G01*
G37*
%TD*%
%TO.C,R73*%
G36*
G01*
X39721250Y-78314750D02*
X41021250Y-78314750D01*
G75*
G02*
X41275250Y-78568750I0J-254000D01*
G01*
X41275250Y-79268750D01*
G75*
G02*
X41021250Y-79522750I-254000J0D01*
G01*
X39721250Y-79522750D01*
G75*
G02*
X39467250Y-79268750I0J254000D01*
G01*
X39467250Y-78568750D01*
G75*
G02*
X39721250Y-78314750I254000J0D01*
G01*
G37*
G36*
G01*
X39721250Y-80214750D02*
X41021250Y-80214750D01*
G75*
G02*
X41275250Y-80468750I0J-254000D01*
G01*
X41275250Y-81168750D01*
G75*
G02*
X41021250Y-81422750I-254000J0D01*
G01*
X39721250Y-81422750D01*
G75*
G02*
X39467250Y-81168750I0J254000D01*
G01*
X39467250Y-80468750D01*
G75*
G02*
X39721250Y-80214750I254000J0D01*
G01*
G37*
%TD*%
%TO.C,R75*%
G36*
G01*
X51151250Y-34874750D02*
X52451250Y-34874750D01*
G75*
G02*
X52705250Y-35128750I0J-254000D01*
G01*
X52705250Y-35828750D01*
G75*
G02*
X52451250Y-36082750I-254000J0D01*
G01*
X51151250Y-36082750D01*
G75*
G02*
X50897250Y-35828750I0J254000D01*
G01*
X50897250Y-35128750D01*
G75*
G02*
X51151250Y-34874750I254000J0D01*
G01*
G37*
G36*
G01*
X51151250Y-36774750D02*
X52451250Y-36774750D01*
G75*
G02*
X52705250Y-37028750I0J-254000D01*
G01*
X52705250Y-37728750D01*
G75*
G02*
X52451250Y-37982750I-254000J0D01*
G01*
X51151250Y-37982750D01*
G75*
G02*
X50897250Y-37728750I0J254000D01*
G01*
X50897250Y-37028750D01*
G75*
G02*
X51151250Y-36774750I254000J0D01*
G01*
G37*
%TD*%
%TO.C,R76*%
G36*
G01*
X48641250Y-37982750D02*
X47341250Y-37982750D01*
G75*
G02*
X47087250Y-37728750I0J254000D01*
G01*
X47087250Y-37028750D01*
G75*
G02*
X47341250Y-36774750I254000J0D01*
G01*
X48641250Y-36774750D01*
G75*
G02*
X48895250Y-37028750I0J-254000D01*
G01*
X48895250Y-37728750D01*
G75*
G02*
X48641250Y-37982750I-254000J0D01*
G01*
G37*
G36*
G01*
X48641250Y-36082750D02*
X47341250Y-36082750D01*
G75*
G02*
X47087250Y-35828750I0J254000D01*
G01*
X47087250Y-35128750D01*
G75*
G02*
X47341250Y-34874750I254000J0D01*
G01*
X48641250Y-34874750D01*
G75*
G02*
X48895250Y-35128750I0J-254000D01*
G01*
X48895250Y-35828750D01*
G75*
G02*
X48641250Y-36082750I-254000J0D01*
G01*
G37*
%TD*%
%TO.C,R77*%
G36*
G01*
X48641250Y-52462750D02*
X47341250Y-52462750D01*
G75*
G02*
X47087250Y-52208750I0J254000D01*
G01*
X47087250Y-51508750D01*
G75*
G02*
X47341250Y-51254750I254000J0D01*
G01*
X48641250Y-51254750D01*
G75*
G02*
X48895250Y-51508750I0J-254000D01*
G01*
X48895250Y-52208750D01*
G75*
G02*
X48641250Y-52462750I-254000J0D01*
G01*
G37*
G36*
G01*
X48641250Y-50562750D02*
X47341250Y-50562750D01*
G75*
G02*
X47087250Y-50308750I0J254000D01*
G01*
X47087250Y-49608750D01*
G75*
G02*
X47341250Y-49354750I254000J0D01*
G01*
X48641250Y-49354750D01*
G75*
G02*
X48895250Y-49608750I0J-254000D01*
G01*
X48895250Y-50308750D01*
G75*
G02*
X48641250Y-50562750I-254000J0D01*
G01*
G37*
%TD*%
%TO.C,R78*%
G36*
G01*
X48641250Y-66942750D02*
X47341250Y-66942750D01*
G75*
G02*
X47087250Y-66688750I0J254000D01*
G01*
X47087250Y-65988750D01*
G75*
G02*
X47341250Y-65734750I254000J0D01*
G01*
X48641250Y-65734750D01*
G75*
G02*
X48895250Y-65988750I0J-254000D01*
G01*
X48895250Y-66688750D01*
G75*
G02*
X48641250Y-66942750I-254000J0D01*
G01*
G37*
G36*
G01*
X48641250Y-65042750D02*
X47341250Y-65042750D01*
G75*
G02*
X47087250Y-64788750I0J254000D01*
G01*
X47087250Y-64088750D01*
G75*
G02*
X47341250Y-63834750I254000J0D01*
G01*
X48641250Y-63834750D01*
G75*
G02*
X48895250Y-64088750I0J-254000D01*
G01*
X48895250Y-64788750D01*
G75*
G02*
X48641250Y-65042750I-254000J0D01*
G01*
G37*
%TD*%
%TO.C,R79*%
G36*
G01*
X48641250Y-81422750D02*
X47341250Y-81422750D01*
G75*
G02*
X47087250Y-81168750I0J254000D01*
G01*
X47087250Y-80468750D01*
G75*
G02*
X47341250Y-80214750I254000J0D01*
G01*
X48641250Y-80214750D01*
G75*
G02*
X48895250Y-80468750I0J-254000D01*
G01*
X48895250Y-81168750D01*
G75*
G02*
X48641250Y-81422750I-254000J0D01*
G01*
G37*
G36*
G01*
X48641250Y-79522750D02*
X47341250Y-79522750D01*
G75*
G02*
X47087250Y-79268750I0J254000D01*
G01*
X47087250Y-78568750D01*
G75*
G02*
X47341250Y-78314750I254000J0D01*
G01*
X48641250Y-78314750D01*
G75*
G02*
X48895250Y-78568750I0J-254000D01*
G01*
X48895250Y-79268750D01*
G75*
G02*
X48641250Y-79522750I-254000J0D01*
G01*
G37*
%TD*%
%TO.C,R80*%
G36*
G01*
X51151250Y-78314750D02*
X52451250Y-78314750D01*
G75*
G02*
X52705250Y-78568750I0J-254000D01*
G01*
X52705250Y-79268750D01*
G75*
G02*
X52451250Y-79522750I-254000J0D01*
G01*
X51151250Y-79522750D01*
G75*
G02*
X50897250Y-79268750I0J254000D01*
G01*
X50897250Y-78568750D01*
G75*
G02*
X51151250Y-78314750I254000J0D01*
G01*
G37*
G36*
G01*
X51151250Y-80214750D02*
X52451250Y-80214750D01*
G75*
G02*
X52705250Y-80468750I0J-254000D01*
G01*
X52705250Y-81168750D01*
G75*
G02*
X52451250Y-81422750I-254000J0D01*
G01*
X51151250Y-81422750D01*
G75*
G02*
X50897250Y-81168750I0J254000D01*
G01*
X50897250Y-80468750D01*
G75*
G02*
X51151250Y-80214750I254000J0D01*
G01*
G37*
%TD*%
%TO.C,R82*%
G36*
G01*
X54961250Y-34874750D02*
X56261250Y-34874750D01*
G75*
G02*
X56515250Y-35128750I0J-254000D01*
G01*
X56515250Y-35828750D01*
G75*
G02*
X56261250Y-36082750I-254000J0D01*
G01*
X54961250Y-36082750D01*
G75*
G02*
X54707250Y-35828750I0J254000D01*
G01*
X54707250Y-35128750D01*
G75*
G02*
X54961250Y-34874750I254000J0D01*
G01*
G37*
G36*
G01*
X54961250Y-36774750D02*
X56261250Y-36774750D01*
G75*
G02*
X56515250Y-37028750I0J-254000D01*
G01*
X56515250Y-37728750D01*
G75*
G02*
X56261250Y-37982750I-254000J0D01*
G01*
X54961250Y-37982750D01*
G75*
G02*
X54707250Y-37728750I0J254000D01*
G01*
X54707250Y-37028750D01*
G75*
G02*
X54961250Y-36774750I254000J0D01*
G01*
G37*
%TD*%
%TO.C,R83*%
G36*
G01*
X54961250Y-49354750D02*
X56261250Y-49354750D01*
G75*
G02*
X56515250Y-49608750I0J-254000D01*
G01*
X56515250Y-50308750D01*
G75*
G02*
X56261250Y-50562750I-254000J0D01*
G01*
X54961250Y-50562750D01*
G75*
G02*
X54707250Y-50308750I0J254000D01*
G01*
X54707250Y-49608750D01*
G75*
G02*
X54961250Y-49354750I254000J0D01*
G01*
G37*
G36*
G01*
X54961250Y-51254750D02*
X56261250Y-51254750D01*
G75*
G02*
X56515250Y-51508750I0J-254000D01*
G01*
X56515250Y-52208750D01*
G75*
G02*
X56261250Y-52462750I-254000J0D01*
G01*
X54961250Y-52462750D01*
G75*
G02*
X54707250Y-52208750I0J254000D01*
G01*
X54707250Y-51508750D01*
G75*
G02*
X54961250Y-51254750I254000J0D01*
G01*
G37*
%TD*%
%TO.C,R84*%
G36*
G01*
X54961250Y-63834750D02*
X56261250Y-63834750D01*
G75*
G02*
X56515250Y-64088750I0J-254000D01*
G01*
X56515250Y-64788750D01*
G75*
G02*
X56261250Y-65042750I-254000J0D01*
G01*
X54961250Y-65042750D01*
G75*
G02*
X54707250Y-64788750I0J254000D01*
G01*
X54707250Y-64088750D01*
G75*
G02*
X54961250Y-63834750I254000J0D01*
G01*
G37*
G36*
G01*
X54961250Y-65734750D02*
X56261250Y-65734750D01*
G75*
G02*
X56515250Y-65988750I0J-254000D01*
G01*
X56515250Y-66688750D01*
G75*
G02*
X56261250Y-66942750I-254000J0D01*
G01*
X54961250Y-66942750D01*
G75*
G02*
X54707250Y-66688750I0J254000D01*
G01*
X54707250Y-65988750D01*
G75*
G02*
X54961250Y-65734750I254000J0D01*
G01*
G37*
%TD*%
%TO.C,R85*%
G36*
G01*
X54961250Y-78314750D02*
X56261250Y-78314750D01*
G75*
G02*
X56515250Y-78568750I0J-254000D01*
G01*
X56515250Y-79268750D01*
G75*
G02*
X56261250Y-79522750I-254000J0D01*
G01*
X54961250Y-79522750D01*
G75*
G02*
X54707250Y-79268750I0J254000D01*
G01*
X54707250Y-78568750D01*
G75*
G02*
X54961250Y-78314750I254000J0D01*
G01*
G37*
G36*
G01*
X54961250Y-80214750D02*
X56261250Y-80214750D01*
G75*
G02*
X56515250Y-80468750I0J-254000D01*
G01*
X56515250Y-81168750D01*
G75*
G02*
X56261250Y-81422750I-254000J0D01*
G01*
X54961250Y-81422750D01*
G75*
G02*
X54707250Y-81168750I0J254000D01*
G01*
X54707250Y-80468750D01*
G75*
G02*
X54961250Y-80214750I254000J0D01*
G01*
G37*
%TD*%
%TO.C,R87*%
G36*
G01*
X66391250Y-34874750D02*
X67691250Y-34874750D01*
G75*
G02*
X67945250Y-35128750I0J-254000D01*
G01*
X67945250Y-35828750D01*
G75*
G02*
X67691250Y-36082750I-254000J0D01*
G01*
X66391250Y-36082750D01*
G75*
G02*
X66137250Y-35828750I0J254000D01*
G01*
X66137250Y-35128750D01*
G75*
G02*
X66391250Y-34874750I254000J0D01*
G01*
G37*
G36*
G01*
X66391250Y-36774750D02*
X67691250Y-36774750D01*
G75*
G02*
X67945250Y-37028750I0J-254000D01*
G01*
X67945250Y-37728750D01*
G75*
G02*
X67691250Y-37982750I-254000J0D01*
G01*
X66391250Y-37982750D01*
G75*
G02*
X66137250Y-37728750I0J254000D01*
G01*
X66137250Y-37028750D01*
G75*
G02*
X66391250Y-36774750I254000J0D01*
G01*
G37*
%TD*%
%TO.C,R88*%
G36*
G01*
X63881250Y-37982750D02*
X62581250Y-37982750D01*
G75*
G02*
X62327250Y-37728750I0J254000D01*
G01*
X62327250Y-37028750D01*
G75*
G02*
X62581250Y-36774750I254000J0D01*
G01*
X63881250Y-36774750D01*
G75*
G02*
X64135250Y-37028750I0J-254000D01*
G01*
X64135250Y-37728750D01*
G75*
G02*
X63881250Y-37982750I-254000J0D01*
G01*
G37*
G36*
G01*
X63881250Y-36082750D02*
X62581250Y-36082750D01*
G75*
G02*
X62327250Y-35828750I0J254000D01*
G01*
X62327250Y-35128750D01*
G75*
G02*
X62581250Y-34874750I254000J0D01*
G01*
X63881250Y-34874750D01*
G75*
G02*
X64135250Y-35128750I0J-254000D01*
G01*
X64135250Y-35828750D01*
G75*
G02*
X63881250Y-36082750I-254000J0D01*
G01*
G37*
%TD*%
%TO.C,R89*%
G36*
G01*
X63881250Y-52462750D02*
X62581250Y-52462750D01*
G75*
G02*
X62327250Y-52208750I0J254000D01*
G01*
X62327250Y-51508750D01*
G75*
G02*
X62581250Y-51254750I254000J0D01*
G01*
X63881250Y-51254750D01*
G75*
G02*
X64135250Y-51508750I0J-254000D01*
G01*
X64135250Y-52208750D01*
G75*
G02*
X63881250Y-52462750I-254000J0D01*
G01*
G37*
G36*
G01*
X63881250Y-50562750D02*
X62581250Y-50562750D01*
G75*
G02*
X62327250Y-50308750I0J254000D01*
G01*
X62327250Y-49608750D01*
G75*
G02*
X62581250Y-49354750I254000J0D01*
G01*
X63881250Y-49354750D01*
G75*
G02*
X64135250Y-49608750I0J-254000D01*
G01*
X64135250Y-50308750D01*
G75*
G02*
X63881250Y-50562750I-254000J0D01*
G01*
G37*
%TD*%
%TO.C,R90*%
G36*
G01*
X63881250Y-66942750D02*
X62581250Y-66942750D01*
G75*
G02*
X62327250Y-66688750I0J254000D01*
G01*
X62327250Y-65988750D01*
G75*
G02*
X62581250Y-65734750I254000J0D01*
G01*
X63881250Y-65734750D01*
G75*
G02*
X64135250Y-65988750I0J-254000D01*
G01*
X64135250Y-66688750D01*
G75*
G02*
X63881250Y-66942750I-254000J0D01*
G01*
G37*
G36*
G01*
X63881250Y-65042750D02*
X62581250Y-65042750D01*
G75*
G02*
X62327250Y-64788750I0J254000D01*
G01*
X62327250Y-64088750D01*
G75*
G02*
X62581250Y-63834750I254000J0D01*
G01*
X63881250Y-63834750D01*
G75*
G02*
X64135250Y-64088750I0J-254000D01*
G01*
X64135250Y-64788750D01*
G75*
G02*
X63881250Y-65042750I-254000J0D01*
G01*
G37*
%TD*%
%TO.C,R91*%
G36*
G01*
X63881250Y-81422750D02*
X62581250Y-81422750D01*
G75*
G02*
X62327250Y-81168750I0J254000D01*
G01*
X62327250Y-80468750D01*
G75*
G02*
X62581250Y-80214750I254000J0D01*
G01*
X63881250Y-80214750D01*
G75*
G02*
X64135250Y-80468750I0J-254000D01*
G01*
X64135250Y-81168750D01*
G75*
G02*
X63881250Y-81422750I-254000J0D01*
G01*
G37*
G36*
G01*
X63881250Y-79522750D02*
X62581250Y-79522750D01*
G75*
G02*
X62327250Y-79268750I0J254000D01*
G01*
X62327250Y-78568750D01*
G75*
G02*
X62581250Y-78314750I254000J0D01*
G01*
X63881250Y-78314750D01*
G75*
G02*
X64135250Y-78568750I0J-254000D01*
G01*
X64135250Y-79268750D01*
G75*
G02*
X63881250Y-79522750I-254000J0D01*
G01*
G37*
%TD*%
%TO.C,R92*%
G36*
G01*
X66391250Y-78314750D02*
X67691250Y-78314750D01*
G75*
G02*
X67945250Y-78568750I0J-254000D01*
G01*
X67945250Y-79268750D01*
G75*
G02*
X67691250Y-79522750I-254000J0D01*
G01*
X66391250Y-79522750D01*
G75*
G02*
X66137250Y-79268750I0J254000D01*
G01*
X66137250Y-78568750D01*
G75*
G02*
X66391250Y-78314750I254000J0D01*
G01*
G37*
G36*
G01*
X66391250Y-80214750D02*
X67691250Y-80214750D01*
G75*
G02*
X67945250Y-80468750I0J-254000D01*
G01*
X67945250Y-81168750D01*
G75*
G02*
X67691250Y-81422750I-254000J0D01*
G01*
X66391250Y-81422750D01*
G75*
G02*
X66137250Y-81168750I0J254000D01*
G01*
X66137250Y-80468750D01*
G75*
G02*
X66391250Y-80214750I254000J0D01*
G01*
G37*
%TD*%
%TO.C,R94*%
G36*
G01*
X70201250Y-34874750D02*
X71501250Y-34874750D01*
G75*
G02*
X71755250Y-35128750I0J-254000D01*
G01*
X71755250Y-35828750D01*
G75*
G02*
X71501250Y-36082750I-254000J0D01*
G01*
X70201250Y-36082750D01*
G75*
G02*
X69947250Y-35828750I0J254000D01*
G01*
X69947250Y-35128750D01*
G75*
G02*
X70201250Y-34874750I254000J0D01*
G01*
G37*
G36*
G01*
X70201250Y-36774750D02*
X71501250Y-36774750D01*
G75*
G02*
X71755250Y-37028750I0J-254000D01*
G01*
X71755250Y-37728750D01*
G75*
G02*
X71501250Y-37982750I-254000J0D01*
G01*
X70201250Y-37982750D01*
G75*
G02*
X69947250Y-37728750I0J254000D01*
G01*
X69947250Y-37028750D01*
G75*
G02*
X70201250Y-36774750I254000J0D01*
G01*
G37*
%TD*%
%TO.C,R95*%
G36*
G01*
X70201250Y-49354750D02*
X71501250Y-49354750D01*
G75*
G02*
X71755250Y-49608750I0J-254000D01*
G01*
X71755250Y-50308750D01*
G75*
G02*
X71501250Y-50562750I-254000J0D01*
G01*
X70201250Y-50562750D01*
G75*
G02*
X69947250Y-50308750I0J254000D01*
G01*
X69947250Y-49608750D01*
G75*
G02*
X70201250Y-49354750I254000J0D01*
G01*
G37*
G36*
G01*
X70201250Y-51254750D02*
X71501250Y-51254750D01*
G75*
G02*
X71755250Y-51508750I0J-254000D01*
G01*
X71755250Y-52208750D01*
G75*
G02*
X71501250Y-52462750I-254000J0D01*
G01*
X70201250Y-52462750D01*
G75*
G02*
X69947250Y-52208750I0J254000D01*
G01*
X69947250Y-51508750D01*
G75*
G02*
X70201250Y-51254750I254000J0D01*
G01*
G37*
%TD*%
%TO.C,R96*%
G36*
G01*
X70201250Y-63834750D02*
X71501250Y-63834750D01*
G75*
G02*
X71755250Y-64088750I0J-254000D01*
G01*
X71755250Y-64788750D01*
G75*
G02*
X71501250Y-65042750I-254000J0D01*
G01*
X70201250Y-65042750D01*
G75*
G02*
X69947250Y-64788750I0J254000D01*
G01*
X69947250Y-64088750D01*
G75*
G02*
X70201250Y-63834750I254000J0D01*
G01*
G37*
G36*
G01*
X70201250Y-65734750D02*
X71501250Y-65734750D01*
G75*
G02*
X71755250Y-65988750I0J-254000D01*
G01*
X71755250Y-66688750D01*
G75*
G02*
X71501250Y-66942750I-254000J0D01*
G01*
X70201250Y-66942750D01*
G75*
G02*
X69947250Y-66688750I0J254000D01*
G01*
X69947250Y-65988750D01*
G75*
G02*
X70201250Y-65734750I254000J0D01*
G01*
G37*
%TD*%
%TO.C,R97*%
G36*
G01*
X70201250Y-78314750D02*
X71501250Y-78314750D01*
G75*
G02*
X71755250Y-78568750I0J-254000D01*
G01*
X71755250Y-79268750D01*
G75*
G02*
X71501250Y-79522750I-254000J0D01*
G01*
X70201250Y-79522750D01*
G75*
G02*
X69947250Y-79268750I0J254000D01*
G01*
X69947250Y-78568750D01*
G75*
G02*
X70201250Y-78314750I254000J0D01*
G01*
G37*
G36*
G01*
X70201250Y-80214750D02*
X71501250Y-80214750D01*
G75*
G02*
X71755250Y-80468750I0J-254000D01*
G01*
X71755250Y-81168750D01*
G75*
G02*
X71501250Y-81422750I-254000J0D01*
G01*
X70201250Y-81422750D01*
G75*
G02*
X69947250Y-81168750I0J254000D01*
G01*
X69947250Y-80468750D01*
G75*
G02*
X70201250Y-80214750I254000J0D01*
G01*
G37*
%TD*%
%TO.C,R101*%
G36*
G01*
X81631250Y-34874750D02*
X82931250Y-34874750D01*
G75*
G02*
X83185250Y-35128750I0J-254000D01*
G01*
X83185250Y-35828750D01*
G75*
G02*
X82931250Y-36082750I-254000J0D01*
G01*
X81631250Y-36082750D01*
G75*
G02*
X81377250Y-35828750I0J254000D01*
G01*
X81377250Y-35128750D01*
G75*
G02*
X81631250Y-34874750I254000J0D01*
G01*
G37*
G36*
G01*
X81631250Y-36774750D02*
X82931250Y-36774750D01*
G75*
G02*
X83185250Y-37028750I0J-254000D01*
G01*
X83185250Y-37728750D01*
G75*
G02*
X82931250Y-37982750I-254000J0D01*
G01*
X81631250Y-37982750D01*
G75*
G02*
X81377250Y-37728750I0J254000D01*
G01*
X81377250Y-37028750D01*
G75*
G02*
X81631250Y-36774750I254000J0D01*
G01*
G37*
%TD*%
%TO.C,R102*%
G36*
G01*
X79121250Y-37982750D02*
X77821250Y-37982750D01*
G75*
G02*
X77567250Y-37728750I0J254000D01*
G01*
X77567250Y-37028750D01*
G75*
G02*
X77821250Y-36774750I254000J0D01*
G01*
X79121250Y-36774750D01*
G75*
G02*
X79375250Y-37028750I0J-254000D01*
G01*
X79375250Y-37728750D01*
G75*
G02*
X79121250Y-37982750I-254000J0D01*
G01*
G37*
G36*
G01*
X79121250Y-36082750D02*
X77821250Y-36082750D01*
G75*
G02*
X77567250Y-35828750I0J254000D01*
G01*
X77567250Y-35128750D01*
G75*
G02*
X77821250Y-34874750I254000J0D01*
G01*
X79121250Y-34874750D01*
G75*
G02*
X79375250Y-35128750I0J-254000D01*
G01*
X79375250Y-35828750D01*
G75*
G02*
X79121250Y-36082750I-254000J0D01*
G01*
G37*
%TD*%
%TO.C,R103*%
G36*
G01*
X79121250Y-52462750D02*
X77821250Y-52462750D01*
G75*
G02*
X77567250Y-52208750I0J254000D01*
G01*
X77567250Y-51508750D01*
G75*
G02*
X77821250Y-51254750I254000J0D01*
G01*
X79121250Y-51254750D01*
G75*
G02*
X79375250Y-51508750I0J-254000D01*
G01*
X79375250Y-52208750D01*
G75*
G02*
X79121250Y-52462750I-254000J0D01*
G01*
G37*
G36*
G01*
X79121250Y-50562750D02*
X77821250Y-50562750D01*
G75*
G02*
X77567250Y-50308750I0J254000D01*
G01*
X77567250Y-49608750D01*
G75*
G02*
X77821250Y-49354750I254000J0D01*
G01*
X79121250Y-49354750D01*
G75*
G02*
X79375250Y-49608750I0J-254000D01*
G01*
X79375250Y-50308750D01*
G75*
G02*
X79121250Y-50562750I-254000J0D01*
G01*
G37*
%TD*%
%TO.C,R104*%
G36*
G01*
X79121250Y-66942750D02*
X77821250Y-66942750D01*
G75*
G02*
X77567250Y-66688750I0J254000D01*
G01*
X77567250Y-65988750D01*
G75*
G02*
X77821250Y-65734750I254000J0D01*
G01*
X79121250Y-65734750D01*
G75*
G02*
X79375250Y-65988750I0J-254000D01*
G01*
X79375250Y-66688750D01*
G75*
G02*
X79121250Y-66942750I-254000J0D01*
G01*
G37*
G36*
G01*
X79121250Y-65042750D02*
X77821250Y-65042750D01*
G75*
G02*
X77567250Y-64788750I0J254000D01*
G01*
X77567250Y-64088750D01*
G75*
G02*
X77821250Y-63834750I254000J0D01*
G01*
X79121250Y-63834750D01*
G75*
G02*
X79375250Y-64088750I0J-254000D01*
G01*
X79375250Y-64788750D01*
G75*
G02*
X79121250Y-65042750I-254000J0D01*
G01*
G37*
%TD*%
%TO.C,R105*%
G36*
G01*
X79121250Y-81422750D02*
X77821250Y-81422750D01*
G75*
G02*
X77567250Y-81168750I0J254000D01*
G01*
X77567250Y-80468750D01*
G75*
G02*
X77821250Y-80214750I254000J0D01*
G01*
X79121250Y-80214750D01*
G75*
G02*
X79375250Y-80468750I0J-254000D01*
G01*
X79375250Y-81168750D01*
G75*
G02*
X79121250Y-81422750I-254000J0D01*
G01*
G37*
G36*
G01*
X79121250Y-79522750D02*
X77821250Y-79522750D01*
G75*
G02*
X77567250Y-79268750I0J254000D01*
G01*
X77567250Y-78568750D01*
G75*
G02*
X77821250Y-78314750I254000J0D01*
G01*
X79121250Y-78314750D01*
G75*
G02*
X79375250Y-78568750I0J-254000D01*
G01*
X79375250Y-79268750D01*
G75*
G02*
X79121250Y-79522750I-254000J0D01*
G01*
G37*
%TD*%
%TO.C,R106*%
G36*
G01*
X81631250Y-78314750D02*
X82931250Y-78314750D01*
G75*
G02*
X83185250Y-78568750I0J-254000D01*
G01*
X83185250Y-79268750D01*
G75*
G02*
X82931250Y-79522750I-254000J0D01*
G01*
X81631250Y-79522750D01*
G75*
G02*
X81377250Y-79268750I0J254000D01*
G01*
X81377250Y-78568750D01*
G75*
G02*
X81631250Y-78314750I254000J0D01*
G01*
G37*
G36*
G01*
X81631250Y-80214750D02*
X82931250Y-80214750D01*
G75*
G02*
X83185250Y-80468750I0J-254000D01*
G01*
X83185250Y-81168750D01*
G75*
G02*
X82931250Y-81422750I-254000J0D01*
G01*
X81631250Y-81422750D01*
G75*
G02*
X81377250Y-81168750I0J254000D01*
G01*
X81377250Y-80468750D01*
G75*
G02*
X81631250Y-80214750I254000J0D01*
G01*
G37*
%TD*%
%TO.C,R108*%
G36*
G01*
X85441250Y-34874750D02*
X86741250Y-34874750D01*
G75*
G02*
X86995250Y-35128750I0J-254000D01*
G01*
X86995250Y-35828750D01*
G75*
G02*
X86741250Y-36082750I-254000J0D01*
G01*
X85441250Y-36082750D01*
G75*
G02*
X85187250Y-35828750I0J254000D01*
G01*
X85187250Y-35128750D01*
G75*
G02*
X85441250Y-34874750I254000J0D01*
G01*
G37*
G36*
G01*
X85441250Y-36774750D02*
X86741250Y-36774750D01*
G75*
G02*
X86995250Y-37028750I0J-254000D01*
G01*
X86995250Y-37728750D01*
G75*
G02*
X86741250Y-37982750I-254000J0D01*
G01*
X85441250Y-37982750D01*
G75*
G02*
X85187250Y-37728750I0J254000D01*
G01*
X85187250Y-37028750D01*
G75*
G02*
X85441250Y-36774750I254000J0D01*
G01*
G37*
%TD*%
%TO.C,R109*%
G36*
G01*
X85441250Y-49354750D02*
X86741250Y-49354750D01*
G75*
G02*
X86995250Y-49608750I0J-254000D01*
G01*
X86995250Y-50308750D01*
G75*
G02*
X86741250Y-50562750I-254000J0D01*
G01*
X85441250Y-50562750D01*
G75*
G02*
X85187250Y-50308750I0J254000D01*
G01*
X85187250Y-49608750D01*
G75*
G02*
X85441250Y-49354750I254000J0D01*
G01*
G37*
G36*
G01*
X85441250Y-51254750D02*
X86741250Y-51254750D01*
G75*
G02*
X86995250Y-51508750I0J-254000D01*
G01*
X86995250Y-52208750D01*
G75*
G02*
X86741250Y-52462750I-254000J0D01*
G01*
X85441250Y-52462750D01*
G75*
G02*
X85187250Y-52208750I0J254000D01*
G01*
X85187250Y-51508750D01*
G75*
G02*
X85441250Y-51254750I254000J0D01*
G01*
G37*
%TD*%
%TO.C,R110*%
G36*
G01*
X85441250Y-63834750D02*
X86741250Y-63834750D01*
G75*
G02*
X86995250Y-64088750I0J-254000D01*
G01*
X86995250Y-64788750D01*
G75*
G02*
X86741250Y-65042750I-254000J0D01*
G01*
X85441250Y-65042750D01*
G75*
G02*
X85187250Y-64788750I0J254000D01*
G01*
X85187250Y-64088750D01*
G75*
G02*
X85441250Y-63834750I254000J0D01*
G01*
G37*
G36*
G01*
X85441250Y-65734750D02*
X86741250Y-65734750D01*
G75*
G02*
X86995250Y-65988750I0J-254000D01*
G01*
X86995250Y-66688750D01*
G75*
G02*
X86741250Y-66942750I-254000J0D01*
G01*
X85441250Y-66942750D01*
G75*
G02*
X85187250Y-66688750I0J254000D01*
G01*
X85187250Y-65988750D01*
G75*
G02*
X85441250Y-65734750I254000J0D01*
G01*
G37*
%TD*%
%TO.C,R111*%
G36*
G01*
X85441250Y-78314750D02*
X86741250Y-78314750D01*
G75*
G02*
X86995250Y-78568750I0J-254000D01*
G01*
X86995250Y-79268750D01*
G75*
G02*
X86741250Y-79522750I-254000J0D01*
G01*
X85441250Y-79522750D01*
G75*
G02*
X85187250Y-79268750I0J254000D01*
G01*
X85187250Y-78568750D01*
G75*
G02*
X85441250Y-78314750I254000J0D01*
G01*
G37*
G36*
G01*
X85441250Y-80214750D02*
X86741250Y-80214750D01*
G75*
G02*
X86995250Y-80468750I0J-254000D01*
G01*
X86995250Y-81168750D01*
G75*
G02*
X86741250Y-81422750I-254000J0D01*
G01*
X85441250Y-81422750D01*
G75*
G02*
X85187250Y-81168750I0J254000D01*
G01*
X85187250Y-80468750D01*
G75*
G02*
X85441250Y-80214750I254000J0D01*
G01*
G37*
%TD*%
%TO.C,R113*%
G36*
G01*
X94361250Y-37982750D02*
X93061250Y-37982750D01*
G75*
G02*
X92807250Y-37728750I0J254000D01*
G01*
X92807250Y-37028750D01*
G75*
G02*
X93061250Y-36774750I254000J0D01*
G01*
X94361250Y-36774750D01*
G75*
G02*
X94615250Y-37028750I0J-254000D01*
G01*
X94615250Y-37728750D01*
G75*
G02*
X94361250Y-37982750I-254000J0D01*
G01*
G37*
G36*
G01*
X94361250Y-36082750D02*
X93061250Y-36082750D01*
G75*
G02*
X92807250Y-35828750I0J254000D01*
G01*
X92807250Y-35128750D01*
G75*
G02*
X93061250Y-34874750I254000J0D01*
G01*
X94361250Y-34874750D01*
G75*
G02*
X94615250Y-35128750I0J-254000D01*
G01*
X94615250Y-35828750D01*
G75*
G02*
X94361250Y-36082750I-254000J0D01*
G01*
G37*
%TD*%
%TO.C,R114*%
G36*
G01*
X96871250Y-34874750D02*
X98171250Y-34874750D01*
G75*
G02*
X98425250Y-35128750I0J-254000D01*
G01*
X98425250Y-35828750D01*
G75*
G02*
X98171250Y-36082750I-254000J0D01*
G01*
X96871250Y-36082750D01*
G75*
G02*
X96617250Y-35828750I0J254000D01*
G01*
X96617250Y-35128750D01*
G75*
G02*
X96871250Y-34874750I254000J0D01*
G01*
G37*
G36*
G01*
X96871250Y-36774750D02*
X98171250Y-36774750D01*
G75*
G02*
X98425250Y-37028750I0J-254000D01*
G01*
X98425250Y-37728750D01*
G75*
G02*
X98171250Y-37982750I-254000J0D01*
G01*
X96871250Y-37982750D01*
G75*
G02*
X96617250Y-37728750I0J254000D01*
G01*
X96617250Y-37028750D01*
G75*
G02*
X96871250Y-36774750I254000J0D01*
G01*
G37*
%TD*%
%TO.C,R115*%
G36*
G01*
X94361250Y-52462750D02*
X93061250Y-52462750D01*
G75*
G02*
X92807250Y-52208750I0J254000D01*
G01*
X92807250Y-51508750D01*
G75*
G02*
X93061250Y-51254750I254000J0D01*
G01*
X94361250Y-51254750D01*
G75*
G02*
X94615250Y-51508750I0J-254000D01*
G01*
X94615250Y-52208750D01*
G75*
G02*
X94361250Y-52462750I-254000J0D01*
G01*
G37*
G36*
G01*
X94361250Y-50562750D02*
X93061250Y-50562750D01*
G75*
G02*
X92807250Y-50308750I0J254000D01*
G01*
X92807250Y-49608750D01*
G75*
G02*
X93061250Y-49354750I254000J0D01*
G01*
X94361250Y-49354750D01*
G75*
G02*
X94615250Y-49608750I0J-254000D01*
G01*
X94615250Y-50308750D01*
G75*
G02*
X94361250Y-50562750I-254000J0D01*
G01*
G37*
%TD*%
%TO.C,R116*%
G36*
G01*
X94361250Y-66942750D02*
X93061250Y-66942750D01*
G75*
G02*
X92807250Y-66688750I0J254000D01*
G01*
X92807250Y-65988750D01*
G75*
G02*
X93061250Y-65734750I254000J0D01*
G01*
X94361250Y-65734750D01*
G75*
G02*
X94615250Y-65988750I0J-254000D01*
G01*
X94615250Y-66688750D01*
G75*
G02*
X94361250Y-66942750I-254000J0D01*
G01*
G37*
G36*
G01*
X94361250Y-65042750D02*
X93061250Y-65042750D01*
G75*
G02*
X92807250Y-64788750I0J254000D01*
G01*
X92807250Y-64088750D01*
G75*
G02*
X93061250Y-63834750I254000J0D01*
G01*
X94361250Y-63834750D01*
G75*
G02*
X94615250Y-64088750I0J-254000D01*
G01*
X94615250Y-64788750D01*
G75*
G02*
X94361250Y-65042750I-254000J0D01*
G01*
G37*
%TD*%
%TO.C,R117*%
G36*
G01*
X94361250Y-81422750D02*
X93061250Y-81422750D01*
G75*
G02*
X92807250Y-81168750I0J254000D01*
G01*
X92807250Y-80468750D01*
G75*
G02*
X93061250Y-80214750I254000J0D01*
G01*
X94361250Y-80214750D01*
G75*
G02*
X94615250Y-80468750I0J-254000D01*
G01*
X94615250Y-81168750D01*
G75*
G02*
X94361250Y-81422750I-254000J0D01*
G01*
G37*
G36*
G01*
X94361250Y-79522750D02*
X93061250Y-79522750D01*
G75*
G02*
X92807250Y-79268750I0J254000D01*
G01*
X92807250Y-78568750D01*
G75*
G02*
X93061250Y-78314750I254000J0D01*
G01*
X94361250Y-78314750D01*
G75*
G02*
X94615250Y-78568750I0J-254000D01*
G01*
X94615250Y-79268750D01*
G75*
G02*
X94361250Y-79522750I-254000J0D01*
G01*
G37*
%TD*%
%TO.C,R118*%
G36*
G01*
X96871250Y-78314750D02*
X98171250Y-78314750D01*
G75*
G02*
X98425250Y-78568750I0J-254000D01*
G01*
X98425250Y-79268750D01*
G75*
G02*
X98171250Y-79522750I-254000J0D01*
G01*
X96871250Y-79522750D01*
G75*
G02*
X96617250Y-79268750I0J254000D01*
G01*
X96617250Y-78568750D01*
G75*
G02*
X96871250Y-78314750I254000J0D01*
G01*
G37*
G36*
G01*
X96871250Y-80214750D02*
X98171250Y-80214750D01*
G75*
G02*
X98425250Y-80468750I0J-254000D01*
G01*
X98425250Y-81168750D01*
G75*
G02*
X98171250Y-81422750I-254000J0D01*
G01*
X96871250Y-81422750D01*
G75*
G02*
X96617250Y-81168750I0J254000D01*
G01*
X96617250Y-80468750D01*
G75*
G02*
X96871250Y-80214750I254000J0D01*
G01*
G37*
%TD*%
%TO.C,R119*%
G36*
G01*
X100681250Y-34874750D02*
X101981250Y-34874750D01*
G75*
G02*
X102235250Y-35128750I0J-254000D01*
G01*
X102235250Y-35828750D01*
G75*
G02*
X101981250Y-36082750I-254000J0D01*
G01*
X100681250Y-36082750D01*
G75*
G02*
X100427250Y-35828750I0J254000D01*
G01*
X100427250Y-35128750D01*
G75*
G02*
X100681250Y-34874750I254000J0D01*
G01*
G37*
G36*
G01*
X100681250Y-36774750D02*
X101981250Y-36774750D01*
G75*
G02*
X102235250Y-37028750I0J-254000D01*
G01*
X102235250Y-37728750D01*
G75*
G02*
X101981250Y-37982750I-254000J0D01*
G01*
X100681250Y-37982750D01*
G75*
G02*
X100427250Y-37728750I0J254000D01*
G01*
X100427250Y-37028750D01*
G75*
G02*
X100681250Y-36774750I254000J0D01*
G01*
G37*
%TD*%
%TO.C,R121*%
G36*
G01*
X100681250Y-49354750D02*
X101981250Y-49354750D01*
G75*
G02*
X102235250Y-49608750I0J-254000D01*
G01*
X102235250Y-50308750D01*
G75*
G02*
X101981250Y-50562750I-254000J0D01*
G01*
X100681250Y-50562750D01*
G75*
G02*
X100427250Y-50308750I0J254000D01*
G01*
X100427250Y-49608750D01*
G75*
G02*
X100681250Y-49354750I254000J0D01*
G01*
G37*
G36*
G01*
X100681250Y-51254750D02*
X101981250Y-51254750D01*
G75*
G02*
X102235250Y-51508750I0J-254000D01*
G01*
X102235250Y-52208750D01*
G75*
G02*
X101981250Y-52462750I-254000J0D01*
G01*
X100681250Y-52462750D01*
G75*
G02*
X100427250Y-52208750I0J254000D01*
G01*
X100427250Y-51508750D01*
G75*
G02*
X100681250Y-51254750I254000J0D01*
G01*
G37*
%TD*%
%TO.C,R122*%
G36*
G01*
X100681250Y-63834750D02*
X101981250Y-63834750D01*
G75*
G02*
X102235250Y-64088750I0J-254000D01*
G01*
X102235250Y-64788750D01*
G75*
G02*
X101981250Y-65042750I-254000J0D01*
G01*
X100681250Y-65042750D01*
G75*
G02*
X100427250Y-64788750I0J254000D01*
G01*
X100427250Y-64088750D01*
G75*
G02*
X100681250Y-63834750I254000J0D01*
G01*
G37*
G36*
G01*
X100681250Y-65734750D02*
X101981250Y-65734750D01*
G75*
G02*
X102235250Y-65988750I0J-254000D01*
G01*
X102235250Y-66688750D01*
G75*
G02*
X101981250Y-66942750I-254000J0D01*
G01*
X100681250Y-66942750D01*
G75*
G02*
X100427250Y-66688750I0J254000D01*
G01*
X100427250Y-65988750D01*
G75*
G02*
X100681250Y-65734750I254000J0D01*
G01*
G37*
%TD*%
%TO.C,R123*%
G36*
G01*
X100681250Y-78314750D02*
X101981250Y-78314750D01*
G75*
G02*
X102235250Y-78568750I0J-254000D01*
G01*
X102235250Y-79268750D01*
G75*
G02*
X101981250Y-79522750I-254000J0D01*
G01*
X100681250Y-79522750D01*
G75*
G02*
X100427250Y-79268750I0J254000D01*
G01*
X100427250Y-78568750D01*
G75*
G02*
X100681250Y-78314750I254000J0D01*
G01*
G37*
G36*
G01*
X100681250Y-80214750D02*
X101981250Y-80214750D01*
G75*
G02*
X102235250Y-80468750I0J-254000D01*
G01*
X102235250Y-81168750D01*
G75*
G02*
X101981250Y-81422750I-254000J0D01*
G01*
X100681250Y-81422750D01*
G75*
G02*
X100427250Y-81168750I0J254000D01*
G01*
X100427250Y-80468750D01*
G75*
G02*
X100681250Y-80214750I254000J0D01*
G01*
G37*
%TD*%
D12*
%TO.C,P3*%
X28000000Y-27000000D03*
%TD*%
%TO.C,P4*%
X104000000Y-27000000D03*
%TD*%
%TO.C,P5*%
X28000000Y-111000000D03*
%TD*%
%TO.C,P6*%
X104000000Y-111000000D03*
%TD*%
%TO.C,C11*%
G36*
G01*
X51354000Y-109975000D02*
X51354000Y-111225000D01*
G75*
G02*
X51100000Y-111479000I-254000J0D01*
G01*
X50100000Y-111479000D01*
G75*
G02*
X49846000Y-111225000I0J254000D01*
G01*
X49846000Y-109975000D01*
G75*
G02*
X50100000Y-109721000I254000J0D01*
G01*
X51100000Y-109721000D01*
G75*
G02*
X51354000Y-109975000I0J-254000D01*
G01*
G37*
G36*
G01*
X49354000Y-109975000D02*
X49354000Y-111225000D01*
G75*
G02*
X49100000Y-111479000I-254000J0D01*
G01*
X48100000Y-111479000D01*
G75*
G02*
X47846000Y-111225000I0J254000D01*
G01*
X47846000Y-109975000D01*
G75*
G02*
X48100000Y-109721000I254000J0D01*
G01*
X49100000Y-109721000D01*
G75*
G02*
X49354000Y-109975000I0J-254000D01*
G01*
G37*
%TD*%
%TO.C,C14*%
G36*
G01*
X32971000Y-112025000D02*
X32971000Y-110775000D01*
G75*
G02*
X33225000Y-110521000I254000J0D01*
G01*
X34225000Y-110521000D01*
G75*
G02*
X34479000Y-110775000I0J-254000D01*
G01*
X34479000Y-112025000D01*
G75*
G02*
X34225000Y-112279000I-254000J0D01*
G01*
X33225000Y-112279000D01*
G75*
G02*
X32971000Y-112025000I0J254000D01*
G01*
G37*
G36*
G01*
X34971000Y-112025000D02*
X34971000Y-110775000D01*
G75*
G02*
X35225000Y-110521000I254000J0D01*
G01*
X36225000Y-110521000D01*
G75*
G02*
X36479000Y-110775000I0J-254000D01*
G01*
X36479000Y-112025000D01*
G75*
G02*
X36225000Y-112279000I-254000J0D01*
G01*
X35225000Y-112279000D01*
G75*
G02*
X34971000Y-112025000I0J254000D01*
G01*
G37*
%TD*%
%TO.C,C15*%
G36*
G01*
X32971000Y-114100000D02*
X32971000Y-112850000D01*
G75*
G02*
X33225000Y-112596000I254000J0D01*
G01*
X34225000Y-112596000D01*
G75*
G02*
X34479000Y-112850000I0J-254000D01*
G01*
X34479000Y-114100000D01*
G75*
G02*
X34225000Y-114354000I-254000J0D01*
G01*
X33225000Y-114354000D01*
G75*
G02*
X32971000Y-114100000I0J254000D01*
G01*
G37*
G36*
G01*
X34971000Y-114100000D02*
X34971000Y-112850000D01*
G75*
G02*
X35225000Y-112596000I254000J0D01*
G01*
X36225000Y-112596000D01*
G75*
G02*
X36479000Y-112850000I0J-254000D01*
G01*
X36479000Y-114100000D01*
G75*
G02*
X36225000Y-114354000I-254000J0D01*
G01*
X35225000Y-114354000D01*
G75*
G02*
X34971000Y-114100000I0J254000D01*
G01*
G37*
%TD*%
%TO.C,FB1*%
G36*
G01*
X46004000Y-109550000D02*
X46004000Y-110850000D01*
G75*
G02*
X45750000Y-111104000I-254000J0D01*
G01*
X45050000Y-111104000D01*
G75*
G02*
X44796000Y-110850000I0J254000D01*
G01*
X44796000Y-109550000D01*
G75*
G02*
X45050000Y-109296000I254000J0D01*
G01*
X45750000Y-109296000D01*
G75*
G02*
X46004000Y-109550000I0J-254000D01*
G01*
G37*
G36*
G01*
X44104000Y-109550000D02*
X44104000Y-110850000D01*
G75*
G02*
X43850000Y-111104000I-254000J0D01*
G01*
X43150000Y-111104000D01*
G75*
G02*
X42896000Y-110850000I0J254000D01*
G01*
X42896000Y-109550000D01*
G75*
G02*
X43150000Y-109296000I254000J0D01*
G01*
X43850000Y-109296000D01*
G75*
G02*
X44104000Y-109550000I0J-254000D01*
G01*
G37*
%TD*%
%TO.C,FB3*%
G36*
G01*
X46004000Y-111250000D02*
X46004000Y-112550000D01*
G75*
G02*
X45750000Y-112804000I-254000J0D01*
G01*
X45050000Y-112804000D01*
G75*
G02*
X44796000Y-112550000I0J254000D01*
G01*
X44796000Y-111250000D01*
G75*
G02*
X45050000Y-110996000I254000J0D01*
G01*
X45750000Y-110996000D01*
G75*
G02*
X46004000Y-111250000I0J-254000D01*
G01*
G37*
G36*
G01*
X44104000Y-111250000D02*
X44104000Y-112550000D01*
G75*
G02*
X43850000Y-112804000I-254000J0D01*
G01*
X43150000Y-112804000D01*
G75*
G02*
X42896000Y-112550000I0J254000D01*
G01*
X42896000Y-111250000D01*
G75*
G02*
X43150000Y-110996000I254000J0D01*
G01*
X43850000Y-110996000D01*
G75*
G02*
X44104000Y-111250000I0J-254000D01*
G01*
G37*
%TD*%
D13*
%TO.C,P7*%
X98830800Y-24473200D03*
X63169200Y-24473200D03*
X98830800Y-26733800D03*
X63169200Y-26733800D03*
%TD*%
%TO.C,FB4*%
G36*
G01*
X64079000Y-110300000D02*
X64079000Y-111600000D01*
G75*
G02*
X63825000Y-111854000I-254000J0D01*
G01*
X63125000Y-111854000D01*
G75*
G02*
X62871000Y-111600000I0J254000D01*
G01*
X62871000Y-110300000D01*
G75*
G02*
X63125000Y-110046000I254000J0D01*
G01*
X63825000Y-110046000D01*
G75*
G02*
X64079000Y-110300000I0J-254000D01*
G01*
G37*
G36*
G01*
X62179000Y-110300000D02*
X62179000Y-111600000D01*
G75*
G02*
X61925000Y-111854000I-254000J0D01*
G01*
X61225000Y-111854000D01*
G75*
G02*
X60971000Y-111600000I0J254000D01*
G01*
X60971000Y-110300000D01*
G75*
G02*
X61225000Y-110046000I254000J0D01*
G01*
X61925000Y-110046000D01*
G75*
G02*
X62179000Y-110300000I0J-254000D01*
G01*
G37*
%TD*%
%TO.C,FB5*%
G36*
G01*
X58850000Y-24346000D02*
X60150000Y-24346000D01*
G75*
G02*
X60404000Y-24600000I0J-254000D01*
G01*
X60404000Y-25300000D01*
G75*
G02*
X60150000Y-25554000I-254000J0D01*
G01*
X58850000Y-25554000D01*
G75*
G02*
X58596000Y-25300000I0J254000D01*
G01*
X58596000Y-24600000D01*
G75*
G02*
X58850000Y-24346000I254000J0D01*
G01*
G37*
G36*
G01*
X58850000Y-26246000D02*
X60150000Y-26246000D01*
G75*
G02*
X60404000Y-26500000I0J-254000D01*
G01*
X60404000Y-27200000D01*
G75*
G02*
X60150000Y-27454000I-254000J0D01*
G01*
X58850000Y-27454000D01*
G75*
G02*
X58596000Y-27200000I0J254000D01*
G01*
X58596000Y-26500000D01*
G75*
G02*
X58850000Y-26246000I254000J0D01*
G01*
G37*
%TD*%
%TO.C,C16*%
G36*
G01*
X58025000Y-27754000D02*
X56775000Y-27754000D01*
G75*
G02*
X56521000Y-27500000I0J254000D01*
G01*
X56521000Y-26500000D01*
G75*
G02*
X56775000Y-26246000I254000J0D01*
G01*
X58025000Y-26246000D01*
G75*
G02*
X58279000Y-26500000I0J-254000D01*
G01*
X58279000Y-27500000D01*
G75*
G02*
X58025000Y-27754000I-254000J0D01*
G01*
G37*
G36*
G01*
X58025000Y-25754000D02*
X56775000Y-25754000D01*
G75*
G02*
X56521000Y-25500000I0J254000D01*
G01*
X56521000Y-24500000D01*
G75*
G02*
X56775000Y-24246000I254000J0D01*
G01*
X58025000Y-24246000D01*
G75*
G02*
X58279000Y-24500000I0J-254000D01*
G01*
X58279000Y-25500000D01*
G75*
G02*
X58025000Y-25754000I-254000J0D01*
G01*
G37*
%TD*%
M02*
