M48
; DRILL file {KiCad (5.1.9)-1} date 10/26/21 13:24:13
; FORMAT={-:-/ absolute / inch / decimal}
; #@! TF.CreationDate,2021-10-26T13:24:13-04:00
; #@! TF.GenerationSoftware,Kicad,Pcbnew,(5.1.9)-1
FMAT,2
INCH
T1C0.0150
T2C0.0330
T3C0.0400
T4C0.1200
%
G90
G05
T1
X1.0118Y-4.4606
X1.0157Y-0.9803
X1.0827Y-1.7087
X1.0827Y-2.2677
X1.0827Y-2.8346
X1.0827Y-3.3937
X1.1142Y-1.752
X1.1142Y-2.2953
X1.1142Y-2.8701
X1.1142Y-3.4331
X1.1299Y-3.7244
X1.2244Y-3.8189
X1.2323Y-2.7362
X1.2323Y-3.7244
X1.2362Y-2.8346
X1.2402Y-1.5157
X1.2402Y-2.0827
X1.2644Y-2.6489
X1.2644Y-3.2189
X1.2874Y-2.2008
X1.2894Y-1.7087
X1.2894Y-2.2638
X1.2894Y-3.3937
X1.3346Y-4.3307
X1.3583Y-1.3976
X1.3583Y-2.0406
X1.3622Y-2.6118
X1.3661Y-3.1818
X1.3744Y-3.8464
X1.4134Y-3.9213
X1.4144Y-4.0256
X1.4252Y-4.3868
X1.4291Y-4.4675
X1.4364Y-2.3794
X1.437Y-1.5118
X1.437Y-1.626
X1.437Y-1.7795
X1.437Y-1.8189
X1.437Y-1.9252
X1.437Y-2.0866
X1.437Y-2.3346
X1.437Y-2.5
X1.437Y-3.4724
X1.4384Y-2.1874
X1.4384Y-3.3314
X1.439Y-2.7618
X1.439Y-2.9094
X1.4394Y-2.6494
X1.4394Y-3.2194
X1.4394Y-3.6614
X1.4404Y-3.5294
X1.4409Y-2.9567
X1.4409Y-3.0709
X1.4508Y-3.7807
X1.4636Y-3.9724
X1.5148Y-3.9469
X1.5226Y-4.3868
X1.5236Y-4.4675
X1.563Y-3.8937
X1.564Y-3.998
X1.5894Y-3.4331
X1.5906Y-1.6339
X1.5906Y-1.7402
X1.5906Y-2.2008
X1.5906Y-2.2953
X1.5906Y-2.7756
X1.5906Y-2.8701
X1.5906Y-3.3425
X1.5915Y-4.3573
X1.6181Y-2.3307
X1.6181Y-3.4724
X1.6204Y-2.3714
X1.6204Y-3.5114
X1.6516Y-2.9035
X1.6519Y-3.7214
X1.6654Y-1.7835
X1.6713Y-4.0246
X1.6713Y-4.3691
X1.6732Y-2.9409
X1.6772Y-1.815
X1.7018Y-4.187
X1.7028Y-4.002
X1.7126Y-4.3386
X1.7126Y-4.4055
X1.7862Y-3.7654
X1.7874Y-4.4075
X1.7994Y-3.8214
X1.8041Y-4.001
X1.8248Y-4.3386
X1.8269Y-3.7214
X1.8346Y-2.7205
X1.8346Y-2.8346
X1.8386Y-3.2874
X1.8386Y-3.3937
X1.8465Y-1.5118
X1.8465Y-2.0787
X1.8622Y-2.2008
X1.8622Y-2.2638
X1.8644Y-2.6464
X1.8644Y-3.2189
X1.878Y-4.2992
X1.8819Y-4.0197
X1.8894Y-1.7087
X1.9134Y-4.3543
X1.9644Y-3.8464
X1.9646Y-1.3976
X1.9646Y-2.6122
X1.9646Y-3.1818
X1.9685Y-2.0417
X1.9764Y-4.0197
X1.9764Y-4.1614
X1.9764Y-4.2402
X1.989Y-3.7594
X1.9921Y-4.3543
X2.0144Y-3.9214
X2.0305Y-3.998
X2.0384Y-3.2174
X2.0384Y-3.3354
X2.0394Y-1.626
X2.0394Y-1.7717
X2.0394Y-1.811
X2.0394Y-1.9291
X2.0394Y-2.189
X2.0394Y-2.3386
X2.0394Y-2.3819
X2.0394Y-2.5
X2.0394Y-2.7638
X2.0394Y-2.9134
X2.0394Y-2.9567
X2.0394Y-3.0709
X2.0394Y-3.4921
X2.0394Y-3.6811
X2.0394Y-1.5118
X2.0394Y-2.0774
X2.0404Y-2.6474
X2.0404Y-3.5254
X2.0541Y-4.2844
X2.065Y-3.9715
X2.089Y-3.7591
X2.1024Y-1.2933
X2.1024Y-4.0925
X2.1024Y-4.2411
X2.1043Y-4.2756
X2.1049Y-4.3681
X2.1142Y-1.2205
X2.1142Y-3.9469
X2.1535Y-1.3248
X2.1644Y-3.8937
X2.189Y-1.6339
X2.189Y-2.2008
X2.189Y-2.7756
X2.189Y-3.3465
X2.189Y-3.4331
X2.1894Y-1.7402
X2.1894Y-2.2953
X2.1894Y-2.8701
X2.2008Y-1.3563
X2.2205Y-1.7717
X2.2205Y-4.374
X2.2244Y-2.3425
X2.2244Y-3.4961
X2.2283Y-1.8071
X2.2283Y-2.378
X2.2402Y-2.9173
X2.248Y-2.9567
X2.2594Y-3.7214
X2.2598Y-1.3366
X2.2638Y-3.5079
X2.2835Y-4.4055
X2.2874Y-4.2441
X2.311Y-1.3602
X2.3386Y-1.4094
X2.3461Y-4.249
X2.3583Y-0.937
X2.378Y-4.1004
X2.378Y-4.3642
X2.3858Y-1.1969
X2.3965Y-3.7854
X2.3984Y-3.7488
X2.4016Y-1.3445
X2.4213Y-3.2953
X2.4213Y-3.3937
X2.4244Y-3.7214
X2.4252Y-2.7126
X2.4252Y-2.8346
X2.4311Y-1.2972
X2.4331Y-1.4075
X2.437Y-2.0827
X2.437Y-2.6575
X2.4488Y-1.5118
X2.4644Y-3.2174
X2.4646Y-2.2008
X2.4646Y-2.2638
X2.4665Y-1.2953
X2.4894Y-1.7087
X2.4986Y-4.3632
X2.5Y-4.1713
X2.5Y-4.3012
X2.5236Y-1.2815
X2.5295Y-1.248
X2.5364Y-3.997
X2.563Y-2.0417
X2.563Y-3.1818
X2.5669Y-2.6118
X2.5709Y-0.9409
X2.5719Y-3.8464
X2.5744Y-1.474
X2.589Y-1.1695
X2.589Y-1.2295
X2.5913Y-3.763
X2.5961Y-4.2736
X2.598Y-4.1152
X2.5986Y-4.3632
X2.6144Y-3.9214
X2.6364Y-3.3374
X2.6378Y-1.622
X2.6378Y-1.7756
X2.6378Y-1.815
X2.6378Y-1.9291
X2.6378Y-2.0866
X2.6378Y-2.189
X2.6378Y-2.3346
X2.6378Y-2.3858
X2.6378Y-2.5
X2.6378Y-3.0709
X2.6378Y-3.4843
X2.6384Y-2.9574
X2.639Y-1.1695
X2.639Y-1.2295
X2.6394Y-1.5118
X2.6394Y-2.6575
X2.6394Y-3.2234
X2.6394Y-3.6639
X2.6404Y-3.5274
X2.6407Y-4.4055
X2.6417Y-1.0748
X2.6417Y-2.7677
X2.6417Y-2.9134
X2.6496Y-4.1969
X2.6644Y-3.9724
X2.6799Y-3.7764
X2.6831Y-4.3622
X2.689Y-1.0906
X2.689Y-1.1695
X2.689Y-1.2295
X2.7142Y-4.064
X2.7146Y-3.9469
X2.739Y-1.1695
X2.739Y-1.2295
X2.7402Y-1.1063
X2.7638Y-3.8937
X2.7657Y-4.1142
X2.7874Y-3.3465
X2.7894Y-3.4331
X2.7913Y-1.6339
X2.7913Y-1.7402
X2.7913Y-2.2047
X2.7913Y-2.2953
X2.7913Y-2.7756
X2.7913Y-2.8701
X2.8189Y-1.7756
X2.8189Y-3.4803
X2.8204Y-2.9474
X2.8204Y-3.5174
X2.8228Y-2.3346
X2.8228Y-2.374
X2.8346Y-1.8071
X2.8346Y-2.9134
X2.839Y-1.2295
X2.8524Y-1.1476
X2.8544Y-3.7214
X2.8602Y-1.2736
X2.8661Y-1.4075
X2.8701Y-4.2795
X2.889Y-1.1736
X2.9154Y-1.2777
X2.9213Y-1.4075
X2.939Y-1.1736
X2.939Y-1.2344
X2.9665Y-1.2797
X2.9764Y-1.4075
X2.989Y-1.1736
X2.9921Y-1.258
X2.9945Y-3.7909
X3.0154Y-4.1339
X3.0177Y-1.2817
X3.0197Y-3.7634
X3.0236Y-3.2953
X3.0236Y-3.3937
X3.0269Y-3.7214
X3.0315Y-1.4075
X3.0354Y-2.0827
X3.039Y-1.1736
X3.0433Y-1.258
X3.0433Y-1.5157
X3.0472Y-2.6536
X3.063Y-2.2008
X3.063Y-2.2638
X3.0644Y-3.2189
X3.0689Y-1.2797
X3.0709Y-2.7756
X3.0709Y-2.8346
X3.0734Y-4.2451
X3.089Y-1.1736
X3.0906Y-1.7087
X3.0965Y-1.258
X3.1201Y-1.2817
X3.1266Y-4.1319
X3.139Y-1.1695
X3.1496Y-1.2559
X3.1614Y-2.6118
X3.1614Y-3.1811
X3.1654Y-2.0417
X3.1669Y-3.8464
X3.1677Y-1.4744
X3.1772Y-1.2835
X3.189Y-1.1695
X3.1898Y-3.7606
X3.2008Y-1.2539
X3.2122Y-4.1319
X3.2144Y-3.9214
X3.2283Y-1.2835
X3.2362Y-1.9291
X3.2362Y-2.0827
X3.2362Y-3.4803
X3.2384Y-2.9554
X3.2384Y-3.3334
X3.2384Y-3.5274
X3.239Y-1.1695
X3.2394Y-1.5118
X3.2394Y-2.6539
X3.2394Y-3.2239
X3.2394Y-3.6639
X3.2402Y-1.622
X3.2402Y-1.7756
X3.2402Y-1.811
X3.2402Y-2.1929
X3.2402Y-2.3386
X3.2402Y-2.5
X3.2402Y-2.7638
X3.2402Y-2.9134
X3.2402Y-3.0709
X3.2404Y-2.3814
X3.2539Y-1.0157
X3.2539Y-1.2559
X3.2648Y-3.9724
X3.2795Y-1.2815
X3.2846Y-3.7665
X3.289Y-1.1695
X3.2894Y-1.0157
X3.3051Y-1.2598
X3.315Y-3.9469
X3.3346Y-1.2953
X3.339Y-1.1695
X3.3563Y-1.2697
X3.3642Y-3.8937
X3.3858Y-1.2874
X3.3894Y-1.7402
X3.3894Y-2.2953
X3.3894Y-2.8701
X3.3898Y-1.6339
X3.3898Y-2.2008
X3.3898Y-2.7756
X3.3898Y-3.3465
X3.3898Y-3.4331
X3.4182Y-3.6602
X3.4184Y-2.3754
X3.4184Y-3.5194
X3.4204Y-2.9474
X3.4213Y-2.3386
X3.4213Y-3.4803
X3.4252Y-1.0945
X3.4252Y-1.1457
X3.4252Y-1.7795
X3.437Y-2.9134
X3.4449Y-1.811
X3.4519Y-3.7214
X3.4705Y-1.372
X3.4764Y-1.0787
X3.4764Y-1.1457
X3.4843Y-4.376
X3.489Y-1.2295
X3.5236Y-1.4075
X3.5256Y-1.061
X3.5256Y-1.1457
X3.539Y-1.2295
X3.5394Y-4.3031
X3.5669Y-1.378
X3.589Y-1.1695
X3.589Y-1.2295
X3.5929Y-3.7906
X3.6161Y-1.0472
X3.6177Y-3.7657
X3.6181Y-1.3917
X3.622Y-3.2835
X3.622Y-3.3937
X3.6269Y-3.7214
X3.6299Y-3.2323
X3.6378Y-1.5157
X3.6378Y-2.0827
X3.6644Y-2.6489
X3.6654Y-2.2008
X3.6654Y-2.2638
X3.6693Y-2.7756
X3.6693Y-2.8346
X3.685Y-4.1496
X3.689Y-1.1695
X3.689Y-1.2295
X3.689Y-1.7087
X3.739Y-1.2295
X3.7638Y-2.0417
X3.7638Y-3.1818
X3.7677Y-1.3976
X3.7677Y-2.6118
X3.7694Y-3.8464
X3.789Y-1.1695
X3.789Y-1.2295
X3.7906Y-3.7602
X3.815Y-3.9193
X3.8268Y-0.9646
X3.8384Y-3.3334
X3.8386Y-1.5157
X3.8386Y-1.622
X3.8386Y-1.7795
X3.8386Y-1.815
X3.8386Y-1.9291
X3.8386Y-2.1929
X3.8386Y-2.3386
X3.8386Y-2.378
X3.8386Y-2.5
X3.8386Y-2.7638
X3.8386Y-2.9094
X3.8386Y-2.9567
X3.8386Y-3.0709
X3.8386Y-3.4843
X3.8394Y-2.0799
X3.8394Y-2.6494
X3.8394Y-3.2189
X3.8394Y-3.6639
X3.8404Y-3.5274
X3.8642Y-3.9724
X3.8858Y-3.7626
X3.9144Y-3.9469
X3.9232Y-1.3917
X3.9252Y-1.2854
X3.9252Y-1.435
X3.9636Y-3.8937
X3.9685Y-0.9646
X3.9882Y-1.7402
X3.9882Y-2.2008
X3.9882Y-2.2953
X3.9882Y-2.7756
X3.9882Y-2.8701
X3.9882Y-3.3465
X3.9882Y-3.4331
X3.9894Y-1.3968
X3.9921Y-1.6378
X4.0144Y-3.9214
X4.0184Y-3.5194
X4.0197Y-2.3425
X4.0197Y-3.4803
X4.0236Y-2.9094
X4.0276Y-1.7795
X4.0315Y-2.9488
X4.0394Y-2.374
X4.0512Y-1.815
X4.0581Y-1.5413
X4.0935Y-1.5039
X4.0945Y-1.2441
X4.0945Y-1.2795
X4.0961Y-1.4539
X4.1122Y-1.3996
X4.1969Y-4.4724
X4.2008Y-0.9567
T2
X2.487Y-0.9635
X2.487Y-1.0525
X3.891Y-0.9635
X3.891Y-1.0525
T3
X1.4213Y-4.152
X1.4213Y-4.252
X1.5213Y-4.152
X1.5213Y-4.252
X1.6213Y-4.152
X1.6213Y-4.252
X2.874Y-4.0551
X2.974Y-4.0551
X3.074Y-4.0551
X3.174Y-4.0551
X3.274Y-4.0551
X3.374Y-4.0551
T4
X1.1024Y-1.063
X1.1024Y-4.3701
X4.0945Y-1.063
X4.0945Y-4.3701
T0
M30
