%TF.GenerationSoftware,KiCad,Pcbnew,(5.1.9)-1*%
%TF.CreationDate,2021-10-26T13:24:10-04:00*%
%TF.ProjectId,40-channel HV switching board,34302d63-6861-46e6-9e65-6c2048562073,3.1.1*%
%TF.SameCoordinates,Original*%
%TF.FileFunction,Soldermask,Top*%
%TF.FilePolarity,Negative*%
%FSLAX46Y46*%
G04 Gerber Fmt 4.6, Leading zero omitted, Abs format (unit mm)*
G04 Created by KiCad (PCBNEW (5.1.9)-1) date 2021-10-26 13:24:10*
%MOMM*%
%LPD*%
G01*
G04 APERTURE LIST*
%ADD10O,2.235200X2.540000*%
%ADD11O,2.235200X2.235200*%
%ADD12C,4.572000*%
%ADD13C,1.778000*%
G04 APERTURE END LIST*
%TO.C,C4*%
G36*
G01*
X91725480Y-103870900D02*
X95474520Y-103870900D01*
G75*
G02*
X95728520Y-104124900I0J-254000D01*
G01*
X95728520Y-106675060D01*
G75*
G02*
X95474520Y-106929060I-254000J0D01*
G01*
X91725480Y-106929060D01*
G75*
G02*
X91471480Y-106675060I0J254000D01*
G01*
X91471480Y-104124900D01*
G75*
G02*
X91725480Y-103870900I254000J0D01*
G01*
G37*
G36*
G01*
X91725480Y-109270940D02*
X95474520Y-109270940D01*
G75*
G02*
X95728520Y-109524940I0J-254000D01*
G01*
X95728520Y-112075100D01*
G75*
G02*
X95474520Y-112329100I-254000J0D01*
G01*
X91725480Y-112329100D01*
G75*
G02*
X91471480Y-112075100I0J254000D01*
G01*
X91471480Y-109524940D01*
G75*
G02*
X91725480Y-109270940I254000J0D01*
G01*
G37*
%TD*%
%TO.C,CH0*%
G36*
G01*
X31735250Y-48544750D02*
X31735250Y-46512750D01*
G75*
G02*
X31989250Y-46258750I254000J0D01*
G01*
X33513250Y-46258750D01*
G75*
G02*
X33767250Y-46512750I0J-254000D01*
G01*
X33767250Y-48544750D01*
G75*
G02*
X33513250Y-48798750I-254000J0D01*
G01*
X31989250Y-48798750D01*
G75*
G02*
X31735250Y-48544750I0J254000D01*
G01*
G37*
G36*
G01*
X34275250Y-48544750D02*
X34275250Y-46512750D01*
G75*
G02*
X34529250Y-46258750I254000J0D01*
G01*
X36053250Y-46258750D01*
G75*
G02*
X36307250Y-46512750I0J-254000D01*
G01*
X36307250Y-48544750D01*
G75*
G02*
X36053250Y-48798750I-254000J0D01*
G01*
X34529250Y-48798750D01*
G75*
G02*
X34275250Y-48544750I0J254000D01*
G01*
G37*
G36*
G01*
X36815250Y-48544750D02*
X36815250Y-46512750D01*
G75*
G02*
X37069250Y-46258750I254000J0D01*
G01*
X38593250Y-46258750D01*
G75*
G02*
X38847250Y-46512750I0J-254000D01*
G01*
X38847250Y-48544750D01*
G75*
G02*
X38593250Y-48798750I-254000J0D01*
G01*
X37069250Y-48798750D01*
G75*
G02*
X36815250Y-48544750I0J254000D01*
G01*
G37*
G36*
G01*
X39355250Y-48544750D02*
X39355250Y-46512750D01*
G75*
G02*
X39609250Y-46258750I254000J0D01*
G01*
X41133250Y-46258750D01*
G75*
G02*
X41387250Y-46512750I0J-254000D01*
G01*
X41387250Y-48544750D01*
G75*
G02*
X41133250Y-48798750I-254000J0D01*
G01*
X39609250Y-48798750D01*
G75*
G02*
X39355250Y-48544750I0J254000D01*
G01*
G37*
G36*
G01*
X39355250Y-40924750D02*
X39355250Y-38892750D01*
G75*
G02*
X39609250Y-38638750I254000J0D01*
G01*
X41133250Y-38638750D01*
G75*
G02*
X41387250Y-38892750I0J-254000D01*
G01*
X41387250Y-40924750D01*
G75*
G02*
X41133250Y-41178750I-254000J0D01*
G01*
X39609250Y-41178750D01*
G75*
G02*
X39355250Y-40924750I0J254000D01*
G01*
G37*
G36*
G01*
X36815250Y-40924750D02*
X36815250Y-38892750D01*
G75*
G02*
X37069250Y-38638750I254000J0D01*
G01*
X38593250Y-38638750D01*
G75*
G02*
X38847250Y-38892750I0J-254000D01*
G01*
X38847250Y-40924750D01*
G75*
G02*
X38593250Y-41178750I-254000J0D01*
G01*
X37069250Y-41178750D01*
G75*
G02*
X36815250Y-40924750I0J254000D01*
G01*
G37*
G36*
G01*
X34275250Y-40924750D02*
X34275250Y-38892750D01*
G75*
G02*
X34529250Y-38638750I254000J0D01*
G01*
X36053250Y-38638750D01*
G75*
G02*
X36307250Y-38892750I0J-254000D01*
G01*
X36307250Y-40924750D01*
G75*
G02*
X36053250Y-41178750I-254000J0D01*
G01*
X34529250Y-41178750D01*
G75*
G02*
X34275250Y-40924750I0J254000D01*
G01*
G37*
G36*
G01*
X31735250Y-40924750D02*
X31735250Y-38892750D01*
G75*
G02*
X31989250Y-38638750I254000J0D01*
G01*
X33513250Y-38638750D01*
G75*
G02*
X33767250Y-38892750I0J-254000D01*
G01*
X33767250Y-40924750D01*
G75*
G02*
X33513250Y-41178750I-254000J0D01*
G01*
X31989250Y-41178750D01*
G75*
G02*
X31735250Y-40924750I0J254000D01*
G01*
G37*
%TD*%
%TO.C,CH2*%
G36*
G01*
X31735250Y-62924750D02*
X31735250Y-60892750D01*
G75*
G02*
X31989250Y-60638750I254000J0D01*
G01*
X33513250Y-60638750D01*
G75*
G02*
X33767250Y-60892750I0J-254000D01*
G01*
X33767250Y-62924750D01*
G75*
G02*
X33513250Y-63178750I-254000J0D01*
G01*
X31989250Y-63178750D01*
G75*
G02*
X31735250Y-62924750I0J254000D01*
G01*
G37*
G36*
G01*
X34275250Y-62924750D02*
X34275250Y-60892750D01*
G75*
G02*
X34529250Y-60638750I254000J0D01*
G01*
X36053250Y-60638750D01*
G75*
G02*
X36307250Y-60892750I0J-254000D01*
G01*
X36307250Y-62924750D01*
G75*
G02*
X36053250Y-63178750I-254000J0D01*
G01*
X34529250Y-63178750D01*
G75*
G02*
X34275250Y-62924750I0J254000D01*
G01*
G37*
G36*
G01*
X36815250Y-62924750D02*
X36815250Y-60892750D01*
G75*
G02*
X37069250Y-60638750I254000J0D01*
G01*
X38593250Y-60638750D01*
G75*
G02*
X38847250Y-60892750I0J-254000D01*
G01*
X38847250Y-62924750D01*
G75*
G02*
X38593250Y-63178750I-254000J0D01*
G01*
X37069250Y-63178750D01*
G75*
G02*
X36815250Y-62924750I0J254000D01*
G01*
G37*
G36*
G01*
X39355250Y-62924750D02*
X39355250Y-60892750D01*
G75*
G02*
X39609250Y-60638750I254000J0D01*
G01*
X41133250Y-60638750D01*
G75*
G02*
X41387250Y-60892750I0J-254000D01*
G01*
X41387250Y-62924750D01*
G75*
G02*
X41133250Y-63178750I-254000J0D01*
G01*
X39609250Y-63178750D01*
G75*
G02*
X39355250Y-62924750I0J254000D01*
G01*
G37*
G36*
G01*
X39355250Y-55304750D02*
X39355250Y-53272750D01*
G75*
G02*
X39609250Y-53018750I254000J0D01*
G01*
X41133250Y-53018750D01*
G75*
G02*
X41387250Y-53272750I0J-254000D01*
G01*
X41387250Y-55304750D01*
G75*
G02*
X41133250Y-55558750I-254000J0D01*
G01*
X39609250Y-55558750D01*
G75*
G02*
X39355250Y-55304750I0J254000D01*
G01*
G37*
G36*
G01*
X36815250Y-55304750D02*
X36815250Y-53272750D01*
G75*
G02*
X37069250Y-53018750I254000J0D01*
G01*
X38593250Y-53018750D01*
G75*
G02*
X38847250Y-53272750I0J-254000D01*
G01*
X38847250Y-55304750D01*
G75*
G02*
X38593250Y-55558750I-254000J0D01*
G01*
X37069250Y-55558750D01*
G75*
G02*
X36815250Y-55304750I0J254000D01*
G01*
G37*
G36*
G01*
X34275250Y-55304750D02*
X34275250Y-53272750D01*
G75*
G02*
X34529250Y-53018750I254000J0D01*
G01*
X36053250Y-53018750D01*
G75*
G02*
X36307250Y-53272750I0J-254000D01*
G01*
X36307250Y-55304750D01*
G75*
G02*
X36053250Y-55558750I-254000J0D01*
G01*
X34529250Y-55558750D01*
G75*
G02*
X34275250Y-55304750I0J254000D01*
G01*
G37*
G36*
G01*
X31735250Y-55304750D02*
X31735250Y-53272750D01*
G75*
G02*
X31989250Y-53018750I254000J0D01*
G01*
X33513250Y-53018750D01*
G75*
G02*
X33767250Y-53272750I0J-254000D01*
G01*
X33767250Y-55304750D01*
G75*
G02*
X33513250Y-55558750I-254000J0D01*
G01*
X31989250Y-55558750D01*
G75*
G02*
X31735250Y-55304750I0J254000D01*
G01*
G37*
%TD*%
%TO.C,CH4*%
G36*
G01*
X31735250Y-77504750D02*
X31735250Y-75472750D01*
G75*
G02*
X31989250Y-75218750I254000J0D01*
G01*
X33513250Y-75218750D01*
G75*
G02*
X33767250Y-75472750I0J-254000D01*
G01*
X33767250Y-77504750D01*
G75*
G02*
X33513250Y-77758750I-254000J0D01*
G01*
X31989250Y-77758750D01*
G75*
G02*
X31735250Y-77504750I0J254000D01*
G01*
G37*
G36*
G01*
X34275250Y-77504750D02*
X34275250Y-75472750D01*
G75*
G02*
X34529250Y-75218750I254000J0D01*
G01*
X36053250Y-75218750D01*
G75*
G02*
X36307250Y-75472750I0J-254000D01*
G01*
X36307250Y-77504750D01*
G75*
G02*
X36053250Y-77758750I-254000J0D01*
G01*
X34529250Y-77758750D01*
G75*
G02*
X34275250Y-77504750I0J254000D01*
G01*
G37*
G36*
G01*
X36815250Y-77504750D02*
X36815250Y-75472750D01*
G75*
G02*
X37069250Y-75218750I254000J0D01*
G01*
X38593250Y-75218750D01*
G75*
G02*
X38847250Y-75472750I0J-254000D01*
G01*
X38847250Y-77504750D01*
G75*
G02*
X38593250Y-77758750I-254000J0D01*
G01*
X37069250Y-77758750D01*
G75*
G02*
X36815250Y-77504750I0J254000D01*
G01*
G37*
G36*
G01*
X39355250Y-77504750D02*
X39355250Y-75472750D01*
G75*
G02*
X39609250Y-75218750I254000J0D01*
G01*
X41133250Y-75218750D01*
G75*
G02*
X41387250Y-75472750I0J-254000D01*
G01*
X41387250Y-77504750D01*
G75*
G02*
X41133250Y-77758750I-254000J0D01*
G01*
X39609250Y-77758750D01*
G75*
G02*
X39355250Y-77504750I0J254000D01*
G01*
G37*
G36*
G01*
X39355250Y-69884750D02*
X39355250Y-67852750D01*
G75*
G02*
X39609250Y-67598750I254000J0D01*
G01*
X41133250Y-67598750D01*
G75*
G02*
X41387250Y-67852750I0J-254000D01*
G01*
X41387250Y-69884750D01*
G75*
G02*
X41133250Y-70138750I-254000J0D01*
G01*
X39609250Y-70138750D01*
G75*
G02*
X39355250Y-69884750I0J254000D01*
G01*
G37*
G36*
G01*
X36815250Y-69884750D02*
X36815250Y-67852750D01*
G75*
G02*
X37069250Y-67598750I254000J0D01*
G01*
X38593250Y-67598750D01*
G75*
G02*
X38847250Y-67852750I0J-254000D01*
G01*
X38847250Y-69884750D01*
G75*
G02*
X38593250Y-70138750I-254000J0D01*
G01*
X37069250Y-70138750D01*
G75*
G02*
X36815250Y-69884750I0J254000D01*
G01*
G37*
G36*
G01*
X34275250Y-69884750D02*
X34275250Y-67852750D01*
G75*
G02*
X34529250Y-67598750I254000J0D01*
G01*
X36053250Y-67598750D01*
G75*
G02*
X36307250Y-67852750I0J-254000D01*
G01*
X36307250Y-69884750D01*
G75*
G02*
X36053250Y-70138750I-254000J0D01*
G01*
X34529250Y-70138750D01*
G75*
G02*
X34275250Y-69884750I0J254000D01*
G01*
G37*
G36*
G01*
X31735250Y-69884750D02*
X31735250Y-67852750D01*
G75*
G02*
X31989250Y-67598750I254000J0D01*
G01*
X33513250Y-67598750D01*
G75*
G02*
X33767250Y-67852750I0J-254000D01*
G01*
X33767250Y-69884750D01*
G75*
G02*
X33513250Y-70138750I-254000J0D01*
G01*
X31989250Y-70138750D01*
G75*
G02*
X31735250Y-69884750I0J254000D01*
G01*
G37*
%TD*%
%TO.C,CH6*%
G36*
G01*
X31735250Y-91984750D02*
X31735250Y-89952750D01*
G75*
G02*
X31989250Y-89698750I254000J0D01*
G01*
X33513250Y-89698750D01*
G75*
G02*
X33767250Y-89952750I0J-254000D01*
G01*
X33767250Y-91984750D01*
G75*
G02*
X33513250Y-92238750I-254000J0D01*
G01*
X31989250Y-92238750D01*
G75*
G02*
X31735250Y-91984750I0J254000D01*
G01*
G37*
G36*
G01*
X34275250Y-91984750D02*
X34275250Y-89952750D01*
G75*
G02*
X34529250Y-89698750I254000J0D01*
G01*
X36053250Y-89698750D01*
G75*
G02*
X36307250Y-89952750I0J-254000D01*
G01*
X36307250Y-91984750D01*
G75*
G02*
X36053250Y-92238750I-254000J0D01*
G01*
X34529250Y-92238750D01*
G75*
G02*
X34275250Y-91984750I0J254000D01*
G01*
G37*
G36*
G01*
X36815250Y-91984750D02*
X36815250Y-89952750D01*
G75*
G02*
X37069250Y-89698750I254000J0D01*
G01*
X38593250Y-89698750D01*
G75*
G02*
X38847250Y-89952750I0J-254000D01*
G01*
X38847250Y-91984750D01*
G75*
G02*
X38593250Y-92238750I-254000J0D01*
G01*
X37069250Y-92238750D01*
G75*
G02*
X36815250Y-91984750I0J254000D01*
G01*
G37*
G36*
G01*
X39355250Y-91984750D02*
X39355250Y-89952750D01*
G75*
G02*
X39609250Y-89698750I254000J0D01*
G01*
X41133250Y-89698750D01*
G75*
G02*
X41387250Y-89952750I0J-254000D01*
G01*
X41387250Y-91984750D01*
G75*
G02*
X41133250Y-92238750I-254000J0D01*
G01*
X39609250Y-92238750D01*
G75*
G02*
X39355250Y-91984750I0J254000D01*
G01*
G37*
G36*
G01*
X39355250Y-84364750D02*
X39355250Y-82332750D01*
G75*
G02*
X39609250Y-82078750I254000J0D01*
G01*
X41133250Y-82078750D01*
G75*
G02*
X41387250Y-82332750I0J-254000D01*
G01*
X41387250Y-84364750D01*
G75*
G02*
X41133250Y-84618750I-254000J0D01*
G01*
X39609250Y-84618750D01*
G75*
G02*
X39355250Y-84364750I0J254000D01*
G01*
G37*
G36*
G01*
X36815250Y-84364750D02*
X36815250Y-82332750D01*
G75*
G02*
X37069250Y-82078750I254000J0D01*
G01*
X38593250Y-82078750D01*
G75*
G02*
X38847250Y-82332750I0J-254000D01*
G01*
X38847250Y-84364750D01*
G75*
G02*
X38593250Y-84618750I-254000J0D01*
G01*
X37069250Y-84618750D01*
G75*
G02*
X36815250Y-84364750I0J254000D01*
G01*
G37*
G36*
G01*
X34275250Y-84364750D02*
X34275250Y-82332750D01*
G75*
G02*
X34529250Y-82078750I254000J0D01*
G01*
X36053250Y-82078750D01*
G75*
G02*
X36307250Y-82332750I0J-254000D01*
G01*
X36307250Y-84364750D01*
G75*
G02*
X36053250Y-84618750I-254000J0D01*
G01*
X34529250Y-84618750D01*
G75*
G02*
X34275250Y-84364750I0J254000D01*
G01*
G37*
G36*
G01*
X31735250Y-84364750D02*
X31735250Y-82332750D01*
G75*
G02*
X31989250Y-82078750I254000J0D01*
G01*
X33513250Y-82078750D01*
G75*
G02*
X33767250Y-82332750I0J-254000D01*
G01*
X33767250Y-84364750D01*
G75*
G02*
X33513250Y-84618750I-254000J0D01*
G01*
X31989250Y-84618750D01*
G75*
G02*
X31735250Y-84364750I0J254000D01*
G01*
G37*
%TD*%
%TO.C,CH8*%
G36*
G01*
X46975250Y-48544750D02*
X46975250Y-46512750D01*
G75*
G02*
X47229250Y-46258750I254000J0D01*
G01*
X48753250Y-46258750D01*
G75*
G02*
X49007250Y-46512750I0J-254000D01*
G01*
X49007250Y-48544750D01*
G75*
G02*
X48753250Y-48798750I-254000J0D01*
G01*
X47229250Y-48798750D01*
G75*
G02*
X46975250Y-48544750I0J254000D01*
G01*
G37*
G36*
G01*
X49515250Y-48544750D02*
X49515250Y-46512750D01*
G75*
G02*
X49769250Y-46258750I254000J0D01*
G01*
X51293250Y-46258750D01*
G75*
G02*
X51547250Y-46512750I0J-254000D01*
G01*
X51547250Y-48544750D01*
G75*
G02*
X51293250Y-48798750I-254000J0D01*
G01*
X49769250Y-48798750D01*
G75*
G02*
X49515250Y-48544750I0J254000D01*
G01*
G37*
G36*
G01*
X52055250Y-48544750D02*
X52055250Y-46512750D01*
G75*
G02*
X52309250Y-46258750I254000J0D01*
G01*
X53833250Y-46258750D01*
G75*
G02*
X54087250Y-46512750I0J-254000D01*
G01*
X54087250Y-48544750D01*
G75*
G02*
X53833250Y-48798750I-254000J0D01*
G01*
X52309250Y-48798750D01*
G75*
G02*
X52055250Y-48544750I0J254000D01*
G01*
G37*
G36*
G01*
X54595250Y-48544750D02*
X54595250Y-46512750D01*
G75*
G02*
X54849250Y-46258750I254000J0D01*
G01*
X56373250Y-46258750D01*
G75*
G02*
X56627250Y-46512750I0J-254000D01*
G01*
X56627250Y-48544750D01*
G75*
G02*
X56373250Y-48798750I-254000J0D01*
G01*
X54849250Y-48798750D01*
G75*
G02*
X54595250Y-48544750I0J254000D01*
G01*
G37*
G36*
G01*
X54595250Y-40924750D02*
X54595250Y-38892750D01*
G75*
G02*
X54849250Y-38638750I254000J0D01*
G01*
X56373250Y-38638750D01*
G75*
G02*
X56627250Y-38892750I0J-254000D01*
G01*
X56627250Y-40924750D01*
G75*
G02*
X56373250Y-41178750I-254000J0D01*
G01*
X54849250Y-41178750D01*
G75*
G02*
X54595250Y-40924750I0J254000D01*
G01*
G37*
G36*
G01*
X52055250Y-40924750D02*
X52055250Y-38892750D01*
G75*
G02*
X52309250Y-38638750I254000J0D01*
G01*
X53833250Y-38638750D01*
G75*
G02*
X54087250Y-38892750I0J-254000D01*
G01*
X54087250Y-40924750D01*
G75*
G02*
X53833250Y-41178750I-254000J0D01*
G01*
X52309250Y-41178750D01*
G75*
G02*
X52055250Y-40924750I0J254000D01*
G01*
G37*
G36*
G01*
X49515250Y-40924750D02*
X49515250Y-38892750D01*
G75*
G02*
X49769250Y-38638750I254000J0D01*
G01*
X51293250Y-38638750D01*
G75*
G02*
X51547250Y-38892750I0J-254000D01*
G01*
X51547250Y-40924750D01*
G75*
G02*
X51293250Y-41178750I-254000J0D01*
G01*
X49769250Y-41178750D01*
G75*
G02*
X49515250Y-40924750I0J254000D01*
G01*
G37*
G36*
G01*
X46975250Y-40924750D02*
X46975250Y-38892750D01*
G75*
G02*
X47229250Y-38638750I254000J0D01*
G01*
X48753250Y-38638750D01*
G75*
G02*
X49007250Y-38892750I0J-254000D01*
G01*
X49007250Y-40924750D01*
G75*
G02*
X48753250Y-41178750I-254000J0D01*
G01*
X47229250Y-41178750D01*
G75*
G02*
X46975250Y-40924750I0J254000D01*
G01*
G37*
%TD*%
%TO.C,CH10*%
G36*
G01*
X46975250Y-62924750D02*
X46975250Y-60892750D01*
G75*
G02*
X47229250Y-60638750I254000J0D01*
G01*
X48753250Y-60638750D01*
G75*
G02*
X49007250Y-60892750I0J-254000D01*
G01*
X49007250Y-62924750D01*
G75*
G02*
X48753250Y-63178750I-254000J0D01*
G01*
X47229250Y-63178750D01*
G75*
G02*
X46975250Y-62924750I0J254000D01*
G01*
G37*
G36*
G01*
X49515250Y-62924750D02*
X49515250Y-60892750D01*
G75*
G02*
X49769250Y-60638750I254000J0D01*
G01*
X51293250Y-60638750D01*
G75*
G02*
X51547250Y-60892750I0J-254000D01*
G01*
X51547250Y-62924750D01*
G75*
G02*
X51293250Y-63178750I-254000J0D01*
G01*
X49769250Y-63178750D01*
G75*
G02*
X49515250Y-62924750I0J254000D01*
G01*
G37*
G36*
G01*
X52055250Y-62924750D02*
X52055250Y-60892750D01*
G75*
G02*
X52309250Y-60638750I254000J0D01*
G01*
X53833250Y-60638750D01*
G75*
G02*
X54087250Y-60892750I0J-254000D01*
G01*
X54087250Y-62924750D01*
G75*
G02*
X53833250Y-63178750I-254000J0D01*
G01*
X52309250Y-63178750D01*
G75*
G02*
X52055250Y-62924750I0J254000D01*
G01*
G37*
G36*
G01*
X54595250Y-62924750D02*
X54595250Y-60892750D01*
G75*
G02*
X54849250Y-60638750I254000J0D01*
G01*
X56373250Y-60638750D01*
G75*
G02*
X56627250Y-60892750I0J-254000D01*
G01*
X56627250Y-62924750D01*
G75*
G02*
X56373250Y-63178750I-254000J0D01*
G01*
X54849250Y-63178750D01*
G75*
G02*
X54595250Y-62924750I0J254000D01*
G01*
G37*
G36*
G01*
X54595250Y-55304750D02*
X54595250Y-53272750D01*
G75*
G02*
X54849250Y-53018750I254000J0D01*
G01*
X56373250Y-53018750D01*
G75*
G02*
X56627250Y-53272750I0J-254000D01*
G01*
X56627250Y-55304750D01*
G75*
G02*
X56373250Y-55558750I-254000J0D01*
G01*
X54849250Y-55558750D01*
G75*
G02*
X54595250Y-55304750I0J254000D01*
G01*
G37*
G36*
G01*
X52055250Y-55304750D02*
X52055250Y-53272750D01*
G75*
G02*
X52309250Y-53018750I254000J0D01*
G01*
X53833250Y-53018750D01*
G75*
G02*
X54087250Y-53272750I0J-254000D01*
G01*
X54087250Y-55304750D01*
G75*
G02*
X53833250Y-55558750I-254000J0D01*
G01*
X52309250Y-55558750D01*
G75*
G02*
X52055250Y-55304750I0J254000D01*
G01*
G37*
G36*
G01*
X49515250Y-55304750D02*
X49515250Y-53272750D01*
G75*
G02*
X49769250Y-53018750I254000J0D01*
G01*
X51293250Y-53018750D01*
G75*
G02*
X51547250Y-53272750I0J-254000D01*
G01*
X51547250Y-55304750D01*
G75*
G02*
X51293250Y-55558750I-254000J0D01*
G01*
X49769250Y-55558750D01*
G75*
G02*
X49515250Y-55304750I0J254000D01*
G01*
G37*
G36*
G01*
X46975250Y-55304750D02*
X46975250Y-53272750D01*
G75*
G02*
X47229250Y-53018750I254000J0D01*
G01*
X48753250Y-53018750D01*
G75*
G02*
X49007250Y-53272750I0J-254000D01*
G01*
X49007250Y-55304750D01*
G75*
G02*
X48753250Y-55558750I-254000J0D01*
G01*
X47229250Y-55558750D01*
G75*
G02*
X46975250Y-55304750I0J254000D01*
G01*
G37*
%TD*%
%TO.C,CH12*%
G36*
G01*
X46975250Y-77504750D02*
X46975250Y-75472750D01*
G75*
G02*
X47229250Y-75218750I254000J0D01*
G01*
X48753250Y-75218750D01*
G75*
G02*
X49007250Y-75472750I0J-254000D01*
G01*
X49007250Y-77504750D01*
G75*
G02*
X48753250Y-77758750I-254000J0D01*
G01*
X47229250Y-77758750D01*
G75*
G02*
X46975250Y-77504750I0J254000D01*
G01*
G37*
G36*
G01*
X49515250Y-77504750D02*
X49515250Y-75472750D01*
G75*
G02*
X49769250Y-75218750I254000J0D01*
G01*
X51293250Y-75218750D01*
G75*
G02*
X51547250Y-75472750I0J-254000D01*
G01*
X51547250Y-77504750D01*
G75*
G02*
X51293250Y-77758750I-254000J0D01*
G01*
X49769250Y-77758750D01*
G75*
G02*
X49515250Y-77504750I0J254000D01*
G01*
G37*
G36*
G01*
X52055250Y-77504750D02*
X52055250Y-75472750D01*
G75*
G02*
X52309250Y-75218750I254000J0D01*
G01*
X53833250Y-75218750D01*
G75*
G02*
X54087250Y-75472750I0J-254000D01*
G01*
X54087250Y-77504750D01*
G75*
G02*
X53833250Y-77758750I-254000J0D01*
G01*
X52309250Y-77758750D01*
G75*
G02*
X52055250Y-77504750I0J254000D01*
G01*
G37*
G36*
G01*
X54595250Y-77504750D02*
X54595250Y-75472750D01*
G75*
G02*
X54849250Y-75218750I254000J0D01*
G01*
X56373250Y-75218750D01*
G75*
G02*
X56627250Y-75472750I0J-254000D01*
G01*
X56627250Y-77504750D01*
G75*
G02*
X56373250Y-77758750I-254000J0D01*
G01*
X54849250Y-77758750D01*
G75*
G02*
X54595250Y-77504750I0J254000D01*
G01*
G37*
G36*
G01*
X54595250Y-69884750D02*
X54595250Y-67852750D01*
G75*
G02*
X54849250Y-67598750I254000J0D01*
G01*
X56373250Y-67598750D01*
G75*
G02*
X56627250Y-67852750I0J-254000D01*
G01*
X56627250Y-69884750D01*
G75*
G02*
X56373250Y-70138750I-254000J0D01*
G01*
X54849250Y-70138750D01*
G75*
G02*
X54595250Y-69884750I0J254000D01*
G01*
G37*
G36*
G01*
X52055250Y-69884750D02*
X52055250Y-67852750D01*
G75*
G02*
X52309250Y-67598750I254000J0D01*
G01*
X53833250Y-67598750D01*
G75*
G02*
X54087250Y-67852750I0J-254000D01*
G01*
X54087250Y-69884750D01*
G75*
G02*
X53833250Y-70138750I-254000J0D01*
G01*
X52309250Y-70138750D01*
G75*
G02*
X52055250Y-69884750I0J254000D01*
G01*
G37*
G36*
G01*
X49515250Y-69884750D02*
X49515250Y-67852750D01*
G75*
G02*
X49769250Y-67598750I254000J0D01*
G01*
X51293250Y-67598750D01*
G75*
G02*
X51547250Y-67852750I0J-254000D01*
G01*
X51547250Y-69884750D01*
G75*
G02*
X51293250Y-70138750I-254000J0D01*
G01*
X49769250Y-70138750D01*
G75*
G02*
X49515250Y-69884750I0J254000D01*
G01*
G37*
G36*
G01*
X46975250Y-69884750D02*
X46975250Y-67852750D01*
G75*
G02*
X47229250Y-67598750I254000J0D01*
G01*
X48753250Y-67598750D01*
G75*
G02*
X49007250Y-67852750I0J-254000D01*
G01*
X49007250Y-69884750D01*
G75*
G02*
X48753250Y-70138750I-254000J0D01*
G01*
X47229250Y-70138750D01*
G75*
G02*
X46975250Y-69884750I0J254000D01*
G01*
G37*
%TD*%
%TO.C,CH14*%
G36*
G01*
X46975250Y-91984750D02*
X46975250Y-89952750D01*
G75*
G02*
X47229250Y-89698750I254000J0D01*
G01*
X48753250Y-89698750D01*
G75*
G02*
X49007250Y-89952750I0J-254000D01*
G01*
X49007250Y-91984750D01*
G75*
G02*
X48753250Y-92238750I-254000J0D01*
G01*
X47229250Y-92238750D01*
G75*
G02*
X46975250Y-91984750I0J254000D01*
G01*
G37*
G36*
G01*
X49515250Y-91984750D02*
X49515250Y-89952750D01*
G75*
G02*
X49769250Y-89698750I254000J0D01*
G01*
X51293250Y-89698750D01*
G75*
G02*
X51547250Y-89952750I0J-254000D01*
G01*
X51547250Y-91984750D01*
G75*
G02*
X51293250Y-92238750I-254000J0D01*
G01*
X49769250Y-92238750D01*
G75*
G02*
X49515250Y-91984750I0J254000D01*
G01*
G37*
G36*
G01*
X52055250Y-91984750D02*
X52055250Y-89952750D01*
G75*
G02*
X52309250Y-89698750I254000J0D01*
G01*
X53833250Y-89698750D01*
G75*
G02*
X54087250Y-89952750I0J-254000D01*
G01*
X54087250Y-91984750D01*
G75*
G02*
X53833250Y-92238750I-254000J0D01*
G01*
X52309250Y-92238750D01*
G75*
G02*
X52055250Y-91984750I0J254000D01*
G01*
G37*
G36*
G01*
X54595250Y-91984750D02*
X54595250Y-89952750D01*
G75*
G02*
X54849250Y-89698750I254000J0D01*
G01*
X56373250Y-89698750D01*
G75*
G02*
X56627250Y-89952750I0J-254000D01*
G01*
X56627250Y-91984750D01*
G75*
G02*
X56373250Y-92238750I-254000J0D01*
G01*
X54849250Y-92238750D01*
G75*
G02*
X54595250Y-91984750I0J254000D01*
G01*
G37*
G36*
G01*
X54595250Y-84364750D02*
X54595250Y-82332750D01*
G75*
G02*
X54849250Y-82078750I254000J0D01*
G01*
X56373250Y-82078750D01*
G75*
G02*
X56627250Y-82332750I0J-254000D01*
G01*
X56627250Y-84364750D01*
G75*
G02*
X56373250Y-84618750I-254000J0D01*
G01*
X54849250Y-84618750D01*
G75*
G02*
X54595250Y-84364750I0J254000D01*
G01*
G37*
G36*
G01*
X52055250Y-84364750D02*
X52055250Y-82332750D01*
G75*
G02*
X52309250Y-82078750I254000J0D01*
G01*
X53833250Y-82078750D01*
G75*
G02*
X54087250Y-82332750I0J-254000D01*
G01*
X54087250Y-84364750D01*
G75*
G02*
X53833250Y-84618750I-254000J0D01*
G01*
X52309250Y-84618750D01*
G75*
G02*
X52055250Y-84364750I0J254000D01*
G01*
G37*
G36*
G01*
X49515250Y-84364750D02*
X49515250Y-82332750D01*
G75*
G02*
X49769250Y-82078750I254000J0D01*
G01*
X51293250Y-82078750D01*
G75*
G02*
X51547250Y-82332750I0J-254000D01*
G01*
X51547250Y-84364750D01*
G75*
G02*
X51293250Y-84618750I-254000J0D01*
G01*
X49769250Y-84618750D01*
G75*
G02*
X49515250Y-84364750I0J254000D01*
G01*
G37*
G36*
G01*
X46975250Y-84364750D02*
X46975250Y-82332750D01*
G75*
G02*
X47229250Y-82078750I254000J0D01*
G01*
X48753250Y-82078750D01*
G75*
G02*
X49007250Y-82332750I0J-254000D01*
G01*
X49007250Y-84364750D01*
G75*
G02*
X48753250Y-84618750I-254000J0D01*
G01*
X47229250Y-84618750D01*
G75*
G02*
X46975250Y-84364750I0J254000D01*
G01*
G37*
%TD*%
%TO.C,CH16*%
G36*
G01*
X62215250Y-48544750D02*
X62215250Y-46512750D01*
G75*
G02*
X62469250Y-46258750I254000J0D01*
G01*
X63993250Y-46258750D01*
G75*
G02*
X64247250Y-46512750I0J-254000D01*
G01*
X64247250Y-48544750D01*
G75*
G02*
X63993250Y-48798750I-254000J0D01*
G01*
X62469250Y-48798750D01*
G75*
G02*
X62215250Y-48544750I0J254000D01*
G01*
G37*
G36*
G01*
X64755250Y-48544750D02*
X64755250Y-46512750D01*
G75*
G02*
X65009250Y-46258750I254000J0D01*
G01*
X66533250Y-46258750D01*
G75*
G02*
X66787250Y-46512750I0J-254000D01*
G01*
X66787250Y-48544750D01*
G75*
G02*
X66533250Y-48798750I-254000J0D01*
G01*
X65009250Y-48798750D01*
G75*
G02*
X64755250Y-48544750I0J254000D01*
G01*
G37*
G36*
G01*
X67295250Y-48544750D02*
X67295250Y-46512750D01*
G75*
G02*
X67549250Y-46258750I254000J0D01*
G01*
X69073250Y-46258750D01*
G75*
G02*
X69327250Y-46512750I0J-254000D01*
G01*
X69327250Y-48544750D01*
G75*
G02*
X69073250Y-48798750I-254000J0D01*
G01*
X67549250Y-48798750D01*
G75*
G02*
X67295250Y-48544750I0J254000D01*
G01*
G37*
G36*
G01*
X69835250Y-48544750D02*
X69835250Y-46512750D01*
G75*
G02*
X70089250Y-46258750I254000J0D01*
G01*
X71613250Y-46258750D01*
G75*
G02*
X71867250Y-46512750I0J-254000D01*
G01*
X71867250Y-48544750D01*
G75*
G02*
X71613250Y-48798750I-254000J0D01*
G01*
X70089250Y-48798750D01*
G75*
G02*
X69835250Y-48544750I0J254000D01*
G01*
G37*
G36*
G01*
X69835250Y-40924750D02*
X69835250Y-38892750D01*
G75*
G02*
X70089250Y-38638750I254000J0D01*
G01*
X71613250Y-38638750D01*
G75*
G02*
X71867250Y-38892750I0J-254000D01*
G01*
X71867250Y-40924750D01*
G75*
G02*
X71613250Y-41178750I-254000J0D01*
G01*
X70089250Y-41178750D01*
G75*
G02*
X69835250Y-40924750I0J254000D01*
G01*
G37*
G36*
G01*
X67295250Y-40924750D02*
X67295250Y-38892750D01*
G75*
G02*
X67549250Y-38638750I254000J0D01*
G01*
X69073250Y-38638750D01*
G75*
G02*
X69327250Y-38892750I0J-254000D01*
G01*
X69327250Y-40924750D01*
G75*
G02*
X69073250Y-41178750I-254000J0D01*
G01*
X67549250Y-41178750D01*
G75*
G02*
X67295250Y-40924750I0J254000D01*
G01*
G37*
G36*
G01*
X64755250Y-40924750D02*
X64755250Y-38892750D01*
G75*
G02*
X65009250Y-38638750I254000J0D01*
G01*
X66533250Y-38638750D01*
G75*
G02*
X66787250Y-38892750I0J-254000D01*
G01*
X66787250Y-40924750D01*
G75*
G02*
X66533250Y-41178750I-254000J0D01*
G01*
X65009250Y-41178750D01*
G75*
G02*
X64755250Y-40924750I0J254000D01*
G01*
G37*
G36*
G01*
X62215250Y-40924750D02*
X62215250Y-38892750D01*
G75*
G02*
X62469250Y-38638750I254000J0D01*
G01*
X63993250Y-38638750D01*
G75*
G02*
X64247250Y-38892750I0J-254000D01*
G01*
X64247250Y-40924750D01*
G75*
G02*
X63993250Y-41178750I-254000J0D01*
G01*
X62469250Y-41178750D01*
G75*
G02*
X62215250Y-40924750I0J254000D01*
G01*
G37*
%TD*%
%TO.C,CH18*%
G36*
G01*
X62215250Y-62924750D02*
X62215250Y-60892750D01*
G75*
G02*
X62469250Y-60638750I254000J0D01*
G01*
X63993250Y-60638750D01*
G75*
G02*
X64247250Y-60892750I0J-254000D01*
G01*
X64247250Y-62924750D01*
G75*
G02*
X63993250Y-63178750I-254000J0D01*
G01*
X62469250Y-63178750D01*
G75*
G02*
X62215250Y-62924750I0J254000D01*
G01*
G37*
G36*
G01*
X64755250Y-62924750D02*
X64755250Y-60892750D01*
G75*
G02*
X65009250Y-60638750I254000J0D01*
G01*
X66533250Y-60638750D01*
G75*
G02*
X66787250Y-60892750I0J-254000D01*
G01*
X66787250Y-62924750D01*
G75*
G02*
X66533250Y-63178750I-254000J0D01*
G01*
X65009250Y-63178750D01*
G75*
G02*
X64755250Y-62924750I0J254000D01*
G01*
G37*
G36*
G01*
X67295250Y-62924750D02*
X67295250Y-60892750D01*
G75*
G02*
X67549250Y-60638750I254000J0D01*
G01*
X69073250Y-60638750D01*
G75*
G02*
X69327250Y-60892750I0J-254000D01*
G01*
X69327250Y-62924750D01*
G75*
G02*
X69073250Y-63178750I-254000J0D01*
G01*
X67549250Y-63178750D01*
G75*
G02*
X67295250Y-62924750I0J254000D01*
G01*
G37*
G36*
G01*
X69835250Y-62924750D02*
X69835250Y-60892750D01*
G75*
G02*
X70089250Y-60638750I254000J0D01*
G01*
X71613250Y-60638750D01*
G75*
G02*
X71867250Y-60892750I0J-254000D01*
G01*
X71867250Y-62924750D01*
G75*
G02*
X71613250Y-63178750I-254000J0D01*
G01*
X70089250Y-63178750D01*
G75*
G02*
X69835250Y-62924750I0J254000D01*
G01*
G37*
G36*
G01*
X69835250Y-55304750D02*
X69835250Y-53272750D01*
G75*
G02*
X70089250Y-53018750I254000J0D01*
G01*
X71613250Y-53018750D01*
G75*
G02*
X71867250Y-53272750I0J-254000D01*
G01*
X71867250Y-55304750D01*
G75*
G02*
X71613250Y-55558750I-254000J0D01*
G01*
X70089250Y-55558750D01*
G75*
G02*
X69835250Y-55304750I0J254000D01*
G01*
G37*
G36*
G01*
X67295250Y-55304750D02*
X67295250Y-53272750D01*
G75*
G02*
X67549250Y-53018750I254000J0D01*
G01*
X69073250Y-53018750D01*
G75*
G02*
X69327250Y-53272750I0J-254000D01*
G01*
X69327250Y-55304750D01*
G75*
G02*
X69073250Y-55558750I-254000J0D01*
G01*
X67549250Y-55558750D01*
G75*
G02*
X67295250Y-55304750I0J254000D01*
G01*
G37*
G36*
G01*
X64755250Y-55304750D02*
X64755250Y-53272750D01*
G75*
G02*
X65009250Y-53018750I254000J0D01*
G01*
X66533250Y-53018750D01*
G75*
G02*
X66787250Y-53272750I0J-254000D01*
G01*
X66787250Y-55304750D01*
G75*
G02*
X66533250Y-55558750I-254000J0D01*
G01*
X65009250Y-55558750D01*
G75*
G02*
X64755250Y-55304750I0J254000D01*
G01*
G37*
G36*
G01*
X62215250Y-55304750D02*
X62215250Y-53272750D01*
G75*
G02*
X62469250Y-53018750I254000J0D01*
G01*
X63993250Y-53018750D01*
G75*
G02*
X64247250Y-53272750I0J-254000D01*
G01*
X64247250Y-55304750D01*
G75*
G02*
X63993250Y-55558750I-254000J0D01*
G01*
X62469250Y-55558750D01*
G75*
G02*
X62215250Y-55304750I0J254000D01*
G01*
G37*
%TD*%
%TO.C,CH20*%
G36*
G01*
X62215250Y-77504750D02*
X62215250Y-75472750D01*
G75*
G02*
X62469250Y-75218750I254000J0D01*
G01*
X63993250Y-75218750D01*
G75*
G02*
X64247250Y-75472750I0J-254000D01*
G01*
X64247250Y-77504750D01*
G75*
G02*
X63993250Y-77758750I-254000J0D01*
G01*
X62469250Y-77758750D01*
G75*
G02*
X62215250Y-77504750I0J254000D01*
G01*
G37*
G36*
G01*
X64755250Y-77504750D02*
X64755250Y-75472750D01*
G75*
G02*
X65009250Y-75218750I254000J0D01*
G01*
X66533250Y-75218750D01*
G75*
G02*
X66787250Y-75472750I0J-254000D01*
G01*
X66787250Y-77504750D01*
G75*
G02*
X66533250Y-77758750I-254000J0D01*
G01*
X65009250Y-77758750D01*
G75*
G02*
X64755250Y-77504750I0J254000D01*
G01*
G37*
G36*
G01*
X67295250Y-77504750D02*
X67295250Y-75472750D01*
G75*
G02*
X67549250Y-75218750I254000J0D01*
G01*
X69073250Y-75218750D01*
G75*
G02*
X69327250Y-75472750I0J-254000D01*
G01*
X69327250Y-77504750D01*
G75*
G02*
X69073250Y-77758750I-254000J0D01*
G01*
X67549250Y-77758750D01*
G75*
G02*
X67295250Y-77504750I0J254000D01*
G01*
G37*
G36*
G01*
X69835250Y-77504750D02*
X69835250Y-75472750D01*
G75*
G02*
X70089250Y-75218750I254000J0D01*
G01*
X71613250Y-75218750D01*
G75*
G02*
X71867250Y-75472750I0J-254000D01*
G01*
X71867250Y-77504750D01*
G75*
G02*
X71613250Y-77758750I-254000J0D01*
G01*
X70089250Y-77758750D01*
G75*
G02*
X69835250Y-77504750I0J254000D01*
G01*
G37*
G36*
G01*
X69835250Y-69884750D02*
X69835250Y-67852750D01*
G75*
G02*
X70089250Y-67598750I254000J0D01*
G01*
X71613250Y-67598750D01*
G75*
G02*
X71867250Y-67852750I0J-254000D01*
G01*
X71867250Y-69884750D01*
G75*
G02*
X71613250Y-70138750I-254000J0D01*
G01*
X70089250Y-70138750D01*
G75*
G02*
X69835250Y-69884750I0J254000D01*
G01*
G37*
G36*
G01*
X67295250Y-69884750D02*
X67295250Y-67852750D01*
G75*
G02*
X67549250Y-67598750I254000J0D01*
G01*
X69073250Y-67598750D01*
G75*
G02*
X69327250Y-67852750I0J-254000D01*
G01*
X69327250Y-69884750D01*
G75*
G02*
X69073250Y-70138750I-254000J0D01*
G01*
X67549250Y-70138750D01*
G75*
G02*
X67295250Y-69884750I0J254000D01*
G01*
G37*
G36*
G01*
X64755250Y-69884750D02*
X64755250Y-67852750D01*
G75*
G02*
X65009250Y-67598750I254000J0D01*
G01*
X66533250Y-67598750D01*
G75*
G02*
X66787250Y-67852750I0J-254000D01*
G01*
X66787250Y-69884750D01*
G75*
G02*
X66533250Y-70138750I-254000J0D01*
G01*
X65009250Y-70138750D01*
G75*
G02*
X64755250Y-69884750I0J254000D01*
G01*
G37*
G36*
G01*
X62215250Y-69884750D02*
X62215250Y-67852750D01*
G75*
G02*
X62469250Y-67598750I254000J0D01*
G01*
X63993250Y-67598750D01*
G75*
G02*
X64247250Y-67852750I0J-254000D01*
G01*
X64247250Y-69884750D01*
G75*
G02*
X63993250Y-70138750I-254000J0D01*
G01*
X62469250Y-70138750D01*
G75*
G02*
X62215250Y-69884750I0J254000D01*
G01*
G37*
%TD*%
%TO.C,CH22*%
G36*
G01*
X62215250Y-91984750D02*
X62215250Y-89952750D01*
G75*
G02*
X62469250Y-89698750I254000J0D01*
G01*
X63993250Y-89698750D01*
G75*
G02*
X64247250Y-89952750I0J-254000D01*
G01*
X64247250Y-91984750D01*
G75*
G02*
X63993250Y-92238750I-254000J0D01*
G01*
X62469250Y-92238750D01*
G75*
G02*
X62215250Y-91984750I0J254000D01*
G01*
G37*
G36*
G01*
X64755250Y-91984750D02*
X64755250Y-89952750D01*
G75*
G02*
X65009250Y-89698750I254000J0D01*
G01*
X66533250Y-89698750D01*
G75*
G02*
X66787250Y-89952750I0J-254000D01*
G01*
X66787250Y-91984750D01*
G75*
G02*
X66533250Y-92238750I-254000J0D01*
G01*
X65009250Y-92238750D01*
G75*
G02*
X64755250Y-91984750I0J254000D01*
G01*
G37*
G36*
G01*
X67295250Y-91984750D02*
X67295250Y-89952750D01*
G75*
G02*
X67549250Y-89698750I254000J0D01*
G01*
X69073250Y-89698750D01*
G75*
G02*
X69327250Y-89952750I0J-254000D01*
G01*
X69327250Y-91984750D01*
G75*
G02*
X69073250Y-92238750I-254000J0D01*
G01*
X67549250Y-92238750D01*
G75*
G02*
X67295250Y-91984750I0J254000D01*
G01*
G37*
G36*
G01*
X69835250Y-91984750D02*
X69835250Y-89952750D01*
G75*
G02*
X70089250Y-89698750I254000J0D01*
G01*
X71613250Y-89698750D01*
G75*
G02*
X71867250Y-89952750I0J-254000D01*
G01*
X71867250Y-91984750D01*
G75*
G02*
X71613250Y-92238750I-254000J0D01*
G01*
X70089250Y-92238750D01*
G75*
G02*
X69835250Y-91984750I0J254000D01*
G01*
G37*
G36*
G01*
X69835250Y-84364750D02*
X69835250Y-82332750D01*
G75*
G02*
X70089250Y-82078750I254000J0D01*
G01*
X71613250Y-82078750D01*
G75*
G02*
X71867250Y-82332750I0J-254000D01*
G01*
X71867250Y-84364750D01*
G75*
G02*
X71613250Y-84618750I-254000J0D01*
G01*
X70089250Y-84618750D01*
G75*
G02*
X69835250Y-84364750I0J254000D01*
G01*
G37*
G36*
G01*
X67295250Y-84364750D02*
X67295250Y-82332750D01*
G75*
G02*
X67549250Y-82078750I254000J0D01*
G01*
X69073250Y-82078750D01*
G75*
G02*
X69327250Y-82332750I0J-254000D01*
G01*
X69327250Y-84364750D01*
G75*
G02*
X69073250Y-84618750I-254000J0D01*
G01*
X67549250Y-84618750D01*
G75*
G02*
X67295250Y-84364750I0J254000D01*
G01*
G37*
G36*
G01*
X64755250Y-84364750D02*
X64755250Y-82332750D01*
G75*
G02*
X65009250Y-82078750I254000J0D01*
G01*
X66533250Y-82078750D01*
G75*
G02*
X66787250Y-82332750I0J-254000D01*
G01*
X66787250Y-84364750D01*
G75*
G02*
X66533250Y-84618750I-254000J0D01*
G01*
X65009250Y-84618750D01*
G75*
G02*
X64755250Y-84364750I0J254000D01*
G01*
G37*
G36*
G01*
X62215250Y-84364750D02*
X62215250Y-82332750D01*
G75*
G02*
X62469250Y-82078750I254000J0D01*
G01*
X63993250Y-82078750D01*
G75*
G02*
X64247250Y-82332750I0J-254000D01*
G01*
X64247250Y-84364750D01*
G75*
G02*
X63993250Y-84618750I-254000J0D01*
G01*
X62469250Y-84618750D01*
G75*
G02*
X62215250Y-84364750I0J254000D01*
G01*
G37*
%TD*%
%TO.C,CH24*%
G36*
G01*
X77455250Y-48544750D02*
X77455250Y-46512750D01*
G75*
G02*
X77709250Y-46258750I254000J0D01*
G01*
X79233250Y-46258750D01*
G75*
G02*
X79487250Y-46512750I0J-254000D01*
G01*
X79487250Y-48544750D01*
G75*
G02*
X79233250Y-48798750I-254000J0D01*
G01*
X77709250Y-48798750D01*
G75*
G02*
X77455250Y-48544750I0J254000D01*
G01*
G37*
G36*
G01*
X79995250Y-48544750D02*
X79995250Y-46512750D01*
G75*
G02*
X80249250Y-46258750I254000J0D01*
G01*
X81773250Y-46258750D01*
G75*
G02*
X82027250Y-46512750I0J-254000D01*
G01*
X82027250Y-48544750D01*
G75*
G02*
X81773250Y-48798750I-254000J0D01*
G01*
X80249250Y-48798750D01*
G75*
G02*
X79995250Y-48544750I0J254000D01*
G01*
G37*
G36*
G01*
X82535250Y-48544750D02*
X82535250Y-46512750D01*
G75*
G02*
X82789250Y-46258750I254000J0D01*
G01*
X84313250Y-46258750D01*
G75*
G02*
X84567250Y-46512750I0J-254000D01*
G01*
X84567250Y-48544750D01*
G75*
G02*
X84313250Y-48798750I-254000J0D01*
G01*
X82789250Y-48798750D01*
G75*
G02*
X82535250Y-48544750I0J254000D01*
G01*
G37*
G36*
G01*
X85075250Y-48544750D02*
X85075250Y-46512750D01*
G75*
G02*
X85329250Y-46258750I254000J0D01*
G01*
X86853250Y-46258750D01*
G75*
G02*
X87107250Y-46512750I0J-254000D01*
G01*
X87107250Y-48544750D01*
G75*
G02*
X86853250Y-48798750I-254000J0D01*
G01*
X85329250Y-48798750D01*
G75*
G02*
X85075250Y-48544750I0J254000D01*
G01*
G37*
G36*
G01*
X85075250Y-40924750D02*
X85075250Y-38892750D01*
G75*
G02*
X85329250Y-38638750I254000J0D01*
G01*
X86853250Y-38638750D01*
G75*
G02*
X87107250Y-38892750I0J-254000D01*
G01*
X87107250Y-40924750D01*
G75*
G02*
X86853250Y-41178750I-254000J0D01*
G01*
X85329250Y-41178750D01*
G75*
G02*
X85075250Y-40924750I0J254000D01*
G01*
G37*
G36*
G01*
X82535250Y-40924750D02*
X82535250Y-38892750D01*
G75*
G02*
X82789250Y-38638750I254000J0D01*
G01*
X84313250Y-38638750D01*
G75*
G02*
X84567250Y-38892750I0J-254000D01*
G01*
X84567250Y-40924750D01*
G75*
G02*
X84313250Y-41178750I-254000J0D01*
G01*
X82789250Y-41178750D01*
G75*
G02*
X82535250Y-40924750I0J254000D01*
G01*
G37*
G36*
G01*
X79995250Y-40924750D02*
X79995250Y-38892750D01*
G75*
G02*
X80249250Y-38638750I254000J0D01*
G01*
X81773250Y-38638750D01*
G75*
G02*
X82027250Y-38892750I0J-254000D01*
G01*
X82027250Y-40924750D01*
G75*
G02*
X81773250Y-41178750I-254000J0D01*
G01*
X80249250Y-41178750D01*
G75*
G02*
X79995250Y-40924750I0J254000D01*
G01*
G37*
G36*
G01*
X77455250Y-40924750D02*
X77455250Y-38892750D01*
G75*
G02*
X77709250Y-38638750I254000J0D01*
G01*
X79233250Y-38638750D01*
G75*
G02*
X79487250Y-38892750I0J-254000D01*
G01*
X79487250Y-40924750D01*
G75*
G02*
X79233250Y-41178750I-254000J0D01*
G01*
X77709250Y-41178750D01*
G75*
G02*
X77455250Y-40924750I0J254000D01*
G01*
G37*
%TD*%
%TO.C,CH26*%
G36*
G01*
X77455250Y-62924750D02*
X77455250Y-60892750D01*
G75*
G02*
X77709250Y-60638750I254000J0D01*
G01*
X79233250Y-60638750D01*
G75*
G02*
X79487250Y-60892750I0J-254000D01*
G01*
X79487250Y-62924750D01*
G75*
G02*
X79233250Y-63178750I-254000J0D01*
G01*
X77709250Y-63178750D01*
G75*
G02*
X77455250Y-62924750I0J254000D01*
G01*
G37*
G36*
G01*
X79995250Y-62924750D02*
X79995250Y-60892750D01*
G75*
G02*
X80249250Y-60638750I254000J0D01*
G01*
X81773250Y-60638750D01*
G75*
G02*
X82027250Y-60892750I0J-254000D01*
G01*
X82027250Y-62924750D01*
G75*
G02*
X81773250Y-63178750I-254000J0D01*
G01*
X80249250Y-63178750D01*
G75*
G02*
X79995250Y-62924750I0J254000D01*
G01*
G37*
G36*
G01*
X82535250Y-62924750D02*
X82535250Y-60892750D01*
G75*
G02*
X82789250Y-60638750I254000J0D01*
G01*
X84313250Y-60638750D01*
G75*
G02*
X84567250Y-60892750I0J-254000D01*
G01*
X84567250Y-62924750D01*
G75*
G02*
X84313250Y-63178750I-254000J0D01*
G01*
X82789250Y-63178750D01*
G75*
G02*
X82535250Y-62924750I0J254000D01*
G01*
G37*
G36*
G01*
X85075250Y-62924750D02*
X85075250Y-60892750D01*
G75*
G02*
X85329250Y-60638750I254000J0D01*
G01*
X86853250Y-60638750D01*
G75*
G02*
X87107250Y-60892750I0J-254000D01*
G01*
X87107250Y-62924750D01*
G75*
G02*
X86853250Y-63178750I-254000J0D01*
G01*
X85329250Y-63178750D01*
G75*
G02*
X85075250Y-62924750I0J254000D01*
G01*
G37*
G36*
G01*
X85075250Y-55304750D02*
X85075250Y-53272750D01*
G75*
G02*
X85329250Y-53018750I254000J0D01*
G01*
X86853250Y-53018750D01*
G75*
G02*
X87107250Y-53272750I0J-254000D01*
G01*
X87107250Y-55304750D01*
G75*
G02*
X86853250Y-55558750I-254000J0D01*
G01*
X85329250Y-55558750D01*
G75*
G02*
X85075250Y-55304750I0J254000D01*
G01*
G37*
G36*
G01*
X82535250Y-55304750D02*
X82535250Y-53272750D01*
G75*
G02*
X82789250Y-53018750I254000J0D01*
G01*
X84313250Y-53018750D01*
G75*
G02*
X84567250Y-53272750I0J-254000D01*
G01*
X84567250Y-55304750D01*
G75*
G02*
X84313250Y-55558750I-254000J0D01*
G01*
X82789250Y-55558750D01*
G75*
G02*
X82535250Y-55304750I0J254000D01*
G01*
G37*
G36*
G01*
X79995250Y-55304750D02*
X79995250Y-53272750D01*
G75*
G02*
X80249250Y-53018750I254000J0D01*
G01*
X81773250Y-53018750D01*
G75*
G02*
X82027250Y-53272750I0J-254000D01*
G01*
X82027250Y-55304750D01*
G75*
G02*
X81773250Y-55558750I-254000J0D01*
G01*
X80249250Y-55558750D01*
G75*
G02*
X79995250Y-55304750I0J254000D01*
G01*
G37*
G36*
G01*
X77455250Y-55304750D02*
X77455250Y-53272750D01*
G75*
G02*
X77709250Y-53018750I254000J0D01*
G01*
X79233250Y-53018750D01*
G75*
G02*
X79487250Y-53272750I0J-254000D01*
G01*
X79487250Y-55304750D01*
G75*
G02*
X79233250Y-55558750I-254000J0D01*
G01*
X77709250Y-55558750D01*
G75*
G02*
X77455250Y-55304750I0J254000D01*
G01*
G37*
%TD*%
%TO.C,CH28*%
G36*
G01*
X77455250Y-77504750D02*
X77455250Y-75472750D01*
G75*
G02*
X77709250Y-75218750I254000J0D01*
G01*
X79233250Y-75218750D01*
G75*
G02*
X79487250Y-75472750I0J-254000D01*
G01*
X79487250Y-77504750D01*
G75*
G02*
X79233250Y-77758750I-254000J0D01*
G01*
X77709250Y-77758750D01*
G75*
G02*
X77455250Y-77504750I0J254000D01*
G01*
G37*
G36*
G01*
X79995250Y-77504750D02*
X79995250Y-75472750D01*
G75*
G02*
X80249250Y-75218750I254000J0D01*
G01*
X81773250Y-75218750D01*
G75*
G02*
X82027250Y-75472750I0J-254000D01*
G01*
X82027250Y-77504750D01*
G75*
G02*
X81773250Y-77758750I-254000J0D01*
G01*
X80249250Y-77758750D01*
G75*
G02*
X79995250Y-77504750I0J254000D01*
G01*
G37*
G36*
G01*
X82535250Y-77504750D02*
X82535250Y-75472750D01*
G75*
G02*
X82789250Y-75218750I254000J0D01*
G01*
X84313250Y-75218750D01*
G75*
G02*
X84567250Y-75472750I0J-254000D01*
G01*
X84567250Y-77504750D01*
G75*
G02*
X84313250Y-77758750I-254000J0D01*
G01*
X82789250Y-77758750D01*
G75*
G02*
X82535250Y-77504750I0J254000D01*
G01*
G37*
G36*
G01*
X85075250Y-77504750D02*
X85075250Y-75472750D01*
G75*
G02*
X85329250Y-75218750I254000J0D01*
G01*
X86853250Y-75218750D01*
G75*
G02*
X87107250Y-75472750I0J-254000D01*
G01*
X87107250Y-77504750D01*
G75*
G02*
X86853250Y-77758750I-254000J0D01*
G01*
X85329250Y-77758750D01*
G75*
G02*
X85075250Y-77504750I0J254000D01*
G01*
G37*
G36*
G01*
X85075250Y-69884750D02*
X85075250Y-67852750D01*
G75*
G02*
X85329250Y-67598750I254000J0D01*
G01*
X86853250Y-67598750D01*
G75*
G02*
X87107250Y-67852750I0J-254000D01*
G01*
X87107250Y-69884750D01*
G75*
G02*
X86853250Y-70138750I-254000J0D01*
G01*
X85329250Y-70138750D01*
G75*
G02*
X85075250Y-69884750I0J254000D01*
G01*
G37*
G36*
G01*
X82535250Y-69884750D02*
X82535250Y-67852750D01*
G75*
G02*
X82789250Y-67598750I254000J0D01*
G01*
X84313250Y-67598750D01*
G75*
G02*
X84567250Y-67852750I0J-254000D01*
G01*
X84567250Y-69884750D01*
G75*
G02*
X84313250Y-70138750I-254000J0D01*
G01*
X82789250Y-70138750D01*
G75*
G02*
X82535250Y-69884750I0J254000D01*
G01*
G37*
G36*
G01*
X79995250Y-69884750D02*
X79995250Y-67852750D01*
G75*
G02*
X80249250Y-67598750I254000J0D01*
G01*
X81773250Y-67598750D01*
G75*
G02*
X82027250Y-67852750I0J-254000D01*
G01*
X82027250Y-69884750D01*
G75*
G02*
X81773250Y-70138750I-254000J0D01*
G01*
X80249250Y-70138750D01*
G75*
G02*
X79995250Y-69884750I0J254000D01*
G01*
G37*
G36*
G01*
X77455250Y-69884750D02*
X77455250Y-67852750D01*
G75*
G02*
X77709250Y-67598750I254000J0D01*
G01*
X79233250Y-67598750D01*
G75*
G02*
X79487250Y-67852750I0J-254000D01*
G01*
X79487250Y-69884750D01*
G75*
G02*
X79233250Y-70138750I-254000J0D01*
G01*
X77709250Y-70138750D01*
G75*
G02*
X77455250Y-69884750I0J254000D01*
G01*
G37*
%TD*%
%TO.C,CH30*%
G36*
G01*
X77455250Y-91984750D02*
X77455250Y-89952750D01*
G75*
G02*
X77709250Y-89698750I254000J0D01*
G01*
X79233250Y-89698750D01*
G75*
G02*
X79487250Y-89952750I0J-254000D01*
G01*
X79487250Y-91984750D01*
G75*
G02*
X79233250Y-92238750I-254000J0D01*
G01*
X77709250Y-92238750D01*
G75*
G02*
X77455250Y-91984750I0J254000D01*
G01*
G37*
G36*
G01*
X79995250Y-91984750D02*
X79995250Y-89952750D01*
G75*
G02*
X80249250Y-89698750I254000J0D01*
G01*
X81773250Y-89698750D01*
G75*
G02*
X82027250Y-89952750I0J-254000D01*
G01*
X82027250Y-91984750D01*
G75*
G02*
X81773250Y-92238750I-254000J0D01*
G01*
X80249250Y-92238750D01*
G75*
G02*
X79995250Y-91984750I0J254000D01*
G01*
G37*
G36*
G01*
X82535250Y-91984750D02*
X82535250Y-89952750D01*
G75*
G02*
X82789250Y-89698750I254000J0D01*
G01*
X84313250Y-89698750D01*
G75*
G02*
X84567250Y-89952750I0J-254000D01*
G01*
X84567250Y-91984750D01*
G75*
G02*
X84313250Y-92238750I-254000J0D01*
G01*
X82789250Y-92238750D01*
G75*
G02*
X82535250Y-91984750I0J254000D01*
G01*
G37*
G36*
G01*
X85075250Y-91984750D02*
X85075250Y-89952750D01*
G75*
G02*
X85329250Y-89698750I254000J0D01*
G01*
X86853250Y-89698750D01*
G75*
G02*
X87107250Y-89952750I0J-254000D01*
G01*
X87107250Y-91984750D01*
G75*
G02*
X86853250Y-92238750I-254000J0D01*
G01*
X85329250Y-92238750D01*
G75*
G02*
X85075250Y-91984750I0J254000D01*
G01*
G37*
G36*
G01*
X85075250Y-84364750D02*
X85075250Y-82332750D01*
G75*
G02*
X85329250Y-82078750I254000J0D01*
G01*
X86853250Y-82078750D01*
G75*
G02*
X87107250Y-82332750I0J-254000D01*
G01*
X87107250Y-84364750D01*
G75*
G02*
X86853250Y-84618750I-254000J0D01*
G01*
X85329250Y-84618750D01*
G75*
G02*
X85075250Y-84364750I0J254000D01*
G01*
G37*
G36*
G01*
X82535250Y-84364750D02*
X82535250Y-82332750D01*
G75*
G02*
X82789250Y-82078750I254000J0D01*
G01*
X84313250Y-82078750D01*
G75*
G02*
X84567250Y-82332750I0J-254000D01*
G01*
X84567250Y-84364750D01*
G75*
G02*
X84313250Y-84618750I-254000J0D01*
G01*
X82789250Y-84618750D01*
G75*
G02*
X82535250Y-84364750I0J254000D01*
G01*
G37*
G36*
G01*
X79995250Y-84364750D02*
X79995250Y-82332750D01*
G75*
G02*
X80249250Y-82078750I254000J0D01*
G01*
X81773250Y-82078750D01*
G75*
G02*
X82027250Y-82332750I0J-254000D01*
G01*
X82027250Y-84364750D01*
G75*
G02*
X81773250Y-84618750I-254000J0D01*
G01*
X80249250Y-84618750D01*
G75*
G02*
X79995250Y-84364750I0J254000D01*
G01*
G37*
G36*
G01*
X77455250Y-84364750D02*
X77455250Y-82332750D01*
G75*
G02*
X77709250Y-82078750I254000J0D01*
G01*
X79233250Y-82078750D01*
G75*
G02*
X79487250Y-82332750I0J-254000D01*
G01*
X79487250Y-84364750D01*
G75*
G02*
X79233250Y-84618750I-254000J0D01*
G01*
X77709250Y-84618750D01*
G75*
G02*
X77455250Y-84364750I0J254000D01*
G01*
G37*
%TD*%
%TO.C,CH32*%
G36*
G01*
X92695250Y-48544750D02*
X92695250Y-46512750D01*
G75*
G02*
X92949250Y-46258750I254000J0D01*
G01*
X94473250Y-46258750D01*
G75*
G02*
X94727250Y-46512750I0J-254000D01*
G01*
X94727250Y-48544750D01*
G75*
G02*
X94473250Y-48798750I-254000J0D01*
G01*
X92949250Y-48798750D01*
G75*
G02*
X92695250Y-48544750I0J254000D01*
G01*
G37*
G36*
G01*
X95235250Y-48544750D02*
X95235250Y-46512750D01*
G75*
G02*
X95489250Y-46258750I254000J0D01*
G01*
X97013250Y-46258750D01*
G75*
G02*
X97267250Y-46512750I0J-254000D01*
G01*
X97267250Y-48544750D01*
G75*
G02*
X97013250Y-48798750I-254000J0D01*
G01*
X95489250Y-48798750D01*
G75*
G02*
X95235250Y-48544750I0J254000D01*
G01*
G37*
G36*
G01*
X97775250Y-48544750D02*
X97775250Y-46512750D01*
G75*
G02*
X98029250Y-46258750I254000J0D01*
G01*
X99553250Y-46258750D01*
G75*
G02*
X99807250Y-46512750I0J-254000D01*
G01*
X99807250Y-48544750D01*
G75*
G02*
X99553250Y-48798750I-254000J0D01*
G01*
X98029250Y-48798750D01*
G75*
G02*
X97775250Y-48544750I0J254000D01*
G01*
G37*
G36*
G01*
X100315250Y-48544750D02*
X100315250Y-46512750D01*
G75*
G02*
X100569250Y-46258750I254000J0D01*
G01*
X102093250Y-46258750D01*
G75*
G02*
X102347250Y-46512750I0J-254000D01*
G01*
X102347250Y-48544750D01*
G75*
G02*
X102093250Y-48798750I-254000J0D01*
G01*
X100569250Y-48798750D01*
G75*
G02*
X100315250Y-48544750I0J254000D01*
G01*
G37*
G36*
G01*
X100315250Y-40924750D02*
X100315250Y-38892750D01*
G75*
G02*
X100569250Y-38638750I254000J0D01*
G01*
X102093250Y-38638750D01*
G75*
G02*
X102347250Y-38892750I0J-254000D01*
G01*
X102347250Y-40924750D01*
G75*
G02*
X102093250Y-41178750I-254000J0D01*
G01*
X100569250Y-41178750D01*
G75*
G02*
X100315250Y-40924750I0J254000D01*
G01*
G37*
G36*
G01*
X97775250Y-40924750D02*
X97775250Y-38892750D01*
G75*
G02*
X98029250Y-38638750I254000J0D01*
G01*
X99553250Y-38638750D01*
G75*
G02*
X99807250Y-38892750I0J-254000D01*
G01*
X99807250Y-40924750D01*
G75*
G02*
X99553250Y-41178750I-254000J0D01*
G01*
X98029250Y-41178750D01*
G75*
G02*
X97775250Y-40924750I0J254000D01*
G01*
G37*
G36*
G01*
X95235250Y-40924750D02*
X95235250Y-38892750D01*
G75*
G02*
X95489250Y-38638750I254000J0D01*
G01*
X97013250Y-38638750D01*
G75*
G02*
X97267250Y-38892750I0J-254000D01*
G01*
X97267250Y-40924750D01*
G75*
G02*
X97013250Y-41178750I-254000J0D01*
G01*
X95489250Y-41178750D01*
G75*
G02*
X95235250Y-40924750I0J254000D01*
G01*
G37*
G36*
G01*
X92695250Y-40924750D02*
X92695250Y-38892750D01*
G75*
G02*
X92949250Y-38638750I254000J0D01*
G01*
X94473250Y-38638750D01*
G75*
G02*
X94727250Y-38892750I0J-254000D01*
G01*
X94727250Y-40924750D01*
G75*
G02*
X94473250Y-41178750I-254000J0D01*
G01*
X92949250Y-41178750D01*
G75*
G02*
X92695250Y-40924750I0J254000D01*
G01*
G37*
%TD*%
%TO.C,CH34*%
G36*
G01*
X92695250Y-62924750D02*
X92695250Y-60892750D01*
G75*
G02*
X92949250Y-60638750I254000J0D01*
G01*
X94473250Y-60638750D01*
G75*
G02*
X94727250Y-60892750I0J-254000D01*
G01*
X94727250Y-62924750D01*
G75*
G02*
X94473250Y-63178750I-254000J0D01*
G01*
X92949250Y-63178750D01*
G75*
G02*
X92695250Y-62924750I0J254000D01*
G01*
G37*
G36*
G01*
X95235250Y-62924750D02*
X95235250Y-60892750D01*
G75*
G02*
X95489250Y-60638750I254000J0D01*
G01*
X97013250Y-60638750D01*
G75*
G02*
X97267250Y-60892750I0J-254000D01*
G01*
X97267250Y-62924750D01*
G75*
G02*
X97013250Y-63178750I-254000J0D01*
G01*
X95489250Y-63178750D01*
G75*
G02*
X95235250Y-62924750I0J254000D01*
G01*
G37*
G36*
G01*
X97775250Y-62924750D02*
X97775250Y-60892750D01*
G75*
G02*
X98029250Y-60638750I254000J0D01*
G01*
X99553250Y-60638750D01*
G75*
G02*
X99807250Y-60892750I0J-254000D01*
G01*
X99807250Y-62924750D01*
G75*
G02*
X99553250Y-63178750I-254000J0D01*
G01*
X98029250Y-63178750D01*
G75*
G02*
X97775250Y-62924750I0J254000D01*
G01*
G37*
G36*
G01*
X100315250Y-62924750D02*
X100315250Y-60892750D01*
G75*
G02*
X100569250Y-60638750I254000J0D01*
G01*
X102093250Y-60638750D01*
G75*
G02*
X102347250Y-60892750I0J-254000D01*
G01*
X102347250Y-62924750D01*
G75*
G02*
X102093250Y-63178750I-254000J0D01*
G01*
X100569250Y-63178750D01*
G75*
G02*
X100315250Y-62924750I0J254000D01*
G01*
G37*
G36*
G01*
X100315250Y-55304750D02*
X100315250Y-53272750D01*
G75*
G02*
X100569250Y-53018750I254000J0D01*
G01*
X102093250Y-53018750D01*
G75*
G02*
X102347250Y-53272750I0J-254000D01*
G01*
X102347250Y-55304750D01*
G75*
G02*
X102093250Y-55558750I-254000J0D01*
G01*
X100569250Y-55558750D01*
G75*
G02*
X100315250Y-55304750I0J254000D01*
G01*
G37*
G36*
G01*
X97775250Y-55304750D02*
X97775250Y-53272750D01*
G75*
G02*
X98029250Y-53018750I254000J0D01*
G01*
X99553250Y-53018750D01*
G75*
G02*
X99807250Y-53272750I0J-254000D01*
G01*
X99807250Y-55304750D01*
G75*
G02*
X99553250Y-55558750I-254000J0D01*
G01*
X98029250Y-55558750D01*
G75*
G02*
X97775250Y-55304750I0J254000D01*
G01*
G37*
G36*
G01*
X95235250Y-55304750D02*
X95235250Y-53272750D01*
G75*
G02*
X95489250Y-53018750I254000J0D01*
G01*
X97013250Y-53018750D01*
G75*
G02*
X97267250Y-53272750I0J-254000D01*
G01*
X97267250Y-55304750D01*
G75*
G02*
X97013250Y-55558750I-254000J0D01*
G01*
X95489250Y-55558750D01*
G75*
G02*
X95235250Y-55304750I0J254000D01*
G01*
G37*
G36*
G01*
X92695250Y-55304750D02*
X92695250Y-53272750D01*
G75*
G02*
X92949250Y-53018750I254000J0D01*
G01*
X94473250Y-53018750D01*
G75*
G02*
X94727250Y-53272750I0J-254000D01*
G01*
X94727250Y-55304750D01*
G75*
G02*
X94473250Y-55558750I-254000J0D01*
G01*
X92949250Y-55558750D01*
G75*
G02*
X92695250Y-55304750I0J254000D01*
G01*
G37*
%TD*%
%TO.C,CH36*%
G36*
G01*
X92695250Y-77504750D02*
X92695250Y-75472750D01*
G75*
G02*
X92949250Y-75218750I254000J0D01*
G01*
X94473250Y-75218750D01*
G75*
G02*
X94727250Y-75472750I0J-254000D01*
G01*
X94727250Y-77504750D01*
G75*
G02*
X94473250Y-77758750I-254000J0D01*
G01*
X92949250Y-77758750D01*
G75*
G02*
X92695250Y-77504750I0J254000D01*
G01*
G37*
G36*
G01*
X95235250Y-77504750D02*
X95235250Y-75472750D01*
G75*
G02*
X95489250Y-75218750I254000J0D01*
G01*
X97013250Y-75218750D01*
G75*
G02*
X97267250Y-75472750I0J-254000D01*
G01*
X97267250Y-77504750D01*
G75*
G02*
X97013250Y-77758750I-254000J0D01*
G01*
X95489250Y-77758750D01*
G75*
G02*
X95235250Y-77504750I0J254000D01*
G01*
G37*
G36*
G01*
X97775250Y-77504750D02*
X97775250Y-75472750D01*
G75*
G02*
X98029250Y-75218750I254000J0D01*
G01*
X99553250Y-75218750D01*
G75*
G02*
X99807250Y-75472750I0J-254000D01*
G01*
X99807250Y-77504750D01*
G75*
G02*
X99553250Y-77758750I-254000J0D01*
G01*
X98029250Y-77758750D01*
G75*
G02*
X97775250Y-77504750I0J254000D01*
G01*
G37*
G36*
G01*
X100315250Y-77504750D02*
X100315250Y-75472750D01*
G75*
G02*
X100569250Y-75218750I254000J0D01*
G01*
X102093250Y-75218750D01*
G75*
G02*
X102347250Y-75472750I0J-254000D01*
G01*
X102347250Y-77504750D01*
G75*
G02*
X102093250Y-77758750I-254000J0D01*
G01*
X100569250Y-77758750D01*
G75*
G02*
X100315250Y-77504750I0J254000D01*
G01*
G37*
G36*
G01*
X100315250Y-69884750D02*
X100315250Y-67852750D01*
G75*
G02*
X100569250Y-67598750I254000J0D01*
G01*
X102093250Y-67598750D01*
G75*
G02*
X102347250Y-67852750I0J-254000D01*
G01*
X102347250Y-69884750D01*
G75*
G02*
X102093250Y-70138750I-254000J0D01*
G01*
X100569250Y-70138750D01*
G75*
G02*
X100315250Y-69884750I0J254000D01*
G01*
G37*
G36*
G01*
X97775250Y-69884750D02*
X97775250Y-67852750D01*
G75*
G02*
X98029250Y-67598750I254000J0D01*
G01*
X99553250Y-67598750D01*
G75*
G02*
X99807250Y-67852750I0J-254000D01*
G01*
X99807250Y-69884750D01*
G75*
G02*
X99553250Y-70138750I-254000J0D01*
G01*
X98029250Y-70138750D01*
G75*
G02*
X97775250Y-69884750I0J254000D01*
G01*
G37*
G36*
G01*
X95235250Y-69884750D02*
X95235250Y-67852750D01*
G75*
G02*
X95489250Y-67598750I254000J0D01*
G01*
X97013250Y-67598750D01*
G75*
G02*
X97267250Y-67852750I0J-254000D01*
G01*
X97267250Y-69884750D01*
G75*
G02*
X97013250Y-70138750I-254000J0D01*
G01*
X95489250Y-70138750D01*
G75*
G02*
X95235250Y-69884750I0J254000D01*
G01*
G37*
G36*
G01*
X92695250Y-69884750D02*
X92695250Y-67852750D01*
G75*
G02*
X92949250Y-67598750I254000J0D01*
G01*
X94473250Y-67598750D01*
G75*
G02*
X94727250Y-67852750I0J-254000D01*
G01*
X94727250Y-69884750D01*
G75*
G02*
X94473250Y-70138750I-254000J0D01*
G01*
X92949250Y-70138750D01*
G75*
G02*
X92695250Y-69884750I0J254000D01*
G01*
G37*
%TD*%
%TO.C,CH38*%
G36*
G01*
X92695250Y-91984750D02*
X92695250Y-89952750D01*
G75*
G02*
X92949250Y-89698750I254000J0D01*
G01*
X94473250Y-89698750D01*
G75*
G02*
X94727250Y-89952750I0J-254000D01*
G01*
X94727250Y-91984750D01*
G75*
G02*
X94473250Y-92238750I-254000J0D01*
G01*
X92949250Y-92238750D01*
G75*
G02*
X92695250Y-91984750I0J254000D01*
G01*
G37*
G36*
G01*
X95235250Y-91984750D02*
X95235250Y-89952750D01*
G75*
G02*
X95489250Y-89698750I254000J0D01*
G01*
X97013250Y-89698750D01*
G75*
G02*
X97267250Y-89952750I0J-254000D01*
G01*
X97267250Y-91984750D01*
G75*
G02*
X97013250Y-92238750I-254000J0D01*
G01*
X95489250Y-92238750D01*
G75*
G02*
X95235250Y-91984750I0J254000D01*
G01*
G37*
G36*
G01*
X97775250Y-91984750D02*
X97775250Y-89952750D01*
G75*
G02*
X98029250Y-89698750I254000J0D01*
G01*
X99553250Y-89698750D01*
G75*
G02*
X99807250Y-89952750I0J-254000D01*
G01*
X99807250Y-91984750D01*
G75*
G02*
X99553250Y-92238750I-254000J0D01*
G01*
X98029250Y-92238750D01*
G75*
G02*
X97775250Y-91984750I0J254000D01*
G01*
G37*
G36*
G01*
X100315250Y-91984750D02*
X100315250Y-89952750D01*
G75*
G02*
X100569250Y-89698750I254000J0D01*
G01*
X102093250Y-89698750D01*
G75*
G02*
X102347250Y-89952750I0J-254000D01*
G01*
X102347250Y-91984750D01*
G75*
G02*
X102093250Y-92238750I-254000J0D01*
G01*
X100569250Y-92238750D01*
G75*
G02*
X100315250Y-91984750I0J254000D01*
G01*
G37*
G36*
G01*
X100315250Y-84364750D02*
X100315250Y-82332750D01*
G75*
G02*
X100569250Y-82078750I254000J0D01*
G01*
X102093250Y-82078750D01*
G75*
G02*
X102347250Y-82332750I0J-254000D01*
G01*
X102347250Y-84364750D01*
G75*
G02*
X102093250Y-84618750I-254000J0D01*
G01*
X100569250Y-84618750D01*
G75*
G02*
X100315250Y-84364750I0J254000D01*
G01*
G37*
G36*
G01*
X97775250Y-84364750D02*
X97775250Y-82332750D01*
G75*
G02*
X98029250Y-82078750I254000J0D01*
G01*
X99553250Y-82078750D01*
G75*
G02*
X99807250Y-82332750I0J-254000D01*
G01*
X99807250Y-84364750D01*
G75*
G02*
X99553250Y-84618750I-254000J0D01*
G01*
X98029250Y-84618750D01*
G75*
G02*
X97775250Y-84364750I0J254000D01*
G01*
G37*
G36*
G01*
X95235250Y-84364750D02*
X95235250Y-82332750D01*
G75*
G02*
X95489250Y-82078750I254000J0D01*
G01*
X97013250Y-82078750D01*
G75*
G02*
X97267250Y-82332750I0J-254000D01*
G01*
X97267250Y-84364750D01*
G75*
G02*
X97013250Y-84618750I-254000J0D01*
G01*
X95489250Y-84618750D01*
G75*
G02*
X95235250Y-84364750I0J254000D01*
G01*
G37*
G36*
G01*
X92695250Y-84364750D02*
X92695250Y-82332750D01*
G75*
G02*
X92949250Y-82078750I254000J0D01*
G01*
X94473250Y-82078750D01*
G75*
G02*
X94727250Y-82332750I0J-254000D01*
G01*
X94727250Y-84364750D01*
G75*
G02*
X94473250Y-84618750I-254000J0D01*
G01*
X92949250Y-84618750D01*
G75*
G02*
X92695250Y-84364750I0J254000D01*
G01*
G37*
%TD*%
%TO.C,P1*%
G36*
G01*
X84836400Y-101730000D02*
X86563600Y-101730000D01*
G75*
G02*
X86817600Y-101984000I0J-254000D01*
G01*
X86817600Y-104016000D01*
G75*
G02*
X86563600Y-104270000I-254000J0D01*
G01*
X84836400Y-104270000D01*
G75*
G02*
X84582400Y-104016000I0J254000D01*
G01*
X84582400Y-101984000D01*
G75*
G02*
X84836400Y-101730000I254000J0D01*
G01*
G37*
D10*
X83160000Y-103000000D03*
X80620000Y-103000000D03*
X78080000Y-103000000D03*
X75540000Y-103000000D03*
X73000000Y-103000000D03*
%TD*%
%TO.C,P2*%
G36*
G01*
X36963600Y-109117600D02*
X35236400Y-109117600D01*
G75*
G02*
X34982400Y-108863600I0J254000D01*
G01*
X34982400Y-107136400D01*
G75*
G02*
X35236400Y-106882400I254000J0D01*
G01*
X36963600Y-106882400D01*
G75*
G02*
X37217600Y-107136400I0J-254000D01*
G01*
X37217600Y-108863600D01*
G75*
G02*
X36963600Y-109117600I-254000J0D01*
G01*
G37*
D11*
X36100000Y-105460000D03*
X38640000Y-108000000D03*
X38640000Y-105460000D03*
X41180000Y-108000000D03*
X41180000Y-105460000D03*
%TD*%
%TO.C,C3*%
G36*
G01*
X69025000Y-109354000D02*
X67775000Y-109354000D01*
G75*
G02*
X67521000Y-109100000I0J254000D01*
G01*
X67521000Y-108100000D01*
G75*
G02*
X67775000Y-107846000I254000J0D01*
G01*
X69025000Y-107846000D01*
G75*
G02*
X69279000Y-108100000I0J-254000D01*
G01*
X69279000Y-109100000D01*
G75*
G02*
X69025000Y-109354000I-254000J0D01*
G01*
G37*
G36*
G01*
X69025000Y-107354000D02*
X67775000Y-107354000D01*
G75*
G02*
X67521000Y-107100000I0J254000D01*
G01*
X67521000Y-106100000D01*
G75*
G02*
X67775000Y-105846000I254000J0D01*
G01*
X69025000Y-105846000D01*
G75*
G02*
X69279000Y-106100000I0J-254000D01*
G01*
X69279000Y-107100000D01*
G75*
G02*
X69025000Y-107354000I-254000J0D01*
G01*
G37*
%TD*%
%TO.C,C6*%
G36*
G01*
X89775000Y-103846000D02*
X91025000Y-103846000D01*
G75*
G02*
X91279000Y-104100000I0J-254000D01*
G01*
X91279000Y-105100000D01*
G75*
G02*
X91025000Y-105354000I-254000J0D01*
G01*
X89775000Y-105354000D01*
G75*
G02*
X89521000Y-105100000I0J254000D01*
G01*
X89521000Y-104100000D01*
G75*
G02*
X89775000Y-103846000I254000J0D01*
G01*
G37*
G36*
G01*
X89775000Y-105846000D02*
X91025000Y-105846000D01*
G75*
G02*
X91279000Y-106100000I0J-254000D01*
G01*
X91279000Y-107100000D01*
G75*
G02*
X91025000Y-107354000I-254000J0D01*
G01*
X89775000Y-107354000D01*
G75*
G02*
X89521000Y-107100000I0J254000D01*
G01*
X89521000Y-106100000D01*
G75*
G02*
X89775000Y-105846000I254000J0D01*
G01*
G37*
%TD*%
%TO.C,C7*%
G36*
G01*
X87875000Y-103846000D02*
X89125000Y-103846000D01*
G75*
G02*
X89379000Y-104100000I0J-254000D01*
G01*
X89379000Y-105100000D01*
G75*
G02*
X89125000Y-105354000I-254000J0D01*
G01*
X87875000Y-105354000D01*
G75*
G02*
X87621000Y-105100000I0J254000D01*
G01*
X87621000Y-104100000D01*
G75*
G02*
X87875000Y-103846000I254000J0D01*
G01*
G37*
G36*
G01*
X87875000Y-105846000D02*
X89125000Y-105846000D01*
G75*
G02*
X89379000Y-106100000I0J-254000D01*
G01*
X89379000Y-107100000D01*
G75*
G02*
X89125000Y-107354000I-254000J0D01*
G01*
X87875000Y-107354000D01*
G75*
G02*
X87621000Y-107100000I0J254000D01*
G01*
X87621000Y-106100000D01*
G75*
G02*
X87875000Y-105846000I254000J0D01*
G01*
G37*
%TD*%
%TO.C,DS1*%
G36*
G01*
X89099440Y-112102460D02*
X87900560Y-112102460D01*
G75*
G02*
X87646560Y-111848460I0J254000D01*
G01*
X87646560Y-110649580D01*
G75*
G02*
X87900560Y-110395580I254000J0D01*
G01*
X89099440Y-110395580D01*
G75*
G02*
X89353440Y-110649580I0J-254000D01*
G01*
X89353440Y-111848460D01*
G75*
G02*
X89099440Y-112102460I-254000J0D01*
G01*
G37*
G36*
G01*
X89099440Y-110004420D02*
X87900560Y-110004420D01*
G75*
G02*
X87646560Y-109750420I0J254000D01*
G01*
X87646560Y-108551540D01*
G75*
G02*
X87900560Y-108297540I254000J0D01*
G01*
X89099440Y-108297540D01*
G75*
G02*
X89353440Y-108551540I0J-254000D01*
G01*
X89353440Y-109750420D01*
G75*
G02*
X89099440Y-110004420I-254000J0D01*
G01*
G37*
%TD*%
%TO.C,U7*%
G36*
G01*
X53125000Y-102896000D02*
X53675000Y-102896000D01*
G75*
G02*
X53929000Y-103150000I0J-254000D01*
G01*
X53929000Y-104750000D01*
G75*
G02*
X53675000Y-105004000I-254000J0D01*
G01*
X53125000Y-105004000D01*
G75*
G02*
X52871000Y-104750000I0J254000D01*
G01*
X52871000Y-103150000D01*
G75*
G02*
X53125000Y-102896000I254000J0D01*
G01*
G37*
G36*
G01*
X52325000Y-102896000D02*
X52875000Y-102896000D01*
G75*
G02*
X53129000Y-103150000I0J-254000D01*
G01*
X53129000Y-104750000D01*
G75*
G02*
X52875000Y-105004000I-254000J0D01*
G01*
X52325000Y-105004000D01*
G75*
G02*
X52071000Y-104750000I0J254000D01*
G01*
X52071000Y-103150000D01*
G75*
G02*
X52325000Y-102896000I254000J0D01*
G01*
G37*
G36*
G01*
X51525000Y-102896000D02*
X52075000Y-102896000D01*
G75*
G02*
X52329000Y-103150000I0J-254000D01*
G01*
X52329000Y-104750000D01*
G75*
G02*
X52075000Y-105004000I-254000J0D01*
G01*
X51525000Y-105004000D01*
G75*
G02*
X51271000Y-104750000I0J254000D01*
G01*
X51271000Y-103150000D01*
G75*
G02*
X51525000Y-102896000I254000J0D01*
G01*
G37*
G36*
G01*
X50725000Y-102896000D02*
X51275000Y-102896000D01*
G75*
G02*
X51529000Y-103150000I0J-254000D01*
G01*
X51529000Y-104750000D01*
G75*
G02*
X51275000Y-105004000I-254000J0D01*
G01*
X50725000Y-105004000D01*
G75*
G02*
X50471000Y-104750000I0J254000D01*
G01*
X50471000Y-103150000D01*
G75*
G02*
X50725000Y-102896000I254000J0D01*
G01*
G37*
G36*
G01*
X49925000Y-102896000D02*
X50475000Y-102896000D01*
G75*
G02*
X50729000Y-103150000I0J-254000D01*
G01*
X50729000Y-104750000D01*
G75*
G02*
X50475000Y-105004000I-254000J0D01*
G01*
X49925000Y-105004000D01*
G75*
G02*
X49671000Y-104750000I0J254000D01*
G01*
X49671000Y-103150000D01*
G75*
G02*
X49925000Y-102896000I254000J0D01*
G01*
G37*
G36*
G01*
X49125000Y-102896000D02*
X49675000Y-102896000D01*
G75*
G02*
X49929000Y-103150000I0J-254000D01*
G01*
X49929000Y-104750000D01*
G75*
G02*
X49675000Y-105004000I-254000J0D01*
G01*
X49125000Y-105004000D01*
G75*
G02*
X48871000Y-104750000I0J254000D01*
G01*
X48871000Y-103150000D01*
G75*
G02*
X49125000Y-102896000I254000J0D01*
G01*
G37*
G36*
G01*
X48325000Y-102896000D02*
X48875000Y-102896000D01*
G75*
G02*
X49129000Y-103150000I0J-254000D01*
G01*
X49129000Y-104750000D01*
G75*
G02*
X48875000Y-105004000I-254000J0D01*
G01*
X48325000Y-105004000D01*
G75*
G02*
X48071000Y-104750000I0J254000D01*
G01*
X48071000Y-103150000D01*
G75*
G02*
X48325000Y-102896000I254000J0D01*
G01*
G37*
G36*
G01*
X47525000Y-102896000D02*
X48075000Y-102896000D01*
G75*
G02*
X48329000Y-103150000I0J-254000D01*
G01*
X48329000Y-104750000D01*
G75*
G02*
X48075000Y-105004000I-254000J0D01*
G01*
X47525000Y-105004000D01*
G75*
G02*
X47271000Y-104750000I0J254000D01*
G01*
X47271000Y-103150000D01*
G75*
G02*
X47525000Y-102896000I254000J0D01*
G01*
G37*
G36*
G01*
X45296000Y-105675000D02*
X45296000Y-105125000D01*
G75*
G02*
X45550000Y-104871000I254000J0D01*
G01*
X47150000Y-104871000D01*
G75*
G02*
X47404000Y-105125000I0J-254000D01*
G01*
X47404000Y-105675000D01*
G75*
G02*
X47150000Y-105929000I-254000J0D01*
G01*
X45550000Y-105929000D01*
G75*
G02*
X45296000Y-105675000I0J254000D01*
G01*
G37*
G36*
G01*
X45296000Y-106475000D02*
X45296000Y-105925000D01*
G75*
G02*
X45550000Y-105671000I254000J0D01*
G01*
X47150000Y-105671000D01*
G75*
G02*
X47404000Y-105925000I0J-254000D01*
G01*
X47404000Y-106475000D01*
G75*
G02*
X47150000Y-106729000I-254000J0D01*
G01*
X45550000Y-106729000D01*
G75*
G02*
X45296000Y-106475000I0J254000D01*
G01*
G37*
G36*
G01*
X45296000Y-107275000D02*
X45296000Y-106725000D01*
G75*
G02*
X45550000Y-106471000I254000J0D01*
G01*
X47150000Y-106471000D01*
G75*
G02*
X47404000Y-106725000I0J-254000D01*
G01*
X47404000Y-107275000D01*
G75*
G02*
X47150000Y-107529000I-254000J0D01*
G01*
X45550000Y-107529000D01*
G75*
G02*
X45296000Y-107275000I0J254000D01*
G01*
G37*
G36*
G01*
X45296000Y-108075000D02*
X45296000Y-107525000D01*
G75*
G02*
X45550000Y-107271000I254000J0D01*
G01*
X47150000Y-107271000D01*
G75*
G02*
X47404000Y-107525000I0J-254000D01*
G01*
X47404000Y-108075000D01*
G75*
G02*
X47150000Y-108329000I-254000J0D01*
G01*
X45550000Y-108329000D01*
G75*
G02*
X45296000Y-108075000I0J254000D01*
G01*
G37*
G36*
G01*
X45296000Y-108875000D02*
X45296000Y-108325000D01*
G75*
G02*
X45550000Y-108071000I254000J0D01*
G01*
X47150000Y-108071000D01*
G75*
G02*
X47404000Y-108325000I0J-254000D01*
G01*
X47404000Y-108875000D01*
G75*
G02*
X47150000Y-109129000I-254000J0D01*
G01*
X45550000Y-109129000D01*
G75*
G02*
X45296000Y-108875000I0J254000D01*
G01*
G37*
G36*
G01*
X45296000Y-109675000D02*
X45296000Y-109125000D01*
G75*
G02*
X45550000Y-108871000I254000J0D01*
G01*
X47150000Y-108871000D01*
G75*
G02*
X47404000Y-109125000I0J-254000D01*
G01*
X47404000Y-109675000D01*
G75*
G02*
X47150000Y-109929000I-254000J0D01*
G01*
X45550000Y-109929000D01*
G75*
G02*
X45296000Y-109675000I0J254000D01*
G01*
G37*
G36*
G01*
X45296000Y-110475000D02*
X45296000Y-109925000D01*
G75*
G02*
X45550000Y-109671000I254000J0D01*
G01*
X47150000Y-109671000D01*
G75*
G02*
X47404000Y-109925000I0J-254000D01*
G01*
X47404000Y-110475000D01*
G75*
G02*
X47150000Y-110729000I-254000J0D01*
G01*
X45550000Y-110729000D01*
G75*
G02*
X45296000Y-110475000I0J254000D01*
G01*
G37*
G36*
G01*
X45296000Y-111275000D02*
X45296000Y-110725000D01*
G75*
G02*
X45550000Y-110471000I254000J0D01*
G01*
X47150000Y-110471000D01*
G75*
G02*
X47404000Y-110725000I0J-254000D01*
G01*
X47404000Y-111275000D01*
G75*
G02*
X47150000Y-111529000I-254000J0D01*
G01*
X45550000Y-111529000D01*
G75*
G02*
X45296000Y-111275000I0J254000D01*
G01*
G37*
G36*
G01*
X47525000Y-111396000D02*
X48075000Y-111396000D01*
G75*
G02*
X48329000Y-111650000I0J-254000D01*
G01*
X48329000Y-113250000D01*
G75*
G02*
X48075000Y-113504000I-254000J0D01*
G01*
X47525000Y-113504000D01*
G75*
G02*
X47271000Y-113250000I0J254000D01*
G01*
X47271000Y-111650000D01*
G75*
G02*
X47525000Y-111396000I254000J0D01*
G01*
G37*
G36*
G01*
X48325000Y-111396000D02*
X48875000Y-111396000D01*
G75*
G02*
X49129000Y-111650000I0J-254000D01*
G01*
X49129000Y-113250000D01*
G75*
G02*
X48875000Y-113504000I-254000J0D01*
G01*
X48325000Y-113504000D01*
G75*
G02*
X48071000Y-113250000I0J254000D01*
G01*
X48071000Y-111650000D01*
G75*
G02*
X48325000Y-111396000I254000J0D01*
G01*
G37*
G36*
G01*
X49125000Y-111396000D02*
X49675000Y-111396000D01*
G75*
G02*
X49929000Y-111650000I0J-254000D01*
G01*
X49929000Y-113250000D01*
G75*
G02*
X49675000Y-113504000I-254000J0D01*
G01*
X49125000Y-113504000D01*
G75*
G02*
X48871000Y-113250000I0J254000D01*
G01*
X48871000Y-111650000D01*
G75*
G02*
X49125000Y-111396000I254000J0D01*
G01*
G37*
G36*
G01*
X49925000Y-111396000D02*
X50475000Y-111396000D01*
G75*
G02*
X50729000Y-111650000I0J-254000D01*
G01*
X50729000Y-113250000D01*
G75*
G02*
X50475000Y-113504000I-254000J0D01*
G01*
X49925000Y-113504000D01*
G75*
G02*
X49671000Y-113250000I0J254000D01*
G01*
X49671000Y-111650000D01*
G75*
G02*
X49925000Y-111396000I254000J0D01*
G01*
G37*
G36*
G01*
X50725000Y-111396000D02*
X51275000Y-111396000D01*
G75*
G02*
X51529000Y-111650000I0J-254000D01*
G01*
X51529000Y-113250000D01*
G75*
G02*
X51275000Y-113504000I-254000J0D01*
G01*
X50725000Y-113504000D01*
G75*
G02*
X50471000Y-113250000I0J254000D01*
G01*
X50471000Y-111650000D01*
G75*
G02*
X50725000Y-111396000I254000J0D01*
G01*
G37*
G36*
G01*
X51525000Y-111396000D02*
X52075000Y-111396000D01*
G75*
G02*
X52329000Y-111650000I0J-254000D01*
G01*
X52329000Y-113250000D01*
G75*
G02*
X52075000Y-113504000I-254000J0D01*
G01*
X51525000Y-113504000D01*
G75*
G02*
X51271000Y-113250000I0J254000D01*
G01*
X51271000Y-111650000D01*
G75*
G02*
X51525000Y-111396000I254000J0D01*
G01*
G37*
G36*
G01*
X52325000Y-111396000D02*
X52875000Y-111396000D01*
G75*
G02*
X53129000Y-111650000I0J-254000D01*
G01*
X53129000Y-113250000D01*
G75*
G02*
X52875000Y-113504000I-254000J0D01*
G01*
X52325000Y-113504000D01*
G75*
G02*
X52071000Y-113250000I0J254000D01*
G01*
X52071000Y-111650000D01*
G75*
G02*
X52325000Y-111396000I254000J0D01*
G01*
G37*
G36*
G01*
X53125000Y-111396000D02*
X53675000Y-111396000D01*
G75*
G02*
X53929000Y-111650000I0J-254000D01*
G01*
X53929000Y-113250000D01*
G75*
G02*
X53675000Y-113504000I-254000J0D01*
G01*
X53125000Y-113504000D01*
G75*
G02*
X52871000Y-113250000I0J254000D01*
G01*
X52871000Y-111650000D01*
G75*
G02*
X53125000Y-111396000I254000J0D01*
G01*
G37*
G36*
G01*
X53796000Y-111275000D02*
X53796000Y-110725000D01*
G75*
G02*
X54050000Y-110471000I254000J0D01*
G01*
X55650000Y-110471000D01*
G75*
G02*
X55904000Y-110725000I0J-254000D01*
G01*
X55904000Y-111275000D01*
G75*
G02*
X55650000Y-111529000I-254000J0D01*
G01*
X54050000Y-111529000D01*
G75*
G02*
X53796000Y-111275000I0J254000D01*
G01*
G37*
G36*
G01*
X53796000Y-110475000D02*
X53796000Y-109925000D01*
G75*
G02*
X54050000Y-109671000I254000J0D01*
G01*
X55650000Y-109671000D01*
G75*
G02*
X55904000Y-109925000I0J-254000D01*
G01*
X55904000Y-110475000D01*
G75*
G02*
X55650000Y-110729000I-254000J0D01*
G01*
X54050000Y-110729000D01*
G75*
G02*
X53796000Y-110475000I0J254000D01*
G01*
G37*
G36*
G01*
X53796000Y-109675000D02*
X53796000Y-109125000D01*
G75*
G02*
X54050000Y-108871000I254000J0D01*
G01*
X55650000Y-108871000D01*
G75*
G02*
X55904000Y-109125000I0J-254000D01*
G01*
X55904000Y-109675000D01*
G75*
G02*
X55650000Y-109929000I-254000J0D01*
G01*
X54050000Y-109929000D01*
G75*
G02*
X53796000Y-109675000I0J254000D01*
G01*
G37*
G36*
G01*
X53796000Y-108875000D02*
X53796000Y-108325000D01*
G75*
G02*
X54050000Y-108071000I254000J0D01*
G01*
X55650000Y-108071000D01*
G75*
G02*
X55904000Y-108325000I0J-254000D01*
G01*
X55904000Y-108875000D01*
G75*
G02*
X55650000Y-109129000I-254000J0D01*
G01*
X54050000Y-109129000D01*
G75*
G02*
X53796000Y-108875000I0J254000D01*
G01*
G37*
G36*
G01*
X53796000Y-108075000D02*
X53796000Y-107525000D01*
G75*
G02*
X54050000Y-107271000I254000J0D01*
G01*
X55650000Y-107271000D01*
G75*
G02*
X55904000Y-107525000I0J-254000D01*
G01*
X55904000Y-108075000D01*
G75*
G02*
X55650000Y-108329000I-254000J0D01*
G01*
X54050000Y-108329000D01*
G75*
G02*
X53796000Y-108075000I0J254000D01*
G01*
G37*
G36*
G01*
X53796000Y-107275000D02*
X53796000Y-106725000D01*
G75*
G02*
X54050000Y-106471000I254000J0D01*
G01*
X55650000Y-106471000D01*
G75*
G02*
X55904000Y-106725000I0J-254000D01*
G01*
X55904000Y-107275000D01*
G75*
G02*
X55650000Y-107529000I-254000J0D01*
G01*
X54050000Y-107529000D01*
G75*
G02*
X53796000Y-107275000I0J254000D01*
G01*
G37*
G36*
G01*
X53796000Y-106475000D02*
X53796000Y-105925000D01*
G75*
G02*
X54050000Y-105671000I254000J0D01*
G01*
X55650000Y-105671000D01*
G75*
G02*
X55904000Y-105925000I0J-254000D01*
G01*
X55904000Y-106475000D01*
G75*
G02*
X55650000Y-106729000I-254000J0D01*
G01*
X54050000Y-106729000D01*
G75*
G02*
X53796000Y-106475000I0J254000D01*
G01*
G37*
G36*
G01*
X53796000Y-105675000D02*
X53796000Y-105125000D01*
G75*
G02*
X54050000Y-104871000I254000J0D01*
G01*
X55650000Y-104871000D01*
G75*
G02*
X55904000Y-105125000I0J-254000D01*
G01*
X55904000Y-105675000D01*
G75*
G02*
X55650000Y-105929000I-254000J0D01*
G01*
X54050000Y-105929000D01*
G75*
G02*
X53796000Y-105675000I0J254000D01*
G01*
G37*
%TD*%
%TO.C,R2*%
G36*
G01*
X32101250Y-94494750D02*
X33401250Y-94494750D01*
G75*
G02*
X33655250Y-94748750I0J-254000D01*
G01*
X33655250Y-95448750D01*
G75*
G02*
X33401250Y-95702750I-254000J0D01*
G01*
X32101250Y-95702750D01*
G75*
G02*
X31847250Y-95448750I0J254000D01*
G01*
X31847250Y-94748750D01*
G75*
G02*
X32101250Y-94494750I254000J0D01*
G01*
G37*
G36*
G01*
X32101250Y-96394750D02*
X33401250Y-96394750D01*
G75*
G02*
X33655250Y-96648750I0J-254000D01*
G01*
X33655250Y-97348750D01*
G75*
G02*
X33401250Y-97602750I-254000J0D01*
G01*
X32101250Y-97602750D01*
G75*
G02*
X31847250Y-97348750I0J254000D01*
G01*
X31847250Y-96648750D01*
G75*
G02*
X32101250Y-96394750I254000J0D01*
G01*
G37*
%TD*%
%TO.C,R3*%
G36*
G01*
X32101250Y-78314750D02*
X33401250Y-78314750D01*
G75*
G02*
X33655250Y-78568750I0J-254000D01*
G01*
X33655250Y-79268750D01*
G75*
G02*
X33401250Y-79522750I-254000J0D01*
G01*
X32101250Y-79522750D01*
G75*
G02*
X31847250Y-79268750I0J254000D01*
G01*
X31847250Y-78568750D01*
G75*
G02*
X32101250Y-78314750I254000J0D01*
G01*
G37*
G36*
G01*
X32101250Y-80214750D02*
X33401250Y-80214750D01*
G75*
G02*
X33655250Y-80468750I0J-254000D01*
G01*
X33655250Y-81168750D01*
G75*
G02*
X33401250Y-81422750I-254000J0D01*
G01*
X32101250Y-81422750D01*
G75*
G02*
X31847250Y-81168750I0J254000D01*
G01*
X31847250Y-80468750D01*
G75*
G02*
X32101250Y-80214750I254000J0D01*
G01*
G37*
%TD*%
%TO.C,R4*%
G36*
G01*
X32101250Y-63834750D02*
X33401250Y-63834750D01*
G75*
G02*
X33655250Y-64088750I0J-254000D01*
G01*
X33655250Y-64788750D01*
G75*
G02*
X33401250Y-65042750I-254000J0D01*
G01*
X32101250Y-65042750D01*
G75*
G02*
X31847250Y-64788750I0J254000D01*
G01*
X31847250Y-64088750D01*
G75*
G02*
X32101250Y-63834750I254000J0D01*
G01*
G37*
G36*
G01*
X32101250Y-65734750D02*
X33401250Y-65734750D01*
G75*
G02*
X33655250Y-65988750I0J-254000D01*
G01*
X33655250Y-66688750D01*
G75*
G02*
X33401250Y-66942750I-254000J0D01*
G01*
X32101250Y-66942750D01*
G75*
G02*
X31847250Y-66688750I0J254000D01*
G01*
X31847250Y-65988750D01*
G75*
G02*
X32101250Y-65734750I254000J0D01*
G01*
G37*
%TD*%
%TO.C,R5*%
G36*
G01*
X32001250Y-49327750D02*
X33301250Y-49327750D01*
G75*
G02*
X33555250Y-49581750I0J-254000D01*
G01*
X33555250Y-50281750D01*
G75*
G02*
X33301250Y-50535750I-254000J0D01*
G01*
X32001250Y-50535750D01*
G75*
G02*
X31747250Y-50281750I0J254000D01*
G01*
X31747250Y-49581750D01*
G75*
G02*
X32001250Y-49327750I254000J0D01*
G01*
G37*
G36*
G01*
X32001250Y-51227750D02*
X33301250Y-51227750D01*
G75*
G02*
X33555250Y-51481750I0J-254000D01*
G01*
X33555250Y-52181750D01*
G75*
G02*
X33301250Y-52435750I-254000J0D01*
G01*
X32001250Y-52435750D01*
G75*
G02*
X31747250Y-52181750I0J254000D01*
G01*
X31747250Y-51481750D01*
G75*
G02*
X32001250Y-51227750I254000J0D01*
G01*
G37*
%TD*%
%TO.C,R7*%
G36*
G01*
X37211250Y-97602750D02*
X35911250Y-97602750D01*
G75*
G02*
X35657250Y-97348750I0J254000D01*
G01*
X35657250Y-96648750D01*
G75*
G02*
X35911250Y-96394750I254000J0D01*
G01*
X37211250Y-96394750D01*
G75*
G02*
X37465250Y-96648750I0J-254000D01*
G01*
X37465250Y-97348750D01*
G75*
G02*
X37211250Y-97602750I-254000J0D01*
G01*
G37*
G36*
G01*
X37211250Y-95702750D02*
X35911250Y-95702750D01*
G75*
G02*
X35657250Y-95448750I0J254000D01*
G01*
X35657250Y-94748750D01*
G75*
G02*
X35911250Y-94494750I254000J0D01*
G01*
X37211250Y-94494750D01*
G75*
G02*
X37465250Y-94748750I0J-254000D01*
G01*
X37465250Y-95448750D01*
G75*
G02*
X37211250Y-95702750I-254000J0D01*
G01*
G37*
%TD*%
%TO.C,R8*%
G36*
G01*
X41021250Y-97602750D02*
X39721250Y-97602750D01*
G75*
G02*
X39467250Y-97348750I0J254000D01*
G01*
X39467250Y-96648750D01*
G75*
G02*
X39721250Y-96394750I254000J0D01*
G01*
X41021250Y-96394750D01*
G75*
G02*
X41275250Y-96648750I0J-254000D01*
G01*
X41275250Y-97348750D01*
G75*
G02*
X41021250Y-97602750I-254000J0D01*
G01*
G37*
G36*
G01*
X41021250Y-95702750D02*
X39721250Y-95702750D01*
G75*
G02*
X39467250Y-95448750I0J254000D01*
G01*
X39467250Y-94748750D01*
G75*
G02*
X39721250Y-94494750I254000J0D01*
G01*
X41021250Y-94494750D01*
G75*
G02*
X41275250Y-94748750I0J-254000D01*
G01*
X41275250Y-95448750D01*
G75*
G02*
X41021250Y-95702750I-254000J0D01*
G01*
G37*
%TD*%
%TO.C,R9*%
G36*
G01*
X41021250Y-81422750D02*
X39721250Y-81422750D01*
G75*
G02*
X39467250Y-81168750I0J254000D01*
G01*
X39467250Y-80468750D01*
G75*
G02*
X39721250Y-80214750I254000J0D01*
G01*
X41021250Y-80214750D01*
G75*
G02*
X41275250Y-80468750I0J-254000D01*
G01*
X41275250Y-81168750D01*
G75*
G02*
X41021250Y-81422750I-254000J0D01*
G01*
G37*
G36*
G01*
X41021250Y-79522750D02*
X39721250Y-79522750D01*
G75*
G02*
X39467250Y-79268750I0J254000D01*
G01*
X39467250Y-78568750D01*
G75*
G02*
X39721250Y-78314750I254000J0D01*
G01*
X41021250Y-78314750D01*
G75*
G02*
X41275250Y-78568750I0J-254000D01*
G01*
X41275250Y-79268750D01*
G75*
G02*
X41021250Y-79522750I-254000J0D01*
G01*
G37*
%TD*%
%TO.C,R10*%
G36*
G01*
X41021250Y-66942750D02*
X39721250Y-66942750D01*
G75*
G02*
X39467250Y-66688750I0J254000D01*
G01*
X39467250Y-65988750D01*
G75*
G02*
X39721250Y-65734750I254000J0D01*
G01*
X41021250Y-65734750D01*
G75*
G02*
X41275250Y-65988750I0J-254000D01*
G01*
X41275250Y-66688750D01*
G75*
G02*
X41021250Y-66942750I-254000J0D01*
G01*
G37*
G36*
G01*
X41021250Y-65042750D02*
X39721250Y-65042750D01*
G75*
G02*
X39467250Y-64788750I0J254000D01*
G01*
X39467250Y-64088750D01*
G75*
G02*
X39721250Y-63834750I254000J0D01*
G01*
X41021250Y-63834750D01*
G75*
G02*
X41275250Y-64088750I0J-254000D01*
G01*
X41275250Y-64788750D01*
G75*
G02*
X41021250Y-65042750I-254000J0D01*
G01*
G37*
%TD*%
%TO.C,R11*%
G36*
G01*
X41021250Y-52435750D02*
X39721250Y-52435750D01*
G75*
G02*
X39467250Y-52181750I0J254000D01*
G01*
X39467250Y-51481750D01*
G75*
G02*
X39721250Y-51227750I254000J0D01*
G01*
X41021250Y-51227750D01*
G75*
G02*
X41275250Y-51481750I0J-254000D01*
G01*
X41275250Y-52181750D01*
G75*
G02*
X41021250Y-52435750I-254000J0D01*
G01*
G37*
G36*
G01*
X41021250Y-50535750D02*
X39721250Y-50535750D01*
G75*
G02*
X39467250Y-50281750I0J254000D01*
G01*
X39467250Y-49581750D01*
G75*
G02*
X39721250Y-49327750I254000J0D01*
G01*
X41021250Y-49327750D01*
G75*
G02*
X41275250Y-49581750I0J-254000D01*
G01*
X41275250Y-50281750D01*
G75*
G02*
X41021250Y-50535750I-254000J0D01*
G01*
G37*
%TD*%
%TO.C,R12*%
G36*
G01*
X37111250Y-52435750D02*
X35811250Y-52435750D01*
G75*
G02*
X35557250Y-52181750I0J254000D01*
G01*
X35557250Y-51481750D01*
G75*
G02*
X35811250Y-51227750I254000J0D01*
G01*
X37111250Y-51227750D01*
G75*
G02*
X37365250Y-51481750I0J-254000D01*
G01*
X37365250Y-52181750D01*
G75*
G02*
X37111250Y-52435750I-254000J0D01*
G01*
G37*
G36*
G01*
X37111250Y-50535750D02*
X35811250Y-50535750D01*
G75*
G02*
X35557250Y-50281750I0J254000D01*
G01*
X35557250Y-49581750D01*
G75*
G02*
X35811250Y-49327750I254000J0D01*
G01*
X37111250Y-49327750D01*
G75*
G02*
X37365250Y-49581750I0J-254000D01*
G01*
X37365250Y-50281750D01*
G75*
G02*
X37111250Y-50535750I-254000J0D01*
G01*
G37*
%TD*%
%TO.C,R14*%
G36*
G01*
X47341250Y-94494750D02*
X48641250Y-94494750D01*
G75*
G02*
X48895250Y-94748750I0J-254000D01*
G01*
X48895250Y-95448750D01*
G75*
G02*
X48641250Y-95702750I-254000J0D01*
G01*
X47341250Y-95702750D01*
G75*
G02*
X47087250Y-95448750I0J254000D01*
G01*
X47087250Y-94748750D01*
G75*
G02*
X47341250Y-94494750I254000J0D01*
G01*
G37*
G36*
G01*
X47341250Y-96394750D02*
X48641250Y-96394750D01*
G75*
G02*
X48895250Y-96648750I0J-254000D01*
G01*
X48895250Y-97348750D01*
G75*
G02*
X48641250Y-97602750I-254000J0D01*
G01*
X47341250Y-97602750D01*
G75*
G02*
X47087250Y-97348750I0J254000D01*
G01*
X47087250Y-96648750D01*
G75*
G02*
X47341250Y-96394750I254000J0D01*
G01*
G37*
%TD*%
%TO.C,R15*%
G36*
G01*
X47341250Y-78314750D02*
X48641250Y-78314750D01*
G75*
G02*
X48895250Y-78568750I0J-254000D01*
G01*
X48895250Y-79268750D01*
G75*
G02*
X48641250Y-79522750I-254000J0D01*
G01*
X47341250Y-79522750D01*
G75*
G02*
X47087250Y-79268750I0J254000D01*
G01*
X47087250Y-78568750D01*
G75*
G02*
X47341250Y-78314750I254000J0D01*
G01*
G37*
G36*
G01*
X47341250Y-80214750D02*
X48641250Y-80214750D01*
G75*
G02*
X48895250Y-80468750I0J-254000D01*
G01*
X48895250Y-81168750D01*
G75*
G02*
X48641250Y-81422750I-254000J0D01*
G01*
X47341250Y-81422750D01*
G75*
G02*
X47087250Y-81168750I0J254000D01*
G01*
X47087250Y-80468750D01*
G75*
G02*
X47341250Y-80214750I254000J0D01*
G01*
G37*
%TD*%
%TO.C,R16*%
G36*
G01*
X47341250Y-63834750D02*
X48641250Y-63834750D01*
G75*
G02*
X48895250Y-64088750I0J-254000D01*
G01*
X48895250Y-64788750D01*
G75*
G02*
X48641250Y-65042750I-254000J0D01*
G01*
X47341250Y-65042750D01*
G75*
G02*
X47087250Y-64788750I0J254000D01*
G01*
X47087250Y-64088750D01*
G75*
G02*
X47341250Y-63834750I254000J0D01*
G01*
G37*
G36*
G01*
X47341250Y-65734750D02*
X48641250Y-65734750D01*
G75*
G02*
X48895250Y-65988750I0J-254000D01*
G01*
X48895250Y-66688750D01*
G75*
G02*
X48641250Y-66942750I-254000J0D01*
G01*
X47341250Y-66942750D01*
G75*
G02*
X47087250Y-66688750I0J254000D01*
G01*
X47087250Y-65988750D01*
G75*
G02*
X47341250Y-65734750I254000J0D01*
G01*
G37*
%TD*%
%TO.C,R17*%
G36*
G01*
X47341250Y-49354750D02*
X48641250Y-49354750D01*
G75*
G02*
X48895250Y-49608750I0J-254000D01*
G01*
X48895250Y-50308750D01*
G75*
G02*
X48641250Y-50562750I-254000J0D01*
G01*
X47341250Y-50562750D01*
G75*
G02*
X47087250Y-50308750I0J254000D01*
G01*
X47087250Y-49608750D01*
G75*
G02*
X47341250Y-49354750I254000J0D01*
G01*
G37*
G36*
G01*
X47341250Y-51254750D02*
X48641250Y-51254750D01*
G75*
G02*
X48895250Y-51508750I0J-254000D01*
G01*
X48895250Y-52208750D01*
G75*
G02*
X48641250Y-52462750I-254000J0D01*
G01*
X47341250Y-52462750D01*
G75*
G02*
X47087250Y-52208750I0J254000D01*
G01*
X47087250Y-51508750D01*
G75*
G02*
X47341250Y-51254750I254000J0D01*
G01*
G37*
%TD*%
%TO.C,R19*%
G36*
G01*
X52451250Y-97602750D02*
X51151250Y-97602750D01*
G75*
G02*
X50897250Y-97348750I0J254000D01*
G01*
X50897250Y-96648750D01*
G75*
G02*
X51151250Y-96394750I254000J0D01*
G01*
X52451250Y-96394750D01*
G75*
G02*
X52705250Y-96648750I0J-254000D01*
G01*
X52705250Y-97348750D01*
G75*
G02*
X52451250Y-97602750I-254000J0D01*
G01*
G37*
G36*
G01*
X52451250Y-95702750D02*
X51151250Y-95702750D01*
G75*
G02*
X50897250Y-95448750I0J254000D01*
G01*
X50897250Y-94748750D01*
G75*
G02*
X51151250Y-94494750I254000J0D01*
G01*
X52451250Y-94494750D01*
G75*
G02*
X52705250Y-94748750I0J-254000D01*
G01*
X52705250Y-95448750D01*
G75*
G02*
X52451250Y-95702750I-254000J0D01*
G01*
G37*
%TD*%
%TO.C,R20*%
G36*
G01*
X56261250Y-97602750D02*
X54961250Y-97602750D01*
G75*
G02*
X54707250Y-97348750I0J254000D01*
G01*
X54707250Y-96648750D01*
G75*
G02*
X54961250Y-96394750I254000J0D01*
G01*
X56261250Y-96394750D01*
G75*
G02*
X56515250Y-96648750I0J-254000D01*
G01*
X56515250Y-97348750D01*
G75*
G02*
X56261250Y-97602750I-254000J0D01*
G01*
G37*
G36*
G01*
X56261250Y-95702750D02*
X54961250Y-95702750D01*
G75*
G02*
X54707250Y-95448750I0J254000D01*
G01*
X54707250Y-94748750D01*
G75*
G02*
X54961250Y-94494750I254000J0D01*
G01*
X56261250Y-94494750D01*
G75*
G02*
X56515250Y-94748750I0J-254000D01*
G01*
X56515250Y-95448750D01*
G75*
G02*
X56261250Y-95702750I-254000J0D01*
G01*
G37*
%TD*%
%TO.C,R21*%
G36*
G01*
X56261250Y-81422750D02*
X54961250Y-81422750D01*
G75*
G02*
X54707250Y-81168750I0J254000D01*
G01*
X54707250Y-80468750D01*
G75*
G02*
X54961250Y-80214750I254000J0D01*
G01*
X56261250Y-80214750D01*
G75*
G02*
X56515250Y-80468750I0J-254000D01*
G01*
X56515250Y-81168750D01*
G75*
G02*
X56261250Y-81422750I-254000J0D01*
G01*
G37*
G36*
G01*
X56261250Y-79522750D02*
X54961250Y-79522750D01*
G75*
G02*
X54707250Y-79268750I0J254000D01*
G01*
X54707250Y-78568750D01*
G75*
G02*
X54961250Y-78314750I254000J0D01*
G01*
X56261250Y-78314750D01*
G75*
G02*
X56515250Y-78568750I0J-254000D01*
G01*
X56515250Y-79268750D01*
G75*
G02*
X56261250Y-79522750I-254000J0D01*
G01*
G37*
%TD*%
%TO.C,R22*%
G36*
G01*
X56261250Y-66942750D02*
X54961250Y-66942750D01*
G75*
G02*
X54707250Y-66688750I0J254000D01*
G01*
X54707250Y-65988750D01*
G75*
G02*
X54961250Y-65734750I254000J0D01*
G01*
X56261250Y-65734750D01*
G75*
G02*
X56515250Y-65988750I0J-254000D01*
G01*
X56515250Y-66688750D01*
G75*
G02*
X56261250Y-66942750I-254000J0D01*
G01*
G37*
G36*
G01*
X56261250Y-65042750D02*
X54961250Y-65042750D01*
G75*
G02*
X54707250Y-64788750I0J254000D01*
G01*
X54707250Y-64088750D01*
G75*
G02*
X54961250Y-63834750I254000J0D01*
G01*
X56261250Y-63834750D01*
G75*
G02*
X56515250Y-64088750I0J-254000D01*
G01*
X56515250Y-64788750D01*
G75*
G02*
X56261250Y-65042750I-254000J0D01*
G01*
G37*
%TD*%
%TO.C,R23*%
G36*
G01*
X56261250Y-52462750D02*
X54961250Y-52462750D01*
G75*
G02*
X54707250Y-52208750I0J254000D01*
G01*
X54707250Y-51508750D01*
G75*
G02*
X54961250Y-51254750I254000J0D01*
G01*
X56261250Y-51254750D01*
G75*
G02*
X56515250Y-51508750I0J-254000D01*
G01*
X56515250Y-52208750D01*
G75*
G02*
X56261250Y-52462750I-254000J0D01*
G01*
G37*
G36*
G01*
X56261250Y-50562750D02*
X54961250Y-50562750D01*
G75*
G02*
X54707250Y-50308750I0J254000D01*
G01*
X54707250Y-49608750D01*
G75*
G02*
X54961250Y-49354750I254000J0D01*
G01*
X56261250Y-49354750D01*
G75*
G02*
X56515250Y-49608750I0J-254000D01*
G01*
X56515250Y-50308750D01*
G75*
G02*
X56261250Y-50562750I-254000J0D01*
G01*
G37*
%TD*%
%TO.C,R24*%
G36*
G01*
X52451250Y-52462750D02*
X51151250Y-52462750D01*
G75*
G02*
X50897250Y-52208750I0J254000D01*
G01*
X50897250Y-51508750D01*
G75*
G02*
X51151250Y-51254750I254000J0D01*
G01*
X52451250Y-51254750D01*
G75*
G02*
X52705250Y-51508750I0J-254000D01*
G01*
X52705250Y-52208750D01*
G75*
G02*
X52451250Y-52462750I-254000J0D01*
G01*
G37*
G36*
G01*
X52451250Y-50562750D02*
X51151250Y-50562750D01*
G75*
G02*
X50897250Y-50308750I0J254000D01*
G01*
X50897250Y-49608750D01*
G75*
G02*
X51151250Y-49354750I254000J0D01*
G01*
X52451250Y-49354750D01*
G75*
G02*
X52705250Y-49608750I0J-254000D01*
G01*
X52705250Y-50308750D01*
G75*
G02*
X52451250Y-50562750I-254000J0D01*
G01*
G37*
%TD*%
%TO.C,R26*%
G36*
G01*
X62581250Y-94494750D02*
X63881250Y-94494750D01*
G75*
G02*
X64135250Y-94748750I0J-254000D01*
G01*
X64135250Y-95448750D01*
G75*
G02*
X63881250Y-95702750I-254000J0D01*
G01*
X62581250Y-95702750D01*
G75*
G02*
X62327250Y-95448750I0J254000D01*
G01*
X62327250Y-94748750D01*
G75*
G02*
X62581250Y-94494750I254000J0D01*
G01*
G37*
G36*
G01*
X62581250Y-96394750D02*
X63881250Y-96394750D01*
G75*
G02*
X64135250Y-96648750I0J-254000D01*
G01*
X64135250Y-97348750D01*
G75*
G02*
X63881250Y-97602750I-254000J0D01*
G01*
X62581250Y-97602750D01*
G75*
G02*
X62327250Y-97348750I0J254000D01*
G01*
X62327250Y-96648750D01*
G75*
G02*
X62581250Y-96394750I254000J0D01*
G01*
G37*
%TD*%
%TO.C,R27*%
G36*
G01*
X62581250Y-78314750D02*
X63881250Y-78314750D01*
G75*
G02*
X64135250Y-78568750I0J-254000D01*
G01*
X64135250Y-79268750D01*
G75*
G02*
X63881250Y-79522750I-254000J0D01*
G01*
X62581250Y-79522750D01*
G75*
G02*
X62327250Y-79268750I0J254000D01*
G01*
X62327250Y-78568750D01*
G75*
G02*
X62581250Y-78314750I254000J0D01*
G01*
G37*
G36*
G01*
X62581250Y-80214750D02*
X63881250Y-80214750D01*
G75*
G02*
X64135250Y-80468750I0J-254000D01*
G01*
X64135250Y-81168750D01*
G75*
G02*
X63881250Y-81422750I-254000J0D01*
G01*
X62581250Y-81422750D01*
G75*
G02*
X62327250Y-81168750I0J254000D01*
G01*
X62327250Y-80468750D01*
G75*
G02*
X62581250Y-80214750I254000J0D01*
G01*
G37*
%TD*%
%TO.C,R28*%
G36*
G01*
X62581250Y-63834750D02*
X63881250Y-63834750D01*
G75*
G02*
X64135250Y-64088750I0J-254000D01*
G01*
X64135250Y-64788750D01*
G75*
G02*
X63881250Y-65042750I-254000J0D01*
G01*
X62581250Y-65042750D01*
G75*
G02*
X62327250Y-64788750I0J254000D01*
G01*
X62327250Y-64088750D01*
G75*
G02*
X62581250Y-63834750I254000J0D01*
G01*
G37*
G36*
G01*
X62581250Y-65734750D02*
X63881250Y-65734750D01*
G75*
G02*
X64135250Y-65988750I0J-254000D01*
G01*
X64135250Y-66688750D01*
G75*
G02*
X63881250Y-66942750I-254000J0D01*
G01*
X62581250Y-66942750D01*
G75*
G02*
X62327250Y-66688750I0J254000D01*
G01*
X62327250Y-65988750D01*
G75*
G02*
X62581250Y-65734750I254000J0D01*
G01*
G37*
%TD*%
%TO.C,R29*%
G36*
G01*
X62581250Y-49354750D02*
X63881250Y-49354750D01*
G75*
G02*
X64135250Y-49608750I0J-254000D01*
G01*
X64135250Y-50308750D01*
G75*
G02*
X63881250Y-50562750I-254000J0D01*
G01*
X62581250Y-50562750D01*
G75*
G02*
X62327250Y-50308750I0J254000D01*
G01*
X62327250Y-49608750D01*
G75*
G02*
X62581250Y-49354750I254000J0D01*
G01*
G37*
G36*
G01*
X62581250Y-51254750D02*
X63881250Y-51254750D01*
G75*
G02*
X64135250Y-51508750I0J-254000D01*
G01*
X64135250Y-52208750D01*
G75*
G02*
X63881250Y-52462750I-254000J0D01*
G01*
X62581250Y-52462750D01*
G75*
G02*
X62327250Y-52208750I0J254000D01*
G01*
X62327250Y-51508750D01*
G75*
G02*
X62581250Y-51254750I254000J0D01*
G01*
G37*
%TD*%
%TO.C,R31*%
G36*
G01*
X67691250Y-97602750D02*
X66391250Y-97602750D01*
G75*
G02*
X66137250Y-97348750I0J254000D01*
G01*
X66137250Y-96648750D01*
G75*
G02*
X66391250Y-96394750I254000J0D01*
G01*
X67691250Y-96394750D01*
G75*
G02*
X67945250Y-96648750I0J-254000D01*
G01*
X67945250Y-97348750D01*
G75*
G02*
X67691250Y-97602750I-254000J0D01*
G01*
G37*
G36*
G01*
X67691250Y-95702750D02*
X66391250Y-95702750D01*
G75*
G02*
X66137250Y-95448750I0J254000D01*
G01*
X66137250Y-94748750D01*
G75*
G02*
X66391250Y-94494750I254000J0D01*
G01*
X67691250Y-94494750D01*
G75*
G02*
X67945250Y-94748750I0J-254000D01*
G01*
X67945250Y-95448750D01*
G75*
G02*
X67691250Y-95702750I-254000J0D01*
G01*
G37*
%TD*%
%TO.C,R32*%
G36*
G01*
X71501250Y-97602750D02*
X70201250Y-97602750D01*
G75*
G02*
X69947250Y-97348750I0J254000D01*
G01*
X69947250Y-96648750D01*
G75*
G02*
X70201250Y-96394750I254000J0D01*
G01*
X71501250Y-96394750D01*
G75*
G02*
X71755250Y-96648750I0J-254000D01*
G01*
X71755250Y-97348750D01*
G75*
G02*
X71501250Y-97602750I-254000J0D01*
G01*
G37*
G36*
G01*
X71501250Y-95702750D02*
X70201250Y-95702750D01*
G75*
G02*
X69947250Y-95448750I0J254000D01*
G01*
X69947250Y-94748750D01*
G75*
G02*
X70201250Y-94494750I254000J0D01*
G01*
X71501250Y-94494750D01*
G75*
G02*
X71755250Y-94748750I0J-254000D01*
G01*
X71755250Y-95448750D01*
G75*
G02*
X71501250Y-95702750I-254000J0D01*
G01*
G37*
%TD*%
%TO.C,R33*%
G36*
G01*
X71501250Y-81422750D02*
X70201250Y-81422750D01*
G75*
G02*
X69947250Y-81168750I0J254000D01*
G01*
X69947250Y-80468750D01*
G75*
G02*
X70201250Y-80214750I254000J0D01*
G01*
X71501250Y-80214750D01*
G75*
G02*
X71755250Y-80468750I0J-254000D01*
G01*
X71755250Y-81168750D01*
G75*
G02*
X71501250Y-81422750I-254000J0D01*
G01*
G37*
G36*
G01*
X71501250Y-79522750D02*
X70201250Y-79522750D01*
G75*
G02*
X69947250Y-79268750I0J254000D01*
G01*
X69947250Y-78568750D01*
G75*
G02*
X70201250Y-78314750I254000J0D01*
G01*
X71501250Y-78314750D01*
G75*
G02*
X71755250Y-78568750I0J-254000D01*
G01*
X71755250Y-79268750D01*
G75*
G02*
X71501250Y-79522750I-254000J0D01*
G01*
G37*
%TD*%
%TO.C,R34*%
G36*
G01*
X71501250Y-66942750D02*
X70201250Y-66942750D01*
G75*
G02*
X69947250Y-66688750I0J254000D01*
G01*
X69947250Y-65988750D01*
G75*
G02*
X70201250Y-65734750I254000J0D01*
G01*
X71501250Y-65734750D01*
G75*
G02*
X71755250Y-65988750I0J-254000D01*
G01*
X71755250Y-66688750D01*
G75*
G02*
X71501250Y-66942750I-254000J0D01*
G01*
G37*
G36*
G01*
X71501250Y-65042750D02*
X70201250Y-65042750D01*
G75*
G02*
X69947250Y-64788750I0J254000D01*
G01*
X69947250Y-64088750D01*
G75*
G02*
X70201250Y-63834750I254000J0D01*
G01*
X71501250Y-63834750D01*
G75*
G02*
X71755250Y-64088750I0J-254000D01*
G01*
X71755250Y-64788750D01*
G75*
G02*
X71501250Y-65042750I-254000J0D01*
G01*
G37*
%TD*%
%TO.C,R35*%
G36*
G01*
X71501250Y-52462750D02*
X70201250Y-52462750D01*
G75*
G02*
X69947250Y-52208750I0J254000D01*
G01*
X69947250Y-51508750D01*
G75*
G02*
X70201250Y-51254750I254000J0D01*
G01*
X71501250Y-51254750D01*
G75*
G02*
X71755250Y-51508750I0J-254000D01*
G01*
X71755250Y-52208750D01*
G75*
G02*
X71501250Y-52462750I-254000J0D01*
G01*
G37*
G36*
G01*
X71501250Y-50562750D02*
X70201250Y-50562750D01*
G75*
G02*
X69947250Y-50308750I0J254000D01*
G01*
X69947250Y-49608750D01*
G75*
G02*
X70201250Y-49354750I254000J0D01*
G01*
X71501250Y-49354750D01*
G75*
G02*
X71755250Y-49608750I0J-254000D01*
G01*
X71755250Y-50308750D01*
G75*
G02*
X71501250Y-50562750I-254000J0D01*
G01*
G37*
%TD*%
%TO.C,R36*%
G36*
G01*
X67691250Y-52462750D02*
X66391250Y-52462750D01*
G75*
G02*
X66137250Y-52208750I0J254000D01*
G01*
X66137250Y-51508750D01*
G75*
G02*
X66391250Y-51254750I254000J0D01*
G01*
X67691250Y-51254750D01*
G75*
G02*
X67945250Y-51508750I0J-254000D01*
G01*
X67945250Y-52208750D01*
G75*
G02*
X67691250Y-52462750I-254000J0D01*
G01*
G37*
G36*
G01*
X67691250Y-50562750D02*
X66391250Y-50562750D01*
G75*
G02*
X66137250Y-50308750I0J254000D01*
G01*
X66137250Y-49608750D01*
G75*
G02*
X66391250Y-49354750I254000J0D01*
G01*
X67691250Y-49354750D01*
G75*
G02*
X67945250Y-49608750I0J-254000D01*
G01*
X67945250Y-50308750D01*
G75*
G02*
X67691250Y-50562750I-254000J0D01*
G01*
G37*
%TD*%
%TO.C,R38*%
G36*
G01*
X77821250Y-94494750D02*
X79121250Y-94494750D01*
G75*
G02*
X79375250Y-94748750I0J-254000D01*
G01*
X79375250Y-95448750D01*
G75*
G02*
X79121250Y-95702750I-254000J0D01*
G01*
X77821250Y-95702750D01*
G75*
G02*
X77567250Y-95448750I0J254000D01*
G01*
X77567250Y-94748750D01*
G75*
G02*
X77821250Y-94494750I254000J0D01*
G01*
G37*
G36*
G01*
X77821250Y-96394750D02*
X79121250Y-96394750D01*
G75*
G02*
X79375250Y-96648750I0J-254000D01*
G01*
X79375250Y-97348750D01*
G75*
G02*
X79121250Y-97602750I-254000J0D01*
G01*
X77821250Y-97602750D01*
G75*
G02*
X77567250Y-97348750I0J254000D01*
G01*
X77567250Y-96648750D01*
G75*
G02*
X77821250Y-96394750I254000J0D01*
G01*
G37*
%TD*%
%TO.C,R39*%
G36*
G01*
X77821250Y-78314750D02*
X79121250Y-78314750D01*
G75*
G02*
X79375250Y-78568750I0J-254000D01*
G01*
X79375250Y-79268750D01*
G75*
G02*
X79121250Y-79522750I-254000J0D01*
G01*
X77821250Y-79522750D01*
G75*
G02*
X77567250Y-79268750I0J254000D01*
G01*
X77567250Y-78568750D01*
G75*
G02*
X77821250Y-78314750I254000J0D01*
G01*
G37*
G36*
G01*
X77821250Y-80214750D02*
X79121250Y-80214750D01*
G75*
G02*
X79375250Y-80468750I0J-254000D01*
G01*
X79375250Y-81168750D01*
G75*
G02*
X79121250Y-81422750I-254000J0D01*
G01*
X77821250Y-81422750D01*
G75*
G02*
X77567250Y-81168750I0J254000D01*
G01*
X77567250Y-80468750D01*
G75*
G02*
X77821250Y-80214750I254000J0D01*
G01*
G37*
%TD*%
%TO.C,R40*%
G36*
G01*
X77821250Y-63834750D02*
X79121250Y-63834750D01*
G75*
G02*
X79375250Y-64088750I0J-254000D01*
G01*
X79375250Y-64788750D01*
G75*
G02*
X79121250Y-65042750I-254000J0D01*
G01*
X77821250Y-65042750D01*
G75*
G02*
X77567250Y-64788750I0J254000D01*
G01*
X77567250Y-64088750D01*
G75*
G02*
X77821250Y-63834750I254000J0D01*
G01*
G37*
G36*
G01*
X77821250Y-65734750D02*
X79121250Y-65734750D01*
G75*
G02*
X79375250Y-65988750I0J-254000D01*
G01*
X79375250Y-66688750D01*
G75*
G02*
X79121250Y-66942750I-254000J0D01*
G01*
X77821250Y-66942750D01*
G75*
G02*
X77567250Y-66688750I0J254000D01*
G01*
X77567250Y-65988750D01*
G75*
G02*
X77821250Y-65734750I254000J0D01*
G01*
G37*
%TD*%
%TO.C,R41*%
G36*
G01*
X77821250Y-49354750D02*
X79121250Y-49354750D01*
G75*
G02*
X79375250Y-49608750I0J-254000D01*
G01*
X79375250Y-50308750D01*
G75*
G02*
X79121250Y-50562750I-254000J0D01*
G01*
X77821250Y-50562750D01*
G75*
G02*
X77567250Y-50308750I0J254000D01*
G01*
X77567250Y-49608750D01*
G75*
G02*
X77821250Y-49354750I254000J0D01*
G01*
G37*
G36*
G01*
X77821250Y-51254750D02*
X79121250Y-51254750D01*
G75*
G02*
X79375250Y-51508750I0J-254000D01*
G01*
X79375250Y-52208750D01*
G75*
G02*
X79121250Y-52462750I-254000J0D01*
G01*
X77821250Y-52462750D01*
G75*
G02*
X77567250Y-52208750I0J254000D01*
G01*
X77567250Y-51508750D01*
G75*
G02*
X77821250Y-51254750I254000J0D01*
G01*
G37*
%TD*%
%TO.C,R43*%
G36*
G01*
X67746000Y-105150000D02*
X67746000Y-103850000D01*
G75*
G02*
X68000000Y-103596000I254000J0D01*
G01*
X68700000Y-103596000D01*
G75*
G02*
X68954000Y-103850000I0J-254000D01*
G01*
X68954000Y-105150000D01*
G75*
G02*
X68700000Y-105404000I-254000J0D01*
G01*
X68000000Y-105404000D01*
G75*
G02*
X67746000Y-105150000I0J254000D01*
G01*
G37*
G36*
G01*
X69646000Y-105150000D02*
X69646000Y-103850000D01*
G75*
G02*
X69900000Y-103596000I254000J0D01*
G01*
X70600000Y-103596000D01*
G75*
G02*
X70854000Y-103850000I0J-254000D01*
G01*
X70854000Y-105150000D01*
G75*
G02*
X70600000Y-105404000I-254000J0D01*
G01*
X69900000Y-105404000D01*
G75*
G02*
X69646000Y-105150000I0J254000D01*
G01*
G37*
%TD*%
%TO.C,R44*%
G36*
G01*
X82931250Y-97602750D02*
X81631250Y-97602750D01*
G75*
G02*
X81377250Y-97348750I0J254000D01*
G01*
X81377250Y-96648750D01*
G75*
G02*
X81631250Y-96394750I254000J0D01*
G01*
X82931250Y-96394750D01*
G75*
G02*
X83185250Y-96648750I0J-254000D01*
G01*
X83185250Y-97348750D01*
G75*
G02*
X82931250Y-97602750I-254000J0D01*
G01*
G37*
G36*
G01*
X82931250Y-95702750D02*
X81631250Y-95702750D01*
G75*
G02*
X81377250Y-95448750I0J254000D01*
G01*
X81377250Y-94748750D01*
G75*
G02*
X81631250Y-94494750I254000J0D01*
G01*
X82931250Y-94494750D01*
G75*
G02*
X83185250Y-94748750I0J-254000D01*
G01*
X83185250Y-95448750D01*
G75*
G02*
X82931250Y-95702750I-254000J0D01*
G01*
G37*
%TD*%
%TO.C,R46*%
G36*
G01*
X86741250Y-97602750D02*
X85441250Y-97602750D01*
G75*
G02*
X85187250Y-97348750I0J254000D01*
G01*
X85187250Y-96648750D01*
G75*
G02*
X85441250Y-96394750I254000J0D01*
G01*
X86741250Y-96394750D01*
G75*
G02*
X86995250Y-96648750I0J-254000D01*
G01*
X86995250Y-97348750D01*
G75*
G02*
X86741250Y-97602750I-254000J0D01*
G01*
G37*
G36*
G01*
X86741250Y-95702750D02*
X85441250Y-95702750D01*
G75*
G02*
X85187250Y-95448750I0J254000D01*
G01*
X85187250Y-94748750D01*
G75*
G02*
X85441250Y-94494750I254000J0D01*
G01*
X86741250Y-94494750D01*
G75*
G02*
X86995250Y-94748750I0J-254000D01*
G01*
X86995250Y-95448750D01*
G75*
G02*
X86741250Y-95702750I-254000J0D01*
G01*
G37*
%TD*%
%TO.C,R47*%
G36*
G01*
X86741250Y-81422750D02*
X85441250Y-81422750D01*
G75*
G02*
X85187250Y-81168750I0J254000D01*
G01*
X85187250Y-80468750D01*
G75*
G02*
X85441250Y-80214750I254000J0D01*
G01*
X86741250Y-80214750D01*
G75*
G02*
X86995250Y-80468750I0J-254000D01*
G01*
X86995250Y-81168750D01*
G75*
G02*
X86741250Y-81422750I-254000J0D01*
G01*
G37*
G36*
G01*
X86741250Y-79522750D02*
X85441250Y-79522750D01*
G75*
G02*
X85187250Y-79268750I0J254000D01*
G01*
X85187250Y-78568750D01*
G75*
G02*
X85441250Y-78314750I254000J0D01*
G01*
X86741250Y-78314750D01*
G75*
G02*
X86995250Y-78568750I0J-254000D01*
G01*
X86995250Y-79268750D01*
G75*
G02*
X86741250Y-79522750I-254000J0D01*
G01*
G37*
%TD*%
%TO.C,R48*%
G36*
G01*
X86741250Y-66942750D02*
X85441250Y-66942750D01*
G75*
G02*
X85187250Y-66688750I0J254000D01*
G01*
X85187250Y-65988750D01*
G75*
G02*
X85441250Y-65734750I254000J0D01*
G01*
X86741250Y-65734750D01*
G75*
G02*
X86995250Y-65988750I0J-254000D01*
G01*
X86995250Y-66688750D01*
G75*
G02*
X86741250Y-66942750I-254000J0D01*
G01*
G37*
G36*
G01*
X86741250Y-65042750D02*
X85441250Y-65042750D01*
G75*
G02*
X85187250Y-64788750I0J254000D01*
G01*
X85187250Y-64088750D01*
G75*
G02*
X85441250Y-63834750I254000J0D01*
G01*
X86741250Y-63834750D01*
G75*
G02*
X86995250Y-64088750I0J-254000D01*
G01*
X86995250Y-64788750D01*
G75*
G02*
X86741250Y-65042750I-254000J0D01*
G01*
G37*
%TD*%
%TO.C,R49*%
G36*
G01*
X86741250Y-52462750D02*
X85441250Y-52462750D01*
G75*
G02*
X85187250Y-52208750I0J254000D01*
G01*
X85187250Y-51508750D01*
G75*
G02*
X85441250Y-51254750I254000J0D01*
G01*
X86741250Y-51254750D01*
G75*
G02*
X86995250Y-51508750I0J-254000D01*
G01*
X86995250Y-52208750D01*
G75*
G02*
X86741250Y-52462750I-254000J0D01*
G01*
G37*
G36*
G01*
X86741250Y-50562750D02*
X85441250Y-50562750D01*
G75*
G02*
X85187250Y-50308750I0J254000D01*
G01*
X85187250Y-49608750D01*
G75*
G02*
X85441250Y-49354750I254000J0D01*
G01*
X86741250Y-49354750D01*
G75*
G02*
X86995250Y-49608750I0J-254000D01*
G01*
X86995250Y-50308750D01*
G75*
G02*
X86741250Y-50562750I-254000J0D01*
G01*
G37*
%TD*%
%TO.C,R50*%
G36*
G01*
X82931250Y-52462750D02*
X81631250Y-52462750D01*
G75*
G02*
X81377250Y-52208750I0J254000D01*
G01*
X81377250Y-51508750D01*
G75*
G02*
X81631250Y-51254750I254000J0D01*
G01*
X82931250Y-51254750D01*
G75*
G02*
X83185250Y-51508750I0J-254000D01*
G01*
X83185250Y-52208750D01*
G75*
G02*
X82931250Y-52462750I-254000J0D01*
G01*
G37*
G36*
G01*
X82931250Y-50562750D02*
X81631250Y-50562750D01*
G75*
G02*
X81377250Y-50308750I0J254000D01*
G01*
X81377250Y-49608750D01*
G75*
G02*
X81631250Y-49354750I254000J0D01*
G01*
X82931250Y-49354750D01*
G75*
G02*
X83185250Y-49608750I0J-254000D01*
G01*
X83185250Y-50308750D01*
G75*
G02*
X82931250Y-50562750I-254000J0D01*
G01*
G37*
%TD*%
%TO.C,R52*%
G36*
G01*
X93061250Y-94494750D02*
X94361250Y-94494750D01*
G75*
G02*
X94615250Y-94748750I0J-254000D01*
G01*
X94615250Y-95448750D01*
G75*
G02*
X94361250Y-95702750I-254000J0D01*
G01*
X93061250Y-95702750D01*
G75*
G02*
X92807250Y-95448750I0J254000D01*
G01*
X92807250Y-94748750D01*
G75*
G02*
X93061250Y-94494750I254000J0D01*
G01*
G37*
G36*
G01*
X93061250Y-96394750D02*
X94361250Y-96394750D01*
G75*
G02*
X94615250Y-96648750I0J-254000D01*
G01*
X94615250Y-97348750D01*
G75*
G02*
X94361250Y-97602750I-254000J0D01*
G01*
X93061250Y-97602750D01*
G75*
G02*
X92807250Y-97348750I0J254000D01*
G01*
X92807250Y-96648750D01*
G75*
G02*
X93061250Y-96394750I254000J0D01*
G01*
G37*
%TD*%
%TO.C,R53*%
G36*
G01*
X93061250Y-78314750D02*
X94361250Y-78314750D01*
G75*
G02*
X94615250Y-78568750I0J-254000D01*
G01*
X94615250Y-79268750D01*
G75*
G02*
X94361250Y-79522750I-254000J0D01*
G01*
X93061250Y-79522750D01*
G75*
G02*
X92807250Y-79268750I0J254000D01*
G01*
X92807250Y-78568750D01*
G75*
G02*
X93061250Y-78314750I254000J0D01*
G01*
G37*
G36*
G01*
X93061250Y-80214750D02*
X94361250Y-80214750D01*
G75*
G02*
X94615250Y-80468750I0J-254000D01*
G01*
X94615250Y-81168750D01*
G75*
G02*
X94361250Y-81422750I-254000J0D01*
G01*
X93061250Y-81422750D01*
G75*
G02*
X92807250Y-81168750I0J254000D01*
G01*
X92807250Y-80468750D01*
G75*
G02*
X93061250Y-80214750I254000J0D01*
G01*
G37*
%TD*%
%TO.C,R54*%
G36*
G01*
X93061250Y-63834750D02*
X94361250Y-63834750D01*
G75*
G02*
X94615250Y-64088750I0J-254000D01*
G01*
X94615250Y-64788750D01*
G75*
G02*
X94361250Y-65042750I-254000J0D01*
G01*
X93061250Y-65042750D01*
G75*
G02*
X92807250Y-64788750I0J254000D01*
G01*
X92807250Y-64088750D01*
G75*
G02*
X93061250Y-63834750I254000J0D01*
G01*
G37*
G36*
G01*
X93061250Y-65734750D02*
X94361250Y-65734750D01*
G75*
G02*
X94615250Y-65988750I0J-254000D01*
G01*
X94615250Y-66688750D01*
G75*
G02*
X94361250Y-66942750I-254000J0D01*
G01*
X93061250Y-66942750D01*
G75*
G02*
X92807250Y-66688750I0J254000D01*
G01*
X92807250Y-65988750D01*
G75*
G02*
X93061250Y-65734750I254000J0D01*
G01*
G37*
%TD*%
%TO.C,R55*%
G36*
G01*
X93061250Y-49354750D02*
X94361250Y-49354750D01*
G75*
G02*
X94615250Y-49608750I0J-254000D01*
G01*
X94615250Y-50308750D01*
G75*
G02*
X94361250Y-50562750I-254000J0D01*
G01*
X93061250Y-50562750D01*
G75*
G02*
X92807250Y-50308750I0J254000D01*
G01*
X92807250Y-49608750D01*
G75*
G02*
X93061250Y-49354750I254000J0D01*
G01*
G37*
G36*
G01*
X93061250Y-51254750D02*
X94361250Y-51254750D01*
G75*
G02*
X94615250Y-51508750I0J-254000D01*
G01*
X94615250Y-52208750D01*
G75*
G02*
X94361250Y-52462750I-254000J0D01*
G01*
X93061250Y-52462750D01*
G75*
G02*
X92807250Y-52208750I0J254000D01*
G01*
X92807250Y-51508750D01*
G75*
G02*
X93061250Y-51254750I254000J0D01*
G01*
G37*
%TD*%
%TO.C,R57*%
G36*
G01*
X98171250Y-97602750D02*
X96871250Y-97602750D01*
G75*
G02*
X96617250Y-97348750I0J254000D01*
G01*
X96617250Y-96648750D01*
G75*
G02*
X96871250Y-96394750I254000J0D01*
G01*
X98171250Y-96394750D01*
G75*
G02*
X98425250Y-96648750I0J-254000D01*
G01*
X98425250Y-97348750D01*
G75*
G02*
X98171250Y-97602750I-254000J0D01*
G01*
G37*
G36*
G01*
X98171250Y-95702750D02*
X96871250Y-95702750D01*
G75*
G02*
X96617250Y-95448750I0J254000D01*
G01*
X96617250Y-94748750D01*
G75*
G02*
X96871250Y-94494750I254000J0D01*
G01*
X98171250Y-94494750D01*
G75*
G02*
X98425250Y-94748750I0J-254000D01*
G01*
X98425250Y-95448750D01*
G75*
G02*
X98171250Y-95702750I-254000J0D01*
G01*
G37*
%TD*%
%TO.C,R58*%
G36*
G01*
X101981250Y-97602750D02*
X100681250Y-97602750D01*
G75*
G02*
X100427250Y-97348750I0J254000D01*
G01*
X100427250Y-96648750D01*
G75*
G02*
X100681250Y-96394750I254000J0D01*
G01*
X101981250Y-96394750D01*
G75*
G02*
X102235250Y-96648750I0J-254000D01*
G01*
X102235250Y-97348750D01*
G75*
G02*
X101981250Y-97602750I-254000J0D01*
G01*
G37*
G36*
G01*
X101981250Y-95702750D02*
X100681250Y-95702750D01*
G75*
G02*
X100427250Y-95448750I0J254000D01*
G01*
X100427250Y-94748750D01*
G75*
G02*
X100681250Y-94494750I254000J0D01*
G01*
X101981250Y-94494750D01*
G75*
G02*
X102235250Y-94748750I0J-254000D01*
G01*
X102235250Y-95448750D01*
G75*
G02*
X101981250Y-95702750I-254000J0D01*
G01*
G37*
%TD*%
%TO.C,R59*%
G36*
G01*
X101981250Y-81422750D02*
X100681250Y-81422750D01*
G75*
G02*
X100427250Y-81168750I0J254000D01*
G01*
X100427250Y-80468750D01*
G75*
G02*
X100681250Y-80214750I254000J0D01*
G01*
X101981250Y-80214750D01*
G75*
G02*
X102235250Y-80468750I0J-254000D01*
G01*
X102235250Y-81168750D01*
G75*
G02*
X101981250Y-81422750I-254000J0D01*
G01*
G37*
G36*
G01*
X101981250Y-79522750D02*
X100681250Y-79522750D01*
G75*
G02*
X100427250Y-79268750I0J254000D01*
G01*
X100427250Y-78568750D01*
G75*
G02*
X100681250Y-78314750I254000J0D01*
G01*
X101981250Y-78314750D01*
G75*
G02*
X102235250Y-78568750I0J-254000D01*
G01*
X102235250Y-79268750D01*
G75*
G02*
X101981250Y-79522750I-254000J0D01*
G01*
G37*
%TD*%
%TO.C,R60*%
G36*
G01*
X101981250Y-66942750D02*
X100681250Y-66942750D01*
G75*
G02*
X100427250Y-66688750I0J254000D01*
G01*
X100427250Y-65988750D01*
G75*
G02*
X100681250Y-65734750I254000J0D01*
G01*
X101981250Y-65734750D01*
G75*
G02*
X102235250Y-65988750I0J-254000D01*
G01*
X102235250Y-66688750D01*
G75*
G02*
X101981250Y-66942750I-254000J0D01*
G01*
G37*
G36*
G01*
X101981250Y-65042750D02*
X100681250Y-65042750D01*
G75*
G02*
X100427250Y-64788750I0J254000D01*
G01*
X100427250Y-64088750D01*
G75*
G02*
X100681250Y-63834750I254000J0D01*
G01*
X101981250Y-63834750D01*
G75*
G02*
X102235250Y-64088750I0J-254000D01*
G01*
X102235250Y-64788750D01*
G75*
G02*
X101981250Y-65042750I-254000J0D01*
G01*
G37*
%TD*%
%TO.C,R61*%
G36*
G01*
X101981250Y-52462750D02*
X100681250Y-52462750D01*
G75*
G02*
X100427250Y-52208750I0J254000D01*
G01*
X100427250Y-51508750D01*
G75*
G02*
X100681250Y-51254750I254000J0D01*
G01*
X101981250Y-51254750D01*
G75*
G02*
X102235250Y-51508750I0J-254000D01*
G01*
X102235250Y-52208750D01*
G75*
G02*
X101981250Y-52462750I-254000J0D01*
G01*
G37*
G36*
G01*
X101981250Y-50562750D02*
X100681250Y-50562750D01*
G75*
G02*
X100427250Y-50308750I0J254000D01*
G01*
X100427250Y-49608750D01*
G75*
G02*
X100681250Y-49354750I254000J0D01*
G01*
X101981250Y-49354750D01*
G75*
G02*
X102235250Y-49608750I0J-254000D01*
G01*
X102235250Y-50308750D01*
G75*
G02*
X101981250Y-50562750I-254000J0D01*
G01*
G37*
%TD*%
%TO.C,R62*%
G36*
G01*
X98171250Y-52462750D02*
X96871250Y-52462750D01*
G75*
G02*
X96617250Y-52208750I0J254000D01*
G01*
X96617250Y-51508750D01*
G75*
G02*
X96871250Y-51254750I254000J0D01*
G01*
X98171250Y-51254750D01*
G75*
G02*
X98425250Y-51508750I0J-254000D01*
G01*
X98425250Y-52208750D01*
G75*
G02*
X98171250Y-52462750I-254000J0D01*
G01*
G37*
G36*
G01*
X98171250Y-50562750D02*
X96871250Y-50562750D01*
G75*
G02*
X96617250Y-50308750I0J254000D01*
G01*
X96617250Y-49608750D01*
G75*
G02*
X96871250Y-49354750I254000J0D01*
G01*
X98171250Y-49354750D01*
G75*
G02*
X98425250Y-49608750I0J-254000D01*
G01*
X98425250Y-50308750D01*
G75*
G02*
X98171250Y-50562750I-254000J0D01*
G01*
G37*
%TD*%
%TO.C,R70*%
G36*
G01*
X37211250Y-81422750D02*
X35911250Y-81422750D01*
G75*
G02*
X35657250Y-81168750I0J254000D01*
G01*
X35657250Y-80468750D01*
G75*
G02*
X35911250Y-80214750I254000J0D01*
G01*
X37211250Y-80214750D01*
G75*
G02*
X37465250Y-80468750I0J-254000D01*
G01*
X37465250Y-81168750D01*
G75*
G02*
X37211250Y-81422750I-254000J0D01*
G01*
G37*
G36*
G01*
X37211250Y-79522750D02*
X35911250Y-79522750D01*
G75*
G02*
X35657250Y-79268750I0J254000D01*
G01*
X35657250Y-78568750D01*
G75*
G02*
X35911250Y-78314750I254000J0D01*
G01*
X37211250Y-78314750D01*
G75*
G02*
X37465250Y-78568750I0J-254000D01*
G01*
X37465250Y-79268750D01*
G75*
G02*
X37211250Y-79522750I-254000J0D01*
G01*
G37*
%TD*%
%TO.C,R74*%
G36*
G01*
X37211250Y-66942750D02*
X35911250Y-66942750D01*
G75*
G02*
X35657250Y-66688750I0J254000D01*
G01*
X35657250Y-65988750D01*
G75*
G02*
X35911250Y-65734750I254000J0D01*
G01*
X37211250Y-65734750D01*
G75*
G02*
X37465250Y-65988750I0J-254000D01*
G01*
X37465250Y-66688750D01*
G75*
G02*
X37211250Y-66942750I-254000J0D01*
G01*
G37*
G36*
G01*
X37211250Y-65042750D02*
X35911250Y-65042750D01*
G75*
G02*
X35657250Y-64788750I0J254000D01*
G01*
X35657250Y-64088750D01*
G75*
G02*
X35911250Y-63834750I254000J0D01*
G01*
X37211250Y-63834750D01*
G75*
G02*
X37465250Y-64088750I0J-254000D01*
G01*
X37465250Y-64788750D01*
G75*
G02*
X37211250Y-65042750I-254000J0D01*
G01*
G37*
%TD*%
%TO.C,R81*%
G36*
G01*
X52451250Y-81422750D02*
X51151250Y-81422750D01*
G75*
G02*
X50897250Y-81168750I0J254000D01*
G01*
X50897250Y-80468750D01*
G75*
G02*
X51151250Y-80214750I254000J0D01*
G01*
X52451250Y-80214750D01*
G75*
G02*
X52705250Y-80468750I0J-254000D01*
G01*
X52705250Y-81168750D01*
G75*
G02*
X52451250Y-81422750I-254000J0D01*
G01*
G37*
G36*
G01*
X52451250Y-79522750D02*
X51151250Y-79522750D01*
G75*
G02*
X50897250Y-79268750I0J254000D01*
G01*
X50897250Y-78568750D01*
G75*
G02*
X51151250Y-78314750I254000J0D01*
G01*
X52451250Y-78314750D01*
G75*
G02*
X52705250Y-78568750I0J-254000D01*
G01*
X52705250Y-79268750D01*
G75*
G02*
X52451250Y-79522750I-254000J0D01*
G01*
G37*
%TD*%
%TO.C,R86*%
G36*
G01*
X52450000Y-66954000D02*
X51150000Y-66954000D01*
G75*
G02*
X50896000Y-66700000I0J254000D01*
G01*
X50896000Y-66000000D01*
G75*
G02*
X51150000Y-65746000I254000J0D01*
G01*
X52450000Y-65746000D01*
G75*
G02*
X52704000Y-66000000I0J-254000D01*
G01*
X52704000Y-66700000D01*
G75*
G02*
X52450000Y-66954000I-254000J0D01*
G01*
G37*
G36*
G01*
X52450000Y-65054000D02*
X51150000Y-65054000D01*
G75*
G02*
X50896000Y-64800000I0J254000D01*
G01*
X50896000Y-64100000D01*
G75*
G02*
X51150000Y-63846000I254000J0D01*
G01*
X52450000Y-63846000D01*
G75*
G02*
X52704000Y-64100000I0J-254000D01*
G01*
X52704000Y-64800000D01*
G75*
G02*
X52450000Y-65054000I-254000J0D01*
G01*
G37*
%TD*%
%TO.C,R93*%
G36*
G01*
X67691250Y-81422750D02*
X66391250Y-81422750D01*
G75*
G02*
X66137250Y-81168750I0J254000D01*
G01*
X66137250Y-80468750D01*
G75*
G02*
X66391250Y-80214750I254000J0D01*
G01*
X67691250Y-80214750D01*
G75*
G02*
X67945250Y-80468750I0J-254000D01*
G01*
X67945250Y-81168750D01*
G75*
G02*
X67691250Y-81422750I-254000J0D01*
G01*
G37*
G36*
G01*
X67691250Y-79522750D02*
X66391250Y-79522750D01*
G75*
G02*
X66137250Y-79268750I0J254000D01*
G01*
X66137250Y-78568750D01*
G75*
G02*
X66391250Y-78314750I254000J0D01*
G01*
X67691250Y-78314750D01*
G75*
G02*
X67945250Y-78568750I0J-254000D01*
G01*
X67945250Y-79268750D01*
G75*
G02*
X67691250Y-79522750I-254000J0D01*
G01*
G37*
%TD*%
%TO.C,R98*%
G36*
G01*
X67691250Y-66942750D02*
X66391250Y-66942750D01*
G75*
G02*
X66137250Y-66688750I0J254000D01*
G01*
X66137250Y-65988750D01*
G75*
G02*
X66391250Y-65734750I254000J0D01*
G01*
X67691250Y-65734750D01*
G75*
G02*
X67945250Y-65988750I0J-254000D01*
G01*
X67945250Y-66688750D01*
G75*
G02*
X67691250Y-66942750I-254000J0D01*
G01*
G37*
G36*
G01*
X67691250Y-65042750D02*
X66391250Y-65042750D01*
G75*
G02*
X66137250Y-64788750I0J254000D01*
G01*
X66137250Y-64088750D01*
G75*
G02*
X66391250Y-63834750I254000J0D01*
G01*
X67691250Y-63834750D01*
G75*
G02*
X67945250Y-64088750I0J-254000D01*
G01*
X67945250Y-64788750D01*
G75*
G02*
X67691250Y-65042750I-254000J0D01*
G01*
G37*
%TD*%
%TO.C,R107*%
G36*
G01*
X82931250Y-81422750D02*
X81631250Y-81422750D01*
G75*
G02*
X81377250Y-81168750I0J254000D01*
G01*
X81377250Y-80468750D01*
G75*
G02*
X81631250Y-80214750I254000J0D01*
G01*
X82931250Y-80214750D01*
G75*
G02*
X83185250Y-80468750I0J-254000D01*
G01*
X83185250Y-81168750D01*
G75*
G02*
X82931250Y-81422750I-254000J0D01*
G01*
G37*
G36*
G01*
X82931250Y-79522750D02*
X81631250Y-79522750D01*
G75*
G02*
X81377250Y-79268750I0J254000D01*
G01*
X81377250Y-78568750D01*
G75*
G02*
X81631250Y-78314750I254000J0D01*
G01*
X82931250Y-78314750D01*
G75*
G02*
X83185250Y-78568750I0J-254000D01*
G01*
X83185250Y-79268750D01*
G75*
G02*
X82931250Y-79522750I-254000J0D01*
G01*
G37*
%TD*%
%TO.C,R112*%
G36*
G01*
X82931250Y-66942750D02*
X81631250Y-66942750D01*
G75*
G02*
X81377250Y-66688750I0J254000D01*
G01*
X81377250Y-65988750D01*
G75*
G02*
X81631250Y-65734750I254000J0D01*
G01*
X82931250Y-65734750D01*
G75*
G02*
X83185250Y-65988750I0J-254000D01*
G01*
X83185250Y-66688750D01*
G75*
G02*
X82931250Y-66942750I-254000J0D01*
G01*
G37*
G36*
G01*
X82931250Y-65042750D02*
X81631250Y-65042750D01*
G75*
G02*
X81377250Y-64788750I0J254000D01*
G01*
X81377250Y-64088750D01*
G75*
G02*
X81631250Y-63834750I254000J0D01*
G01*
X82931250Y-63834750D01*
G75*
G02*
X83185250Y-64088750I0J-254000D01*
G01*
X83185250Y-64788750D01*
G75*
G02*
X82931250Y-65042750I-254000J0D01*
G01*
G37*
%TD*%
%TO.C,R120*%
G36*
G01*
X98171250Y-81422750D02*
X96871250Y-81422750D01*
G75*
G02*
X96617250Y-81168750I0J254000D01*
G01*
X96617250Y-80468750D01*
G75*
G02*
X96871250Y-80214750I254000J0D01*
G01*
X98171250Y-80214750D01*
G75*
G02*
X98425250Y-80468750I0J-254000D01*
G01*
X98425250Y-81168750D01*
G75*
G02*
X98171250Y-81422750I-254000J0D01*
G01*
G37*
G36*
G01*
X98171250Y-79522750D02*
X96871250Y-79522750D01*
G75*
G02*
X96617250Y-79268750I0J254000D01*
G01*
X96617250Y-78568750D01*
G75*
G02*
X96871250Y-78314750I254000J0D01*
G01*
X98171250Y-78314750D01*
G75*
G02*
X98425250Y-78568750I0J-254000D01*
G01*
X98425250Y-79268750D01*
G75*
G02*
X98171250Y-79522750I-254000J0D01*
G01*
G37*
%TD*%
%TO.C,R124*%
G36*
G01*
X98171250Y-66942750D02*
X96871250Y-66942750D01*
G75*
G02*
X96617250Y-66688750I0J254000D01*
G01*
X96617250Y-65988750D01*
G75*
G02*
X96871250Y-65734750I254000J0D01*
G01*
X98171250Y-65734750D01*
G75*
G02*
X98425250Y-65988750I0J-254000D01*
G01*
X98425250Y-66688750D01*
G75*
G02*
X98171250Y-66942750I-254000J0D01*
G01*
G37*
G36*
G01*
X98171250Y-65042750D02*
X96871250Y-65042750D01*
G75*
G02*
X96617250Y-64788750I0J254000D01*
G01*
X96617250Y-64088750D01*
G75*
G02*
X96871250Y-63834750I254000J0D01*
G01*
X98171250Y-63834750D01*
G75*
G02*
X98425250Y-64088750I0J-254000D01*
G01*
X98425250Y-64788750D01*
G75*
G02*
X98171250Y-65042750I-254000J0D01*
G01*
G37*
%TD*%
%TO.C,Y1*%
G36*
G01*
X49454000Y-101550000D02*
X49454000Y-102850000D01*
G75*
G02*
X49200000Y-103104000I-254000J0D01*
G01*
X48800000Y-103104000D01*
G75*
G02*
X48546000Y-102850000I0J254000D01*
G01*
X48546000Y-101550000D01*
G75*
G02*
X48800000Y-101296000I254000J0D01*
G01*
X49200000Y-101296000D01*
G75*
G02*
X49454000Y-101550000I0J-254000D01*
G01*
G37*
G36*
G01*
X47054000Y-101550000D02*
X47054000Y-102850000D01*
G75*
G02*
X46800000Y-103104000I-254000J0D01*
G01*
X46400000Y-103104000D01*
G75*
G02*
X46146000Y-102850000I0J254000D01*
G01*
X46146000Y-101550000D01*
G75*
G02*
X46400000Y-101296000I254000J0D01*
G01*
X46800000Y-101296000D01*
G75*
G02*
X47054000Y-101550000I0J-254000D01*
G01*
G37*
G36*
G01*
X48254000Y-101550000D02*
X48254000Y-102850000D01*
G75*
G02*
X48000000Y-103104000I-254000J0D01*
G01*
X47600000Y-103104000D01*
G75*
G02*
X47346000Y-102850000I0J254000D01*
G01*
X47346000Y-101550000D01*
G75*
G02*
X47600000Y-101296000I254000J0D01*
G01*
X48000000Y-101296000D01*
G75*
G02*
X48254000Y-101550000I0J-254000D01*
G01*
G37*
%TD*%
%TO.C,C10*%
G36*
G01*
X59675000Y-105196000D02*
X60925000Y-105196000D01*
G75*
G02*
X61179000Y-105450000I0J-254000D01*
G01*
X61179000Y-106450000D01*
G75*
G02*
X60925000Y-106704000I-254000J0D01*
G01*
X59675000Y-106704000D01*
G75*
G02*
X59421000Y-106450000I0J254000D01*
G01*
X59421000Y-105450000D01*
G75*
G02*
X59675000Y-105196000I254000J0D01*
G01*
G37*
G36*
G01*
X59675000Y-107196000D02*
X60925000Y-107196000D01*
G75*
G02*
X61179000Y-107450000I0J-254000D01*
G01*
X61179000Y-108450000D01*
G75*
G02*
X60925000Y-108704000I-254000J0D01*
G01*
X59675000Y-108704000D01*
G75*
G02*
X59421000Y-108450000I0J254000D01*
G01*
X59421000Y-107450000D01*
G75*
G02*
X59675000Y-107196000I254000J0D01*
G01*
G37*
%TD*%
%TO.C,U6*%
G36*
G01*
X61687000Y-105046500D02*
X61687000Y-103903500D01*
G75*
G02*
X61941000Y-103649500I254000J0D01*
G01*
X62449000Y-103649500D01*
G75*
G02*
X62703000Y-103903500I0J-254000D01*
G01*
X62703000Y-105046500D01*
G75*
G02*
X62449000Y-105300500I-254000J0D01*
G01*
X61941000Y-105300500D01*
G75*
G02*
X61687000Y-105046500I0J254000D01*
G01*
G37*
G36*
G01*
X62957000Y-105046500D02*
X62957000Y-103903500D01*
G75*
G02*
X63211000Y-103649500I254000J0D01*
G01*
X63719000Y-103649500D01*
G75*
G02*
X63973000Y-103903500I0J-254000D01*
G01*
X63973000Y-105046500D01*
G75*
G02*
X63719000Y-105300500I-254000J0D01*
G01*
X63211000Y-105300500D01*
G75*
G02*
X62957000Y-105046500I0J254000D01*
G01*
G37*
G36*
G01*
X64227000Y-105046500D02*
X64227000Y-103903500D01*
G75*
G02*
X64481000Y-103649500I254000J0D01*
G01*
X64989000Y-103649500D01*
G75*
G02*
X65243000Y-103903500I0J-254000D01*
G01*
X65243000Y-105046500D01*
G75*
G02*
X64989000Y-105300500I-254000J0D01*
G01*
X64481000Y-105300500D01*
G75*
G02*
X64227000Y-105046500I0J254000D01*
G01*
G37*
G36*
G01*
X65497000Y-105046500D02*
X65497000Y-103903500D01*
G75*
G02*
X65751000Y-103649500I254000J0D01*
G01*
X66259000Y-103649500D01*
G75*
G02*
X66513000Y-103903500I0J-254000D01*
G01*
X66513000Y-105046500D01*
G75*
G02*
X66259000Y-105300500I-254000J0D01*
G01*
X65751000Y-105300500D01*
G75*
G02*
X65497000Y-105046500I0J254000D01*
G01*
G37*
G36*
G01*
X65497000Y-111396500D02*
X65497000Y-110253500D01*
G75*
G02*
X65751000Y-109999500I254000J0D01*
G01*
X66259000Y-109999500D01*
G75*
G02*
X66513000Y-110253500I0J-254000D01*
G01*
X66513000Y-111396500D01*
G75*
G02*
X66259000Y-111650500I-254000J0D01*
G01*
X65751000Y-111650500D01*
G75*
G02*
X65497000Y-111396500I0J254000D01*
G01*
G37*
G36*
G01*
X64227000Y-111396500D02*
X64227000Y-110253500D01*
G75*
G02*
X64481000Y-109999500I254000J0D01*
G01*
X64989000Y-109999500D01*
G75*
G02*
X65243000Y-110253500I0J-254000D01*
G01*
X65243000Y-111396500D01*
G75*
G02*
X64989000Y-111650500I-254000J0D01*
G01*
X64481000Y-111650500D01*
G75*
G02*
X64227000Y-111396500I0J254000D01*
G01*
G37*
G36*
G01*
X62957000Y-111396500D02*
X62957000Y-110253500D01*
G75*
G02*
X63211000Y-109999500I254000J0D01*
G01*
X63719000Y-109999500D01*
G75*
G02*
X63973000Y-110253500I0J-254000D01*
G01*
X63973000Y-111396500D01*
G75*
G02*
X63719000Y-111650500I-254000J0D01*
G01*
X63211000Y-111650500D01*
G75*
G02*
X62957000Y-111396500I0J254000D01*
G01*
G37*
G36*
G01*
X61687000Y-111396500D02*
X61687000Y-110253500D01*
G75*
G02*
X61941000Y-109999500I254000J0D01*
G01*
X62449000Y-109999500D01*
G75*
G02*
X62703000Y-110253500I0J-254000D01*
G01*
X62703000Y-111396500D01*
G75*
G02*
X62449000Y-111650500I-254000J0D01*
G01*
X61941000Y-111650500D01*
G75*
G02*
X61687000Y-111396500I0J254000D01*
G01*
G37*
%TD*%
D12*
%TO.C,P3*%
X28000000Y-27000000D03*
%TD*%
%TO.C,P4*%
X104000000Y-27000000D03*
%TD*%
%TO.C,P5*%
X28000000Y-111000000D03*
%TD*%
%TO.C,P6*%
X104000000Y-111000000D03*
%TD*%
%TO.C,JP1*%
G36*
G01*
X70654000Y-110150000D02*
X70654000Y-111450000D01*
G75*
G02*
X70400000Y-111704000I-254000J0D01*
G01*
X69700000Y-111704000D01*
G75*
G02*
X69446000Y-111450000I0J254000D01*
G01*
X69446000Y-110150000D01*
G75*
G02*
X69700000Y-109896000I254000J0D01*
G01*
X70400000Y-109896000D01*
G75*
G02*
X70654000Y-110150000I0J-254000D01*
G01*
G37*
G36*
G01*
X68754000Y-110150000D02*
X68754000Y-111450000D01*
G75*
G02*
X68500000Y-111704000I-254000J0D01*
G01*
X67800000Y-111704000D01*
G75*
G02*
X67546000Y-111450000I0J254000D01*
G01*
X67546000Y-110150000D01*
G75*
G02*
X67800000Y-109896000I254000J0D01*
G01*
X68500000Y-109896000D01*
G75*
G02*
X68754000Y-110150000I0J-254000D01*
G01*
G37*
%TD*%
%TO.C,R99*%
G36*
G01*
X36171000Y-112075000D02*
X36171000Y-110775000D01*
G75*
G02*
X36425000Y-110521000I254000J0D01*
G01*
X37125000Y-110521000D01*
G75*
G02*
X37379000Y-110775000I0J-254000D01*
G01*
X37379000Y-112075000D01*
G75*
G02*
X37125000Y-112329000I-254000J0D01*
G01*
X36425000Y-112329000D01*
G75*
G02*
X36171000Y-112075000I0J254000D01*
G01*
G37*
G36*
G01*
X38071000Y-112075000D02*
X38071000Y-110775000D01*
G75*
G02*
X38325000Y-110521000I254000J0D01*
G01*
X39025000Y-110521000D01*
G75*
G02*
X39279000Y-110775000I0J-254000D01*
G01*
X39279000Y-112075000D01*
G75*
G02*
X39025000Y-112329000I-254000J0D01*
G01*
X38325000Y-112329000D01*
G75*
G02*
X38071000Y-112075000I0J254000D01*
G01*
G37*
%TD*%
%TO.C,R100*%
G36*
G01*
X36196000Y-114125000D02*
X36196000Y-112825000D01*
G75*
G02*
X36450000Y-112571000I254000J0D01*
G01*
X37150000Y-112571000D01*
G75*
G02*
X37404000Y-112825000I0J-254000D01*
G01*
X37404000Y-114125000D01*
G75*
G02*
X37150000Y-114379000I-254000J0D01*
G01*
X36450000Y-114379000D01*
G75*
G02*
X36196000Y-114125000I0J254000D01*
G01*
G37*
G36*
G01*
X38096000Y-114125000D02*
X38096000Y-112825000D01*
G75*
G02*
X38350000Y-112571000I254000J0D01*
G01*
X39050000Y-112571000D01*
G75*
G02*
X39304000Y-112825000I0J-254000D01*
G01*
X39304000Y-114125000D01*
G75*
G02*
X39050000Y-114379000I-254000J0D01*
G01*
X38350000Y-114379000D01*
G75*
G02*
X38096000Y-114125000I0J254000D01*
G01*
G37*
%TD*%
%TO.C,R125*%
G36*
G01*
X33171000Y-112075000D02*
X33171000Y-110775000D01*
G75*
G02*
X33425000Y-110521000I254000J0D01*
G01*
X34125000Y-110521000D01*
G75*
G02*
X34379000Y-110775000I0J-254000D01*
G01*
X34379000Y-112075000D01*
G75*
G02*
X34125000Y-112329000I-254000J0D01*
G01*
X33425000Y-112329000D01*
G75*
G02*
X33171000Y-112075000I0J254000D01*
G01*
G37*
G36*
G01*
X35071000Y-112075000D02*
X35071000Y-110775000D01*
G75*
G02*
X35325000Y-110521000I254000J0D01*
G01*
X36025000Y-110521000D01*
G75*
G02*
X36279000Y-110775000I0J-254000D01*
G01*
X36279000Y-112075000D01*
G75*
G02*
X36025000Y-112329000I-254000J0D01*
G01*
X35325000Y-112329000D01*
G75*
G02*
X35071000Y-112075000I0J254000D01*
G01*
G37*
%TD*%
%TO.C,R126*%
G36*
G01*
X33171000Y-114125000D02*
X33171000Y-112825000D01*
G75*
G02*
X33425000Y-112571000I254000J0D01*
G01*
X34125000Y-112571000D01*
G75*
G02*
X34379000Y-112825000I0J-254000D01*
G01*
X34379000Y-114125000D01*
G75*
G02*
X34125000Y-114379000I-254000J0D01*
G01*
X33425000Y-114379000D01*
G75*
G02*
X33171000Y-114125000I0J254000D01*
G01*
G37*
G36*
G01*
X35071000Y-114125000D02*
X35071000Y-112825000D01*
G75*
G02*
X35325000Y-112571000I254000J0D01*
G01*
X36025000Y-112571000D01*
G75*
G02*
X36279000Y-112825000I0J-254000D01*
G01*
X36279000Y-114125000D01*
G75*
G02*
X36025000Y-114379000I-254000J0D01*
G01*
X35325000Y-114379000D01*
G75*
G02*
X35071000Y-114125000I0J254000D01*
G01*
G37*
%TD*%
%TO.C,P7*%
G36*
G01*
X95617700Y-30277100D02*
X95617700Y-29134100D01*
G75*
G02*
X95871700Y-28880100I254000J0D01*
G01*
X96608300Y-28880100D01*
G75*
G02*
X96862300Y-29134100I0J-254000D01*
G01*
X96862300Y-30277100D01*
G75*
G02*
X96608300Y-30531100I-254000J0D01*
G01*
X95871700Y-30531100D01*
G75*
G02*
X95617700Y-30277100I0J254000D01*
G01*
G37*
G36*
G01*
X95617700Y-31801100D02*
X95617700Y-30658100D01*
G75*
G02*
X95871700Y-30404100I254000J0D01*
G01*
X96608300Y-30404100D01*
G75*
G02*
X96862300Y-30658100I0J-254000D01*
G01*
X96862300Y-31801100D01*
G75*
G02*
X96608300Y-32055100I-254000J0D01*
G01*
X95871700Y-32055100D01*
G75*
G02*
X95617700Y-31801100I0J254000D01*
G01*
G37*
G36*
G01*
X94347700Y-30277100D02*
X94347700Y-29134100D01*
G75*
G02*
X94601700Y-28880100I254000J0D01*
G01*
X95338300Y-28880100D01*
G75*
G02*
X95592300Y-29134100I0J-254000D01*
G01*
X95592300Y-30277100D01*
G75*
G02*
X95338300Y-30531100I-254000J0D01*
G01*
X94601700Y-30531100D01*
G75*
G02*
X94347700Y-30277100I0J254000D01*
G01*
G37*
G36*
G01*
X94347700Y-31801100D02*
X94347700Y-30658100D01*
G75*
G02*
X94601700Y-30404100I254000J0D01*
G01*
X95338300Y-30404100D01*
G75*
G02*
X95592300Y-30658100I0J-254000D01*
G01*
X95592300Y-31801100D01*
G75*
G02*
X95338300Y-32055100I-254000J0D01*
G01*
X94601700Y-32055100D01*
G75*
G02*
X94347700Y-31801100I0J254000D01*
G01*
G37*
G36*
G01*
X93077700Y-30277100D02*
X93077700Y-29134100D01*
G75*
G02*
X93331700Y-28880100I254000J0D01*
G01*
X94068300Y-28880100D01*
G75*
G02*
X94322300Y-29134100I0J-254000D01*
G01*
X94322300Y-30277100D01*
G75*
G02*
X94068300Y-30531100I-254000J0D01*
G01*
X93331700Y-30531100D01*
G75*
G02*
X93077700Y-30277100I0J254000D01*
G01*
G37*
G36*
G01*
X93077700Y-31801100D02*
X93077700Y-30658100D01*
G75*
G02*
X93331700Y-30404100I254000J0D01*
G01*
X94068300Y-30404100D01*
G75*
G02*
X94322300Y-30658100I0J-254000D01*
G01*
X94322300Y-31801100D01*
G75*
G02*
X94068300Y-32055100I-254000J0D01*
G01*
X93331700Y-32055100D01*
G75*
G02*
X93077700Y-31801100I0J254000D01*
G01*
G37*
G36*
G01*
X91807700Y-30277100D02*
X91807700Y-29134100D01*
G75*
G02*
X92061700Y-28880100I254000J0D01*
G01*
X92798300Y-28880100D01*
G75*
G02*
X93052300Y-29134100I0J-254000D01*
G01*
X93052300Y-30277100D01*
G75*
G02*
X92798300Y-30531100I-254000J0D01*
G01*
X92061700Y-30531100D01*
G75*
G02*
X91807700Y-30277100I0J254000D01*
G01*
G37*
G36*
G01*
X91807700Y-31801100D02*
X91807700Y-30658100D01*
G75*
G02*
X92061700Y-30404100I254000J0D01*
G01*
X92798300Y-30404100D01*
G75*
G02*
X93052300Y-30658100I0J-254000D01*
G01*
X93052300Y-31801100D01*
G75*
G02*
X92798300Y-32055100I-254000J0D01*
G01*
X92061700Y-32055100D01*
G75*
G02*
X91807700Y-31801100I0J254000D01*
G01*
G37*
G36*
G01*
X90537700Y-30277100D02*
X90537700Y-29134100D01*
G75*
G02*
X90791700Y-28880100I254000J0D01*
G01*
X91528300Y-28880100D01*
G75*
G02*
X91782300Y-29134100I0J-254000D01*
G01*
X91782300Y-30277100D01*
G75*
G02*
X91528300Y-30531100I-254000J0D01*
G01*
X90791700Y-30531100D01*
G75*
G02*
X90537700Y-30277100I0J254000D01*
G01*
G37*
G36*
G01*
X90537700Y-31801100D02*
X90537700Y-30658100D01*
G75*
G02*
X90791700Y-30404100I254000J0D01*
G01*
X91528300Y-30404100D01*
G75*
G02*
X91782300Y-30658100I0J-254000D01*
G01*
X91782300Y-31801100D01*
G75*
G02*
X91528300Y-32055100I-254000J0D01*
G01*
X90791700Y-32055100D01*
G75*
G02*
X90537700Y-31801100I0J254000D01*
G01*
G37*
G36*
G01*
X89267700Y-30277100D02*
X89267700Y-29134100D01*
G75*
G02*
X89521700Y-28880100I254000J0D01*
G01*
X90258300Y-28880100D01*
G75*
G02*
X90512300Y-29134100I0J-254000D01*
G01*
X90512300Y-30277100D01*
G75*
G02*
X90258300Y-30531100I-254000J0D01*
G01*
X89521700Y-30531100D01*
G75*
G02*
X89267700Y-30277100I0J254000D01*
G01*
G37*
G36*
G01*
X89267700Y-31801100D02*
X89267700Y-30658100D01*
G75*
G02*
X89521700Y-30404100I254000J0D01*
G01*
X90258300Y-30404100D01*
G75*
G02*
X90512300Y-30658100I0J-254000D01*
G01*
X90512300Y-31801100D01*
G75*
G02*
X90258300Y-32055100I-254000J0D01*
G01*
X89521700Y-32055100D01*
G75*
G02*
X89267700Y-31801100I0J254000D01*
G01*
G37*
G36*
G01*
X87997700Y-30277100D02*
X87997700Y-29134100D01*
G75*
G02*
X88251700Y-28880100I254000J0D01*
G01*
X88988300Y-28880100D01*
G75*
G02*
X89242300Y-29134100I0J-254000D01*
G01*
X89242300Y-30277100D01*
G75*
G02*
X88988300Y-30531100I-254000J0D01*
G01*
X88251700Y-30531100D01*
G75*
G02*
X87997700Y-30277100I0J254000D01*
G01*
G37*
G36*
G01*
X87997700Y-31801100D02*
X87997700Y-30658100D01*
G75*
G02*
X88251700Y-30404100I254000J0D01*
G01*
X88988300Y-30404100D01*
G75*
G02*
X89242300Y-30658100I0J-254000D01*
G01*
X89242300Y-31801100D01*
G75*
G02*
X88988300Y-32055100I-254000J0D01*
G01*
X88251700Y-32055100D01*
G75*
G02*
X87997700Y-31801100I0J254000D01*
G01*
G37*
G36*
G01*
X86727700Y-30277100D02*
X86727700Y-29134100D01*
G75*
G02*
X86981700Y-28880100I254000J0D01*
G01*
X87718300Y-28880100D01*
G75*
G02*
X87972300Y-29134100I0J-254000D01*
G01*
X87972300Y-30277100D01*
G75*
G02*
X87718300Y-30531100I-254000J0D01*
G01*
X86981700Y-30531100D01*
G75*
G02*
X86727700Y-30277100I0J254000D01*
G01*
G37*
G36*
G01*
X86727700Y-31801100D02*
X86727700Y-30658100D01*
G75*
G02*
X86981700Y-30404100I254000J0D01*
G01*
X87718300Y-30404100D01*
G75*
G02*
X87972300Y-30658100I0J-254000D01*
G01*
X87972300Y-31801100D01*
G75*
G02*
X87718300Y-32055100I-254000J0D01*
G01*
X86981700Y-32055100D01*
G75*
G02*
X86727700Y-31801100I0J254000D01*
G01*
G37*
G36*
G01*
X85457700Y-30277100D02*
X85457700Y-29134100D01*
G75*
G02*
X85711700Y-28880100I254000J0D01*
G01*
X86448300Y-28880100D01*
G75*
G02*
X86702300Y-29134100I0J-254000D01*
G01*
X86702300Y-30277100D01*
G75*
G02*
X86448300Y-30531100I-254000J0D01*
G01*
X85711700Y-30531100D01*
G75*
G02*
X85457700Y-30277100I0J254000D01*
G01*
G37*
G36*
G01*
X85457700Y-31801100D02*
X85457700Y-30658100D01*
G75*
G02*
X85711700Y-30404100I254000J0D01*
G01*
X86448300Y-30404100D01*
G75*
G02*
X86702300Y-30658100I0J-254000D01*
G01*
X86702300Y-31801100D01*
G75*
G02*
X86448300Y-32055100I-254000J0D01*
G01*
X85711700Y-32055100D01*
G75*
G02*
X85457700Y-31801100I0J254000D01*
G01*
G37*
G36*
G01*
X84187700Y-30277100D02*
X84187700Y-29134100D01*
G75*
G02*
X84441700Y-28880100I254000J0D01*
G01*
X85178300Y-28880100D01*
G75*
G02*
X85432300Y-29134100I0J-254000D01*
G01*
X85432300Y-30277100D01*
G75*
G02*
X85178300Y-30531100I-254000J0D01*
G01*
X84441700Y-30531100D01*
G75*
G02*
X84187700Y-30277100I0J254000D01*
G01*
G37*
G36*
G01*
X84187700Y-31801100D02*
X84187700Y-30658100D01*
G75*
G02*
X84441700Y-30404100I254000J0D01*
G01*
X85178300Y-30404100D01*
G75*
G02*
X85432300Y-30658100I0J-254000D01*
G01*
X85432300Y-31801100D01*
G75*
G02*
X85178300Y-32055100I-254000J0D01*
G01*
X84441700Y-32055100D01*
G75*
G02*
X84187700Y-31801100I0J254000D01*
G01*
G37*
G36*
G01*
X82917700Y-30277100D02*
X82917700Y-29134100D01*
G75*
G02*
X83171700Y-28880100I254000J0D01*
G01*
X83908300Y-28880100D01*
G75*
G02*
X84162300Y-29134100I0J-254000D01*
G01*
X84162300Y-30277100D01*
G75*
G02*
X83908300Y-30531100I-254000J0D01*
G01*
X83171700Y-30531100D01*
G75*
G02*
X82917700Y-30277100I0J254000D01*
G01*
G37*
G36*
G01*
X82917700Y-31801100D02*
X82917700Y-30658100D01*
G75*
G02*
X83171700Y-30404100I254000J0D01*
G01*
X83908300Y-30404100D01*
G75*
G02*
X84162300Y-30658100I0J-254000D01*
G01*
X84162300Y-31801100D01*
G75*
G02*
X83908300Y-32055100I-254000J0D01*
G01*
X83171700Y-32055100D01*
G75*
G02*
X82917700Y-31801100I0J254000D01*
G01*
G37*
G36*
G01*
X81647700Y-30277100D02*
X81647700Y-29134100D01*
G75*
G02*
X81901700Y-28880100I254000J0D01*
G01*
X82638300Y-28880100D01*
G75*
G02*
X82892300Y-29134100I0J-254000D01*
G01*
X82892300Y-30277100D01*
G75*
G02*
X82638300Y-30531100I-254000J0D01*
G01*
X81901700Y-30531100D01*
G75*
G02*
X81647700Y-30277100I0J254000D01*
G01*
G37*
G36*
G01*
X81647700Y-31801100D02*
X81647700Y-30658100D01*
G75*
G02*
X81901700Y-30404100I254000J0D01*
G01*
X82638300Y-30404100D01*
G75*
G02*
X82892300Y-30658100I0J-254000D01*
G01*
X82892300Y-31801100D01*
G75*
G02*
X82638300Y-32055100I-254000J0D01*
G01*
X81901700Y-32055100D01*
G75*
G02*
X81647700Y-31801100I0J254000D01*
G01*
G37*
G36*
G01*
X80377700Y-30277100D02*
X80377700Y-29134100D01*
G75*
G02*
X80631700Y-28880100I254000J0D01*
G01*
X81368300Y-28880100D01*
G75*
G02*
X81622300Y-29134100I0J-254000D01*
G01*
X81622300Y-30277100D01*
G75*
G02*
X81368300Y-30531100I-254000J0D01*
G01*
X80631700Y-30531100D01*
G75*
G02*
X80377700Y-30277100I0J254000D01*
G01*
G37*
G36*
G01*
X80377700Y-31801100D02*
X80377700Y-30658100D01*
G75*
G02*
X80631700Y-30404100I254000J0D01*
G01*
X81368300Y-30404100D01*
G75*
G02*
X81622300Y-30658100I0J-254000D01*
G01*
X81622300Y-31801100D01*
G75*
G02*
X81368300Y-32055100I-254000J0D01*
G01*
X80631700Y-32055100D01*
G75*
G02*
X80377700Y-31801100I0J254000D01*
G01*
G37*
G36*
G01*
X79107700Y-30277100D02*
X79107700Y-29134100D01*
G75*
G02*
X79361700Y-28880100I254000J0D01*
G01*
X80098300Y-28880100D01*
G75*
G02*
X80352300Y-29134100I0J-254000D01*
G01*
X80352300Y-30277100D01*
G75*
G02*
X80098300Y-30531100I-254000J0D01*
G01*
X79361700Y-30531100D01*
G75*
G02*
X79107700Y-30277100I0J254000D01*
G01*
G37*
G36*
G01*
X79107700Y-31801100D02*
X79107700Y-30658100D01*
G75*
G02*
X79361700Y-30404100I254000J0D01*
G01*
X80098300Y-30404100D01*
G75*
G02*
X80352300Y-30658100I0J-254000D01*
G01*
X80352300Y-31801100D01*
G75*
G02*
X80098300Y-32055100I-254000J0D01*
G01*
X79361700Y-32055100D01*
G75*
G02*
X79107700Y-31801100I0J254000D01*
G01*
G37*
G36*
G01*
X77837700Y-30277100D02*
X77837700Y-29134100D01*
G75*
G02*
X78091700Y-28880100I254000J0D01*
G01*
X78828300Y-28880100D01*
G75*
G02*
X79082300Y-29134100I0J-254000D01*
G01*
X79082300Y-30277100D01*
G75*
G02*
X78828300Y-30531100I-254000J0D01*
G01*
X78091700Y-30531100D01*
G75*
G02*
X77837700Y-30277100I0J254000D01*
G01*
G37*
G36*
G01*
X77837700Y-31801100D02*
X77837700Y-30658100D01*
G75*
G02*
X78091700Y-30404100I254000J0D01*
G01*
X78828300Y-30404100D01*
G75*
G02*
X79082300Y-30658100I0J-254000D01*
G01*
X79082300Y-31801100D01*
G75*
G02*
X78828300Y-32055100I-254000J0D01*
G01*
X78091700Y-32055100D01*
G75*
G02*
X77837700Y-31801100I0J254000D01*
G01*
G37*
G36*
G01*
X76567700Y-30277100D02*
X76567700Y-29134100D01*
G75*
G02*
X76821700Y-28880100I254000J0D01*
G01*
X77558300Y-28880100D01*
G75*
G02*
X77812300Y-29134100I0J-254000D01*
G01*
X77812300Y-30277100D01*
G75*
G02*
X77558300Y-30531100I-254000J0D01*
G01*
X76821700Y-30531100D01*
G75*
G02*
X76567700Y-30277100I0J254000D01*
G01*
G37*
G36*
G01*
X76567700Y-31801100D02*
X76567700Y-30658100D01*
G75*
G02*
X76821700Y-30404100I254000J0D01*
G01*
X77558300Y-30404100D01*
G75*
G02*
X77812300Y-30658100I0J-254000D01*
G01*
X77812300Y-31801100D01*
G75*
G02*
X77558300Y-32055100I-254000J0D01*
G01*
X76821700Y-32055100D01*
G75*
G02*
X76567700Y-31801100I0J254000D01*
G01*
G37*
G36*
G01*
X75297700Y-30277100D02*
X75297700Y-29134100D01*
G75*
G02*
X75551700Y-28880100I254000J0D01*
G01*
X76288300Y-28880100D01*
G75*
G02*
X76542300Y-29134100I0J-254000D01*
G01*
X76542300Y-30277100D01*
G75*
G02*
X76288300Y-30531100I-254000J0D01*
G01*
X75551700Y-30531100D01*
G75*
G02*
X75297700Y-30277100I0J254000D01*
G01*
G37*
G36*
G01*
X75297700Y-31801100D02*
X75297700Y-30658100D01*
G75*
G02*
X75551700Y-30404100I254000J0D01*
G01*
X76288300Y-30404100D01*
G75*
G02*
X76542300Y-30658100I0J-254000D01*
G01*
X76542300Y-31801100D01*
G75*
G02*
X76288300Y-32055100I-254000J0D01*
G01*
X75551700Y-32055100D01*
G75*
G02*
X75297700Y-31801100I0J254000D01*
G01*
G37*
G36*
G01*
X74027700Y-30277100D02*
X74027700Y-29134100D01*
G75*
G02*
X74281700Y-28880100I254000J0D01*
G01*
X75018300Y-28880100D01*
G75*
G02*
X75272300Y-29134100I0J-254000D01*
G01*
X75272300Y-30277100D01*
G75*
G02*
X75018300Y-30531100I-254000J0D01*
G01*
X74281700Y-30531100D01*
G75*
G02*
X74027700Y-30277100I0J254000D01*
G01*
G37*
G36*
G01*
X74027700Y-31801100D02*
X74027700Y-30658100D01*
G75*
G02*
X74281700Y-30404100I254000J0D01*
G01*
X75018300Y-30404100D01*
G75*
G02*
X75272300Y-30658100I0J-254000D01*
G01*
X75272300Y-31801100D01*
G75*
G02*
X75018300Y-32055100I-254000J0D01*
G01*
X74281700Y-32055100D01*
G75*
G02*
X74027700Y-31801100I0J254000D01*
G01*
G37*
G36*
G01*
X72757700Y-30277100D02*
X72757700Y-29134100D01*
G75*
G02*
X73011700Y-28880100I254000J0D01*
G01*
X73748300Y-28880100D01*
G75*
G02*
X74002300Y-29134100I0J-254000D01*
G01*
X74002300Y-30277100D01*
G75*
G02*
X73748300Y-30531100I-254000J0D01*
G01*
X73011700Y-30531100D01*
G75*
G02*
X72757700Y-30277100I0J254000D01*
G01*
G37*
G36*
G01*
X72757700Y-31801100D02*
X72757700Y-30658100D01*
G75*
G02*
X73011700Y-30404100I254000J0D01*
G01*
X73748300Y-30404100D01*
G75*
G02*
X74002300Y-30658100I0J-254000D01*
G01*
X74002300Y-31801100D01*
G75*
G02*
X73748300Y-32055100I-254000J0D01*
G01*
X73011700Y-32055100D01*
G75*
G02*
X72757700Y-31801100I0J254000D01*
G01*
G37*
G36*
G01*
X71487700Y-30277100D02*
X71487700Y-29134100D01*
G75*
G02*
X71741700Y-28880100I254000J0D01*
G01*
X72478300Y-28880100D01*
G75*
G02*
X72732300Y-29134100I0J-254000D01*
G01*
X72732300Y-30277100D01*
G75*
G02*
X72478300Y-30531100I-254000J0D01*
G01*
X71741700Y-30531100D01*
G75*
G02*
X71487700Y-30277100I0J254000D01*
G01*
G37*
G36*
G01*
X71487700Y-31801100D02*
X71487700Y-30658100D01*
G75*
G02*
X71741700Y-30404100I254000J0D01*
G01*
X72478300Y-30404100D01*
G75*
G02*
X72732300Y-30658100I0J-254000D01*
G01*
X72732300Y-31801100D01*
G75*
G02*
X72478300Y-32055100I-254000J0D01*
G01*
X71741700Y-32055100D01*
G75*
G02*
X71487700Y-31801100I0J254000D01*
G01*
G37*
G36*
G01*
X70217700Y-30277100D02*
X70217700Y-29134100D01*
G75*
G02*
X70471700Y-28880100I254000J0D01*
G01*
X71208300Y-28880100D01*
G75*
G02*
X71462300Y-29134100I0J-254000D01*
G01*
X71462300Y-30277100D01*
G75*
G02*
X71208300Y-30531100I-254000J0D01*
G01*
X70471700Y-30531100D01*
G75*
G02*
X70217700Y-30277100I0J254000D01*
G01*
G37*
G36*
G01*
X70217700Y-31801100D02*
X70217700Y-30658100D01*
G75*
G02*
X70471700Y-30404100I254000J0D01*
G01*
X71208300Y-30404100D01*
G75*
G02*
X71462300Y-30658100I0J-254000D01*
G01*
X71462300Y-31801100D01*
G75*
G02*
X71208300Y-32055100I-254000J0D01*
G01*
X70471700Y-32055100D01*
G75*
G02*
X70217700Y-31801100I0J254000D01*
G01*
G37*
G36*
G01*
X68947700Y-30277100D02*
X68947700Y-29134100D01*
G75*
G02*
X69201700Y-28880100I254000J0D01*
G01*
X69938300Y-28880100D01*
G75*
G02*
X70192300Y-29134100I0J-254000D01*
G01*
X70192300Y-30277100D01*
G75*
G02*
X69938300Y-30531100I-254000J0D01*
G01*
X69201700Y-30531100D01*
G75*
G02*
X68947700Y-30277100I0J254000D01*
G01*
G37*
G36*
G01*
X68947700Y-31801100D02*
X68947700Y-30658100D01*
G75*
G02*
X69201700Y-30404100I254000J0D01*
G01*
X69938300Y-30404100D01*
G75*
G02*
X70192300Y-30658100I0J-254000D01*
G01*
X70192300Y-31801100D01*
G75*
G02*
X69938300Y-32055100I-254000J0D01*
G01*
X69201700Y-32055100D01*
G75*
G02*
X68947700Y-31801100I0J254000D01*
G01*
G37*
G36*
G01*
X67677700Y-30277100D02*
X67677700Y-29134100D01*
G75*
G02*
X67931700Y-28880100I254000J0D01*
G01*
X68668300Y-28880100D01*
G75*
G02*
X68922300Y-29134100I0J-254000D01*
G01*
X68922300Y-30277100D01*
G75*
G02*
X68668300Y-30531100I-254000J0D01*
G01*
X67931700Y-30531100D01*
G75*
G02*
X67677700Y-30277100I0J254000D01*
G01*
G37*
G36*
G01*
X67677700Y-31801100D02*
X67677700Y-30658100D01*
G75*
G02*
X67931700Y-30404100I254000J0D01*
G01*
X68668300Y-30404100D01*
G75*
G02*
X68922300Y-30658100I0J-254000D01*
G01*
X68922300Y-31801100D01*
G75*
G02*
X68668300Y-32055100I-254000J0D01*
G01*
X67931700Y-32055100D01*
G75*
G02*
X67677700Y-31801100I0J254000D01*
G01*
G37*
G36*
G01*
X66407700Y-30277100D02*
X66407700Y-29134100D01*
G75*
G02*
X66661700Y-28880100I254000J0D01*
G01*
X67398300Y-28880100D01*
G75*
G02*
X67652300Y-29134100I0J-254000D01*
G01*
X67652300Y-30277100D01*
G75*
G02*
X67398300Y-30531100I-254000J0D01*
G01*
X66661700Y-30531100D01*
G75*
G02*
X66407700Y-30277100I0J254000D01*
G01*
G37*
G36*
G01*
X66407700Y-31801100D02*
X66407700Y-30658100D01*
G75*
G02*
X66661700Y-30404100I254000J0D01*
G01*
X67398300Y-30404100D01*
G75*
G02*
X67652300Y-30658100I0J-254000D01*
G01*
X67652300Y-31801100D01*
G75*
G02*
X67398300Y-32055100I-254000J0D01*
G01*
X66661700Y-32055100D01*
G75*
G02*
X66407700Y-31801100I0J254000D01*
G01*
G37*
G36*
G01*
X65137700Y-30277100D02*
X65137700Y-29134100D01*
G75*
G02*
X65391700Y-28880100I254000J0D01*
G01*
X66128300Y-28880100D01*
G75*
G02*
X66382300Y-29134100I0J-254000D01*
G01*
X66382300Y-30277100D01*
G75*
G02*
X66128300Y-30531100I-254000J0D01*
G01*
X65391700Y-30531100D01*
G75*
G02*
X65137700Y-30277100I0J254000D01*
G01*
G37*
G36*
G01*
X65137700Y-31801100D02*
X65137700Y-30658100D01*
G75*
G02*
X65391700Y-30404100I254000J0D01*
G01*
X66128300Y-30404100D01*
G75*
G02*
X66382300Y-30658100I0J-254000D01*
G01*
X66382300Y-31801100D01*
G75*
G02*
X66128300Y-32055100I-254000J0D01*
G01*
X65391700Y-32055100D01*
G75*
G02*
X65137700Y-31801100I0J254000D01*
G01*
G37*
D13*
X98830800Y-24473200D03*
X63169200Y-24473200D03*
X98830800Y-26733800D03*
X63169200Y-26733800D03*
%TD*%
%TO.C,FB2*%
G36*
G01*
X102600000Y-99021000D02*
X103900000Y-99021000D01*
G75*
G02*
X104154000Y-99275000I0J-254000D01*
G01*
X104154000Y-99975000D01*
G75*
G02*
X103900000Y-100229000I-254000J0D01*
G01*
X102600000Y-100229000D01*
G75*
G02*
X102346000Y-99975000I0J254000D01*
G01*
X102346000Y-99275000D01*
G75*
G02*
X102600000Y-99021000I254000J0D01*
G01*
G37*
G36*
G01*
X102600000Y-100921000D02*
X103900000Y-100921000D01*
G75*
G02*
X104154000Y-101175000I0J-254000D01*
G01*
X104154000Y-101875000D01*
G75*
G02*
X103900000Y-102129000I-254000J0D01*
G01*
X102600000Y-102129000D01*
G75*
G02*
X102346000Y-101875000I0J254000D01*
G01*
X102346000Y-101175000D01*
G75*
G02*
X102600000Y-100921000I254000J0D01*
G01*
G37*
%TD*%
M02*
